<svg xmlns="http://www.w3.org/2000/svg" xmlns:xlink="http://www.w3.org/1999/xlink" width="75" zoomAndPan="magnify" viewBox="0 0 56.25 112.499998" height="150" preserveAspectRatio="xMidYMid meet" version="1.0"><defs><clipPath id="e8de3454bb"><path d="M 6.257812 44.5 L 49.183594 44.5 L 49.183594 62.261719 L 6.257812 62.261719 Z M 6.257812 44.5 " clip-rule="nonzero"/></clipPath></defs><g clip-path="url(#e8de3454bb)"><path fill="#00532f" d="M 9.878906 58.707031 L 9.878906 54.851562 L 14.800781 54.851562 C 15.355469 54.851562 15.835938 55.050781 16.199219 55.394531 C 16.5625 55.738281 16.777344 56.203125 16.777344 56.769531 C 16.777344 57.308594 16.5625 57.800781 16.199219 58.144531 C 15.835938 58.484375 15.355469 58.707031 14.800781 58.707031 Z M 9.878906 51.761719 L 9.878906 48.054688 L 14.003906 48.054688 C 14.535156 48.054688 14.992188 48.25 15.332031 48.570312 C 15.667969 48.890625 15.863281 49.355469 15.863281 49.894531 C 15.863281 50.433594 15.667969 50.902344 15.332031 51.21875 C 14.992188 51.5625 14.535156 51.761719 14.003906 51.761719 Z M 49.183594 53.378906 C 49.183594 53.136719 49.183594 52.890625 49.160156 52.644531 C 49.136719 52.398438 49.113281 52.152344 49.066406 51.90625 L 42.308594 51.90625 L 41.292969 53.550781 L 40.28125 55.195312 L 45.46875 55.195312 C 45.15625 56.253906 44.578125 57.183594 43.757812 57.847656 C 42.960938 58.511719 41.945312 58.878906 40.765625 58.878906 C 39.292969 58.878906 37.988281 58.265625 37.046875 57.257812 C 36.105469 56.253906 35.527344 54.878906 35.527344 53.378906 C 35.527344 51.90625 36.105469 50.558594 37.070312 49.550781 C 38.039062 48.570312 39.363281 47.957031 40.835938 47.957031 C 41.488281 47.957031 42.066406 48.054688 42.621094 48.25 C 43.175781 48.445312 43.660156 48.71875 44.117188 49.0625 L 45.011719 47.585938 L 45.929688 46.113281 C 45.226562 45.625 44.457031 45.230469 43.609375 44.960938 C 42.765625 44.691406 41.851562 44.542969 40.859375 44.542969 C 39.558594 44.542969 38.375 44.789062 37.335938 45.230469 C 36.300781 45.671875 35.382812 46.3125 34.609375 47.097656 C 32.777344 48.960938 32.246094 50.878906 31.882812 52.621094 C 31.523438 54.363281 31.304688 55.957031 30.050781 57.234375 C 29.519531 57.773438 28.941406 58.167969 28.3125 58.4375 C 27.683594 58.707031 27.007812 58.855469 26.261719 58.855469 C 24.742188 58.855469 23.390625 58.214844 22.402344 57.234375 C 21.410156 56.226562 20.808594 54.878906 20.808594 53.378906 C 20.808594 51.933594 21.410156 50.582031 22.402344 49.574219 C 23.390625 48.570312 24.742188 47.957031 26.261719 47.929688 C 26.890625 47.929688 27.492188 48.03125 28.023438 48.226562 C 28.554688 48.398438 29.0625 48.667969 29.496094 49.011719 L 30.410156 47.539062 L 31.328125 46.066406 C 30.628906 45.574219 29.855469 45.183594 29.011719 44.9375 C 28.144531 44.667969 27.226562 44.542969 26.261719 44.542969 C 24.765625 44.542969 23.367188 44.914062 22.136719 45.550781 C 20.90625 46.1875 19.867188 47.121094 19.09375 48.226562 C 18.78125 47.269531 18.152344 46.433594 17.285156 45.84375 C 16.390625 45.257812 15.28125 44.914062 14.050781 44.914062 L 6.257812 44.914062 L 6.257812 61.847656 L 14.847656 61.847656 C 15.933594 61.847656 16.898438 61.578125 17.695312 61.136719 C 18.492188 60.695312 19.144531 60.03125 19.578125 59.273438 C 20.375 60.15625 21.339844 60.890625 22.449219 61.40625 C 23.558594 61.921875 24.789062 62.191406 26.117188 62.191406 C 27.683594 62.191406 29.109375 61.824219 30.339844 61.160156 C 31.570312 60.5 32.609375 59.542969 33.402344 58.386719 C 34.175781 59.542969 35.214844 60.5 36.445312 61.160156 C 37.675781 61.824219 39.121094 62.191406 40.691406 62.191406 C 43.082031 62.191406 45.203125 61.210938 46.722656 59.589844 C 48.269531 58.019531 49.183594 55.8125 49.183594 53.378906 " fill-opacity="1" fill-rule="nonzero"/></g></svg>