<svg xmlns="http://www.w3.org/2000/svg" xmlns:xlink="http://www.w3.org/1999/xlink" width="130" zoomAndPan="magnify" viewBox="0 0 97.5 37.5" height="50" preserveAspectRatio="xMidYMid meet" version="1.0"><defs><clipPath id="5f72369499"><path d="M 14.207031 5.730469 L 77.117188 5.730469 L 77.117188 31.636719 L 14.207031 31.636719 Z M 14.207031 5.730469 " clip-rule="nonzero"/></clipPath></defs><g clip-path="url(#5f72369499)"><path fill="#00532f" d="M 19.511719 26.453125 L 19.511719 20.832031 L 26.722656 20.832031 C 27.539062 20.832031 28.246094 21.121094 28.773438 21.621094 C 29.304688 22.121094 29.625 22.800781 29.625 23.625 C 29.625 24.414062 29.304688 25.128906 28.773438 25.628906 C 28.246094 26.132812 27.539062 26.453125 26.722656 26.453125 Z M 19.511719 16.320312 L 19.511719 10.914062 L 25.558594 10.914062 C 26.335938 10.914062 27.007812 11.203125 27.5 11.667969 C 27.996094 12.132812 28.28125 12.8125 28.28125 13.601562 C 28.28125 14.386719 27.996094 15.070312 27.5 15.535156 C 27.007812 16.035156 26.335938 16.320312 25.558594 16.320312 Z M 77.117188 18.683594 C 77.117188 18.328125 77.117188 17.96875 77.082031 17.609375 C 77.046875 17.253906 77.011719 16.894531 76.941406 16.535156 L 67.039062 16.535156 L 65.554688 18.933594 L 64.066406 21.335938 L 71.671875 21.335938 C 71.210938 22.875 70.363281 24.234375 69.160156 25.199219 C 67.992188 26.167969 66.507812 26.703125 64.773438 26.703125 C 62.617188 26.703125 60.707031 25.808594 59.328125 24.339844 C 57.949219 22.875 57.101562 20.867188 57.101562 18.683594 C 57.101562 16.535156 57.949219 14.566406 59.363281 13.097656 C 60.777344 11.667969 62.722656 10.773438 64.882812 10.773438 C 65.835938 10.773438 66.683594 10.914062 67.496094 11.203125 C 68.3125 11.488281 69.019531 11.882812 69.691406 12.382812 L 71 10.234375 L 72.34375 8.085938 C 71.316406 7.371094 70.183594 6.796875 68.949219 6.402344 C 67.710938 6.011719 66.367188 5.796875 64.917969 5.796875 C 63.007812 5.796875 61.273438 6.152344 59.753906 6.796875 C 58.234375 7.441406 56.890625 8.375 55.757812 9.519531 C 53.070312 12.238281 52.292969 15.03125 51.761719 17.574219 C 51.230469 20.117188 50.914062 22.445312 49.074219 24.304688 C 48.296875 25.09375 47.445312 25.667969 46.527344 26.058594 C 45.609375 26.453125 44.617188 26.667969 43.519531 26.667969 C 41.292969 26.667969 39.3125 25.738281 37.863281 24.304688 C 36.414062 22.835938 35.53125 20.867188 35.53125 18.683594 C 35.53125 16.570312 36.414062 14.601562 37.863281 13.136719 C 39.3125 11.667969 41.292969 10.773438 43.519531 10.734375 C 44.441406 10.734375 45.324219 10.878906 46.101562 11.164062 C 46.882812 11.417969 47.625 11.808594 48.261719 12.3125 L 50.949219 8.015625 C 49.921875 7.300781 48.789062 6.726562 47.554688 6.367188 C 46.28125 5.972656 44.9375 5.796875 43.519531 5.796875 C 41.328125 5.796875 39.277344 6.332031 37.472656 7.261719 C 35.671875 8.195312 34.148438 9.554688 33.019531 11.164062 C 32.558594 9.769531 31.640625 8.550781 30.367188 7.691406 C 29.058594 6.832031 27.429688 6.332031 25.628906 6.332031 L 14.207031 6.332031 L 14.207031 31.035156 L 26.792969 31.035156 C 28.386719 31.035156 29.800781 30.644531 30.96875 30 C 32.132812 29.355469 33.089844 28.386719 33.726562 27.277344 C 34.894531 28.566406 36.308594 29.640625 37.933594 30.390625 C 39.5625 31.144531 41.363281 31.539062 43.308594 31.539062 C 45.609375 31.539062 47.695312 31 49.496094 30.035156 C 51.300781 29.066406 52.820312 27.671875 53.988281 25.988281 C 55.121094 27.671875 56.640625 29.066406 58.445312 30.035156 C 60.25 31 62.371094 31.539062 64.667969 31.539062 C 68.167969 31.539062 71.28125 30.105469 73.507812 27.742188 C 75.773438 25.453125 77.117188 22.230469 77.117188 18.683594 " fill-opacity="1" fill-rule="nonzero"/></g></svg>