<svg xmlns="http://www.w3.org/2000/svg" xmlns:xlink="http://www.w3.org/1999/xlink" width="130" zoomAndPan="magnify" viewBox="0 0 97.5 37.5" height="50" preserveAspectRatio="xMidYMid meet" version="1.0"><defs><clipPath id="009826e31c"><path d="M 6.203125 4.851562 L 89.097656 4.851562 L 89.097656 31 L 6.203125 31 Z M 6.203125 4.851562 " clip-rule="nonzero"/></clipPath><clipPath id="50cd9fb0d2"><path d="M 35 27 L 39 27 L 39 32.234375 L 35 32.234375 Z M 35 27 " clip-rule="nonzero"/></clipPath></defs><g clip-path="url(#009826e31c)"><path fill="#00a8e1" d="M 31.089844 11.136719 C 27.617188 9.679688 23.550781 11.460938 22.035156 15.078125 C 20.496094 18.746094 22.113281 22.796875 25.710938 24.304688 C 28.601562 25.515625 31.328125 24.882812 33.417969 22.621094 C 33.417969 22.621094 34.078125 21.945312 34.730469 20.589844 L 32.410156 20.589844 C 32.109375 21.03125 31.277344 21.722656 31.277344 21.722656 C 29.867188 22.847656 28.300781 23.105469 26.527344 22.359375 C 25.09375 21.761719 24 20.472656 23.730469 18.875 L 35.03125 18.839844 C 35.671875 15.28125 33.8125 12.277344 31.089844 11.136719 M 23.824219 16.800781 C 23.890625 16.515625 23.980469 16.238281 24.113281 15.921875 C 25.316406 13.050781 28.28125 12.246094 30.277344 13.078125 C 31.683594 13.667969 32.714844 15.097656 32.921875 16.789062 Z M 13.058594 10.542969 C 11.1875 10.542969 9.472656 11.4375 8.367188 12.832031 L 8.367188 4.851562 L 6.203125 4.851562 L 6.203125 17.625 C 6.203125 21.65625 9.183594 24.765625 13.035156 24.765625 C 16.773438 24.765625 19.832031 21.710938 19.832031 17.625 C 19.832031 13.570312 16.828125 10.542969 13.058594 10.542969 M 13.035156 22.710938 C 10.554688 22.710938 8.445312 20.441406 8.445312 17.625 C 8.445312 14.835938 10.527344 12.59375 13.035156 12.59375 C 15.535156 12.59375 17.59375 14.808594 17.59375 17.625 C 17.59375 20.496094 15.535156 22.710938 13.035156 22.710938 M 42.824219 10.542969 C 39.585938 10.542969 37.160156 12.777344 37.160156 16.203125 L 37.160156 24.449219 L 39.371094 24.449219 L 39.371094 16.125 C 39.371094 14.097656 40.71875 12.621094 42.824219 12.621094 C 44.90625 12.621094 46.253906 14.097656 46.253906 16.125 L 46.253906 24.449219 L 48.464844 24.449219 L 48.464844 16.203125 C 48.464844 12.777344 46.066406 10.542969 42.824219 10.542969 M 87.734375 10.621094 C 87.046875 10.621094 86.449219 11.140625 86.449219 11.886719 C 86.449219 12.628906 87.046875 13.148438 87.734375 13.148438 C 88.421875 13.148438 89.015625 12.628906 89.015625 11.886719 C 89.015625 11.140625 88.421875 10.621094 87.734375 10.621094 M 87.734375 12.925781 C 87.171875 12.925781 86.742188 12.480469 86.742188 11.886719 C 86.742188 11.292969 87.171875 10.84375 87.734375 10.84375 C 88.292969 10.84375 88.722656 11.292969 88.722656 11.886719 C 88.722656 12.480469 88.292969 12.925781 87.734375 12.925781 M 88.3125 11.578125 C 88.3125 11.28125 88.136719 11.164062 87.789062 11.164062 L 87.242188 11.164062 L 87.242188 12.605469 L 87.476562 12.605469 L 87.476562 11.984375 L 87.707031 11.984375 L 88.082031 12.605469 L 88.339844 12.605469 L 87.933594 11.972656 C 88.15625 11.949219 88.3125 11.839844 88.3125 11.578125 M 87.476562 11.789062 L 87.476562 11.359375 L 87.765625 11.359375 C 87.96875 11.359375 88.074219 11.421875 88.074219 11.558594 C 88.074219 11.722656 87.984375 11.789062 87.777344 11.789062 Z M 79.546875 10.542969 C 75.699219 10.542969 72.71875 13.757812 72.71875 17.707031 C 72.71875 21.605469 75.699219 24.789062 79.546875 24.789062 C 83.421875 24.789062 86.375 21.605469 86.375 17.707031 C 86.375 13.757812 83.421875 10.542969 79.546875 10.542969 M 79.546875 22.628906 C 77.042969 22.628906 74.988281 20.417969 74.988281 17.707031 C 74.988281 14.941406 77.042969 12.675781 79.546875 12.675781 C 82.078125 12.675781 84.132812 14.941406 84.132812 17.707031 C 84.132812 20.417969 82.078125 22.628906 79.546875 22.628906 M 64.367188 10.375 C 60.527344 10.375 57.40625 13.671875 57.40625 17.726562 C 57.40625 21.722656 60.527344 24.976562 64.367188 24.976562 C 66.234375 24.976562 67.9375 24.273438 69.195312 22.988281 L 69.195312 23.714844 C 69.195312 26.828125 67.375 28.765625 64.441406 28.765625 C 62.28125 28.765625 60.679688 27.722656 60.046875 25.910156 L 59.902344 25.496094 L 57.667969 25.496094 L 57.902344 26.289062 C 58.753906 29.1875 61.195312 30.921875 64.441406 30.921875 C 68.574219 30.921875 71.351562 28.023438 71.351562 23.714844 L 71.351562 17.726562 C 71.351562 13.535156 68.347656 10.375 64.367188 10.375 M 64.367188 22.824219 C 61.714844 22.824219 59.5625 20.539062 59.5625 17.726562 C 59.5625 14.871094 61.714844 12.550781 64.367188 12.550781 C 67.210938 12.550781 69.195312 14.679688 69.195312 17.726562 C 69.195312 20.679688 67.164062 22.824219 64.367188 22.824219 M 53.007812 19.5 L 53.007812 13.015625 L 56.089844 13.015625 L 56.089844 10.886719 L 53.007812 10.886719 L 53.007812 7.988281 L 50.792969 7.988281 L 50.792969 19.5 C 50.792969 22.945312 52.980469 24.816406 56.140625 24.449219 L 56.140625 22.394531 C 54.457031 22.5 53.007812 21.894531 53.007812 19.5 " fill-opacity="1" fill-rule="nonzero"/></g><path fill="#00a8e1" d="M 28.289062 30.488281 C 28.023438 30.757812 27.589844 30.914062 27.074219 30.914062 C 26.144531 30.914062 25.488281 30.507812 25.367188 29.757812 L 25.632812 29.757812 C 25.757812 30.351562 26.289062 30.664062 27.066406 30.664062 C 27.511719 30.664062 27.882812 30.523438 28.097656 30.300781 C 28.226562 30.164062 28.289062 29.988281 28.273438 29.792969 C 28.261719 29.34375 27.894531 29.113281 26.996094 28.988281 C 26.359375 28.894531 25.574219 28.785156 25.558594 28.058594 C 25.558594 27.558594 26.03125 27.058594 26.953125 27.058594 C 27.769531 27.058594 28.304688 27.421875 28.460938 28.085938 L 28.1875 28.085938 C 28.039062 27.59375 27.617188 27.308594 26.960938 27.308594 C 26.296875 27.308594 25.824219 27.628906 25.832031 28.058594 C 25.839844 28.480469 26.222656 28.613281 27.039062 28.730469 C 27.804688 28.84375 28.511719 29.042969 28.546875 29.785156 C 28.554688 30.042969 28.46875 30.300781 28.289062 30.488281 " fill-opacity="1" fill-rule="nonzero"/><path stroke-linecap="butt" transform="matrix(0.0702444, 0, 0, 0.070207, 6.204519, 4.85126)" fill="none" stroke-linejoin="miter" d="M 314.39558 365.16336 C 310.614142 369.002454 304.441501 371.228016 297.101063 371.228016 C 283.866031 371.228016 274.523656 365.441555 272.799765 354.758859 L 276.581203 354.758859 C 278.360703 363.215993 285.923578 367.667117 296.989845 367.667117 C 303.329314 367.667117 308.612204 365.664111 311.67072 362.492686 C 313.50583 360.545319 314.39558 358.041562 314.173142 355.25961 C 314.006314 348.86112 308.779033 345.578416 295.988876 343.797967 C 286.924547 342.46263 275.747062 340.904737 275.524625 330.555875 C 275.524625 323.434077 282.253359 316.312279 295.377173 316.312279 C 306.999532 316.312279 314.618017 321.48671 316.842392 330.945348 L 312.949736 330.945348 C 310.83658 323.934828 304.830767 319.873178 295.488391 319.873178 C 286.034797 319.873178 279.306062 324.43558 279.417281 330.555875 C 279.5285 336.564891 284.978219 338.456619 296.600579 340.12579 C 307.500017 341.739322 317.565314 344.576914 318.065799 355.148332 C 318.177017 358.820509 316.953611 362.492686 314.39558 365.16336 Z M 314.39558 365.16336 " stroke="#00a8e1" stroke-width="0.25" stroke-opacity="1" stroke-miterlimit="10"/><path stroke-linecap="butt" transform="matrix(0.0702444, 0, 0, 0.070207, 6.204519, 4.85126)" fill-opacity="1" fill="#00a8e1" fill-rule="nonzero" stroke-linejoin="miter" d="M 334.859831 351.921267 C 334.859831 360.879154 339.030534 366.943809 348.984612 366.554336 L 348.984612 370.003957 C 337.695909 371.061099 331.078393 363.605467 331.078393 351.921267 L 331.078393 321.375432 L 323.960393 321.375432 L 323.960393 317.647616 L 331.078393 317.647616 L 331.078393 306.464168 L 334.859831 306.464168 L 334.859831 317.647616 L 348.984612 317.647616 L 348.984612 321.375432 L 334.859831 321.375432 Z M 334.859831 351.921267 " stroke="#00a8e1" stroke-width="0.25" stroke-opacity="1" stroke-miterlimit="10"/><path stroke-linecap="butt" transform="matrix(0.0702444, 0, 0, 0.070207, 6.204519, 4.85126)" fill-opacity="1" fill="#00a8e1" fill-rule="nonzero" stroke-linejoin="miter" d="M 399.033052 370.003957 C 398.143302 368.112229 397.587208 365.664111 397.587208 362.381408 L 397.587208 361.379905 C 393.416505 367.277644 385.408755 370.949821 375.009801 370.949821 C 365.889863 370.949821 355.991394 366.33178 355.991394 356.261113 C 355.991394 344.409996 367.113269 341.628044 378.290754 340.626541 C 389.857505 339.513761 397.587208 338.289702 397.587208 331.891212 C 397.587208 322.210018 388.46727 319.984456 380.737567 319.984456 C 371.172754 319.984456 364.833285 323.934828 362.60891 331.056626 L 358.771863 331.056626 C 361.107457 321.709267 368.948379 316.312279 380.737567 316.312279 C 393.86138 316.312279 401.368646 321.987462 401.368646 331.891212 L 401.368646 361.491183 C 401.368646 364.106218 402.091568 368.000951 402.925709 370.003957 Z M 397.587208 339.013009 C 393.527724 342.740825 385.909239 343.464133 378.68002 344.076162 C 365.27816 345.411499 360.050879 348.972398 360.050879 356.205474 C 360.050879 364.829526 369.838129 367.166366 375.009801 367.166366 C 386.298505 367.166366 397.587208 362.103213 397.587208 350.975404 Z M 397.587208 339.013009 " stroke="#00a8e1" stroke-width="0.25" stroke-opacity="1" stroke-miterlimit="10"/><g clip-path="url(#50cd9fb0d2)"><path fill="#00a8e1" d="M 36.507812 31.363281 C 36.242188 32.066406 35.726562 32.328125 35.078125 32.207031 L 35.078125 31.957031 C 35.648438 32.042969 36.035156 31.863281 36.257812 31.273438 L 36.429688 30.820312 L 35.042969 27.152344 L 35.328125 27.152344 L 36.5625 30.449219 L 37.816406 27.152344 L 38.09375 27.152344 Z M 36.507812 31.363281 " fill-opacity="1" fill-rule="nonzero"/></g><path stroke-linecap="butt" transform="matrix(0.0702444, 0, 0, 0.070207, 6.204519, 4.85126)" fill-opacity="1" fill="#00a8e1" fill-rule="nonzero" stroke-linejoin="miter" d="M 499.852853 321.375432 L 499.852853 370.003957 L 495.960197 370.003957 L 495.960197 321.375432 L 488.842197 321.375432 L 488.842197 317.647616 L 495.960197 317.647616 L 495.960197 313.975439 C 495.960197 302.346879 502.577713 294.946886 513.866417 295.948389 L 513.866417 299.39801 C 504.023557 298.78598 499.852853 304.906275 499.852853 314.253635 L 499.852853 317.647616 L 513.866417 317.647616 L 513.866417 321.375432 Z M 499.852853 321.375432 " stroke="#00a8e1" stroke-width="0.25" stroke-opacity="1" stroke-miterlimit="10"/><path stroke-linecap="butt" transform="matrix(0.0702444, 0, 0, 0.070207, 6.204519, 4.85126)" fill-opacity="1" fill="#00a8e1" fill-rule="nonzero" stroke-linejoin="miter" d="M 548.288621 319.984456 C 541.337449 319.372427 536.054558 321.264154 532.829214 324.43558 C 529.047777 327.773922 526.99023 332.892714 526.99023 338.40098 L 526.99023 370.003957 L 523.153183 370.003957 L 523.153183 317.647616 L 526.99023 317.647616 L 526.99023 326.382946 C 527.935589 324.658136 529.047777 323.044604 530.49362 321.709267 C 535.053589 317.647616 541.170621 315.70025 548.288621 316.534835 Z M 548.288621 319.984456 " stroke="#00a8e1" stroke-width="0.25" stroke-opacity="1" stroke-miterlimit="10"/><path stroke-linecap="butt" transform="matrix(0.0702444, 0, 0, 0.070207, 6.204519, 4.85126)" fill-opacity="1" fill="#00a8e1" fill-rule="nonzero" stroke-linejoin="miter" d="M 554.183215 343.797967 C 554.294434 357.429533 564.415341 367.5002 577.149888 367.5002 C 589.49517 367.5002 595.056108 360.656597 597.614139 353.757356 L 601.562405 353.757356 C 597.892186 365.052082 589.49517 371.228016 577.149888 371.228016 C 562.190966 371.228016 550.401778 359.209982 550.401778 343.964884 C 550.401778 328.719786 562.079747 316.312279 576.538185 316.312279 C 592.220029 316.312279 602.89703 330.555875 602.674592 343.797967 Z M 598.615108 340.014512 C 596.779998 328.719786 587.548842 320.151373 576.538185 320.151373 C 565.471919 320.151373 556.296372 328.719786 554.572481 340.014512 Z M 598.615108 340.014512 " stroke="#00a8e1" stroke-width="0.25" stroke-opacity="1" stroke-miterlimit="10"/><path fill="#00a8e1" d="M 51.882812 30.488281 C 51.621094 30.757812 51.183594 30.914062 50.667969 30.914062 C 49.742188 30.914062 49.082031 30.507812 48.960938 29.757812 L 49.226562 29.757812 C 49.355469 30.351562 49.882812 30.664062 50.664062 30.664062 C 51.105469 30.664062 51.476562 30.523438 51.691406 30.300781 C 51.820312 30.164062 51.882812 29.988281 51.871094 29.792969 C 51.855469 29.34375 51.492188 29.113281 50.589844 28.988281 C 49.957031 28.894531 49.167969 28.785156 49.15625 28.058594 C 49.15625 27.558594 49.625 27.058594 50.546875 27.058594 C 51.363281 27.058594 51.898438 27.421875 52.054688 28.085938 L 51.785156 28.085938 C 51.632812 27.59375 51.210938 27.308594 50.554688 27.308594 C 49.890625 27.308594 49.417969 27.628906 49.425781 28.058594 C 49.433594 28.480469 49.820312 28.613281 50.632812 28.730469 C 51.398438 28.84375 52.105469 29.042969 52.140625 29.785156 C 52.148438 30.042969 52.0625 30.300781 51.882812 30.488281 " fill-opacity="1" fill-rule="nonzero"/><path stroke-linecap="butt" transform="matrix(0.0702444, 0, 0, 0.070207, 6.204519, 4.85126)" fill="none" stroke-linejoin="miter" d="M 650.276219 365.16336 C 646.550391 369.002454 640.322141 371.228016 632.981703 371.228016 C 619.802281 371.228016 610.404296 365.441555 608.680405 354.758859 L 612.461843 354.758859 C 614.296952 363.215993 621.804218 367.667117 632.926094 367.667117 C 639.209953 367.667117 644.492844 365.664111 647.55136 362.492686 C 649.386469 360.545319 650.276219 358.041562 650.109391 355.25961 C 649.886954 348.86112 644.715282 345.578416 631.869515 343.797967 C 622.860796 342.46263 611.627702 340.904737 611.460874 330.555875 C 611.460874 323.434077 618.133999 316.312279 631.257812 316.312279 C 642.880172 316.312279 650.498657 321.48671 652.723032 330.945348 L 648.885985 330.945348 C 646.717219 323.934828 640.711407 319.873178 631.369031 319.873178 C 621.915437 319.873178 615.186702 324.43558 615.297921 330.555875 C 615.40914 336.564891 620.914468 338.456619 632.481219 340.12579 C 643.380657 341.739322 653.445954 344.576914 653.946438 355.148332 C 654.057657 358.820509 652.834251 362.492686 650.276219 365.16336 Z M 650.276219 365.16336 " stroke="#00a8e1" stroke-width="0.25" stroke-opacity="1" stroke-miterlimit="10"/><path stroke-linecap="butt" transform="matrix(0.0702444, 0, 0, 0.070207, 6.204519, 4.85126)" fill-opacity="1" fill="#00a8e1" fill-rule="nonzero" stroke-linejoin="miter" d="M 710.334347 370.003957 L 706.552909 370.003957 L 706.552909 338.40098 C 706.552909 326.883698 700.324659 319.984456 688.869127 319.984456 C 678.303346 319.984456 670.017548 327.773922 670.017548 338.40098 L 670.017548 370.003957 L 666.29172 370.003957 L 666.29172 294.334857 L 670.017548 294.334857 L 670.017548 326.494224 C 673.798986 320.262651 680.63894 316.312279 688.980346 316.312279 C 702.382206 316.312279 710.334347 324.769414 710.334347 338.40098 Z M 710.334347 370.003957 " stroke="#00a8e1" stroke-width="0.25" stroke-opacity="1" stroke-miterlimit="10"/></svg>