<svg xmlns="http://www.w3.org/2000/svg" xmlns:xlink="http://www.w3.org/1999/xlink" width="75" zoomAndPan="magnify" viewBox="0 0 56.25 112.499998" height="150" preserveAspectRatio="xMidYMid meet" version="1.0"><defs><clipPath id="5b80fe4ae9"><path d="M 2.738281 52.125 L 53.066406 52.125 L 53.066406 68 L 2.738281 68 Z M 2.738281 52.125 " clip-rule="nonzero"/></clipPath><clipPath id="dd4d232d84"><path d="M 20 65 L 23 65 L 23 68.40625 L 20 68.40625 Z M 20 65 " clip-rule="nonzero"/></clipPath></defs><g clip-path="url(#5b80fe4ae9)"><path fill="#00a8e1" d="M 17.855469 55.859375 C 15.746094 54.996094 13.28125 56.054688 12.359375 58.207031 C 11.425781 60.386719 12.40625 62.792969 14.589844 63.691406 C 16.34375 64.410156 18 64.035156 19.265625 62.691406 C 19.265625 62.691406 19.667969 62.289062 20.066406 61.480469 L 18.65625 61.480469 C 18.472656 61.742188 17.96875 62.15625 17.96875 62.15625 C 17.113281 62.824219 16.160156 62.976562 15.085938 62.535156 C 14.214844 62.179688 13.554688 61.414062 13.390625 60.460938 L 20.246094 60.441406 C 20.632812 58.324219 19.507812 56.539062 17.855469 55.859375 M 13.445312 59.230469 C 13.488281 59.058594 13.539062 58.894531 13.621094 58.707031 C 14.351562 57 16.152344 56.519531 17.363281 57.015625 C 18.214844 57.367188 18.839844 58.214844 18.964844 59.222656 Z M 6.914062 55.507812 C 5.777344 55.507812 4.738281 56.039062 4.066406 56.871094 L 4.066406 52.125 L 2.753906 52.125 L 2.753906 59.71875 C 2.753906 62.117188 4.5625 63.964844 6.898438 63.964844 C 9.167969 63.964844 11.023438 62.148438 11.023438 59.71875 C 11.023438 57.308594 9.199219 55.507812 6.914062 55.507812 M 6.898438 62.742188 C 5.394531 62.742188 4.113281 61.394531 4.113281 59.71875 C 4.113281 58.0625 5.378906 56.726562 6.898438 56.726562 C 8.417969 56.726562 9.664062 58.042969 9.664062 59.71875 C 9.664062 61.425781 8.417969 62.742188 6.898438 62.742188 M 24.976562 55.507812 C 23.007812 55.507812 21.539062 56.835938 21.539062 58.875 L 21.539062 63.777344 L 22.878906 63.777344 L 22.878906 58.828125 C 22.878906 57.621094 23.695312 56.746094 24.976562 56.746094 C 26.238281 56.746094 27.054688 57.621094 27.054688 58.828125 L 27.054688 63.777344 L 28.398438 63.777344 L 28.398438 58.875 C 28.398438 56.835938 26.941406 55.507812 24.976562 55.507812 M 52.222656 55.554688 C 51.804688 55.554688 51.445312 55.863281 51.445312 56.304688 C 51.445312 56.75 51.804688 57.058594 52.222656 57.058594 C 52.640625 57.058594 53.003906 56.75 53.003906 56.304688 C 53.003906 55.863281 52.640625 55.554688 52.222656 55.554688 M 52.222656 56.925781 C 51.882812 56.925781 51.621094 56.660156 51.621094 56.304688 C 51.621094 55.953125 51.882812 55.6875 52.222656 55.6875 C 52.566406 55.6875 52.824219 55.953125 52.824219 56.304688 C 52.824219 56.660156 52.566406 56.925781 52.222656 56.925781 M 52.574219 56.125 C 52.574219 55.949219 52.46875 55.875 52.257812 55.875 L 51.925781 55.875 L 51.925781 56.734375 L 52.070312 56.734375 L 52.070312 56.363281 L 52.207031 56.363281 L 52.4375 56.734375 L 52.59375 56.734375 L 52.347656 56.359375 C 52.480469 56.34375 52.574219 56.277344 52.574219 56.125 M 52.070312 56.25 L 52.070312 55.992188 L 52.242188 55.992188 C 52.367188 55.992188 52.429688 56.03125 52.429688 56.113281 C 52.429688 56.210938 52.375 56.25 52.25 56.25 Z M 47.257812 55.507812 C 44.921875 55.507812 43.113281 57.417969 43.113281 59.769531 C 43.113281 62.085938 44.921875 63.980469 47.257812 63.980469 C 49.605469 63.980469 51.398438 62.085938 51.398438 59.769531 C 51.398438 57.417969 49.605469 55.507812 47.257812 55.507812 M 47.257812 62.695312 C 45.738281 62.695312 44.492188 61.378906 44.492188 59.769531 C 44.492188 58.121094 45.738281 56.777344 47.257812 56.777344 C 48.792969 56.777344 50.039062 58.121094 50.039062 59.769531 C 50.039062 61.378906 48.792969 62.695312 47.257812 62.695312 M 38.046875 55.40625 C 35.71875 55.40625 33.824219 57.367188 33.824219 59.777344 C 33.824219 62.15625 35.71875 64.089844 38.046875 64.089844 C 39.179688 64.089844 40.214844 63.671875 40.976562 62.910156 L 40.976562 63.339844 C 40.976562 65.191406 39.871094 66.34375 38.089844 66.34375 C 36.78125 66.34375 35.808594 65.722656 35.425781 64.644531 L 35.335938 64.398438 L 33.984375 64.398438 L 34.125 64.871094 C 34.640625 66.59375 36.121094 67.625 38.089844 67.625 C 40.597656 67.625 42.285156 65.902344 42.285156 63.339844 L 42.285156 59.777344 C 42.285156 57.285156 40.460938 55.40625 38.046875 55.40625 M 38.046875 62.8125 C 36.4375 62.8125 35.128906 61.449219 35.128906 59.777344 C 35.128906 58.082031 36.4375 56.703125 38.046875 56.703125 C 39.769531 56.703125 40.976562 57.96875 40.976562 59.777344 C 40.976562 61.535156 39.742188 62.8125 38.046875 62.8125 M 31.15625 60.832031 L 31.15625 56.980469 L 33.023438 56.980469 L 33.023438 55.710938 L 31.15625 55.710938 L 31.15625 53.988281 L 29.8125 53.988281 L 29.8125 60.832031 C 29.8125 62.882812 31.136719 63.996094 33.054688 63.777344 L 33.054688 62.554688 C 32.035156 62.617188 31.15625 62.257812 31.15625 60.832031 " fill-opacity="1" fill-rule="nonzero"/></g><path fill="#00a8e1" d="M 16.15625 67.367188 C 15.996094 67.527344 15.730469 67.621094 15.417969 67.621094 C 14.855469 67.621094 14.457031 67.378906 14.382812 66.933594 L 14.542969 66.933594 C 14.621094 67.285156 14.941406 67.472656 15.414062 67.472656 C 15.683594 67.472656 15.910156 67.386719 16.039062 67.257812 C 16.117188 67.175781 16.15625 67.070312 16.148438 66.953125 C 16.136719 66.6875 15.917969 66.550781 15.371094 66.476562 C 14.984375 66.417969 14.507812 66.355469 14.5 65.921875 C 14.5 65.625 14.785156 65.328125 15.34375 65.328125 C 15.839844 65.328125 16.164062 65.542969 16.257812 65.941406 L 16.09375 65.941406 C 16.003906 65.648438 15.746094 65.476562 15.347656 65.476562 C 14.945312 65.476562 14.660156 65.667969 14.664062 65.921875 C 14.667969 66.171875 14.902344 66.253906 15.398438 66.320312 C 15.859375 66.390625 16.289062 66.507812 16.3125 66.949219 C 16.316406 67.101562 16.265625 67.257812 16.15625 67.367188 " fill-opacity="1" fill-rule="nonzero"/><path stroke-linecap="butt" transform="matrix(0.0426219, 0, 0, 0.0417447, 2.755336, 52.124073)" fill="none" stroke-linejoin="miter" d="M 314.413486 365.150935 C 310.655885 368.9875 304.423767 371.233294 297.091863 371.233294 C 283.894437 371.233294 274.546259 365.431659 272.804932 354.764136 L 276.562533 354.764136 C 278.395509 363.185865 285.91071 367.677453 297.000215 367.677453 C 303.323982 367.677453 308.639612 365.618809 311.664022 362.530842 C 313.496998 360.565771 314.413486 358.039253 314.230189 355.23201 C 313.955242 348.868926 308.82291 345.59381 295.992078 343.815889 C 286.918847 342.412268 275.737694 340.915071 275.554396 330.528273 C 275.554396 323.416591 282.244758 316.304909 295.350536 316.304909 C 306.989934 316.304909 314.596784 321.451521 316.796355 330.996147 L 312.947105 330.996147 C 310.839183 323.978039 304.790362 319.86075 295.442185 319.86075 C 286.002359 319.86075 279.311997 324.445913 279.403645 330.528273 C 279.495294 336.517058 284.994222 338.482128 296.633619 340.072899 C 307.448178 341.757244 317.529545 344.564487 318.079438 355.138435 C 318.171087 358.787851 316.979653 362.530842 314.413486 365.150935 Z M 314.413486 365.150935 " stroke="#00a8e1" stroke-width="0.25" stroke-opacity="1" stroke-miterlimit="10"/><path stroke-linecap="butt" transform="matrix(0.0426219, 0, 0, 0.0417447, 2.755336, 52.124073)" fill-opacity="1" fill="#00a8e1" fill-rule="nonzero" stroke-linejoin="miter" d="M 334.851168 351.956893 C 334.851168 360.846496 338.975364 366.928855 348.965083 366.554556 L 348.965083 370.016822 C 337.692281 371.046145 331.093567 363.653739 331.093567 351.956893 L 331.093567 321.357946 L 323.944961 321.357946 L 323.944961 317.614956 L 331.093567 317.614956 L 331.093567 306.479559 L 334.851168 306.479559 L 334.851168 317.614956 L 348.965083 317.614956 L 348.965083 321.357946 L 334.851168 321.357946 Z M 334.851168 351.956893 " stroke="#00a8e1" stroke-width="0.25" stroke-opacity="1" stroke-miterlimit="10"/><path stroke-linecap="butt" transform="matrix(0.0426219, 0, 0, 0.0417447, 2.755336, 52.124073)" fill-opacity="1" fill="#00a8e1" fill-rule="nonzero" stroke-linejoin="miter" d="M 399.005327 370.016822 C 398.088839 368.051752 397.630595 365.618809 397.630595 362.343692 L 397.630595 361.407944 C 393.41475 367.303154 385.441304 370.95257 374.993342 370.95257 C 365.828462 370.95257 356.02204 366.367407 356.02204 356.261332 C 356.02204 344.377338 367.111545 341.663669 378.292698 340.634347 C 389.840447 339.51145 397.630595 338.294978 397.630595 331.838319 C 397.630595 322.200119 388.465715 319.954325 380.767216 319.954325 C 371.144092 319.954325 364.820325 323.978039 362.620754 331.089721 L 358.771504 331.089721 C 361.062724 321.732245 368.944521 316.304909 380.767216 316.304909 C 393.872994 316.304909 401.388195 322.012969 401.388195 331.838319 L 401.388195 361.501519 C 401.388195 364.121612 402.121386 367.958178 402.854576 370.016822 Z M 397.630595 338.950001 C 393.506399 342.786567 385.899548 343.44159 378.659293 344.096613 C 365.278569 345.40666 360.054587 348.962501 360.054587 356.167758 C 360.054587 364.870211 369.861009 367.20958 374.993342 367.20958 C 386.357792 367.20958 397.630595 362.062968 397.630595 351.021146 Z M 397.630595 338.950001 " stroke="#00a8e1" stroke-width="0.25" stroke-opacity="1" stroke-miterlimit="10"/><g clip-path="url(#dd4d232d84)"><path fill="#00a8e1" d="M 21.140625 67.890625 C 20.980469 68.304688 20.667969 68.460938 20.273438 68.390625 L 20.273438 68.242188 C 20.621094 68.292969 20.855469 68.1875 20.988281 67.832031 L 21.09375 67.566406 L 20.253906 65.382812 L 20.425781 65.382812 L 21.175781 67.34375 L 21.933594 65.382812 L 22.105469 65.382812 Z M 21.140625 67.890625 " fill-opacity="1" fill-rule="nonzero"/></g><path stroke-linecap="butt" transform="matrix(0.0426219, 0, 0, 0.0417447, 2.755336, 52.124073)" fill-opacity="1" fill="#00a8e1" fill-rule="nonzero" stroke-linejoin="miter" d="M 499.819004 321.357946 L 499.819004 370.016822 L 495.969755 370.016822 L 495.969755 321.357946 L 488.821148 321.357946 L 488.821148 317.614956 L 495.969755 317.614956 L 495.969755 313.96554 C 495.969755 302.362269 502.568468 294.969863 513.84127 295.999185 L 513.84127 299.461452 C 504.034849 298.806428 499.819004 304.888788 499.819004 314.246264 L 499.819004 317.614956 L 513.84127 317.614956 L 513.84127 321.357946 Z M 499.819004 321.357946 " stroke="#00a8e1" stroke-width="0.25" stroke-opacity="1" stroke-miterlimit="10"/><path stroke-linecap="butt" transform="matrix(0.0426219, 0, 0, 0.0417447, 2.755336, 52.124073)" fill-opacity="1" fill="#00a8e1" fill-rule="nonzero" stroke-linejoin="miter" d="M 548.301218 319.954325 C 541.335909 319.392876 536.020279 321.264371 532.812571 324.445913 C 529.054971 327.814605 527.038697 332.867642 527.038697 338.388553 L 527.038697 370.016822 L 523.097799 370.016822 L 523.097799 317.614956 L 527.038697 317.614956 L 527.038697 326.410983 C 527.955185 324.633063 529.054971 323.042292 530.429703 321.732245 C 535.012142 317.614956 541.152612 315.649886 548.301218 316.492058 Z M 548.301218 319.954325 " stroke="#00a8e1" stroke-width="0.25" stroke-opacity="1" stroke-miterlimit="10"/><path stroke-linecap="butt" transform="matrix(0.0426219, 0, 0, 0.0417447, 2.755336, 52.124073)" fill-opacity="1" fill="#00a8e1" fill-rule="nonzero" stroke-linejoin="miter" d="M 554.166741 343.815889 C 554.25839 357.38423 564.431407 367.490304 577.170589 367.490304 C 589.451528 367.490304 595.042105 360.659346 597.608271 353.734814 L 601.54917 353.734814 C 597.883218 365.05736 589.451528 371.233294 577.170589 371.233294 C 562.231835 371.233294 550.40914 359.255725 550.40914 344.003039 C 550.40914 328.750352 562.140187 316.304909 576.529048 316.304909 C 592.200992 316.304909 602.923902 330.528273 602.648955 343.815889 Z M 598.616408 339.979324 C 596.783432 328.750352 587.526904 320.141474 576.529048 320.141474 C 565.439543 320.141474 556.274664 328.750352 554.533336 339.979324 Z M 598.616408 339.979324 " stroke="#00a8e1" stroke-width="0.25" stroke-opacity="1" stroke-miterlimit="10"/><path fill="#00a8e1" d="M 30.472656 67.367188 C 30.3125 67.527344 30.046875 67.621094 29.734375 67.621094 C 29.171875 67.621094 28.773438 67.378906 28.699219 66.933594 L 28.859375 66.933594 C 28.9375 67.285156 29.257812 67.472656 29.730469 67.472656 C 30 67.472656 30.226562 67.386719 30.355469 67.257812 C 30.433594 67.175781 30.472656 67.070312 30.464844 66.953125 C 30.457031 66.6875 30.234375 66.550781 29.6875 66.476562 C 29.300781 66.417969 28.824219 66.355469 28.816406 65.921875 C 28.816406 65.625 29.101562 65.328125 29.660156 65.328125 C 30.15625 65.328125 30.480469 65.542969 30.578125 65.941406 L 30.410156 65.941406 C 30.320312 65.648438 30.066406 65.476562 29.667969 65.476562 C 29.261719 65.476562 28.976562 65.667969 28.980469 65.921875 C 28.984375 66.171875 29.21875 66.253906 29.714844 66.320312 C 30.175781 66.390625 30.605469 66.507812 30.628906 66.949219 C 30.632812 67.101562 30.582031 67.257812 30.472656 67.367188 " fill-opacity="1" fill-rule="nonzero"/><path stroke-linecap="butt" transform="matrix(0.0426219, 0, 0, 0.0417447, 2.755336, 52.124073)" fill="none" stroke-linejoin="miter" d="M 650.30633 365.150935 C 646.548729 368.9875 640.316611 371.233294 632.984707 371.233294 C 619.78728 371.233294 610.439103 365.431659 608.697776 354.764136 L 612.455377 354.764136 C 614.288353 363.185865 621.803554 367.677453 632.893058 367.677453 C 639.216826 367.677453 644.532456 365.618809 647.556866 362.530842 C 649.389842 360.565771 650.30633 358.039253 650.123032 355.23201 C 649.939735 348.868926 644.715753 345.59381 631.884922 343.815889 C 622.811691 342.412268 611.630537 340.915071 611.44724 330.528273 C 611.44724 323.416591 618.137602 316.304909 631.24338 316.304909 C 642.882777 316.304909 650.489628 321.451521 652.780848 330.996147 L 648.839949 330.996147 C 646.732027 323.978039 640.774855 319.86075 631.426678 319.86075 C 621.895203 319.86075 615.20484 324.445913 615.296489 330.528273 C 615.388138 336.517058 620.887066 338.482128 632.526463 340.072899 C 643.341021 341.757244 653.422389 344.564487 653.972282 355.138435 C 654.063931 358.787851 652.872496 362.530842 650.30633 365.150935 Z M 650.30633 365.150935 " stroke="#00a8e1" stroke-width="0.25" stroke-opacity="1" stroke-miterlimit="10"/><path stroke-linecap="butt" transform="matrix(0.0426219, 0, 0, 0.0417447, 2.755336, 52.124073)" fill-opacity="1" fill="#00a8e1" fill-rule="nonzero" stroke-linejoin="miter" d="M 710.336293 370.016822 L 706.578692 370.016822 L 706.578692 338.388553 C 706.578692 326.878857 700.346574 319.954325 688.890474 319.954325 C 678.259213 319.954325 670.010822 327.814605 670.010822 338.388553 L 670.010822 370.016822 L 666.253221 370.016822 L 666.253221 294.31484 L 670.010822 294.31484 L 670.010822 326.504558 C 673.768422 320.235049 680.642082 316.304909 688.982123 316.304909 C 702.362847 316.304909 710.336293 324.726637 710.336293 338.388553 Z M 710.336293 370.016822 " stroke="#00a8e1" stroke-width="0.25" stroke-opacity="1" stroke-miterlimit="10"/></svg>