<svg xmlns="http://www.w3.org/2000/svg" xmlns:xlink="http://www.w3.org/1999/xlink" width="75" zoomAndPan="magnify" viewBox="0 0 56.25 112.499998" height="150" preserveAspectRatio="xMidYMid meet" version="1.0"><defs><clipPath id="0bedc093f2"><path d="M 49 57 L 50.699219 57 L 50.699219 58.652344 L 49 58.652344 Z M 49 57 " clip-rule="nonzero"/></clipPath><clipPath id="a3b2fde299"><path d="M 5.550781 49 L 11 49 L 11 57 L 5.550781 57 Z M 5.550781 49 " clip-rule="nonzero"/></clipPath><clipPath id="3d098a8366"><path d="M 37 47.550781 L 49 47.550781 L 49 58.652344 L 37 58.652344 Z M 37 47.550781 " clip-rule="nonzero"/></clipPath><clipPath id="3fe6a9645d"><path d="M 49 57 L 50.699219 57 L 50.699219 58.652344 L 49 58.652344 Z M 49 57 " clip-rule="nonzero"/></clipPath></defs><g clip-path="url(#0bedc093f2)"><path fill="#000000" d="M 49.988281 57.9375 C 50.046875 57.9375 50.097656 57.917969 50.136719 57.875 C 50.179688 57.832031 50.195312 57.78125 50.191406 57.722656 C 50.191406 57.566406 50.101562 57.496094 49.914062 57.496094 L 49.613281 57.496094 L 49.613281 58.296875 L 49.726562 58.296875 L 49.726562 57.945312 L 49.867188 57.945312 L 49.867188 57.949219 L 50.085938 58.296875 L 50.207031 58.296875 L 49.972656 57.9375 Z M 49.859375 57.855469 L 49.726562 57.855469 L 49.726562 57.585938 L 49.894531 57.585938 C 49.980469 57.585938 50.078125 57.601562 50.078125 57.714844 C 50.078125 57.847656 49.980469 57.855469 49.859375 57.855469 " fill-opacity="1" fill-rule="nonzero"/></g><g clip-path="url(#a3b2fde299)"><path fill="#000000" d="M 5.628906 49.179688 L 7.308594 49.179688 L 7.308594 55.367188 L 10.421875 55.367188 L 10.421875 56.933594 L 5.628906 56.933594 Z M 5.628906 49.179688 " fill-opacity="1" fill-rule="nonzero"/></g><path fill="#000000" d="M 11.164062 51.675781 L 12.777344 51.675781 L 12.777344 56.929688 L 11.164062 56.929688 Z M 11.972656 49.066406 C 12.230469 49.066406 12.449219 49.15625 12.632812 49.34375 C 12.816406 49.527344 12.90625 49.75 12.90625 50.011719 C 12.90625 50.273438 12.816406 50.496094 12.632812 50.679688 C 12.449219 50.867188 12.230469 50.957031 11.96875 50.957031 C 11.710938 50.957031 11.492188 50.867188 11.308594 50.679688 C 11.125 50.496094 11.035156 50.273438 11.035156 50.011719 C 11.035156 49.75 11.125 49.527344 11.308594 49.34375 C 11.492188 49.15625 11.710938 49.066406 11.972656 49.066406 " fill-opacity="1" fill-rule="nonzero"/><path fill="#000000" d="M 19.53125 49.179688 L 21.148438 49.179688 L 21.148438 53.8125 L 22.976562 51.675781 L 24.957031 51.675781 L 22.839844 54.105469 L 24.914062 56.933594 L 22.882812 56.933594 L 21.167969 54.335938 L 21.148438 54.335938 L 21.148438 56.933594 L 19.53125 56.933594 Z M 19.53125 49.179688 " fill-opacity="1" fill-rule="nonzero"/><path fill="#000000" d="M 13.671875 51.675781 L 15.222656 51.675781 L 15.222656 52.394531 L 15.246094 52.394531 C 15.402344 52.121094 15.621094 51.910156 15.894531 51.757812 C 16.167969 51.605469 16.460938 51.535156 16.773438 51.546875 C 18.414062 51.546875 18.714844 52.636719 18.714844 54.050781 L 18.714844 56.929688 L 17.097656 56.929688 L 17.097656 54.375 C 17.097656 53.765625 17.089844 52.984375 16.257812 52.984375 C 15.417969 52.984375 15.289062 53.648438 15.289062 54.332031 L 15.289062 56.929688 L 13.675781 56.929688 Z M 13.671875 51.675781 " fill-opacity="1" fill-rule="nonzero"/><path fill="#000000" d="M 28.359375 53.691406 C 28.359375 53.558594 28.335938 53.429688 28.289062 53.304688 C 28.238281 53.183594 28.167969 53.074219 28.074219 52.976562 C 27.980469 52.882812 27.871094 52.8125 27.75 52.761719 C 27.625 52.710938 27.5 52.6875 27.367188 52.691406 C 27.226562 52.683594 27.085938 52.703125 26.953125 52.746094 C 26.820312 52.792969 26.699219 52.863281 26.59375 52.957031 C 26.488281 53.050781 26.402344 53.160156 26.335938 53.289062 C 26.273438 53.414062 26.238281 53.550781 26.226562 53.691406 Z M 29.726562 56.019531 C 29.152344 56.722656 28.417969 57.070312 27.515625 57.066406 C 25.902344 57.066406 24.609375 55.976562 24.609375 54.292969 C 24.609375 52.605469 25.902344 51.515625 27.515625 51.515625 C 29.027344 51.515625 29.972656 52.605469 29.972656 54.292969 L 29.972656 54.804688 L 26.226562 54.804688 C 26.273438 55.101562 26.414062 55.351562 26.644531 55.542969 C 26.875 55.738281 27.140625 55.832031 27.441406 55.824219 C 27.941406 55.824219 28.324219 55.609375 28.59375 55.183594 Z M 29.726562 56.019531 " fill-opacity="1" fill-rule="nonzero"/><path fill="#000000" d="M 33.339844 52.945312 C 32.53125 52.945312 32.046875 53.492188 32.046875 54.285156 C 32.046875 55.078125 32.53125 55.625 33.339844 55.625 C 34.144531 55.625 34.632812 55.082031 34.632812 54.285156 C 34.632812 53.492188 34.148438 52.945312 33.339844 52.945312 M 36.117188 56.929688 L 34.632812 56.929688 L 34.632812 56.234375 L 34.609375 56.234375 C 34.210938 56.777344 33.675781 57.050781 33.003906 57.0625 C 31.453125 57.0625 30.429688 55.929688 30.429688 54.328125 C 30.429688 52.859375 31.335938 51.511719 32.820312 51.511719 C 33.492188 51.511719 34.113281 51.695312 34.480469 52.207031 L 34.503906 52.207031 L 34.503906 49.179688 L 36.117188 49.179688 Z M 36.117188 56.929688 " fill-opacity="1" fill-rule="nonzero"/><g clip-path="url(#3d098a8366)"><path fill="#000000" d="M 47.019531 56.933594 L 45.40625 56.933594 L 45.40625 54.378906 C 45.40625 53.769531 45.394531 52.984375 44.566406 52.984375 C 43.722656 52.984375 43.59375 53.648438 43.59375 54.332031 L 43.59375 56.933594 L 41.980469 56.933594 L 41.980469 51.679688 L 43.53125 51.679688 L 43.53125 52.398438 L 43.550781 52.398438 C 43.710938 52.125 43.925781 51.910156 44.199219 51.757812 C 44.476562 51.605469 44.769531 51.535156 45.082031 51.546875 C 46.71875 51.546875 47.019531 52.636719 47.019531 54.050781 Z M 40.160156 50.960938 C 39.898438 50.960938 39.679688 50.867188 39.496094 50.683594 C 39.3125 50.5 39.222656 50.277344 39.222656 50.015625 C 39.222656 49.753906 39.3125 49.53125 39.496094 49.34375 C 39.679688 49.160156 39.898438 49.066406 40.15625 49.066406 C 40.417969 49.066406 40.636719 49.160156 40.820312 49.34375 C 41.003906 49.53125 41.09375 49.753906 41.09375 50.015625 C 41.09375 50.273438 41.003906 50.5 40.820312 50.683594 C 40.636719 50.867188 40.417969 50.960938 40.160156 50.960938 M 40.964844 56.933594 L 39.347656 56.933594 L 39.347656 51.679688 L 40.964844 51.679688 Z M 47.824219 47.550781 L 38.539062 47.550781 C 38.320312 47.550781 38.128906 47.625 37.972656 47.78125 C 37.816406 47.9375 37.738281 48.125 37.734375 48.347656 L 37.734375 57.765625 C 37.738281 57.988281 37.816406 58.179688 37.972656 58.332031 C 38.128906 58.488281 38.320312 58.5625 38.539062 58.5625 L 47.824219 58.5625 C 48.042969 58.566406 48.234375 58.488281 48.390625 58.332031 C 48.546875 58.179688 48.628906 57.988281 48.632812 57.765625 L 48.632812 48.34375 C 48.628906 48.121094 48.546875 47.933594 48.390625 47.78125 C 48.234375 47.625 48.042969 47.546875 47.824219 47.550781 " fill-opacity="1" fill-rule="nonzero"/></g><g clip-path="url(#3fe6a9645d)"><path fill="#000000" d="M 49.871094 57.136719 C 49.738281 57.140625 49.617188 57.175781 49.503906 57.242188 C 49.386719 57.308594 49.296875 57.402344 49.234375 57.519531 C 49.167969 57.632812 49.136719 57.757812 49.136719 57.894531 C 49.136719 58.027344 49.171875 58.152344 49.238281 58.265625 C 49.304688 58.382812 49.394531 58.472656 49.507812 58.539062 C 49.625 58.605469 49.746094 58.640625 49.878906 58.640625 C 50.011719 58.640625 50.136719 58.605469 50.25 58.539062 C 50.363281 58.472656 50.453125 58.382812 50.519531 58.265625 C 50.589844 58.152344 50.621094 58.027344 50.621094 57.894531 C 50.621094 57.757812 50.589844 57.632812 50.523438 57.519531 C 50.460938 57.402344 50.371094 57.308594 50.253906 57.242188 C 50.140625 57.175781 50.019531 57.140625 49.886719 57.136719 L 49.871094 57.136719 M 49.871094 58.554688 C 49.691406 58.558594 49.539062 58.496094 49.40625 58.367188 C 49.277344 58.242188 49.210938 58.089844 49.210938 57.90625 C 49.207031 57.726562 49.269531 57.570312 49.394531 57.4375 C 49.519531 57.308594 49.671875 57.242188 49.851562 57.238281 C 50.03125 57.234375 50.183594 57.296875 50.3125 57.421875 C 50.445312 57.550781 50.507812 57.703125 50.511719 57.886719 C 50.511719 57.886719 50.511719 57.890625 50.511719 57.894531 C 50.515625 58.074219 50.457031 58.226562 50.335938 58.355469 C 50.214844 58.484375 50.066406 58.550781 49.890625 58.554688 L 49.871094 58.554688 " fill-opacity="1" fill-rule="nonzero"/></g></svg>