<svg xmlns="http://www.w3.org/2000/svg" xmlns:xlink="http://www.w3.org/1999/xlink" width="130" zoomAndPan="magnify" viewBox="0 0 97.5 37.5" height="50" preserveAspectRatio="xMidYMid meet" version="1.0"><defs><clipPath id="bd5eaac898"><path d="M 88 25 L 90 25 L 90 27.957031 L 88 27.957031 Z M 88 25 " clip-rule="nonzero"/></clipPath><clipPath id="51f96b0a00"><path d="M 6.320312 10 L 16 10 L 16 25 L 6.320312 25 Z M 6.320312 10 " clip-rule="nonzero"/></clipPath><clipPath id="fd8ae0333b"><path d="M 66 7.234375 L 87 7.234375 L 87 27.957031 L 66 27.957031 Z M 66 7.234375 " clip-rule="nonzero"/></clipPath><clipPath id="133d5f5776"><path d="M 87 25 L 90.695312 25 L 90.695312 27.957031 L 87 27.957031 Z M 87 25 " clip-rule="nonzero"/></clipPath></defs><g clip-path="url(#bd5eaac898)"><path fill="#000000" d="M 89.359375 26.617188 C 89.46875 26.621094 89.5625 26.582031 89.636719 26.5 C 89.710938 26.421875 89.746094 26.328125 89.742188 26.214844 C 89.742188 25.929688 89.570312 25.792969 89.21875 25.792969 L 88.65625 25.792969 L 88.65625 27.289062 L 88.867188 27.289062 L 88.867188 26.636719 L 89.128906 26.636719 L 89.132812 26.644531 L 89.539062 27.289062 L 89.769531 27.289062 L 89.332031 26.625 Z M 89.113281 26.46875 L 88.867188 26.46875 L 88.867188 25.964844 L 89.179688 25.964844 C 89.34375 25.964844 89.527344 25.992188 89.527344 26.203125 C 89.527344 26.449219 89.339844 26.46875 89.113281 26.46875 " fill-opacity="1" fill-rule="nonzero"/></g><g clip-path="url(#51f96b0a00)"><path fill="#000000" d="M 6.472656 10.273438 L 9.613281 10.273438 L 9.613281 21.820312 L 15.429688 21.820312 L 15.429688 24.746094 L 6.472656 24.746094 Z M 6.472656 10.273438 " fill-opacity="1" fill-rule="nonzero"/></g><path fill="#000000" d="M 16.816406 14.933594 L 19.835938 14.933594 L 19.835938 24.742188 L 16.816406 24.742188 Z M 18.324219 10.058594 C 18.558594 10.058594 18.78125 10.101562 18.996094 10.191406 C 19.210938 10.28125 19.398438 10.410156 19.5625 10.574219 C 19.726562 10.742188 19.851562 10.933594 19.941406 11.148438 C 20.03125 11.367188 20.074219 11.589844 20.074219 11.824219 C 20.074219 12.058594 20.03125 12.285156 19.941406 12.5 C 19.851562 12.71875 19.726562 12.910156 19.5625 13.074219 C 19.398438 13.238281 19.210938 13.367188 18.996094 13.457031 C 18.78125 13.546875 18.558594 13.59375 18.324219 13.59375 C 18.09375 13.59375 17.871094 13.546875 17.65625 13.457031 C 17.441406 13.367188 17.25 13.238281 17.085938 13.074219 C 16.921875 12.910156 16.796875 12.71875 16.707031 12.5 C 16.621094 12.285156 16.574219 12.058594 16.574219 11.824219 C 16.574219 11.589844 16.621094 11.367188 16.707031 11.148438 C 16.796875 10.933594 16.921875 10.742188 17.085938 10.574219 C 17.25 10.410156 17.441406 10.28125 17.65625 10.191406 C 17.871094 10.101562 18.09375 10.058594 18.324219 10.058594 " fill-opacity="1" fill-rule="nonzero"/><path fill="#000000" d="M 32.453125 10.273438 L 35.472656 10.273438 L 35.472656 18.921875 L 38.890625 14.929688 L 42.589844 14.929688 L 38.628906 19.46875 L 42.507812 24.746094 L 38.714844 24.746094 L 35.511719 19.898438 L 35.472656 19.898438 L 35.472656 24.746094 L 32.453125 24.746094 Z M 32.453125 10.273438 " fill-opacity="1" fill-rule="nonzero"/><path fill="#000000" d="M 21.507812 14.933594 L 24.402344 14.933594 L 24.402344 16.277344 L 24.445312 16.277344 C 24.738281 15.765625 25.144531 15.367188 25.65625 15.085938 C 26.167969 14.800781 26.71875 14.667969 27.300781 14.691406 C 30.363281 14.691406 30.925781 16.722656 30.925781 19.363281 L 30.925781 24.742188 L 27.90625 24.742188 L 27.90625 19.972656 C 27.90625 18.835938 27.886719 17.371094 26.335938 17.371094 C 24.769531 17.371094 24.527344 18.609375 24.527344 19.890625 L 24.527344 24.738281 L 21.507812 24.738281 Z M 21.507812 14.933594 " fill-opacity="1" fill-rule="nonzero"/><path fill="#000000" d="M 48.941406 18.699219 C 48.949219 18.449219 48.90625 18.207031 48.8125 17.976562 C 48.722656 17.742188 48.589844 17.539062 48.414062 17.363281 C 48.238281 17.1875 48.035156 17.050781 47.804688 16.957031 C 47.578125 16.867188 47.339844 16.824219 47.089844 16.828125 C 46.828125 16.8125 46.570312 16.847656 46.320312 16.933594 C 46.070312 17.019531 45.84375 17.148438 45.644531 17.324219 C 45.445312 17.496094 45.289062 17.703125 45.167969 17.941406 C 45.050781 18.179688 44.980469 18.433594 44.957031 18.699219 Z M 51.5 23.042969 C 50.992188 23.664062 50.375 24.144531 49.652344 24.488281 C 48.929688 24.828125 48.171875 25 47.375 24.996094 C 44.355469 24.996094 41.941406 22.960938 41.941406 19.8125 C 41.941406 16.667969 44.355469 14.632812 47.375 14.632812 C 50.191406 14.632812 51.960938 16.664062 51.960938 19.8125 L 51.960938 20.769531 L 44.957031 20.769531 C 45.003906 21.039062 45.089844 21.292969 45.226562 21.53125 C 45.359375 21.769531 45.53125 21.976562 45.742188 22.152344 C 45.949219 22.328125 46.183594 22.460938 46.441406 22.550781 C 46.695312 22.640625 46.960938 22.683594 47.234375 22.679688 C 47.667969 22.675781 48.078125 22.566406 48.460938 22.355469 C 48.84375 22.144531 49.152344 21.851562 49.386719 21.480469 Z M 51.5 23.042969 " fill-opacity="1" fill-rule="nonzero"/><path fill="#000000" d="M 58.25 17.304688 C 56.742188 17.304688 55.835938 18.320312 55.835938 19.804688 C 55.835938 21.285156 56.742188 22.300781 58.25 22.300781 C 59.757812 22.300781 60.664062 21.289062 60.664062 19.804688 C 60.664062 18.320312 59.761719 17.304688 58.25 17.304688 M 63.441406 24.738281 L 60.664062 24.738281 L 60.664062 23.4375 L 60.625 23.4375 C 60.269531 23.917969 59.832031 24.292969 59.304688 24.566406 C 58.777344 24.835938 58.21875 24.976562 57.625 24.984375 C 54.726562 24.984375 52.816406 22.871094 52.816406 19.886719 C 52.816406 17.144531 54.507812 14.625 57.285156 14.625 C 58.53125 14.625 59.699219 14.96875 60.382812 15.925781 L 60.421875 15.925781 L 60.421875 10.269531 L 63.441406 10.269531 Z M 63.441406 24.738281 " fill-opacity="1" fill-rule="nonzero"/><g clip-path="url(#fd8ae0333b)"><path fill="#000000" d="M 83.8125 24.746094 L 80.792969 24.746094 L 80.792969 19.976562 C 80.792969 18.839844 80.773438 17.375 79.222656 17.375 C 77.652344 17.375 77.414062 18.613281 77.414062 19.894531 L 77.414062 24.746094 L 74.394531 24.746094 L 74.394531 14.9375 L 77.292969 14.9375 L 77.292969 16.277344 L 77.332031 16.277344 C 77.628906 15.769531 78.03125 15.371094 78.542969 15.085938 C 79.058594 14.804688 79.605469 14.671875 80.191406 14.695312 C 83.25 14.695312 83.8125 16.722656 83.8125 19.367188 Z M 70.992188 13.597656 C 70.757812 13.597656 70.535156 13.550781 70.320312 13.460938 C 70.105469 13.375 69.917969 13.246094 69.753906 13.078125 C 69.589844 12.914062 69.460938 12.722656 69.375 12.507812 C 69.285156 12.289062 69.242188 12.066406 69.242188 11.832031 C 69.242188 11.597656 69.285156 11.371094 69.375 11.152344 C 69.460938 10.9375 69.589844 10.746094 69.753906 10.582031 C 69.917969 10.414062 70.105469 10.285156 70.320312 10.195312 C 70.535156 10.109375 70.757812 10.0625 70.992188 10.0625 C 71.222656 10.0625 71.445312 10.105469 71.660156 10.195312 C 71.875 10.285156 72.066406 10.414062 72.230469 10.578125 C 72.394531 10.746094 72.519531 10.9375 72.609375 11.152344 C 72.699219 11.371094 72.742188 11.59375 72.742188 11.828125 C 72.742188 12.0625 72.699219 12.289062 72.609375 12.507812 C 72.519531 12.722656 72.394531 12.914062 72.230469 13.078125 C 72.066406 13.246094 71.875 13.371094 71.660156 13.460938 C 71.445312 13.550781 71.222656 13.597656 70.992188 13.597656 M 72.5 24.746094 L 69.480469 24.746094 L 69.480469 14.9375 L 72.5 14.9375 Z M 85.316406 7.234375 L 67.964844 7.234375 C 67.765625 7.230469 67.578125 7.269531 67.394531 7.34375 C 67.210938 7.414062 67.050781 7.523438 66.910156 7.660156 C 66.769531 7.800781 66.660156 7.960938 66.582031 8.144531 C 66.503906 8.328125 66.464844 8.515625 66.460938 8.714844 L 66.460938 26.304688 C 66.464844 26.503906 66.503906 26.691406 66.582031 26.875 C 66.660156 27.058594 66.769531 27.21875 66.910156 27.359375 C 67.050781 27.496094 67.210938 27.605469 67.394531 27.679688 C 67.578125 27.753906 67.765625 27.789062 67.964844 27.785156 L 85.316406 27.785156 C 85.511719 27.789062 85.703125 27.753906 85.886719 27.679688 C 86.070312 27.605469 86.230469 27.5 86.371094 27.359375 C 86.515625 27.21875 86.625 27.058594 86.703125 26.875 C 86.78125 26.695312 86.820312 26.503906 86.824219 26.304688 L 86.824219 8.714844 C 86.820312 8.515625 86.78125 8.324219 86.703125 8.140625 C 86.625 7.957031 86.515625 7.796875 86.371094 7.660156 C 86.230469 7.519531 86.070312 7.414062 85.886719 7.339844 C 85.703125 7.265625 85.511719 7.230469 85.316406 7.234375 " fill-opacity="1" fill-rule="nonzero"/></g><g clip-path="url(#133d5f5776)"><path fill="#000000" d="M 89.140625 25.128906 C 89.019531 25.128906 88.898438 25.148438 88.78125 25.179688 C 88.664062 25.210938 88.554688 25.261719 88.449219 25.320312 C 88.34375 25.382812 88.25 25.460938 88.164062 25.546875 C 88.078125 25.632812 88.007812 25.730469 87.945312 25.835938 C 87.886719 25.945312 87.839844 26.054688 87.8125 26.175781 C 87.78125 26.292969 87.765625 26.414062 87.765625 26.535156 C 87.765625 26.660156 87.78125 26.78125 87.8125 26.898438 C 87.847656 27.015625 87.890625 27.128906 87.953125 27.234375 C 88.015625 27.339844 88.089844 27.4375 88.175781 27.523438 C 88.261719 27.609375 88.355469 27.683594 88.460938 27.746094 C 88.566406 27.804688 88.679688 27.851562 88.796875 27.882812 C 88.914062 27.914062 89.03125 27.933594 89.152344 27.933594 C 89.273438 27.933594 89.394531 27.914062 89.511719 27.882812 C 89.628906 27.851562 89.742188 27.804688 89.847656 27.746094 C 89.953125 27.683594 90.046875 27.609375 90.132812 27.523438 C 90.21875 27.4375 90.292969 27.339844 90.355469 27.234375 C 90.414062 27.128906 90.460938 27.015625 90.492188 26.898438 C 90.523438 26.78125 90.542969 26.660156 90.542969 26.535156 C 90.542969 26.414062 90.527344 26.292969 90.496094 26.175781 C 90.464844 26.054688 90.421875 25.945312 90.359375 25.835938 C 90.300781 25.730469 90.226562 25.632812 90.140625 25.546875 C 90.058594 25.460938 89.960938 25.382812 89.859375 25.320312 C 89.753906 25.261719 89.640625 25.210938 89.523438 25.179688 C 89.40625 25.148438 89.289062 25.128906 89.167969 25.128906 L 89.140625 25.128906 M 89.140625 27.769531 C 88.980469 27.773438 88.824219 27.746094 88.671875 27.6875 C 88.523438 27.625 88.390625 27.539062 88.273438 27.425781 C 88.15625 27.3125 88.066406 27.179688 88.003906 27.03125 C 87.9375 26.882812 87.90625 26.726562 87.902344 26.5625 C 87.898438 26.398438 87.929688 26.242188 87.988281 26.089844 C 88.046875 25.941406 88.132812 25.804688 88.246094 25.6875 C 88.355469 25.570312 88.488281 25.480469 88.636719 25.414062 C 88.785156 25.351562 88.9375 25.316406 89.101562 25.3125 C 89.261719 25.3125 89.417969 25.339844 89.566406 25.398438 C 89.71875 25.460938 89.851562 25.546875 89.964844 25.660156 C 90.082031 25.773438 90.171875 25.902344 90.238281 26.054688 C 90.300781 26.203125 90.335938 26.359375 90.335938 26.523438 C 90.335938 26.527344 90.335938 26.535156 90.335938 26.542969 C 90.339844 26.703125 90.3125 26.855469 90.257812 27.003906 C 90.199219 27.152344 90.117188 27.285156 90.007812 27.398438 C 89.898438 27.515625 89.769531 27.605469 89.625 27.667969 C 89.480469 27.734375 89.328125 27.765625 89.171875 27.769531 L 89.140625 27.769531 " fill-opacity="1" fill-rule="nonzero"/></g></svg>