<svg xmlns="http://www.w3.org/2000/svg" xmlns:xlink="http://www.w3.org/1999/xlink" width="130" zoomAndPan="magnify" viewBox="0 0 97.5 37.5" height="50" preserveAspectRatio="xMidYMid meet" version="1.0"><defs><clipPath id="78fb38b982"><path d="M 6.324219 5.730469 L 89 5.730469 L 89 31.632812 L 6.324219 31.632812 Z M 6.324219 5.730469 " clip-rule="nonzero"/></clipPath></defs><g clip-path="url(#78fb38b982)"><path fill="#ff385c" d="M 49.992188 12.238281 C 49.992188 13.171875 49.25 13.921875 48.324219 13.921875 C 47.402344 13.921875 46.65625 13.171875 46.65625 12.238281 C 46.65625 11.304688 47.375 10.550781 48.324219 10.550781 C 49.273438 10.578125 49.992188 11.332031 49.992188 12.238281 Z M 43.113281 15.636719 C 43.113281 15.789062 43.113281 16.050781 43.113281 16.050781 C 43.113281 16.050781 42.316406 15.011719 40.625 15.011719 C 37.824219 15.011719 35.644531 17.164062 35.644531 20.148438 C 35.644531 23.101562 37.800781 25.28125 40.625 25.28125 C 42.34375 25.28125 43.113281 24.21875 43.113281 24.21875 L 43.113281 24.660156 C 43.113281 24.867188 43.269531 25.023438 43.472656 25.023438 L 45.550781 25.023438 L 45.550781 15.273438 C 45.550781 15.273438 43.652344 15.273438 43.472656 15.273438 C 43.269531 15.273438 43.113281 15.453125 43.113281 15.636719 Z M 43.113281 21.882812 C 42.730469 22.453125 41.957031 22.949219 41.035156 22.949219 C 39.390625 22.949219 38.132812 21.910156 38.132812 20.148438 C 38.132812 18.382812 39.390625 17.347656 41.035156 17.347656 C 41.933594 17.347656 42.753906 17.863281 43.113281 18.410156 Z M 47.09375 15.273438 L 49.558594 15.273438 L 49.558594 25.023438 L 47.09375 25.023438 Z M 83.90625 15.011719 C 82.210938 15.011719 81.417969 16.050781 81.417969 16.050781 L 81.417969 10.578125 L 78.953125 10.578125 L 78.953125 25.023438 C 78.953125 25.023438 80.851562 25.023438 81.03125 25.023438 C 81.238281 25.023438 81.390625 24.839844 81.390625 24.660156 L 81.390625 24.21875 C 81.390625 24.21875 82.1875 25.28125 83.878906 25.28125 C 86.679688 25.28125 88.859375 23.101562 88.859375 20.148438 C 88.859375 17.191406 86.679688 15.011719 83.90625 15.011719 Z M 83.496094 22.921875 C 82.546875 22.921875 81.800781 22.429688 81.417969 21.859375 L 81.417969 18.382812 C 81.800781 17.863281 82.621094 17.320312 83.496094 17.320312 C 85.140625 17.320312 86.398438 18.359375 86.398438 20.121094 C 86.398438 21.882812 85.140625 22.921875 83.496094 22.921875 Z M 77.667969 19.238281 L 77.667969 25.046875 L 75.203125 25.046875 L 75.203125 19.523438 C 75.203125 17.917969 74.691406 17.269531 73.304688 17.269531 C 72.558594 17.269531 71.789062 17.65625 71.300781 18.226562 L 71.300781 25.023438 L 68.835938 25.023438 L 68.835938 15.273438 L 70.789062 15.273438 C 70.992188 15.273438 71.148438 15.453125 71.148438 15.636719 L 71.148438 16.050781 C 71.867188 15.296875 72.816406 15.011719 73.765625 15.011719 C 74.84375 15.011719 75.742188 15.324219 76.460938 15.945312 C 77.335938 16.671875 77.667969 17.605469 77.667969 19.238281 Z M 62.855469 15.011719 C 61.160156 15.011719 60.363281 16.050781 60.363281 16.050781 L 60.363281 10.578125 L 57.902344 10.578125 L 57.902344 25.023438 C 57.902344 25.023438 59.800781 25.023438 59.980469 25.023438 C 60.183594 25.023438 60.339844 24.839844 60.339844 24.660156 L 60.339844 24.21875 C 60.339844 24.21875 61.136719 25.28125 62.828125 25.28125 C 65.628906 25.28125 67.808594 23.101562 67.808594 20.148438 C 67.835938 17.191406 65.652344 15.011719 62.855469 15.011719 Z M 62.445312 22.921875 C 61.496094 22.921875 60.75 22.429688 60.363281 21.859375 L 60.363281 18.382812 C 60.75 17.863281 61.570312 17.320312 62.445312 17.320312 C 64.085938 17.320312 65.34375 18.359375 65.34375 20.121094 C 65.34375 21.882812 64.085938 22.921875 62.445312 22.921875 Z M 55.769531 15.011719 C 56.515625 15.011719 56.898438 15.140625 56.898438 15.140625 L 56.898438 17.449219 C 56.898438 17.449219 54.847656 16.75 53.5625 18.226562 L 53.5625 25.046875 L 51.097656 25.046875 L 51.097656 15.273438 C 51.097656 15.273438 52.996094 15.273438 53.175781 15.273438 C 53.382812 15.273438 53.535156 15.453125 53.535156 15.636719 L 53.535156 16.050781 C 54 15.503906 55 15.011719 55.769531 15.011719 Z M 30.175781 24.140625 C 30.046875 23.828125 29.917969 23.492188 29.789062 23.207031 C 29.585938 22.738281 29.378906 22.300781 29.199219 21.882812 L 29.171875 21.859375 C 27.402344 17.96875 25.503906 14.027344 23.5 10.136719 L 23.421875 9.980469 C 23.21875 9.59375 23.011719 9.179688 22.808594 8.761719 C 22.550781 8.296875 22.292969 7.804688 21.882812 7.335938 C 21.0625 6.300781 19.878906 5.730469 18.621094 5.730469 C 17.339844 5.730469 16.183594 6.300781 15.335938 7.285156 C 14.953125 7.753906 14.667969 8.246094 14.414062 8.710938 C 14.207031 9.125 14 9.542969 13.796875 9.929688 L 13.71875 10.085938 C 11.742188 13.976562 9.816406 17.917969 8.046875 21.804688 L 8.019531 21.859375 C 7.839844 22.273438 7.636719 22.714844 7.429688 23.179688 C 7.300781 23.464844 7.171875 23.777344 7.042969 24.113281 C 6.710938 25.074219 6.609375 25.980469 6.738281 26.914062 C 7.019531 28.859375 8.300781 30.492188 10.074219 31.21875 C 10.742188 31.503906 11.433594 31.632812 12.152344 31.632812 C 12.359375 31.632812 12.617188 31.609375 12.820312 31.582031 C 13.667969 31.476562 14.539062 31.191406 15.386719 30.699219 C 16.441406 30.105469 17.441406 29.25 18.570312 28.003906 C 19.699219 29.25 20.726562 30.105469 21.753906 30.699219 C 22.601562 31.191406 23.476562 31.476562 24.320312 31.582031 C 24.527344 31.609375 24.785156 31.632812 24.988281 31.632812 C 25.707031 31.632812 26.425781 31.503906 27.070312 31.21875 C 28.867188 30.492188 30.125 28.832031 30.40625 26.914062 C 30.613281 26.007812 30.507812 25.097656 30.175781 24.140625 Z M 18.597656 25.488281 C 17.210938 23.726562 16.3125 22.066406 16.003906 20.664062 C 15.875 20.070312 15.851562 19.550781 15.925781 19.082031 C 15.976562 18.667969 16.132812 18.304688 16.335938 17.996094 C 16.824219 17.292969 17.648438 16.855469 18.597656 16.855469 C 19.546875 16.855469 20.394531 17.269531 20.855469 17.996094 C 21.0625 18.304688 21.214844 18.667969 21.265625 19.082031 C 21.34375 19.550781 21.316406 20.09375 21.191406 20.664062 C 20.882812 22.039062 19.984375 23.699219 18.597656 25.488281 Z M 28.839844 26.707031 C 28.660156 28.054688 27.761719 29.222656 26.503906 29.742188 C 25.886719 30 25.21875 30.078125 24.554688 30 C 23.910156 29.921875 23.269531 29.714844 22.601562 29.328125 C 21.675781 28.808594 20.753906 28.003906 19.675781 26.8125 C 21.371094 24.710938 22.394531 22.792969 22.78125 21.082031 C 22.960938 20.277344 22.988281 19.550781 22.910156 18.875 C 22.808594 18.226562 22.574219 17.632812 22.214844 17.113281 C 21.421875 15.945312 20.085938 15.273438 18.597656 15.273438 C 17.109375 15.273438 15.773438 15.972656 14.976562 17.113281 C 14.617188 17.632812 14.386719 18.226562 14.285156 18.875 C 14.179688 19.550781 14.207031 20.300781 14.414062 21.082031 C 14.796875 22.792969 15.851562 24.738281 17.519531 26.835938 C 16.464844 28.03125 15.515625 28.832031 14.59375 29.351562 C 13.925781 29.742188 13.28125 29.949219 12.640625 30.027344 C 11.949219 30.105469 11.28125 30 10.691406 29.765625 C 9.433594 29.25 8.535156 28.082031 8.355469 26.734375 C 8.277344 26.085938 8.328125 25.4375 8.585938 24.710938 C 8.660156 24.453125 8.789062 24.191406 8.917969 23.878906 C 9.097656 23.464844 9.304688 23.023438 9.507812 22.585938 L 9.535156 22.53125 C 11.304688 18.667969 13.207031 14.726562 15.183594 10.890625 L 15.257812 10.734375 C 15.464844 10.34375 15.671875 9.929688 15.875 9.542969 C 16.082031 9.125 16.3125 8.738281 16.59375 8.398438 C 17.132812 7.777344 17.851562 7.441406 18.648438 7.441406 C 19.445312 7.441406 20.164062 7.777344 20.703125 8.398438 C 20.984375 8.738281 21.214844 9.125 21.421875 9.542969 C 21.625 9.929688 21.832031 10.34375 22.035156 10.734375 L 22.113281 10.890625 C 24.066406 14.753906 25.964844 18.695312 27.734375 22.558594 L 27.734375 22.585938 C 27.941406 23 28.121094 23.464844 28.328125 23.878906 C 28.453125 24.191406 28.582031 24.453125 28.660156 24.710938 C 28.867188 25.382812 28.941406 26.03125 28.839844 26.707031 Z M 28.839844 26.707031 " fill-opacity="1" fill-rule="nonzero"/></g></svg>