<svg xmlns="http://www.w3.org/2000/svg" xmlns:xlink="http://www.w3.org/1999/xlink" width="75" zoomAndPan="magnify" viewBox="0 0 56.25 112.499998" height="150" preserveAspectRatio="xMidYMid meet" version="1.0"><defs><clipPath id="097c5bfae8"><path d="M 2.277344 53.199219 L 53.347656 53.199219 L 53.347656 68.742188 L 2.277344 68.742188 Z M 2.277344 53.199219 " clip-rule="nonzero"/></clipPath></defs><g clip-path="url(#097c5bfae8)"><path fill="#ff385c" d="M 29.179688 57.101562 C 29.179688 57.664062 28.722656 58.113281 28.152344 58.113281 C 27.582031 58.113281 27.125 57.664062 27.125 57.101562 C 27.125 56.542969 27.566406 56.09375 28.152344 56.09375 C 28.738281 56.109375 29.179688 56.558594 29.179688 57.101562 Z M 24.941406 59.140625 C 24.941406 59.234375 24.941406 59.390625 24.941406 59.390625 C 24.941406 59.390625 24.453125 58.769531 23.40625 58.769531 C 21.683594 58.769531 20.339844 60.058594 20.339844 61.847656 C 20.339844 63.621094 21.667969 64.929688 23.40625 64.929688 C 24.46875 64.929688 24.941406 64.292969 24.941406 64.292969 L 24.941406 64.554688 C 24.941406 64.679688 25.039062 64.773438 25.164062 64.773438 L 26.445312 64.773438 L 26.445312 58.921875 C 26.445312 58.921875 25.273438 58.921875 25.164062 58.921875 C 25.039062 58.921875 24.941406 59.03125 24.941406 59.140625 Z M 24.941406 62.890625 C 24.703125 63.234375 24.230469 63.527344 23.660156 63.527344 C 22.648438 63.527344 21.875 62.90625 21.875 61.847656 C 21.875 60.789062 22.648438 60.167969 23.660156 60.167969 C 24.214844 60.167969 24.722656 60.480469 24.941406 60.804688 Z M 27.394531 58.921875 L 28.914062 58.921875 L 28.914062 64.773438 L 27.394531 64.773438 Z M 50.078125 58.769531 C 49.03125 58.769531 48.542969 59.390625 48.542969 59.390625 L 48.542969 56.109375 L 47.023438 56.109375 L 47.023438 64.773438 C 47.023438 64.773438 48.195312 64.773438 48.304688 64.773438 C 48.429688 64.773438 48.527344 64.664062 48.527344 64.554688 L 48.527344 64.292969 C 48.527344 64.292969 49.015625 64.929688 50.0625 64.929688 C 51.785156 64.929688 53.128906 63.621094 53.128906 61.847656 C 53.128906 60.074219 51.785156 58.769531 50.078125 58.769531 Z M 49.824219 63.511719 C 49.238281 63.511719 48.78125 63.21875 48.542969 62.875 L 48.542969 60.789062 C 48.78125 60.480469 49.285156 60.152344 49.824219 60.152344 C 50.835938 60.152344 51.609375 60.773438 51.609375 61.832031 C 51.609375 62.890625 50.835938 63.511719 49.824219 63.511719 Z M 46.234375 61.304688 L 46.234375 64.789062 L 44.714844 64.789062 L 44.714844 61.476562 C 44.714844 60.511719 44.398438 60.121094 43.542969 60.121094 C 43.085938 60.121094 42.609375 60.355469 42.308594 60.699219 L 42.308594 64.773438 L 40.792969 64.773438 L 40.792969 58.921875 L 41.992188 58.921875 C 42.121094 58.921875 42.214844 59.03125 42.214844 59.140625 L 42.214844 59.390625 C 42.65625 58.9375 43.242188 58.769531 43.828125 58.769531 C 44.492188 58.769531 45.046875 58.953125 45.488281 59.328125 C 46.027344 59.765625 46.234375 60.324219 46.234375 61.304688 Z M 37.105469 58.769531 C 36.0625 58.769531 35.570312 59.390625 35.570312 59.390625 L 35.570312 56.109375 L 34.054688 56.109375 L 34.054688 64.773438 C 34.054688 64.773438 35.222656 64.773438 35.335938 64.773438 C 35.460938 64.773438 35.554688 64.664062 35.554688 64.554688 L 35.554688 64.292969 C 35.554688 64.292969 36.046875 64.929688 37.089844 64.929688 C 38.8125 64.929688 40.160156 63.621094 40.160156 61.847656 C 40.175781 60.074219 38.832031 58.769531 37.105469 58.769531 Z M 36.851562 63.511719 C 36.269531 63.511719 35.808594 63.21875 35.570312 62.875 L 35.570312 60.789062 C 35.808594 60.480469 36.316406 60.152344 36.851562 60.152344 C 37.867188 60.152344 38.640625 60.773438 38.640625 61.832031 C 38.640625 62.890625 37.867188 63.511719 36.851562 63.511719 Z M 32.742188 58.769531 C 33.199219 58.769531 33.4375 58.847656 33.4375 58.847656 L 33.4375 60.230469 C 33.4375 60.230469 32.171875 59.808594 31.378906 60.699219 L 31.378906 64.789062 L 29.863281 64.789062 L 29.863281 58.921875 C 29.863281 58.921875 31.03125 58.921875 31.144531 58.921875 C 31.269531 58.921875 31.363281 59.03125 31.363281 59.140625 L 31.363281 59.390625 C 31.648438 59.0625 32.265625 58.769531 32.742188 58.769531 Z M 16.96875 64.246094 C 16.890625 64.058594 16.8125 63.855469 16.734375 63.683594 C 16.605469 63.40625 16.480469 63.140625 16.367188 62.890625 L 16.351562 62.875 C 15.261719 60.542969 14.089844 58.175781 12.859375 55.84375 L 12.808594 55.75 C 12.683594 55.515625 12.558594 55.265625 12.429688 55.019531 C 12.273438 54.738281 12.113281 54.441406 11.859375 54.164062 C 11.355469 53.539062 10.628906 53.199219 9.851562 53.199219 C 9.0625 53.199219 8.347656 53.539062 7.828125 54.132812 C 7.589844 54.410156 7.417969 54.707031 7.257812 54.988281 C 7.132812 55.238281 7.003906 55.484375 6.878906 55.71875 L 6.832031 55.8125 C 5.613281 58.144531 4.425781 60.511719 3.335938 62.84375 L 3.320312 62.875 C 3.207031 63.125 3.082031 63.390625 2.957031 63.667969 C 2.875 63.839844 2.796875 64.027344 2.71875 64.230469 C 2.511719 64.804688 2.449219 65.347656 2.527344 65.910156 C 2.703125 67.078125 3.492188 68.054688 4.585938 68.492188 C 4.996094 68.664062 5.421875 68.742188 5.867188 68.742188 C 5.992188 68.742188 6.152344 68.726562 6.277344 68.710938 C 6.800781 68.648438 7.335938 68.476562 7.859375 68.179688 C 8.507812 67.824219 9.125 67.308594 9.820312 66.5625 C 10.515625 67.308594 11.148438 67.824219 11.78125 68.179688 C 12.304688 68.476562 12.839844 68.648438 13.363281 68.710938 C 13.488281 68.726562 13.648438 68.742188 13.773438 68.742188 C 14.21875 68.742188 14.660156 68.664062 15.054688 68.492188 C 16.164062 68.054688 16.9375 67.0625 17.113281 65.910156 C 17.238281 65.363281 17.175781 64.820312 16.96875 64.246094 Z M 9.835938 65.054688 C 8.980469 63.996094 8.429688 63 8.238281 62.160156 C 8.160156 61.800781 8.144531 61.492188 8.191406 61.210938 C 8.222656 60.960938 8.316406 60.742188 8.445312 60.558594 C 8.746094 60.136719 9.25 59.871094 9.835938 59.871094 C 10.421875 59.871094 10.945312 60.121094 11.226562 60.558594 C 11.355469 60.742188 11.449219 60.960938 11.480469 61.210938 C 11.527344 61.492188 11.511719 61.816406 11.433594 62.160156 C 11.242188 62.984375 10.691406 63.980469 9.835938 65.054688 Z M 16.148438 65.785156 C 16.035156 66.59375 15.484375 67.292969 14.707031 67.605469 C 14.328125 67.761719 13.917969 67.808594 13.507812 67.761719 C 13.109375 67.714844 12.714844 67.589844 12.304688 67.355469 C 11.734375 67.046875 11.164062 66.5625 10.5 65.847656 C 11.542969 64.585938 12.175781 63.4375 12.414062 62.410156 C 12.523438 61.925781 12.542969 61.492188 12.492188 61.085938 C 12.429688 60.699219 12.289062 60.339844 12.066406 60.027344 C 11.578125 59.328125 10.753906 58.921875 9.835938 58.921875 C 8.917969 58.921875 8.097656 59.34375 7.605469 60.027344 C 7.382812 60.339844 7.242188 60.699219 7.179688 61.085938 C 7.117188 61.492188 7.132812 61.941406 7.257812 62.410156 C 7.496094 63.4375 8.144531 64.601562 9.171875 65.863281 C 8.523438 66.578125 7.9375 67.0625 7.367188 67.371094 C 6.957031 67.605469 6.5625 67.730469 6.167969 67.777344 C 5.738281 67.824219 5.328125 67.761719 4.964844 67.621094 C 4.1875 67.308594 3.636719 66.609375 3.523438 65.800781 C 3.476562 65.410156 3.507812 65.023438 3.667969 64.585938 C 3.714844 64.429688 3.792969 64.277344 3.875 64.089844 C 3.984375 63.839844 4.109375 63.574219 4.238281 63.3125 L 4.253906 63.28125 C 5.34375 60.960938 6.515625 58.597656 7.734375 56.292969 L 7.78125 56.199219 C 7.90625 55.96875 8.03125 55.71875 8.160156 55.484375 C 8.285156 55.238281 8.429688 55.003906 8.601562 54.800781 C 8.933594 54.425781 9.378906 54.226562 9.867188 54.226562 C 10.359375 54.226562 10.800781 54.425781 11.132812 54.800781 C 11.308594 55.003906 11.449219 55.238281 11.578125 55.484375 C 11.703125 55.71875 11.828125 55.96875 11.957031 56.199219 L 12.003906 56.292969 C 13.207031 58.613281 14.375 60.976562 15.46875 63.296875 L 15.46875 63.3125 C 15.59375 63.558594 15.703125 63.839844 15.832031 64.089844 C 15.910156 64.277344 15.988281 64.429688 16.035156 64.585938 C 16.164062 64.992188 16.210938 65.378906 16.148438 65.785156 Z M 16.148438 65.785156 " fill-opacity="1" fill-rule="nonzero"/></g></svg>