<svg xmlns="http://www.w3.org/2000/svg" xmlns:xlink="http://www.w3.org/1999/xlink" width="75" zoomAndPan="magnify" viewBox="0 0 56.25 112.499998" height="150" preserveAspectRatio="xMidYMid meet" version="1.0"><defs><clipPath id="4623715b09"><path d="M 5.550781 56.003906 L 49.21875 56.003906 L 49.21875 67.84375 L 5.550781 67.84375 Z M 5.550781 56.003906 " clip-rule="nonzero"/></clipPath></defs><g clip-path="url(#4623715b09)"><path fill="#e50914" d="M 46.886719 61.640625 L 49.21875 67.835938 C 48.535156 67.742188 47.835938 67.609375 47.140625 67.5 L 45.824219 64.074219 L 44.472656 67.21875 C 43.8125 67.109375 43.15625 67.070312 42.484375 66.988281 L 44.859375 61.574219 L 42.714844 56.011719 L 44.710938 56.011719 L 45.917969 59.117188 L 47.207031 56.011719 L 49.21875 56.011719 C 49.21875 56.011719 46.886719 61.640625 46.886719 61.640625 Z M 41.144531 56.011719 L 39.335938 56.011719 L 39.335938 66.746094 C 39.925781 66.789062 40.542969 66.816406 41.144531 66.882812 Z M 37.777344 66.625 C 36.128906 66.519531 34.480469 66.410156 32.804688 66.386719 L 32.804688 56.011719 L 34.640625 56.011719 L 34.640625 64.636719 C 35.699219 64.664062 36.757812 64.746094 37.777344 64.800781 Z M 30.832031 60.21875 L 30.832031 62.058594 L 28.308594 62.058594 L 28.308594 66.265625 L 26.484375 66.265625 L 26.484375 56.011719 L 31.648438 56.011719 L 31.648438 57.851562 L 28.308594 57.851562 L 28.308594 60.203125 L 30.832031 60.203125 Z M 23.386719 57.851562 L 23.386719 66.359375 C 22.769531 66.359375 22.140625 66.359375 21.539062 66.386719 L 21.539062 57.851562 L 19.632812 57.851562 L 19.632812 56.011719 L 25.304688 56.011719 L 25.304688 57.851562 Z M 17.648438 62.152344 C 16.84375 62.152344 15.878906 62.152344 15.195312 62.191406 L 15.195312 64.933594 C 16.28125 64.851562 17.351562 64.773438 18.453125 64.730469 L 18.453125 66.507812 L 13.355469 66.910156 L 13.355469 56.011719 L 18.453125 56.011719 L 18.453125 57.851562 L 15.195312 57.851562 L 15.195312 60.339844 C 15.90625 60.339844 17.003906 60.296875 17.648438 60.296875 Z M 7.429688 61.117188 L 7.429688 67.566406 C 6.769531 67.648438 6.179688 67.742188 5.550781 67.835938 L 5.550781 56.011719 L 7.308594 56.011719 L 9.707031 62.730469 L 9.707031 56.011719 L 11.558594 56.011719 L 11.558594 67.070312 C 10.902344 67.175781 10.246094 67.21875 9.546875 67.3125 Z M 7.429688 61.117188 " fill-opacity="1" fill-rule="nonzero"/></g></svg>