<svg xmlns="http://www.w3.org/2000/svg" xmlns:xlink="http://www.w3.org/1999/xlink" width="130" zoomAndPan="magnify" viewBox="0 0 97.5 37.5" height="50" preserveAspectRatio="xMidYMid meet" version="1.0"><defs><clipPath id="8e6e64c8b9"><path d="M 4.09375 6.539062 L 92.171875 6.539062 L 92.171875 30.226562 L 4.09375 30.226562 Z M 4.09375 6.539062 " clip-rule="nonzero"/></clipPath></defs><g clip-path="url(#8e6e64c8b9)"><path fill="#e50914" d="M 87.464844 17.820312 L 92.171875 30.207031 C 90.792969 30.019531 89.386719 29.75 87.976562 29.535156 L 85.328125 22.683594 L 82.59375 28.972656 C 81.269531 28.757812 79.945312 28.675781 78.59375 28.515625 L 83.378906 17.683594 L 79.050781 6.558594 L 83.082031 6.558594 L 85.515625 12.765625 L 88.113281 6.558594 L 92.171875 6.558594 C 92.171875 6.558594 87.464844 17.820312 87.464844 17.820312 Z M 75.886719 6.558594 L 72.234375 6.558594 L 72.234375 28.03125 C 73.425781 28.109375 74.667969 28.164062 75.886719 28.300781 Z M 69.097656 27.789062 C 65.769531 27.574219 62.441406 27.359375 59.0625 27.304688 L 59.0625 6.558594 L 62.765625 6.558594 L 62.765625 23.8125 C 64.90625 23.863281 67.042969 24.027344 69.097656 24.132812 Z M 55.085938 14.96875 L 55.085938 18.652344 L 50 18.652344 L 50 27.0625 L 46.320312 27.0625 L 46.320312 6.558594 L 56.734375 6.558594 L 56.734375 10.242188 L 50 10.242188 L 50 14.941406 L 55.085938 14.941406 Z M 40.070312 10.242188 L 40.070312 27.25 C 38.828125 27.25 37.554688 27.25 36.339844 27.304688 L 36.339844 10.242188 L 32.5 10.242188 L 32.5 6.558594 L 43.941406 6.558594 L 43.941406 10.242188 Z M 28.496094 18.839844 C 26.871094 18.839844 24.925781 18.839844 23.542969 18.921875 L 23.542969 24.402344 C 25.734375 24.242188 27.898438 24.078125 30.117188 24 L 30.117188 27.546875 L 19.839844 28.351562 L 19.839844 6.558594 L 30.117188 6.558594 L 30.117188 10.242188 L 23.542969 10.242188 L 23.542969 15.210938 C 24.976562 15.210938 27.195312 15.132812 28.496094 15.132812 Z M 7.882812 16.769531 L 7.882812 29.667969 C 6.558594 29.832031 5.367188 30.019531 4.09375 30.207031 L 4.09375 6.558594 L 7.640625 6.558594 L 12.480469 19.996094 L 12.480469 6.558594 L 16.214844 6.558594 L 16.214844 28.675781 C 14.886719 28.890625 13.5625 28.972656 12.15625 29.160156 Z M 7.882812 16.769531 " fill-opacity="1" fill-rule="nonzero"/></g></svg>