<svg xmlns="http://www.w3.org/2000/svg" xmlns:xlink="http://www.w3.org/1999/xlink" width="75" zoomAndPan="magnify" viewBox="0 0 56.25 112.499998" height="150" preserveAspectRatio="xMidYMid meet" version="1.0"><defs><clipPath id="a9b2e3d63b"><path d="M 4.015625 54 L 7 54 L 7 58 L 4.015625 58 Z M 4.015625 54 " clip-rule="nonzero"/></clipPath><clipPath id="ec1c9dad36"><path d="M 46 53.398438 L 51.382812 53.398438 L 51.382812 58.582031 L 46 58.582031 Z M 46 53.398438 " clip-rule="nonzero"/></clipPath></defs><path fill="#cb2026" d="M 24.179688 55.988281 C 24.171875 56.394531 24.328125 56.785156 24.621094 57.078125 C 24.910156 57.363281 25.304688 57.527344 25.714844 57.519531 C 26.550781 57.519531 27.238281 56.835938 27.238281 56 C 27.253906 55.582031 27.097656 55.1875 26.8125 54.894531 C 26.527344 54.597656 26.128906 54.445312 25.714844 54.453125 C 24.863281 54.460938 24.191406 55.144531 24.179688 55.988281 Z M 24.761719 55.988281 C 24.761719 55.445312 25.152344 54.9375 25.730469 54.9375 C 26.308594 54.9375 26.699219 55.359375 26.699219 55.988281 C 26.71875 56.257812 26.621094 56.515625 26.441406 56.714844 C 26.257812 56.914062 26.007812 57.027344 25.738281 57.027344 C 25.152344 57.042969 24.761719 56.601562 24.761719 55.988281 Z M 24.761719 55.988281 " fill-opacity="1" fill-rule="nonzero"/><path fill="#cb2026" d="M 20.839844 55.988281 C 20.824219 56.394531 20.980469 56.792969 21.273438 57.085938 C 21.566406 57.378906 21.957031 57.535156 22.371094 57.519531 C 22.832031 57.535156 23.273438 57.320312 23.539062 56.941406 L 23.558594 56.921875 L 23.132812 56.566406 L 23.117188 56.601562 C 22.96875 56.886719 22.675781 57.058594 22.355469 57.042969 C 21.777344 57.042969 21.386719 56.585938 21.386719 55.988281 C 21.367188 55.722656 21.464844 55.464844 21.644531 55.265625 C 21.828125 55.066406 22.078125 54.953125 22.347656 54.945312 C 22.660156 54.953125 22.945312 55.109375 23.109375 55.367188 L 23.125 55.386719 L 23.550781 55.046875 L 23.53125 55.03125 C 23.238281 54.675781 22.804688 54.46875 22.347656 54.46875 C 21.941406 54.46875 21.558594 54.632812 21.273438 54.917969 C 20.996094 55.195312 20.839844 55.582031 20.839844 55.988281 Z M 20.839844 55.988281 " fill-opacity="1" fill-rule="nonzero"/><path fill="#cb2026" d="M 42.355469 56.222656 L 42.355469 57.449219 L 42.902344 57.449219 L 42.902344 56.222656 L 43.972656 54.53125 L 43.375 54.53125 L 42.632812 55.703125 L 41.914062 54.53125 L 41.292969 54.53125 Z M 42.355469 56.222656 " fill-opacity="1" fill-rule="nonzero"/><path fill="#cb2026" d="M 32.429688 54.53125 L 32.429688 57.441406 L 32.992188 57.441406 L 32.992188 56.359375 C 33.027344 56.359375 33.078125 56.378906 33.128906 56.378906 C 33.839844 56.378906 34.332031 56.074219 34.332031 55.464844 C 34.332031 54.882812 33.910156 54.53125 33.113281 54.53125 Z M 32.992188 54.972656 L 33.128906 54.972656 C 33.589844 54.972656 33.777344 55.144531 33.777344 55.445312 C 33.777344 55.746094 33.570312 55.921875 33.128906 55.921875 C 33.085938 55.929688 33.035156 55.921875 32.992188 55.902344 Z M 32.992188 54.972656 " fill-opacity="1" fill-rule="nonzero"/><path fill="#cb2026" d="M 28.734375 55.867188 L 29.652344 57.527344 L 30.550781 55.867188 L 30.90625 57.449219 L 31.484375 57.449219 L 30.714844 54.480469 L 29.667969 56.449219 L 28.578125 54.480469 L 27.851562 57.464844 L 28.394531 57.464844 Z M 28.734375 55.867188 " fill-opacity="1" fill-rule="nonzero"/><path fill="#cb2026" d="M 13.753906 56.257812 L 11.8125 54.480469 L 11.8125 57.464844 L 12.34375 57.464844 L 12.34375 55.738281 L 14.289062 57.527344 L 14.289062 54.53125 L 13.753906 54.53125 Z M 13.753906 56.257812 " fill-opacity="1" fill-rule="nonzero"/><path fill="#cb2026" d="M 9.980469 54.53125 L 9.980469 57.449219 L 10.542969 57.449219 L 10.542969 54.53125 Z M 9.980469 54.53125 " fill-opacity="1" fill-rule="nonzero"/><path fill="#cb2026" d="M 9.269531 57.449219 L 7.84375 54.46875 L 6.414062 57.449219 L 6.976562 57.449219 L 7.261719 56.820312 L 8.378906 56.820312 L 8.648438 57.449219 Z M 7.46875 56.359375 L 7.84375 55.515625 L 8.179688 56.359375 Z M 7.46875 56.359375 " fill-opacity="1" fill-rule="nonzero"/><g clip-path="url(#a9b2e3d63b)"><path fill="#cb2026" d="M 5.4375 55.902344 C 5.679688 55.792969 5.824219 55.558594 5.824219 55.289062 C 5.824219 54.78125 5.417969 54.53125 4.726562 54.53125 L 4.023438 54.53125 L 4.023438 57.441406 L 4.855469 57.441406 C 5.601562 57.441406 6.007812 57.136719 6.007812 56.59375 C 6 56.265625 5.765625 55.980469 5.4375 55.902344 Z M 4.820312 56.207031 C 5.210938 56.207031 5.4375 56.308594 5.4375 56.613281 C 5.4375 56.878906 5.226562 57 4.820312 57 L 4.585938 57 L 4.585938 56.207031 Z M 4.585938 55.773438 L 4.585938 54.980469 L 4.691406 54.980469 C 5.097656 54.980469 5.304688 55.082031 5.304688 55.386719 C 5.304688 55.6875 5.097656 55.773438 4.710938 55.773438 Z M 4.585938 55.773438 " fill-opacity="1" fill-rule="nonzero"/></g><path fill="#cb2026" d="M 18.46875 57.464844 L 19.117188 57.464844 C 19.117188 57.464844 18.625 56.90625 18.539062 56.808594 C 18.609375 56.722656 19.03125 56.085938 19.03125 56.085938 L 18.503906 56.085938 L 18.253906 56.472656 L 17.792969 55.945312 C 18.183594 55.738281 18.425781 55.453125 18.425781 55.152344 C 18.425781 54.746094 18.070312 54.480469 17.613281 54.480469 C 17.101562 54.480469 16.765625 54.78125 16.765625 55.1875 C 16.78125 55.445312 16.894531 55.695312 17.085938 55.878906 C 16.78125 56.050781 16.503906 56.300781 16.503906 56.722656 C 16.503906 57.179688 16.878906 57.535156 17.421875 57.535156 C 17.734375 57.542969 18.027344 57.414062 18.234375 57.179688 Z M 17.257812 55.195312 C 17.257812 55.109375 17.292969 55.015625 17.351562 54.953125 C 17.414062 54.894531 17.507812 54.859375 17.59375 54.859375 C 17.683594 54.851562 17.761719 54.882812 17.820312 54.9375 C 17.882812 54.996094 17.914062 55.074219 17.914062 55.160156 C 17.914062 55.367188 17.707031 55.515625 17.507812 55.617188 C 17.378906 55.515625 17.285156 55.359375 17.257812 55.195312 Z M 17.925781 56.851562 C 17.8125 56.992188 17.648438 57.078125 17.464844 57.070312 C 17.351562 57.078125 17.242188 57.042969 17.152344 56.964844 C 17.066406 56.886719 17.023438 56.777344 17.023438 56.664062 C 17.042969 56.464844 17.152344 56.285156 17.328125 56.1875 L 17.34375 56.1875 Z M 17.925781 56.851562 " fill-opacity="1" fill-rule="nonzero"/><path fill="#cb2026" d="M 40.089844 56.257812 L 38.148438 54.480469 L 38.148438 57.449219 L 38.695312 57.449219 L 38.695312 55.738281 L 40.625 57.527344 L 40.625 54.53125 L 40.089844 54.53125 Z M 40.089844 56.257812 " fill-opacity="1" fill-rule="nonzero"/><path fill="#cb2026" d="M 37.441406 57.449219 L 36.011719 54.46875 L 34.585938 57.449219 L 35.148438 57.449219 L 35.433594 56.820312 L 36.546875 56.820312 L 36.816406 57.449219 Z M 35.640625 56.359375 L 36.011719 55.515625 L 36.347656 56.359375 Z M 35.640625 56.359375 " fill-opacity="1" fill-rule="nonzero"/><g clip-path="url(#ec1c9dad36)"><path fill="#cb2026" d="M 49.6875 56.128906 L 49.210938 54.03125 L 47.902344 55.722656 Z M 51.375 55.988281 C 51.375 57.421875 50.214844 58.582031 48.777344 58.582031 C 47.339844 58.582031 46.179688 57.421875 46.179688 55.988281 C 46.179688 54.554688 47.339844 53.398438 48.777344 53.398438 C 48.914062 53.398438 49.046875 53.417969 49.183594 53.433594 L 48.96875 53.71875 L 48.777344 53.71875 C 48.207031 53.710938 47.652344 53.933594 47.238281 54.332031 C 46.820312 54.730469 46.585938 55.28125 46.585938 55.851562 C 46.585938 57.058594 47.566406 58.035156 48.777344 58.035156 C 49.988281 58.035156 50.964844 57.058594 50.964844 55.851562 C 50.957031 54.972656 50.402344 54.175781 49.574219 53.875 L 49.488281 53.519531 C 50.601562 53.824219 51.375 54.839844 51.375 55.988281 Z M 51.375 55.988281 " fill-opacity="1" fill-rule="nonzero"/></g></svg>