<svg xmlns="http://www.w3.org/2000/svg" xmlns:xlink="http://www.w3.org/1999/xlink" width="130" zoomAndPan="magnify" viewBox="0 0 97.5 37.5" height="50" preserveAspectRatio="xMidYMid meet" version="1.0"><defs><clipPath id="3a546a2a7c"><path d="M 4.09375 18 L 8 18 L 8 24 L 4.09375 24 Z M 4.09375 18 " clip-rule="nonzero"/></clipPath><clipPath id="906a6c49a0"><path d="M 80 15.949219 L 89.949219 15.949219 L 89.949219 25.574219 L 80 25.574219 Z M 80 15.949219 " clip-rule="nonzero"/></clipPath></defs><path fill="#cb2026" d="M 40.648438 20.761719 C 40.632812 21.515625 40.914062 22.238281 41.445312 22.78125 C 41.964844 23.3125 42.6875 23.617188 43.421875 23.601562 C 44.945312 23.601562 46.183594 22.332031 46.183594 20.777344 C 46.214844 20.007812 45.933594 19.269531 45.414062 18.726562 C 44.898438 18.179688 44.175781 17.890625 43.421875 17.90625 C 41.886719 17.921875 40.664062 19.191406 40.648438 20.761719 Z M 41.699219 20.761719 C 41.699219 19.75 42.402344 18.804688 43.453125 18.804688 C 44.503906 18.804688 45.210938 19.589844 45.210938 20.761719 C 45.242188 21.257812 45.070312 21.738281 44.742188 22.109375 C 44.410156 22.476562 43.957031 22.6875 43.46875 22.6875 C 42.402344 22.71875 41.699219 21.902344 41.699219 20.761719 Z M 41.699219 20.761719 " fill-opacity="1" fill-rule="nonzero"/><path fill="#cb2026" d="M 34.59375 20.761719 C 34.5625 21.515625 34.84375 22.253906 35.375 22.796875 C 35.910156 23.34375 36.617188 23.632812 37.367188 23.601562 C 38.199219 23.632812 39 23.230469 39.488281 22.527344 L 39.519531 22.492188 L 38.75 21.835938 L 38.71875 21.902344 C 38.449219 22.429688 37.917969 22.75 37.335938 22.71875 C 36.285156 22.71875 35.582031 21.867188 35.582031 20.761719 C 35.550781 20.265625 35.722656 19.785156 36.050781 19.414062 C 36.378906 19.046875 36.835938 18.835938 37.320312 18.820312 C 37.886719 18.835938 38.402344 19.125 38.703125 19.605469 L 38.734375 19.640625 L 39.503906 19.015625 L 39.46875 18.980469 C 38.9375 18.324219 38.152344 17.941406 37.320312 17.941406 C 36.585938 17.941406 35.894531 18.246094 35.375 18.773438 C 34.875 19.285156 34.59375 20.007812 34.59375 20.761719 Z M 34.59375 20.761719 " fill-opacity="1" fill-rule="nonzero"/><path fill="#cb2026" d="M 73.585938 21.195312 L 73.585938 23.472656 L 74.574219 23.472656 L 74.574219 21.195312 L 76.519531 18.050781 L 75.4375 18.050781 L 74.085938 20.234375 L 72.785156 18.050781 L 71.65625 18.050781 Z M 73.585938 21.195312 " fill-opacity="1" fill-rule="nonzero"/><path fill="#cb2026" d="M 55.59375 18.050781 L 55.59375 23.457031 L 56.613281 23.457031 L 56.613281 21.453125 C 56.675781 21.453125 56.769531 21.484375 56.867188 21.484375 C 58.152344 21.484375 59.046875 20.921875 59.046875 19.785156 C 59.046875 18.710938 58.277344 18.050781 56.835938 18.050781 Z M 56.613281 18.871094 L 56.867188 18.871094 C 57.695312 18.871094 58.042969 19.191406 58.042969 19.75 C 58.042969 20.3125 57.664062 20.632812 56.867188 20.632812 C 56.785156 20.648438 56.691406 20.632812 56.613281 20.601562 Z M 56.613281 18.871094 " fill-opacity="1" fill-rule="nonzero"/><path fill="#cb2026" d="M 48.898438 20.539062 L 50.558594 23.617188 L 52.191406 20.539062 L 52.835938 23.472656 L 53.886719 23.472656 L 52.488281 17.957031 L 50.589844 21.613281 L 48.613281 17.957031 L 47.296875 23.503906 L 48.285156 23.503906 Z M 48.898438 20.539062 " fill-opacity="1" fill-rule="nonzero"/><path fill="#cb2026" d="M 21.746094 21.257812 L 18.234375 17.957031 L 18.234375 23.503906 L 19.191406 23.503906 L 19.191406 20.296875 L 22.71875 23.617188 L 22.71875 18.050781 L 21.746094 18.050781 Z M 21.746094 21.257812 " fill-opacity="1" fill-rule="nonzero"/><path fill="#cb2026" d="M 14.90625 18.050781 L 14.90625 23.472656 L 15.925781 23.472656 L 15.925781 18.050781 Z M 14.90625 18.050781 " fill-opacity="1" fill-rule="nonzero"/><path fill="#cb2026" d="M 13.621094 23.472656 L 11.035156 17.941406 L 8.445312 23.472656 L 9.464844 23.472656 L 9.984375 22.300781 L 12.007812 22.300781 L 12.492188 23.472656 Z M 10.359375 21.453125 L 11.035156 19.878906 L 11.644531 21.453125 Z M 10.359375 21.453125 " fill-opacity="1" fill-rule="nonzero"/><g clip-path="url(#3a546a2a7c)"><path fill="#cb2026" d="M 6.671875 20.601562 C 7.113281 20.394531 7.378906 19.960938 7.378906 19.464844 C 7.378906 18.515625 6.640625 18.050781 5.386719 18.050781 L 4.117188 18.050781 L 4.117188 23.457031 L 5.621094 23.457031 C 6.972656 23.457031 7.707031 22.894531 7.707031 21.882812 C 7.691406 21.273438 7.269531 20.746094 6.671875 20.601562 Z M 5.558594 21.164062 C 6.265625 21.164062 6.671875 21.355469 6.671875 21.917969 C 6.671875 22.414062 6.296875 22.636719 5.558594 22.636719 L 5.136719 22.636719 L 5.136719 21.164062 Z M 5.136719 20.359375 L 5.136719 18.886719 L 5.324219 18.886719 C 6.0625 18.886719 6.4375 19.078125 6.4375 19.640625 C 6.4375 20.199219 6.0625 20.359375 5.355469 20.359375 Z M 5.136719 20.359375 " fill-opacity="1" fill-rule="nonzero"/></g><path fill="#cb2026" d="M 30.296875 23.503906 L 31.472656 23.503906 C 31.472656 23.503906 30.578125 22.460938 30.421875 22.285156 C 30.546875 22.125 31.316406 20.9375 31.316406 20.9375 L 30.359375 20.9375 L 29.902344 21.660156 L 29.070312 20.683594 C 29.777344 20.296875 30.214844 19.769531 30.214844 19.207031 C 30.214844 18.453125 29.574219 17.957031 28.742188 17.957031 C 27.816406 17.957031 27.203125 18.515625 27.203125 19.269531 C 27.238281 19.75 27.441406 20.214844 27.785156 20.554688 C 27.238281 20.875 26.734375 21.339844 26.734375 22.125 C 26.734375 22.976562 27.410156 23.632812 28.398438 23.632812 C 28.960938 23.648438 29.496094 23.40625 29.871094 22.976562 Z M 28.097656 19.285156 C 28.097656 19.125 28.160156 18.949219 28.273438 18.835938 C 28.382812 18.726562 28.554688 18.660156 28.710938 18.660156 C 28.867188 18.644531 29.007812 18.710938 29.117188 18.804688 C 29.226562 18.917969 29.292969 19.0625 29.292969 19.222656 C 29.292969 19.605469 28.914062 19.878906 28.554688 20.074219 C 28.320312 19.878906 28.144531 19.589844 28.097656 19.285156 Z M 29.308594 22.367188 C 29.101562 22.621094 28.804688 22.78125 28.476562 22.765625 C 28.273438 22.78125 28.066406 22.71875 27.910156 22.574219 C 27.753906 22.429688 27.675781 22.222656 27.675781 22.011719 C 27.707031 21.644531 27.910156 21.308594 28.222656 21.128906 L 28.257812 21.128906 Z M 29.308594 22.367188 " fill-opacity="1" fill-rule="nonzero"/><path fill="#cb2026" d="M 69.476562 21.257812 L 65.960938 17.957031 L 65.960938 23.472656 L 66.949219 23.472656 L 66.949219 20.296875 L 70.449219 23.617188 L 70.449219 18.050781 L 69.476562 18.050781 Z M 69.476562 21.257812 " fill-opacity="1" fill-rule="nonzero"/><path fill="#cb2026" d="M 64.675781 23.472656 L 62.089844 17.941406 L 59.5 23.472656 L 60.519531 23.472656 L 61.039062 22.300781 L 63.0625 22.300781 L 63.546875 23.472656 Z M 61.414062 21.453125 L 62.089844 19.878906 L 62.699219 21.453125 Z M 61.414062 21.453125 " fill-opacity="1" fill-rule="nonzero"/><g clip-path="url(#906a6c49a0)"><path fill="#cb2026" d="M 86.871094 21.019531 L 86.007812 17.121094 L 83.640625 20.265625 Z M 89.929688 20.761719 C 89.929688 23.425781 87.828125 25.574219 85.222656 25.574219 C 82.621094 25.574219 80.519531 23.425781 80.519531 20.761719 C 80.519531 18.101562 82.621094 15.949219 85.222656 15.949219 C 85.476562 15.949219 85.710938 15.984375 85.960938 16.015625 L 85.570312 16.542969 L 85.222656 16.542969 C 84.1875 16.527344 83.183594 16.945312 82.433594 17.683594 C 81.679688 18.421875 81.253906 19.445312 81.253906 20.503906 C 81.253906 22.75 83.027344 24.5625 85.222656 24.5625 C 87.417969 24.5625 89.191406 22.75 89.191406 20.503906 C 89.175781 18.871094 88.171875 17.394531 86.667969 16.832031 L 86.511719 16.175781 C 88.535156 16.738281 89.929688 18.628906 89.929688 20.761719 Z M 89.929688 20.761719 " fill-opacity="1" fill-rule="nonzero"/></g></svg>