<svg xmlns="http://www.w3.org/2000/svg" xmlns:xlink="http://www.w3.org/1999/xlink" width="75" zoomAndPan="magnify" viewBox="0 0 56.25 112.499998" height="150" preserveAspectRatio="xMidYMid meet" version="1.0"><defs><clipPath id="e0e05ea0a4"><path d="M 4.882812 56.003906 L 50.773438 56.003906 L 50.773438 60.445312 L 4.882812 60.445312 Z M 4.882812 56.003906 " clip-rule="nonzero"/></clipPath></defs><g clip-path="url(#e0e05ea0a4)"><path fill="#e82127" d="M 4.925781 56.015625 C 5.058594 56.484375 5.371094 56.777344 5.863281 56.894531 L 7.328125 56.894531 L 7.402344 56.921875 L 7.402344 60.421875 L 8.316406 60.421875 L 8.316406 56.929688 L 8.398438 56.898438 L 9.863281 56.898438 C 10.355469 56.777344 10.667969 56.484375 10.800781 56.019531 L 10.800781 56.011719 L 4.925781 56.011719 Z M 36.882812 56.011719 L 35.972656 56.011719 L 35.972656 60.433594 L 40.144531 60.433594 C 40.570312 60.277344 40.835938 59.984375 40.9375 59.5625 L 36.878906 59.5625 Z M 29.875 56.882812 C 30.359375 56.753906 30.765625 56.398438 30.863281 56.007812 L 25.761719 56.015625 L 25.761719 58.625 L 29.9375 58.625 L 29.9375 59.539062 L 26.660156 59.539062 C 26.132812 59.671875 25.742188 59.96875 25.492188 60.429688 L 30.835938 60.429688 L 30.835938 57.753906 L 26.664062 57.753906 L 26.664062 56.882812 Z M 45.433594 60.429688 L 46.339844 60.429688 L 46.339844 58.652344 L 49.628906 58.652344 L 49.628906 60.429688 L 50.535156 60.429688 L 50.535156 57.761719 L 45.433594 57.757812 Z M 16.359375 56.890625 L 19.839844 56.890625 C 20.070312 56.839844 20.273438 56.730469 20.441406 56.574219 C 20.613281 56.414062 20.726562 56.222656 20.785156 56.003906 L 15.414062 56.003906 C 15.472656 56.222656 15.585938 56.414062 15.753906 56.570312 C 15.925781 56.730469 16.125 56.839844 16.359375 56.890625 Z M 16.359375 58.636719 L 19.839844 58.636719 C 20.070312 58.585938 20.273438 58.480469 20.441406 58.320312 C 20.613281 58.160156 20.726562 57.96875 20.785156 57.75 L 15.414062 57.75 C 15.472656 57.96875 15.585938 58.160156 15.753906 58.320312 C 15.925781 58.476562 16.125 58.585938 16.359375 58.636719 Z M 16.359375 60.433594 L 19.839844 60.433594 C 20.070312 60.378906 20.273438 60.273438 20.441406 60.113281 C 20.613281 59.953125 20.726562 59.765625 20.785156 59.542969 L 15.414062 59.542969 C 15.472656 59.765625 15.585938 59.953125 15.753906 60.113281 C 15.925781 60.273438 16.125 60.378906 16.359375 60.433594 Z M 46.238281 56.894531 L 49.71875 56.894531 C 49.953125 56.839844 50.152344 56.734375 50.324219 56.574219 C 50.492188 56.414062 50.609375 56.226562 50.664062 56.003906 L 45.292969 56.003906 C 45.351562 56.226562 45.464844 56.414062 45.636719 56.574219 C 45.804688 56.734375 46.003906 56.839844 46.238281 56.894531 Z M 46.238281 56.894531 " fill-opacity="1" fill-rule="nonzero"/></g></svg>