<svg xmlns="http://www.w3.org/2000/svg" xmlns:xlink="http://www.w3.org/1999/xlink" width="130" zoomAndPan="magnify" viewBox="0 0 97.5 37.5" height="50" preserveAspectRatio="xMidYMid meet" version="1.0"><defs><clipPath id="28370e1de1"><path d="M 4.09375 13.855469 L 95 13.855469 L 95 23.476562 L 4.09375 23.476562 Z M 4.09375 13.855469 " clip-rule="nonzero"/></clipPath></defs><g clip-path="url(#28370e1de1)"><path fill="#e82127" d="M 4.144531 13.882812 C 4.265625 14.351562 4.492188 14.757812 4.824219 15.097656 C 5.15625 15.4375 5.550781 15.667969 6.007812 15.789062 L 8.914062 15.789062 L 9.0625 15.847656 L 9.0625 23.429688 L 10.875 23.429688 L 10.875 15.859375 L 11.039062 15.796875 L 13.949219 15.796875 C 14.402344 15.675781 14.792969 15.445312 15.128906 15.105469 C 15.460938 14.765625 15.6875 14.359375 15.808594 13.894531 L 15.808594 13.875 L 4.144531 13.875 Z M 67.589844 13.871094 L 65.78125 13.871094 L 65.78125 23.453125 L 74.0625 23.453125 C 74.460938 23.292969 74.800781 23.046875 75.078125 22.710938 C 75.359375 22.378906 75.546875 21.996094 75.640625 21.566406 L 67.585938 21.566406 Z M 53.675781 15.757812 C 54.640625 15.480469 55.449219 14.707031 55.640625 13.867188 L 45.511719 13.882812 L 45.511719 19.53125 L 53.796875 19.53125 L 53.796875 21.519531 L 47.292969 21.519531 C 46.792969 21.652344 46.339844 21.886719 45.9375 22.222656 C 45.53125 22.558594 45.214844 22.964844 44.980469 23.441406 L 55.585938 23.441406 L 55.585938 17.652344 L 47.300781 17.652344 L 47.300781 15.757812 Z M 84.566406 23.445312 L 86.363281 23.445312 L 86.363281 19.59375 L 92.898438 19.59375 L 92.898438 23.445312 L 94.695312 23.445312 L 94.695312 17.667969 L 84.566406 17.65625 Z M 26.839844 15.777344 L 33.753906 15.777344 C 34.214844 15.664062 34.613281 15.433594 34.949219 15.089844 C 35.289062 14.742188 35.511719 14.332031 35.628906 13.855469 L 24.964844 13.855469 C 25.082031 14.332031 25.304688 14.742188 25.644531 15.085938 C 25.980469 15.433594 26.378906 15.664062 26.839844 15.777344 Z M 26.839844 19.5625 L 33.753906 19.5625 C 34.214844 19.449219 34.613281 19.21875 34.949219 18.871094 C 35.285156 18.527344 35.511719 18.117188 35.628906 17.640625 L 24.964844 17.640625 C 25.082031 18.117188 25.308594 18.527344 25.644531 18.871094 C 25.980469 19.21875 26.378906 19.449219 26.839844 19.5625 Z M 26.839844 23.453125 L 33.753906 23.453125 C 34.214844 23.335938 34.613281 23.105469 34.949219 22.761719 C 35.285156 22.414062 35.511719 22.003906 35.628906 21.527344 L 24.964844 21.527344 C 25.082031 22.003906 25.304688 22.414062 25.644531 22.757812 C 25.980469 23.105469 26.378906 23.335938 26.839844 23.453125 Z M 86.164062 15.785156 L 93.078125 15.785156 C 93.539062 15.667969 93.9375 15.441406 94.277344 15.09375 C 94.613281 14.746094 94.839844 14.335938 94.953125 13.859375 L 84.289062 13.859375 C 84.402344 14.335938 84.628906 14.746094 84.964844 15.09375 C 85.304688 15.4375 85.703125 15.667969 86.164062 15.785156 Z M 86.164062 15.785156 " fill-opacity="1" fill-rule="nonzero"/></g></svg>