<svg xmlns="http://www.w3.org/2000/svg" xmlns:xlink="http://www.w3.org/1999/xlink" width="130" zoomAndPan="magnify" viewBox="0 0 97.5 37.5" height="50" preserveAspectRatio="xMidYMid meet" version="1.0"><defs><clipPath id="57f5544b3e"><path d="M 0.394531 10.234375 L 11 10.234375 L 11 25 L 0.394531 25 Z M 0.394531 10.234375 " clip-rule="nonzero"/></clipPath><clipPath id="5cfd315b5d"><path d="M 14 10.234375 L 25 10.234375 L 25 24 L 14 24 Z M 14 10.234375 " clip-rule="nonzero"/></clipPath><clipPath id="e8cb250363"><path d="M 27 10.234375 L 44 10.234375 L 44 24 L 27 24 Z M 27 10.234375 " clip-rule="nonzero"/></clipPath><clipPath id="df0e21c825"><path d="M 85 13 L 96.613281 13 L 96.613281 24 L 85 24 Z M 85 13 " clip-rule="nonzero"/></clipPath><clipPath id="dadb00eee3"><path d="M 64 13 L 75 13 L 75 29.480469 L 64 29.480469 Z M 64 13 " clip-rule="nonzero"/></clipPath></defs><g clip-path="url(#57f5544b3e)"><path fill="#503629" d="M 10.570312 10.234375 L 4.980469 10.234375 L 4.980469 10.703125 L 6.773438 10.703125 L 6.773438 19.945312 C 6.773438 22.707031 5.984375 23.496094 4.265625 23.496094 C 3.621094 23.566406 3.046875 23.101562 2.976562 22.457031 C 2.976562 22.382812 2.976562 22.3125 2.976562 22.242188 C 2.976562 21.238281 2.902344 20.628906 2.007812 20.628906 C 1.113281 20.628906 0.96875 21.558594 0.96875 21.847656 C 0.96875 23.136719 1.542969 24.105469 4.085938 24.105469 C 7.132812 24.105469 8.746094 23.101562 8.746094 19.695312 L 8.746094 10.703125 L 10.609375 10.703125 Z M 10.570312 10.234375 " fill-opacity="1" fill-rule="nonzero"/></g><path fill="#503629" d="M 11.289062 21.917969 C 11 21.917969 10.714844 22.027344 10.5 22.242188 C 10.285156 22.457031 10.175781 22.742188 10.175781 23.027344 C 10.175781 23.316406 10.285156 23.601562 10.5 23.78125 C 10.714844 23.996094 11 24.105469 11.289062 24.105469 C 11.574219 24.105469 11.863281 23.996094 12.078125 23.78125 C 12.292969 23.566406 12.398438 23.316406 12.398438 23.027344 C 12.398438 22.417969 11.933594 21.953125 11.324219 21.953125 L 11.289062 21.953125 " fill-opacity="1" fill-rule="nonzero"/><path fill="#503629" d="M 23.722656 21.917969 C 23.148438 21.917969 22.648438 22.382812 22.613281 22.957031 L 22.613281 22.992188 C 22.613281 23.28125 22.753906 23.566406 22.972656 23.746094 C 23.1875 23.960938 23.472656 24.066406 23.757812 24.066406 C 24.046875 24.066406 24.332031 23.960938 24.546875 23.746094 C 24.761719 23.566406 24.871094 23.28125 24.871094 22.992188 C 24.871094 22.707031 24.761719 22.417969 24.546875 22.203125 C 24.332031 21.988281 24.082031 21.882812 23.796875 21.882812 " fill-opacity="1" fill-rule="nonzero"/><g clip-path="url(#5cfd315b5d)"><path fill="#503629" d="M 19.851562 10.234375 L 14.335938 10.234375 L 14.335938 10.703125 L 15.945312 10.703125 L 15.945312 21.238281 C 15.984375 21.667969 15.945312 22.097656 15.804688 22.527344 C 15.660156 22.8125 15.410156 23.066406 15.121094 23.136719 C 14.800781 23.242188 14.441406 23.316406 14.082031 23.316406 L 14.082031 23.746094 L 19.925781 23.746094 L 19.925781 23.316406 C 19.53125 23.316406 19.171875 23.28125 18.8125 23.171875 C 18.492188 23.066406 18.242188 22.851562 18.132812 22.5625 C 18.027344 22.277344 17.953125 21.988281 17.988281 21.703125 L 17.988281 18.046875 L 19.457031 18.046875 C 23.6875 18.046875 24.871094 16.363281 24.871094 14.105469 C 24.871094 11.847656 24.117188 10.234375 19.851562 10.234375 M 19.066406 17.511719 L 17.953125 17.511719 L 17.953125 10.773438 L 18.957031 10.773438 C 22.21875 10.773438 23.007812 12.097656 23.007812 14.25 C 23.007812 16.398438 21.714844 17.582031 19.136719 17.582031 " fill-opacity="1" fill-rule="nonzero"/></g><g clip-path="url(#e8cb250363)"><path fill="#503629" d="M 42.320312 22.492188 C 42.214844 22.203125 42.179688 21.882812 42.214844 21.558594 L 42.214844 10.703125 L 43.683594 10.703125 L 43.683594 10.273438 L 40.207031 10.273438 L 35.980469 20.554688 C 35.980469 20.59375 35.941406 20.628906 35.90625 20.628906 C 35.871094 20.628906 35.835938 20.59375 35.800781 20.554688 C 35.800781 20.554688 31.429688 10.378906 31.390625 10.273438 L 27.523438 10.273438 L 27.523438 10.703125 L 29.207031 10.703125 L 29.207031 22.132812 C 29.207031 22.382812 29.097656 22.597656 28.992188 22.8125 C 28.847656 23.027344 28.632812 23.171875 28.382812 23.242188 C 28.132812 23.316406 27.84375 23.316406 27.59375 23.316406 L 27.59375 23.746094 L 31.429688 23.746094 L 31.429688 23.316406 C 31.175781 23.316406 30.960938 23.28125 30.746094 23.207031 C 30.460938 23.136719 30.246094 22.992188 30.066406 22.777344 C 29.921875 22.5625 29.851562 22.347656 29.816406 22.097656 L 29.78125 21.128906 L 29.78125 12.097656 L 29.996094 12.097656 C 29.996094 12.097656 34.976562 23.601562 34.976562 23.746094 L 35.441406 23.746094 L 40.136719 12.207031 L 40.242188 12.207031 L 40.242188 21.488281 C 40.242188 21.8125 40.207031 22.132812 40.136719 22.457031 C 40.027344 22.742188 39.8125 22.957031 39.5625 23.066406 C 39.238281 23.171875 38.917969 23.242188 38.59375 23.242188 L 38.59375 23.675781 L 43.933594 23.675781 L 43.933594 23.242188 C 43.613281 23.242188 43.253906 23.171875 42.929688 23.066406 C 42.644531 22.921875 42.429688 22.671875 42.320312 22.382812 " fill-opacity="1" fill-rule="nonzero"/></g><path fill="#503629" d="M 49.523438 13.855469 C 46.65625 13.855469 44.867188 15.71875 44.867188 19.015625 C 44.867188 23.851562 48.628906 24.140625 49.453125 24.140625 C 51.066406 24.140625 54.113281 23.136719 54.113281 18.90625 C 54.074219 15.609375 52.140625 13.855469 49.523438 13.855469 M 49.488281 23.53125 C 47.339844 23.53125 47.015625 22.457031 47.015625 19.050781 C 47.015625 16.398438 47.195312 14.394531 49.488281 14.394531 C 51.960938 14.394531 51.996094 16.472656 51.996094 18.835938 C 51.996094 22.3125 51.386719 23.53125 49.488281 23.53125 " fill-opacity="1" fill-rule="nonzero"/><path fill="#503629" d="M 61.566406 14 C 59.84375 14 59.34375 15 58.839844 16.042969 L 58.699219 16.042969 C 58.699219 16.042969 58.449219 14.570312 58.375 14.105469 L 55.042969 14.105469 L 55.042969 14.609375 L 56.835938 14.609375 L 56.835938 21.308594 C 56.871094 21.773438 56.800781 22.242188 56.621094 22.671875 C 56.441406 22.992188 56.011719 23.171875 55.367188 23.171875 L 55.078125 23.171875 L 55.078125 23.78125 L 60.597656 23.78125 L 60.597656 23.171875 L 60.347656 23.171875 C 59.628906 23.171875 59.308594 23.027344 59.128906 22.707031 C 58.949219 22.277344 58.839844 21.773438 58.914062 21.308594 L 58.914062 17.832031 C 58.914062 16.6875 59.808594 15.324219 60.847656 15.324219 C 61.921875 15.324219 61.921875 17.007812 63.179688 16.328125 C 63.824219 15.933594 63.679688 14 61.566406 14 " fill-opacity="1" fill-rule="nonzero"/><path fill="#503629" d="M 83.605469 22.742188 C 82.996094 22.742188 82.816406 22.417969 82.78125 21.882812 L 82.78125 16.578125 C 82.851562 15.863281 82.601562 15.109375 82.097656 14.570312 C 81.597656 14.070312 80.59375 13.785156 79.160156 13.785156 C 78.085938 13.710938 77.046875 13.960938 76.113281 14.535156 C 75.578125 14.859375 75.253906 15.46875 75.253906 16.078125 C 75.21875 16.328125 75.324219 16.578125 75.503906 16.757812 C 75.683594 16.902344 75.898438 16.972656 76.113281 16.972656 C 76.652344 16.972656 76.972656 16.6875 77.082031 15.96875 C 77.082031 15.539062 77.261719 15.144531 77.511719 14.824219 C 77.871094 14.5 78.371094 14.320312 78.835938 14.394531 C 79.375 14.320312 79.949219 14.535156 80.308594 14.964844 C 80.59375 15.394531 80.699219 15.863281 80.699219 16.363281 L 80.699219 18.046875 C 78.945312 18.191406 74.753906 18.550781 74.933594 21.703125 C 75.074219 23.027344 76.222656 24.03125 77.546875 23.996094 C 78.800781 23.960938 79.984375 23.386719 80.773438 22.382812 C 80.953125 23.28125 81.742188 23.890625 82.636719 23.851562 C 83.925781 23.851562 84.714844 23.207031 84.785156 21.667969 L 84.464844 21.667969 C 84.390625 22.382812 83.960938 22.742188 83.605469 22.742188 M 80.699219 21.703125 C 80.699219 21.738281 80.699219 21.738281 80.699219 21.773438 L 80.699219 21.8125 C 80.128906 22.457031 79.339844 22.851562 78.480469 22.957031 C 77.65625 22.992188 76.9375 22.347656 76.902344 21.488281 C 76.902344 21.417969 76.902344 21.34375 76.902344 21.273438 C 76.902344 19.480469 79.375 18.585938 80.738281 18.585938 Z M 80.699219 21.703125 " fill-opacity="1" fill-rule="nonzero"/><g clip-path="url(#df0e21c825)"><path fill="#503629" d="M 94.925781 22.671875 C 94.675781 22.242188 94.570312 21.738281 94.570312 21.238281 L 94.570312 16.867188 C 94.605469 16.292969 94.496094 15.753906 94.246094 15.253906 C 94.03125 14.859375 93.671875 14.5 93.277344 14.285156 C 92.8125 14.070312 92.3125 13.960938 91.808594 13.960938 C 90.484375 13.925781 89.265625 14.644531 88.65625 15.824219 L 88.441406 15.824219 L 88.082031 14.070312 L 85.109375 14.070312 L 85.109375 14.570312 L 86.613281 14.570312 L 86.613281 21.238281 C 86.613281 21.632812 86.578125 21.988281 86.507812 22.382812 C 86.433594 22.671875 86.21875 22.921875 85.933594 22.992188 C 85.683594 23.101562 85.394531 23.136719 85.109375 23.136719 L 85.109375 23.746094 L 89.875 23.746094 L 89.875 23.136719 C 89.515625 23.171875 89.15625 22.992188 88.90625 22.742188 C 88.691406 22.3125 88.585938 21.847656 88.65625 21.378906 L 88.65625 18.835938 C 88.550781 17.90625 88.691406 16.972656 89.015625 16.078125 C 89.410156 15.394531 90.160156 14.964844 90.949219 15 C 91.488281 14.929688 92.023438 15.21875 92.277344 15.683594 C 92.527344 16.398438 92.632812 17.1875 92.597656 17.941406 L 92.597656 21.09375 C 92.632812 21.488281 92.632812 21.882812 92.597656 22.277344 C 92.5625 22.5625 92.417969 22.8125 92.167969 22.957031 C 91.917969 23.101562 91.667969 23.171875 91.414062 23.171875 L 91.414062 23.78125 L 96.039062 23.78125 L 96.039062 23.171875 C 95.464844 23.101562 95.105469 22.957031 94.925781 22.671875 " fill-opacity="1" fill-rule="nonzero"/></g><g clip-path="url(#dadb00eee3)"><path fill="#503629" d="M 73.320312 13.460938 C 72.996094 13.605469 72.78125 13.890625 72.746094 14.214844 C 72.675781 14.609375 72.53125 14.824219 72.316406 14.894531 C 72.101562 14.964844 71.851562 14.929688 71.636719 14.859375 C 70.773438 14.105469 69.628906 13.746094 68.515625 13.820312 C 66.546875 13.675781 64.789062 15.144531 64.648438 17.117188 C 64.648438 17.257812 64.648438 17.402344 64.648438 17.546875 C 64.648438 19.625 65.433594 20.554688 67.15625 20.949219 C 67.261719 20.949219 67.261719 21.09375 67.15625 21.09375 C 65.6875 21.34375 64.394531 21.773438 64.394531 23.207031 C 64.394531 23.890625 64.824219 24.5 65.472656 24.714844 C 66.402344 25.035156 67.371094 25.179688 68.339844 25.144531 C 69.089844 25.144531 69.878906 25.179688 70.632812 25.25 C 71.0625 25.285156 71.492188 25.429688 71.886719 25.679688 C 72.207031 25.96875 72.386719 26.363281 72.351562 26.792969 C 72.351562 27.472656 71.921875 28.082031 71.3125 28.332031 C 70.488281 28.726562 69.59375 28.90625 68.695312 28.871094 C 67.871094 28.941406 67.011719 28.761719 66.296875 28.332031 C 65.867188 28.011719 65.648438 27.472656 65.792969 26.972656 C 65.9375 26.578125 65.722656 26.109375 65.292969 25.96875 L 65.183594 25.96875 C 64.863281 25.933594 64.539062 26.074219 64.359375 26.324219 C 64.21875 26.578125 64.109375 26.898438 64.144531 27.222656 C 64.179688 28.152344 64.824219 28.90625 65.757812 29.085938 C 66.617188 29.371094 67.515625 29.480469 68.410156 29.480469 C 69.449219 29.515625 70.488281 29.335938 71.457031 28.90625 C 72.601562 28.402344 73.390625 27.292969 73.390625 26.039062 C 73.425781 25.429688 73.246094 24.855469 72.925781 24.355469 C 71.957031 23.027344 70.59375 23.207031 67.515625 23.066406 C 66.042969 23.066406 65.757812 22.8125 65.757812 22.382812 C 65.757812 21.703125 66.296875 21.453125 68.410156 21.128906 C 70.523438 20.808594 72.496094 20.019531 72.496094 17.472656 C 72.496094 16.867188 72.386719 16.21875 72.101562 15.648438 C 72.496094 15.753906 72.925781 15.753906 73.320312 15.648438 C 73.675781 15.539062 74 15.289062 74.179688 14.964844 C 74.359375 14.714844 74.429688 14.355469 74.359375 14.070312 C 74.179688 13.53125 73.820312 13.316406 73.320312 13.460938 M 68.554688 20.519531 C 67.296875 20.519531 66.546875 20.054688 66.546875 17.511719 C 66.546875 15.71875 67.15625 14.394531 68.554688 14.394531 C 70.128906 14.394531 70.558594 15.609375 70.558594 17.472656 C 70.523438 20.125 69.699219 20.519531 68.554688 20.519531 " fill-opacity="1" fill-rule="nonzero"/></g></svg>