<svg xmlns="http://www.w3.org/2000/svg" xmlns:xlink="http://www.w3.org/1999/xlink" width="75" zoomAndPan="magnify" viewBox="0 0 56.25 112.499998" height="150" preserveAspectRatio="xMidYMid meet" version="1.0"><defs><clipPath id="ff146ba4d0"><path d="M 0 45.375 L 6 45.375 L 6 53 L 0 53 Z M 0 45.375 " clip-rule="nonzero"/></clipPath><clipPath id="9c8228378a"><path d="M 7 45.375 L 14 45.375 L 14 53 L 7 53 Z M 7 45.375 " clip-rule="nonzero"/></clipPath><clipPath id="8949423ea9"><path d="M 15 45.375 L 25 45.375 L 25 53 L 15 53 Z M 15 45.375 " clip-rule="nonzero"/></clipPath><clipPath id="97e7cd4401"><path d="M 35 47 L 41 47 L 41 55.738281 L 35 55.738281 Z M 35 47 " clip-rule="nonzero"/></clipPath></defs><g clip-path="url(#ff146ba4d0)"><path fill="#503629" d="M 5.636719 45.375 L 2.539062 45.375 L 2.539062 45.625 L 3.53125 45.625 L 3.53125 50.605469 C 3.53125 52.089844 3.097656 52.515625 2.144531 52.515625 C 1.785156 52.554688 1.46875 52.300781 1.429688 51.953125 C 1.429688 51.917969 1.429688 51.878906 1.429688 51.839844 C 1.429688 51.296875 1.390625 50.96875 0.894531 50.96875 C 0.398438 50.96875 0.316406 51.472656 0.316406 51.625 C 0.316406 52.320312 0.636719 52.84375 2.042969 52.84375 C 3.730469 52.84375 4.625 52.300781 4.625 50.46875 L 4.625 45.625 L 5.65625 45.625 Z M 5.636719 45.375 " fill-opacity="1" fill-rule="nonzero"/></g><path fill="#503629" d="M 6.035156 51.664062 C 5.875 51.664062 5.714844 51.722656 5.597656 51.839844 C 5.476562 51.953125 5.417969 52.109375 5.417969 52.261719 C 5.417969 52.417969 5.476562 52.570312 5.597656 52.667969 C 5.714844 52.785156 5.875 52.84375 6.035156 52.84375 C 6.191406 52.84375 6.351562 52.785156 6.46875 52.667969 C 6.589844 52.554688 6.648438 52.417969 6.648438 52.261719 C 6.648438 51.933594 6.390625 51.683594 6.054688 51.683594 L 6.035156 51.683594 " fill-opacity="1" fill-rule="nonzero"/><path fill="#503629" d="M 12.921875 51.664062 C 12.601562 51.664062 12.324219 51.917969 12.304688 52.226562 L 12.304688 52.242188 C 12.304688 52.398438 12.382812 52.554688 12.503906 52.648438 C 12.621094 52.765625 12.78125 52.824219 12.941406 52.824219 C 13.097656 52.824219 13.257812 52.765625 13.375 52.648438 C 13.496094 52.554688 13.554688 52.398438 13.554688 52.242188 C 13.554688 52.089844 13.496094 51.933594 13.375 51.820312 C 13.257812 51.703125 13.117188 51.644531 12.960938 51.644531 " fill-opacity="1" fill-rule="nonzero"/><g clip-path="url(#9c8228378a)"><path fill="#503629" d="M 10.777344 45.375 L 7.71875 45.375 L 7.71875 45.625 L 8.613281 45.625 L 8.613281 51.296875 C 8.632812 51.53125 8.613281 51.761719 8.535156 51.992188 C 8.453125 52.148438 8.316406 52.28125 8.15625 52.320312 C 7.980469 52.378906 7.78125 52.417969 7.582031 52.417969 L 7.582031 52.648438 L 10.816406 52.648438 L 10.816406 52.417969 C 10.597656 52.417969 10.398438 52.398438 10.203125 52.339844 C 10.023438 52.28125 9.882812 52.167969 9.824219 52.011719 C 9.765625 51.859375 9.726562 51.703125 9.746094 51.550781 L 9.746094 49.582031 L 10.558594 49.582031 C 12.902344 49.582031 13.554688 48.675781 13.554688 47.457031 C 13.554688 46.242188 13.140625 45.375 10.777344 45.375 M 10.339844 49.292969 L 9.726562 49.292969 L 9.726562 45.664062 L 10.28125 45.664062 C 12.085938 45.664062 12.523438 46.378906 12.523438 47.535156 C 12.523438 48.695312 11.808594 49.332031 10.378906 49.332031 " fill-opacity="1" fill-rule="nonzero"/></g><g clip-path="url(#8949423ea9)"><path fill="#503629" d="M 23.222656 51.972656 C 23.160156 51.820312 23.140625 51.644531 23.160156 51.472656 L 23.160156 45.625 L 23.976562 45.625 L 23.976562 45.394531 L 22.050781 45.394531 L 19.707031 50.933594 C 19.707031 50.953125 19.6875 50.96875 19.667969 50.96875 C 19.648438 50.96875 19.628906 50.953125 19.609375 50.933594 C 19.609375 50.933594 17.1875 45.453125 17.167969 45.394531 L 15.023438 45.394531 L 15.023438 45.625 L 15.957031 45.625 L 15.957031 51.78125 C 15.957031 51.917969 15.898438 52.03125 15.839844 52.148438 C 15.757812 52.261719 15.640625 52.339844 15.5 52.378906 C 15.363281 52.417969 15.203125 52.417969 15.0625 52.417969 L 15.0625 52.648438 L 17.1875 52.648438 L 17.1875 52.417969 C 17.046875 52.417969 16.929688 52.398438 16.808594 52.359375 C 16.652344 52.320312 16.53125 52.242188 16.433594 52.128906 C 16.355469 52.011719 16.3125 51.898438 16.292969 51.761719 L 16.273438 51.242188 L 16.273438 46.378906 L 16.394531 46.378906 C 16.394531 46.378906 19.152344 52.570312 19.152344 52.648438 L 19.410156 52.648438 L 22.011719 46.4375 L 22.070312 46.4375 L 22.070312 51.433594 C 22.070312 51.605469 22.050781 51.78125 22.011719 51.953125 C 21.949219 52.109375 21.832031 52.226562 21.691406 52.28125 C 21.515625 52.339844 21.335938 52.378906 21.15625 52.378906 L 21.15625 52.609375 L 24.113281 52.609375 L 24.113281 52.378906 C 23.9375 52.378906 23.738281 52.339844 23.558594 52.28125 C 23.398438 52.207031 23.28125 52.070312 23.222656 51.917969 " fill-opacity="1" fill-rule="nonzero"/></g><path fill="#503629" d="M 27.210938 47.324219 C 25.621094 47.324219 24.628906 48.328125 24.628906 50.101562 C 24.628906 52.707031 26.714844 52.863281 27.171875 52.863281 C 28.0625 52.863281 29.75 52.320312 29.75 50.042969 C 29.730469 48.269531 28.660156 47.324219 27.210938 47.324219 M 27.191406 52.535156 C 26 52.535156 25.820312 51.953125 25.820312 50.121094 C 25.820312 48.695312 25.921875 47.613281 27.191406 47.613281 C 28.558594 47.613281 28.578125 48.730469 28.578125 50.003906 C 28.578125 51.878906 28.242188 52.535156 27.191406 52.535156 " fill-opacity="1" fill-rule="nonzero"/><path fill="#503629" d="M 33.878906 47.402344 C 32.925781 47.402344 32.648438 47.941406 32.371094 48.5 L 32.292969 48.5 C 32.292969 48.5 32.152344 47.710938 32.113281 47.457031 L 30.265625 47.457031 L 30.265625 47.730469 L 31.257812 47.730469 L 31.257812 51.335938 C 31.277344 51.589844 31.238281 51.839844 31.140625 52.070312 C 31.039062 52.242188 30.800781 52.339844 30.445312 52.339844 L 30.285156 52.339844 L 30.285156 52.667969 L 33.34375 52.667969 L 33.34375 52.339844 L 33.203125 52.339844 C 32.808594 52.339844 32.628906 52.261719 32.53125 52.089844 C 32.429688 51.859375 32.371094 51.589844 32.410156 51.335938 L 32.410156 49.464844 C 32.410156 48.847656 32.90625 48.113281 33.480469 48.113281 C 34.078125 48.113281 34.078125 49.023438 34.773438 48.65625 C 35.128906 48.441406 35.050781 47.402344 33.878906 47.402344 " fill-opacity="1" fill-rule="nonzero"/><path fill="#503629" d="M 46.085938 52.109375 C 45.746094 52.109375 45.648438 51.933594 45.628906 51.644531 L 45.628906 48.789062 C 45.667969 48.402344 45.527344 48 45.25 47.710938 C 44.972656 47.441406 44.417969 47.285156 43.625 47.285156 C 43.027344 47.246094 42.453125 47.382812 41.9375 47.691406 C 41.640625 47.863281 41.460938 48.191406 41.460938 48.519531 C 41.441406 48.65625 41.5 48.789062 41.597656 48.886719 C 41.699219 48.964844 41.816406 49.003906 41.9375 49.003906 C 42.234375 49.003906 42.414062 48.847656 42.472656 48.460938 C 42.472656 48.230469 42.570312 48.019531 42.710938 47.84375 C 42.910156 47.671875 43.1875 47.574219 43.445312 47.613281 C 43.742188 47.574219 44.0625 47.691406 44.257812 47.921875 C 44.417969 48.152344 44.476562 48.402344 44.476562 48.675781 L 44.476562 49.582031 C 43.503906 49.660156 41.183594 49.851562 41.28125 51.550781 C 41.363281 52.261719 41.996094 52.804688 42.730469 52.785156 C 43.425781 52.765625 44.082031 52.457031 44.515625 51.917969 C 44.617188 52.398438 45.054688 52.726562 45.550781 52.707031 C 46.261719 52.707031 46.699219 52.359375 46.738281 51.53125 L 46.5625 51.53125 C 46.523438 51.917969 46.285156 52.109375 46.085938 52.109375 M 44.476562 51.550781 C 44.476562 51.570312 44.476562 51.570312 44.476562 51.589844 L 44.476562 51.605469 C 44.160156 51.953125 43.722656 52.167969 43.246094 52.226562 C 42.789062 52.242188 42.394531 51.898438 42.375 51.433594 C 42.375 51.394531 42.375 51.355469 42.375 51.316406 C 42.375 50.351562 43.742188 49.871094 44.496094 49.871094 Z M 44.476562 51.550781 " fill-opacity="1" fill-rule="nonzero"/><path fill="#503629" d="M 52.355469 52.070312 C 52.21875 51.839844 52.15625 51.570312 52.15625 51.296875 L 52.15625 48.945312 C 52.179688 48.636719 52.117188 48.347656 51.980469 48.078125 C 51.859375 47.863281 51.660156 47.671875 51.445312 47.554688 C 51.1875 47.441406 50.90625 47.382812 50.628906 47.382812 C 49.894531 47.363281 49.222656 47.75 48.882812 48.386719 L 48.765625 48.386719 L 48.566406 47.441406 L 46.917969 47.441406 L 46.917969 47.710938 L 47.753906 47.710938 L 47.753906 51.296875 C 47.753906 51.511719 47.730469 51.703125 47.691406 51.917969 C 47.652344 52.070312 47.535156 52.207031 47.375 52.242188 C 47.234375 52.300781 47.078125 52.320312 46.917969 52.320312 L 46.917969 52.648438 L 49.558594 52.648438 L 49.558594 52.320312 C 49.359375 52.339844 49.160156 52.242188 49.023438 52.109375 C 48.902344 51.878906 48.84375 51.625 48.882812 51.375 L 48.882812 50.003906 C 48.824219 49.503906 48.902344 49.003906 49.082031 48.519531 C 49.300781 48.152344 49.71875 47.921875 50.152344 47.941406 C 50.453125 47.902344 50.75 48.058594 50.886719 48.308594 C 51.027344 48.695312 51.085938 49.117188 51.066406 49.523438 L 51.066406 51.222656 C 51.085938 51.433594 51.085938 51.644531 51.066406 51.859375 C 51.046875 52.011719 50.96875 52.148438 50.828125 52.226562 C 50.691406 52.300781 50.550781 52.339844 50.410156 52.339844 L 50.410156 52.667969 L 52.972656 52.667969 L 52.972656 52.339844 C 52.65625 52.300781 52.457031 52.226562 52.355469 52.070312 " fill-opacity="1" fill-rule="nonzero"/><g clip-path="url(#97e7cd4401)"><path fill="#503629" d="M 40.390625 47.113281 C 40.210938 47.1875 40.089844 47.34375 40.070312 47.515625 C 40.03125 47.730469 39.953125 47.84375 39.832031 47.882812 C 39.714844 47.921875 39.574219 47.902344 39.457031 47.863281 C 38.980469 47.457031 38.34375 47.265625 37.730469 47.304688 C 36.636719 47.226562 35.664062 48.019531 35.585938 49.078125 C 35.585938 49.15625 35.585938 49.234375 35.585938 49.3125 C 35.585938 50.429688 36.023438 50.933594 36.976562 51.144531 C 37.035156 51.144531 37.035156 51.222656 36.976562 51.222656 C 36.160156 51.355469 35.445312 51.589844 35.445312 52.359375 C 35.445312 52.726562 35.683594 53.054688 36.042969 53.171875 C 36.558594 53.34375 37.09375 53.421875 37.628906 53.402344 C 38.046875 53.402344 38.484375 53.421875 38.898438 53.460938 C 39.136719 53.480469 39.375 53.554688 39.59375 53.691406 C 39.773438 53.84375 39.871094 54.058594 39.851562 54.289062 C 39.851562 54.65625 39.613281 54.984375 39.277344 55.121094 C 38.820312 55.332031 38.324219 55.429688 37.828125 55.410156 C 37.371094 55.445312 36.894531 55.351562 36.5 55.121094 C 36.261719 54.945312 36.140625 54.65625 36.222656 54.386719 C 36.300781 54.171875 36.179688 53.921875 35.941406 53.84375 L 35.882812 53.84375 C 35.703125 53.828125 35.527344 53.902344 35.425781 54.039062 C 35.347656 54.171875 35.289062 54.347656 35.308594 54.519531 C 35.328125 55.023438 35.683594 55.429688 36.199219 55.523438 C 36.675781 55.679688 37.171875 55.738281 37.667969 55.738281 C 38.246094 55.757812 38.820312 55.660156 39.355469 55.429688 C 39.992188 55.15625 40.429688 54.558594 40.429688 53.882812 C 40.449219 53.554688 40.347656 53.246094 40.171875 52.976562 C 39.632812 52.261719 38.878906 52.359375 37.171875 52.28125 C 36.359375 52.28125 36.199219 52.148438 36.199219 51.917969 C 36.199219 51.550781 36.5 51.414062 37.667969 51.242188 C 38.839844 51.066406 39.933594 50.640625 39.933594 49.273438 C 39.933594 48.945312 39.871094 48.597656 39.714844 48.289062 C 39.933594 48.347656 40.171875 48.347656 40.390625 48.289062 C 40.585938 48.230469 40.765625 48.09375 40.863281 47.921875 C 40.964844 47.785156 41.003906 47.59375 40.964844 47.441406 C 40.863281 47.148438 40.667969 47.035156 40.390625 47.113281 M 37.75 50.914062 C 37.054688 50.914062 36.636719 50.660156 36.636719 49.292969 C 36.636719 48.328125 36.976562 47.613281 37.75 47.613281 C 38.621094 47.613281 38.859375 48.269531 38.859375 49.273438 C 38.839844 50.699219 38.382812 50.914062 37.75 50.914062 " fill-opacity="1" fill-rule="nonzero"/></g></svg>