<svg xmlns="http://www.w3.org/2000/svg" xmlns:xlink="http://www.w3.org/1999/xlink" width="130" zoomAndPan="magnify" viewBox="0 0 97.5 37.5" height="50" preserveAspectRatio="xMidYMid meet" version="1.0"><defs><clipPath id="0fa4b3fbe5"><path d="M 49 10.421875 L 60 10.421875 L 60 30.40625 L 49 30.40625 Z M 49 10.421875 " clip-rule="nonzero"/></clipPath><clipPath id="cbe223d0a7"><path d="M 81 10.421875 L 95 10.421875 L 95 30.40625 L 81 30.40625 Z M 81 10.421875 " clip-rule="nonzero"/></clipPath><clipPath id="a8310b7e46"><path d="M 0.394531 12 L 12 12 L 12 30.40625 L 0.394531 30.40625 Z M 0.394531 12 " clip-rule="nonzero"/></clipPath><clipPath id="09e3212c32"><path d="M 12 14 L 21 14 L 21 30.40625 L 12 30.40625 Z M 12 14 " clip-rule="nonzero"/></clipPath><clipPath id="37a78984ba"><path d="M 21 17 L 34 17 L 34 30.40625 L 21 30.40625 Z M 21 17 " clip-rule="nonzero"/></clipPath><clipPath id="ed7dfa449a"><path d="M 57 17 L 71 17 L 71 30.40625 L 57 30.40625 Z M 57 17 " clip-rule="nonzero"/></clipPath><clipPath id="d891f7b6b6"><path d="M 34 17 L 49 17 L 49 30.40625 L 34 30.40625 Z M 34 17 " clip-rule="nonzero"/></clipPath><clipPath id="4bf56221f7"><path d="M 71 17 L 81 17 L 81 30.40625 L 71 30.40625 Z M 71 17 " clip-rule="nonzero"/></clipPath></defs><g clip-path="url(#0fa4b3fbe5)"><path fill="#8c1515" d="M 52.171875 12.496094 C 52.9375 11.15625 54.476562 10.453125 55.96875 10.4375 C 57.328125 10.351562 58.867188 10.578125 59.820312 11.667969 C 59.335938 12.3125 58.875 12.972656 58.386719 13.621094 C 57.847656 12.992188 57.402344 12.109375 56.53125 11.929688 C 55.667969 11.660156 54.585938 12.113281 54.363281 13.046875 C 54 14.523438 54.21875 16.070312 54.167969 17.578125 L 56.960938 17.578125 L 56.960938 19.261719 L 54.164062 19.261719 C 54.164062 21.800781 54.164062 24.335938 54.160156 26.875 C 54.152344 27.59375 54.265625 28.304688 54.398438 29.007812 C 55.039062 29.308594 55.726562 29.460938 56.433594 29.476562 C 56.429688 29.652344 56.429688 30.003906 56.425781 30.179688 C 54.140625 30.03125 51.851562 29.984375 49.570312 30.179688 C 49.570312 30.03125 49.574219 29.734375 49.574219 29.585938 C 50.296875 29.457031 51.191406 29.117188 51.222656 28.238281 C 51.5 25.257812 51.3125 22.253906 51.367188 19.261719 C 50.8125 19.261719 50.253906 19.261719 49.695312 19.261719 C 49.699219 19.007812 49.707031 18.75 49.707031 18.496094 C 50.273438 18.234375 50.824219 17.941406 51.367188 17.636719 C 51.367188 15.910156 51.265625 14.039062 52.171875 12.496094 Z M 52.171875 12.496094 " fill-opacity="1" fill-rule="nonzero"/></g><g clip-path="url(#cbe223d0a7)"><path fill="#8c1515" d="M 93.367188 10.4375 C 91.890625 10.78125 90.394531 11.070312 88.875 11.140625 C 88.859375 11.277344 88.828125 11.558594 88.816406 11.699219 C 89.382812 11.871094 90.300781 11.824219 90.34375 12.625 C 90.570312 14.238281 90.410156 15.878906 90.453125 17.507812 C 88.277344 17.128906 85.847656 17.152344 83.996094 18.523438 C 81.96875 19.960938 81.273438 22.636719 81.476562 25.023438 C 81.589844 26.875 82.507812 28.773438 84.164062 29.675781 C 86.140625 30.773438 88.667969 30.546875 90.519531 29.28125 C 90.535156 29.65625 90.542969 30.03125 90.542969 30.40625 C 91.976562 30.035156 93.441406 29.828125 94.914062 29.742188 L 94.914062 29.097656 C 92.828125 28.734375 93.40625 27.757812 93.257812 26.097656 C 93.261719 20.878906 93.183594 15.65625 93.367188 10.4375 Z M 87.953125 18.855469 C 88.835938 18.84375 89.730469 19.128906 90.453125 19.625 C 90.457031 22.433594 90.449219 25.246094 90.460938 28.054688 C 88.910156 28.773438 86.8125 28.722656 85.597656 27.390625 C 84.558594 26.265625 84.382812 24.617188 84.476562 23.144531 C 84.578125 21.808594 84.855469 20.277344 86.011719 19.449219 C 86.589844 19.046875 87.265625 18.859375 87.953125 18.851562 Z M 87.953125 18.855469 " fill-opacity="1" fill-rule="nonzero"/></g><g clip-path="url(#a8310b7e46)"><path fill="#8c1515" d="M 5.503906 12.152344 C 7.257812 12.042969 9.019531 12.160156 10.757812 12.40625 C 10.652344 13.65625 10.664062 14.914062 10.757812 16.164062 C 10.589844 16.164062 10.253906 16.167969 10.085938 16.167969 C 9.953125 15.386719 9.816406 14.4375 8.992188 14.089844 C 7.773438 13.570312 6.34375 13.519531 5.082031 13.890625 C 3.425781 14.386719 3.15625 16.847656 4.386719 17.921875 C 5.925781 19.285156 7.808594 20.179688 9.386719 21.5 C 11.855469 23.488281 11.535156 28.117188 8.605469 29.507812 C 6.136719 30.660156 3.242188 30.371094 0.695312 29.644531 C 0.710938 28.40625 0.667969 27.167969 0.609375 25.933594 C 0.792969 25.929688 1.164062 25.921875 1.351562 25.917969 C 1.480469 26.695312 1.601562 27.652344 2.382812 28.054688 C 3.777344 28.847656 5.578125 28.910156 7.027344 28.230469 C 8.835938 27.21875 8.503906 24.300781 6.8125 23.316406 C 5.34375 22.175781 3.65625 21.328125 2.300781 20.039062 C 0.800781 18.628906 0.613281 16.15625 1.582031 14.390625 C 2.371094 12.984375 3.964844 12.28125 5.503906 12.152344 Z M 5.503906 12.152344 " fill-opacity="1" fill-rule="nonzero"/></g><g clip-path="url(#09e3212c32)"><path fill="#8c1515" d="M 15.921875 14.800781 C 16.058594 14.808594 16.339844 14.820312 16.476562 14.828125 C 16.472656 15.769531 16.472656 16.707031 16.472656 17.644531 L 20.734375 17.644531 L 20.734375 19.261719 L 16.472656 19.261719 C 16.492188 21.523438 16.441406 23.789062 16.5 26.054688 C 16.558594 26.917969 16.582031 27.992188 17.378906 28.519531 C 18.382812 29.125 19.582031 28.746094 20.585938 28.351562 C 20.894531 29.113281 20.109375 29.542969 19.5625 29.859375 C 18.28125 30.488281 16.71875 30.554688 15.394531 30.035156 C 14.265625 29.605469 13.71875 28.351562 13.660156 27.207031 C 13.523438 24.558594 13.660156 21.910156 13.679688 19.261719 L 12.015625 19.261719 C 12.011719 19.085938 12.011719 18.910156 12.007812 18.734375 C 13.816406 18.046875 15.035156 16.46875 15.921875 14.800781 Z M 15.921875 14.800781 " fill-opacity="1" fill-rule="nonzero"/></g><g clip-path="url(#37a78984ba)"><path fill="#8c1515" d="M 27.324219 17.21875 C 25.40625 17.199219 23.46875 18.164062 22.851562 20.113281 C 23.019531 20.210938 23.359375 20.402344 23.53125 20.5 C 24.269531 19.179688 25.992188 18.503906 27.351562 19.265625 C 28.414062 19.753906 28.507812 21.070312 28.484375 22.105469 C 26.808594 22.648438 25.074219 23.078125 23.492188 23.875 C 21.597656 24.886719 21.351562 27.757812 22.710938 29.3125 C 24.3125 30.796875 26.984375 30.554688 28.566406 29.152344 C 29.046875 30.117188 30.1875 30.484375 31.179688 30.203125 C 32.046875 30.035156 32.617188 29.304688 33.1875 28.6875 C 33.085938 28.574219 32.886719 28.34375 32.789062 28.230469 C 32.433594 28.320312 32.03125 28.605469 31.679688 28.328125 C 31.226562 28.011719 31.285156 27.378906 31.253906 26.894531 C 31.285156 24.800781 31.398438 22.707031 31.289062 20.613281 C 31.234375 19.53125 30.757812 18.425781 29.808594 17.855469 C 29.066406 17.441406 28.199219 17.226562 27.324219 17.21875 Z M 28.457031 23.734375 C 28.464844 25.144531 28.457031 26.554688 28.464844 27.960938 C 27.574219 28.363281 26.515625 28.734375 25.574219 28.273438 C 24.421875 27.65625 24.472656 25.800781 25.421875 25.023438 C 26.335938 24.386719 27.417969 24.089844 28.457031 23.734375 Z M 28.457031 23.734375 " fill-opacity="1" fill-rule="nonzero"/></g><g clip-path="url(#ed7dfa449a)"><path fill="#8c1515" d="M 64.035156 17.273438 C 62.632812 17.289062 61.183594 17.640625 60.085938 18.566406 C 58.453125 19.902344 57.742188 22.109375 57.816406 24.183594 C 57.808594 25.957031 58.355469 27.851562 59.734375 29.03125 C 61.367188 30.46875 63.742188 30.613281 65.773438 30.183594 C 67.917969 29.707031 69.53125 27.808594 69.984375 25.679688 C 70.476562 23.472656 70.269531 20.90625 68.769531 19.121094 C 67.613281 17.753906 65.761719 17.238281 64.035156 17.273438 Z M 64.054688 18.78125 C 64.808594 18.792969 65.554688 19.109375 66.039062 19.714844 C 66.914062 20.800781 67.148438 22.261719 67.210938 23.621094 C 67.222656 25.105469 67.035156 26.710938 66.113281 27.921875 C 65.203125 29.109375 63.246094 29.242188 62.199219 28.171875 C 61.398438 27.421875 61.101562 26.304688 60.917969 25.253906 C 60.730469 23.855469 60.777344 22.40625 61.210938 21.0625 C 61.515625 20.160156 62.105469 19.25 63.042969 18.945312 C 63.367188 18.828125 63.710938 18.773438 64.054688 18.777344 Z M 64.054688 18.78125 " fill-opacity="1" fill-rule="nonzero"/></g><g clip-path="url(#d891f7b6b6)"><path fill="#8c1515" d="M 34.1875 18.128906 C 35.675781 18.105469 37.1875 17.949219 38.5625 17.324219 C 38.609375 17.683594 38.644531 18.042969 38.675781 18.40625 C 40.253906 17.359375 42.296875 16.953125 44.105469 17.601562 C 45.398438 18.039062 46.304688 19.320312 46.417969 20.679688 C 46.683594 23.261719 46.296875 25.878906 46.640625 28.457031 C 46.675781 29.269531 47.539062 29.453125 48.164062 29.582031 C 48.167969 29.734375 48.167969 30.035156 48.171875 30.1875 C 46.054688 30.015625 41.820312 30.179688 41.820312 30.179688 L 41.8125 29.566406 C 41.8125 29.566406 43.339844 29.132812 43.4375 28.6875 C 43.785156 26.773438 43.703125 24.789062 43.6875 22.84375 C 43.617188 21.679688 43.644531 20.222656 42.546875 19.515625 C 41.367188 18.828125 39.917969 19.148438 38.714844 19.589844 C 38.722656 22.113281 38.714844 24.636719 38.714844 27.15625 C 38.746094 27.832031 38.699219 28.597656 39.132812 29.15625 C 39.5 29.414062 39.957031 29.460938 40.375 29.578125 C 40.378906 29.730469 40.378906 30.035156 40.378906 30.1875 C 38.292969 30.050781 36.203125 29.960938 34.121094 30.183594 C 34.121094 30.035156 34.125 29.734375 34.125 29.585938 C 34.761719 29.4375 35.597656 29.234375 35.714844 28.460938 C 36.007812 26.601562 35.78125 24.703125 35.851562 22.828125 C 35.824219 21.757812 35.941406 20.675781 35.757812 19.621094 C 35.609375 18.898438 34.738281 18.9375 34.191406 18.796875 C 34.191406 18.628906 34.1875 18.296875 34.1875 18.128906 Z M 34.1875 18.128906 " fill-opacity="1" fill-rule="nonzero"/></g><g clip-path="url(#4bf56221f7)"><path fill="#8c1515" d="M 71.40625 18.070312 C 72.898438 18.050781 74.390625 17.84375 75.808594 17.363281 L 75.847656 18.472656 C 77.28125 17.308594 79.441406 17.011719 80.964844 18.167969 L 79.375 20.621094 C 78.632812 19.464844 77.125 19.183594 75.933594 19.773438 C 75.933594 19.773438 75.925781 24.871094 75.941406 27.421875 C 76.003906 27.988281 75.914062 28.726562 76.441406 29.097656 C 76.953125 29.398438 77.570312 29.382812 78.136719 29.476562 C 78.136719 29.652344 78.132812 30.007812 78.132812 30.179688 C 75.847656 30.023438 73.550781 29.992188 71.265625 30.175781 L 71.265625 29.476562 C 72 29.347656 72.769531 29.089844 72.882812 28.644531 C 73.199219 27.550781 73.042969 26.390625 73.074219 25.261719 C 73.042969 23.464844 73.140625 21.664062 73.03125 19.871094 C 73.023438 19 72.046875 18.921875 71.414062 18.792969 C 71.414062 18.546875 71.410156 18.292969 71.410156 18.070312 Z M 71.40625 18.070312 " fill-opacity="1" fill-rule="nonzero"/></g></svg>