<svg xmlns="http://www.w3.org/2000/svg" xmlns:xlink="http://www.w3.org/1999/xlink" width="75" zoomAndPan="magnify" viewBox="0 0 56.25 112.499998" height="150" preserveAspectRatio="xMidYMid meet" version="1.0"><defs><clipPath id="cfa8eedb4d"><path d="M 28 49.519531 L 34 49.519531 L 34 59.140625 L 28 59.140625 Z M 28 49.519531 " clip-rule="nonzero"/></clipPath><clipPath id="66e145c1d7"><path d="M 44 49.519531 L 51.523438 49.519531 L 51.523438 59.140625 L 44 59.140625 Z M 44 49.519531 " clip-rule="nonzero"/></clipPath><clipPath id="468ac128c7"><path d="M 4.152344 50 L 10 50 L 10 59.140625 L 4.152344 59.140625 Z M 4.152344 50 " clip-rule="nonzero"/></clipPath><clipPath id="14937d1f53"><path d="M 9 51 L 15 51 L 15 59.140625 L 9 59.140625 Z M 9 51 " clip-rule="nonzero"/></clipPath><clipPath id="136571bf1c"><path d="M 14 52 L 21 52 L 21 59.140625 L 14 59.140625 Z M 14 52 " clip-rule="nonzero"/></clipPath><clipPath id="71964f684f"><path d="M 32 52 L 40 52 L 40 59.140625 L 32 59.140625 Z M 32 52 " clip-rule="nonzero"/></clipPath><clipPath id="6532d505cb"><path d="M 21 52 L 29 52 L 29 59.140625 L 21 59.140625 Z M 21 52 " clip-rule="nonzero"/></clipPath><clipPath id="e8ebd2e5b0"><path d="M 39 52 L 45 52 L 45 59.140625 L 39 59.140625 Z M 39 52 " clip-rule="nonzero"/></clipPath></defs><g clip-path="url(#cfa8eedb4d)"><path fill="#8c1515" d="M 30.042969 50.519531 C 30.421875 49.875 31.191406 49.535156 31.9375 49.527344 C 32.617188 49.484375 33.386719 49.59375 33.863281 50.117188 C 33.621094 50.429688 33.390625 50.746094 33.148438 51.058594 C 32.878906 50.757812 32.65625 50.332031 32.21875 50.246094 C 31.789062 50.117188 31.25 50.335938 31.136719 50.78125 C 30.957031 51.496094 31.066406 52.238281 31.039062 52.964844 L 32.433594 52.964844 L 32.433594 53.777344 L 31.039062 53.777344 C 31.039062 54.996094 31.039062 56.21875 31.035156 57.441406 C 31.03125 57.789062 31.085938 58.128906 31.15625 58.46875 C 31.472656 58.613281 31.820312 58.6875 32.171875 58.695312 C 32.171875 58.777344 32.167969 58.949219 32.167969 59.035156 C 31.023438 58.960938 29.882812 58.9375 28.742188 59.03125 C 28.742188 58.960938 28.742188 58.816406 28.742188 58.746094 C 29.105469 58.683594 29.550781 58.519531 29.566406 58.097656 C 29.707031 56.664062 29.613281 55.21875 29.640625 53.777344 C 29.359375 53.777344 29.082031 53.777344 28.804688 53.773438 C 28.804688 53.652344 28.808594 53.53125 28.808594 53.40625 C 29.09375 53.28125 29.367188 53.140625 29.640625 52.992188 C 29.640625 52.160156 29.589844 51.261719 30.042969 50.519531 Z M 30.042969 50.519531 " fill-opacity="1" fill-rule="nonzero"/></g><g clip-path="url(#66e145c1d7)"><path fill="#8c1515" d="M 50.632812 49.527344 C 49.894531 49.691406 49.144531 49.832031 48.386719 49.863281 C 48.378906 49.933594 48.363281 50.066406 48.355469 50.132812 C 48.640625 50.21875 49.101562 50.195312 49.121094 50.578125 C 49.234375 51.359375 49.152344 52.148438 49.175781 52.929688 C 48.089844 52.75 46.871094 52.761719 45.949219 53.421875 C 44.933594 54.113281 44.585938 55.402344 44.6875 56.550781 C 44.746094 57.441406 45.203125 58.355469 46.03125 58.789062 C 47.019531 59.320312 48.285156 59.210938 49.210938 58.601562 C 49.214844 58.78125 49.21875 58.960938 49.222656 59.140625 C 49.9375 58.964844 50.671875 58.863281 51.40625 58.820312 L 51.40625 58.511719 C 50.363281 58.335938 50.652344 57.867188 50.578125 57.066406 C 50.578125 54.554688 50.539062 52.039062 50.632812 49.527344 Z M 47.925781 53.578125 C 48.367188 53.574219 48.8125 53.710938 49.175781 53.949219 C 49.175781 55.304688 49.171875 56.65625 49.179688 58.007812 C 48.402344 58.355469 47.355469 58.332031 46.75 57.691406 C 46.230469 57.148438 46.140625 56.355469 46.1875 55.644531 C 46.238281 55 46.378906 54.265625 46.957031 53.867188 C 47.246094 53.671875 47.582031 53.582031 47.925781 53.578125 Z M 47.925781 53.578125 " fill-opacity="1" fill-rule="nonzero"/></g><g clip-path="url(#468ac128c7)"><path fill="#8c1515" d="M 6.714844 50.351562 C 7.59375 50.300781 8.472656 50.355469 9.339844 50.476562 C 9.289062 51.078125 9.292969 51.683594 9.34375 52.285156 C 9.257812 52.285156 9.089844 52.285156 9.007812 52.285156 C 8.941406 51.910156 8.871094 51.453125 8.460938 51.285156 C 7.847656 51.035156 7.136719 51.011719 6.503906 51.191406 C 5.675781 51.429688 5.542969 52.613281 6.15625 53.132812 C 6.925781 53.789062 7.867188 54.21875 8.65625 54.855469 C 9.890625 55.8125 9.730469 58.039062 8.265625 58.710938 C 7.03125 59.265625 5.585938 59.125 4.3125 58.773438 C 4.320312 58.179688 4.296875 57.582031 4.269531 56.988281 C 4.363281 56.984375 4.546875 56.980469 4.640625 56.980469 C 4.703125 57.355469 4.765625 57.816406 5.15625 58.007812 C 5.851562 58.390625 6.753906 58.421875 7.476562 58.09375 C 8.378906 57.605469 8.214844 56.203125 7.367188 55.726562 C 6.636719 55.179688 5.792969 54.769531 5.113281 54.148438 C 4.363281 53.46875 4.269531 52.28125 4.753906 51.429688 C 5.148438 50.753906 5.945312 50.414062 6.714844 50.351562 Z M 6.714844 50.351562 " fill-opacity="1" fill-rule="nonzero"/></g><g clip-path="url(#14937d1f53)"><path fill="#8c1515" d="M 11.921875 51.628906 C 11.992188 51.632812 12.132812 51.636719 12.199219 51.640625 C 12.199219 52.09375 12.199219 52.546875 12.199219 52.996094 L 14.328125 52.996094 L 14.328125 53.777344 L 12.199219 53.777344 C 12.207031 54.867188 12.179688 55.957031 12.210938 57.046875 C 12.238281 57.460938 12.253906 57.980469 12.648438 58.234375 C 13.152344 58.523438 13.753906 58.34375 14.253906 58.152344 C 14.410156 58.519531 14.015625 58.726562 13.742188 58.878906 C 13.101562 59.179688 12.320312 59.214844 11.660156 58.960938 C 11.09375 58.757812 10.820312 58.152344 10.792969 57.601562 C 10.722656 56.328125 10.792969 55.050781 10.800781 53.777344 L 9.96875 53.777344 C 9.96875 53.691406 9.96875 53.605469 9.964844 53.523438 C 10.871094 53.191406 11.480469 52.429688 11.921875 51.628906 Z M 11.921875 51.628906 " fill-opacity="1" fill-rule="nonzero"/></g><g clip-path="url(#136571bf1c)"><path fill="#8c1515" d="M 17.621094 52.792969 C 16.664062 52.78125 15.695312 53.246094 15.386719 54.1875 C 15.46875 54.234375 15.640625 54.324219 15.726562 54.371094 C 16.09375 53.738281 16.957031 53.410156 17.636719 53.777344 C 18.167969 54.011719 18.210938 54.648438 18.203125 55.144531 C 17.363281 55.40625 16.496094 55.613281 15.707031 55.996094 C 14.757812 56.484375 14.636719 57.867188 15.316406 58.613281 C 16.117188 59.328125 17.453125 59.214844 18.242188 58.539062 C 18.484375 59.003906 19.050781 59.179688 19.550781 59.042969 C 19.980469 58.960938 20.269531 58.609375 20.550781 58.3125 C 20.503906 58.257812 20.402344 58.148438 20.351562 58.09375 C 20.175781 58.136719 19.972656 58.273438 19.800781 58.140625 C 19.574219 57.988281 19.601562 57.683594 19.585938 57.449219 C 19.601562 56.445312 19.660156 55.433594 19.605469 54.425781 C 19.578125 53.90625 19.335938 53.371094 18.863281 53.097656 C 18.492188 52.898438 18.058594 52.796875 17.621094 52.792969 Z M 18.1875 55.929688 C 18.191406 56.609375 18.1875 57.285156 18.191406 57.964844 C 17.746094 58.15625 17.21875 58.335938 16.746094 58.113281 C 16.171875 57.816406 16.195312 56.925781 16.671875 56.550781 C 17.128906 56.242188 17.667969 56.101562 18.1875 55.929688 Z M 18.1875 55.929688 " fill-opacity="1" fill-rule="nonzero"/></g><g clip-path="url(#71964f684f)"><path fill="#8c1515" d="M 35.972656 52.816406 C 35.269531 52.824219 34.546875 52.996094 33.996094 53.441406 C 33.179688 54.082031 32.828125 55.148438 32.863281 56.144531 C 32.859375 57 33.132812 57.910156 33.820312 58.480469 C 34.636719 59.171875 35.824219 59.242188 36.839844 59.035156 C 37.910156 58.804688 38.71875 57.890625 38.945312 56.867188 C 39.191406 55.804688 39.085938 54.566406 38.335938 53.707031 C 37.757812 53.050781 36.832031 52.800781 35.972656 52.816406 Z M 35.980469 53.542969 C 36.355469 53.550781 36.730469 53.703125 36.972656 53.992188 C 37.410156 54.515625 37.527344 55.21875 37.558594 55.875 C 37.566406 56.589844 37.472656 57.363281 37.007812 57.945312 C 36.554688 58.515625 35.578125 58.582031 35.054688 58.066406 C 34.652344 57.703125 34.503906 57.164062 34.414062 56.660156 C 34.320312 55.988281 34.34375 55.289062 34.558594 54.640625 C 34.710938 54.210938 35.007812 53.769531 35.476562 53.621094 C 35.636719 53.566406 35.808594 53.539062 35.980469 53.542969 Z M 35.980469 53.542969 " fill-opacity="1" fill-rule="nonzero"/></g><g clip-path="url(#6532d505cb)"><path fill="#8c1515" d="M 21.050781 53.230469 C 21.796875 53.21875 22.550781 53.144531 23.238281 52.84375 C 23.261719 53.015625 23.28125 53.1875 23.296875 53.363281 C 24.085938 52.859375 25.105469 52.664062 26.007812 52.976562 C 26.65625 53.1875 27.109375 53.804688 27.164062 54.457031 C 27.300781 55.703125 27.105469 56.960938 27.277344 58.203125 C 27.292969 58.59375 27.726562 58.683594 28.039062 58.746094 C 28.039062 58.816406 28.039062 58.964844 28.042969 59.035156 C 26.984375 58.953125 24.867188 59.03125 24.867188 59.03125 L 24.863281 58.738281 C 24.863281 58.738281 25.628906 58.527344 25.675781 58.316406 C 25.851562 57.390625 25.808594 56.4375 25.800781 55.5 C 25.765625 54.9375 25.78125 54.238281 25.230469 53.898438 C 24.640625 53.566406 23.917969 53.71875 23.3125 53.933594 C 23.316406 55.148438 23.3125 56.363281 23.3125 57.578125 C 23.332031 57.902344 23.308594 58.269531 23.523438 58.539062 C 23.707031 58.664062 23.9375 58.6875 24.144531 58.742188 C 24.144531 58.816406 24.148438 58.960938 24.148438 59.035156 C 23.105469 58.96875 22.058594 58.925781 21.019531 59.035156 C 21.019531 58.960938 21.023438 58.816406 21.023438 58.746094 C 21.339844 58.675781 21.757812 58.578125 21.816406 58.203125 C 21.960938 57.308594 21.851562 56.394531 21.882812 55.492188 C 21.871094 54.976562 21.929688 54.457031 21.835938 53.949219 C 21.761719 53.601562 21.328125 53.621094 21.054688 53.550781 C 21.054688 53.472656 21.050781 53.308594 21.050781 53.230469 Z M 21.050781 53.230469 " fill-opacity="1" fill-rule="nonzero"/></g><g clip-path="url(#e8ebd2e5b0)"><path fill="#8c1515" d="M 39.65625 53.203125 C 40.402344 53.191406 41.148438 53.09375 41.855469 52.863281 L 41.875 53.394531 C 42.589844 52.835938 43.671875 52.691406 44.433594 53.25 L 43.636719 54.429688 C 43.265625 53.875 42.511719 53.738281 41.917969 54.023438 C 41.917969 54.023438 41.914062 56.476562 41.921875 57.703125 C 41.953125 57.976562 41.910156 58.332031 42.171875 58.511719 C 42.425781 58.65625 42.734375 58.648438 43.019531 58.695312 C 43.019531 58.777344 43.019531 58.949219 43.019531 59.035156 C 41.875 58.957031 40.726562 58.941406 39.585938 59.03125 L 39.585938 58.695312 C 39.953125 58.632812 40.335938 58.507812 40.394531 58.292969 C 40.550781 57.765625 40.472656 57.207031 40.488281 56.664062 C 40.472656 55.800781 40.523438 54.933594 40.46875 54.070312 C 40.464844 53.648438 39.976562 53.609375 39.660156 53.550781 C 39.660156 53.429688 39.65625 53.308594 39.65625 53.203125 Z M 39.65625 53.203125 " fill-opacity="1" fill-rule="nonzero"/></g></svg>