<svg xmlns="http://www.w3.org/2000/svg" xmlns:xlink="http://www.w3.org/1999/xlink" width="75" zoomAndPan="magnify" viewBox="0 0 56.25 112.499998" height="150" preserveAspectRatio="xMidYMid meet" version="1.0"><defs><clipPath id="9ff32e546f"><path d="M 22 57.746094 L 24 57.746094 L 24 60 L 22 60 Z M 22 57.746094 " clip-rule="nonzero"/></clipPath><clipPath id="8f8890834b"><path d="M 17 57.746094 L 22 57.746094 L 22 65 L 17 65 Z M 17 57.746094 " clip-rule="nonzero"/></clipPath><clipPath id="ba36829622"><path d="M 29 59 L 35 59 L 35 66.625 L 29 66.625 Z M 29 59 " clip-rule="nonzero"/></clipPath><clipPath id="ba98137151"><path d="M 1.21875 57.746094 L 7 57.746094 L 7 65 L 1.21875 65 Z M 1.21875 57.746094 " clip-rule="nonzero"/></clipPath><clipPath id="4ed3caf555"><path d="M 47 59 L 54.511719 59 L 54.511719 65 L 47 65 Z M 47 59 " clip-rule="nonzero"/></clipPath></defs><g clip-path="url(#9ff32e546f)"><path fill="#003479" d="M 22.1875 58.550781 C 22.1875 58.085938 22.558594 57.734375 22.992188 57.734375 C 23.425781 57.734375 23.796875 58.109375 23.796875 58.550781 C 23.796875 58.992188 23.425781 59.367188 22.992188 59.367188 C 22.535156 59.367188 22.1875 58.992188 22.1875 58.550781 " fill-opacity="1" fill-rule="nonzero"/></g><path fill="#009fe3" d="M 34.871094 63.96875 C 34.871094 63.507812 35.242188 63.152344 35.675781 63.152344 C 36.109375 63.152344 36.480469 63.527344 36.480469 63.96875 C 36.480469 64.410156 36.109375 64.785156 35.675781 64.785156 C 35.21875 64.785156 34.871094 64.433594 34.871094 63.96875 " fill-opacity="1" fill-rule="nonzero"/><path fill="#003479" d="M 9.003906 63.617188 C 8.308594 63.617188 7.832031 63.066406 7.832031 62.273438 C 7.832031 61.480469 8.308594 60.929688 9.003906 60.929688 C 9.699219 60.929688 10.175781 61.480469 10.175781 62.273438 C 10.175781 63.089844 9.699219 63.617188 9.003906 63.617188 Z M 9.003906 59.71875 C 7.546875 59.71875 6.484375 60.796875 6.484375 62.25 C 6.484375 63.703125 7.546875 64.785156 9.003906 64.785156 C 10.480469 64.785156 11.542969 63.703125 11.542969 62.25 C 11.542969 60.796875 10.457031 59.71875 9.003906 59.71875 " fill-opacity="1" fill-rule="nonzero"/><g clip-path="url(#8f8890834b)"><path fill="#003479" d="M 20.625 62.40625 C 20.558594 62.296875 20.492188 62.207031 20.429688 62.140625 L 20.386719 62.097656 L 20.429688 62.054688 C 20.492188 61.988281 20.558594 61.898438 20.625 61.789062 L 21.90625 59.851562 L 20.339844 59.851562 L 19.363281 61.371094 C 19.296875 61.457031 19.191406 61.503906 19.039062 61.503906 L 18.820312 61.503906 L 18.820312 58.617188 C 18.820312 58.042969 18.472656 57.957031 18.082031 57.957031 L 17.429688 57.957031 L 17.429688 64.761719 L 18.820312 64.761719 L 18.820312 62.714844 L 18.953125 62.714844 C 19.101562 62.714844 19.210938 62.734375 19.277344 62.824219 L 20.039062 64.300781 C 20.253906 64.695312 20.472656 64.761719 20.863281 64.761719 L 21.925781 64.761719 L 21.125 63.441406 L 20.625 62.40625 " fill-opacity="1" fill-rule="nonzero"/></g><path fill="#003479" d="M 27.378906 59.71875 C 26.660156 59.71875 26.226562 60.027344 25.96875 60.3125 L 25.878906 60.402344 L 25.859375 60.289062 C 25.792969 60.003906 25.53125 59.851562 25.164062 59.851562 L 24.535156 59.851562 L 24.535156 64.761719 L 25.921875 64.761719 L 25.921875 62.472656 C 25.921875 62.25 25.945312 62.054688 26.011719 61.875 C 26.164062 61.347656 26.597656 61.015625 27.117188 61.015625 C 27.550781 61.015625 27.726562 61.238281 27.726562 61.855469 L 27.726562 63.992188 C 27.726562 64.496094 27.964844 64.738281 28.464844 64.738281 L 29.117188 64.738281 L 29.117188 61.613281 C 29.09375 60.378906 28.507812 59.71875 27.378906 59.71875 " fill-opacity="1" fill-rule="nonzero"/><path fill="#003479" d="M 23.011719 59.828125 L 22.363281 59.828125 L 22.363281 64.738281 L 23.730469 64.738281 L 23.730469 60.578125 C 23.730469 60.070312 23.492188 59.828125 23.011719 59.828125 " fill-opacity="1" fill-rule="nonzero"/><path fill="#003479" d="M 14.410156 63.617188 C 13.714844 63.617188 13.238281 63.066406 13.238281 62.273438 C 13.238281 61.480469 13.714844 60.929688 14.410156 60.929688 C 15.105469 60.929688 15.585938 61.480469 15.585938 62.273438 C 15.605469 63.089844 15.128906 63.617188 14.410156 63.617188 Z M 14.410156 59.71875 C 12.957031 59.71875 11.890625 60.796875 11.890625 62.25 C 11.890625 63.703125 12.957031 64.804688 14.410156 64.804688 C 15.890625 64.804688 16.953125 63.726562 16.953125 62.273438 C 16.953125 60.820312 15.890625 59.71875 14.410156 59.71875 " fill-opacity="1" fill-rule="nonzero"/><path fill="#009fe3" d="M 44.015625 63.617188 C 43.320312 63.617188 42.84375 63.066406 42.84375 62.273438 C 42.84375 61.480469 43.320312 60.929688 44.015625 60.929688 C 44.710938 60.929688 45.191406 61.480469 45.191406 62.273438 C 45.191406 63.089844 44.710938 63.617188 44.015625 63.617188 Z M 44.015625 59.71875 C 42.5625 59.71875 41.496094 60.796875 41.496094 62.25 C 41.496094 63.703125 42.5625 64.785156 44.015625 64.785156 C 45.472656 64.804688 46.558594 63.75 46.558594 62.273438 C 46.558594 60.796875 45.472656 59.71875 44.015625 59.71875 " fill-opacity="1" fill-rule="nonzero"/><g clip-path="url(#ba36829622)"><path fill="#003479" d="M 32.003906 63.417969 C 31.246094 63.417969 30.984375 62.757812 30.984375 62.117188 C 30.984375 61.832031 31.050781 60.953125 31.941406 60.953125 C 32.375 60.953125 32.960938 61.082031 32.960938 62.164062 C 32.960938 63.199219 32.441406 63.417969 32.003906 63.417969 Z M 33.679688 59.804688 C 33.417969 59.804688 33.222656 59.917969 33.113281 60.113281 L 33.070312 60.179688 L 33.003906 60.113281 C 32.789062 59.917969 32.375 59.695312 31.722656 59.695312 C 30.441406 59.695312 29.574219 60.6875 29.574219 62.140625 C 29.574219 63.59375 30.464844 64.628906 31.765625 64.628906 C 32.199219 64.628906 32.546875 64.519531 32.832031 64.320312 L 32.9375 64.234375 L 32.9375 64.367188 C 32.9375 65.027344 32.527344 65.378906 31.765625 65.378906 C 31.398438 65.378906 31.070312 65.289062 30.832031 65.203125 C 30.550781 65.113281 30.375 65.179688 30.246094 65.488281 L 30.136719 65.753906 L 29.984375 66.148438 L 30.070312 66.195312 C 30.550781 66.457031 31.179688 66.613281 31.765625 66.613281 C 32.9375 66.613281 34.308594 65.996094 34.308594 64.277344 L 34.308594 59.761719 L 33.679688 59.804688 " fill-opacity="1" fill-rule="nonzero"/></g><g clip-path="url(#ba98137151)"><path fill="#003479" d="M 3.855469 63.574219 L 2.726562 63.574219 L 2.726562 62.207031 C 2.726562 61.921875 2.835938 61.765625 3.074219 61.722656 L 3.832031 61.722656 C 4.375 61.722656 4.722656 62.074219 4.722656 62.648438 C 4.746094 63.21875 4.421875 63.574219 3.855469 63.574219 Z M 2.726562 59.894531 L 2.726562 59.542969 C 2.726562 59.234375 2.855469 59.078125 3.140625 59.058594 L 3.703125 59.058594 C 4.203125 59.058594 4.484375 59.367188 4.484375 59.851562 C 4.484375 60.222656 4.289062 60.6875 3.726562 60.6875 L 2.703125 60.6875 Z M 5.289062 61.261719 L 5.09375 61.148438 L 5.265625 60.996094 C 5.460938 60.820312 5.808594 60.402344 5.808594 59.71875 C 5.808594 58.636719 4.984375 57.957031 3.726562 57.957031 L 2.117188 57.957031 C 1.75 57.976562 1.445312 58.285156 1.445312 58.660156 L 1.445312 64.71875 L 3.769531 64.71875 C 5.179688 64.71875 6.09375 63.945312 6.09375 62.734375 C 6.070312 62.097656 5.789062 61.523438 5.289062 61.261719 " fill-opacity="1" fill-rule="nonzero"/></g><g clip-path="url(#4ed3caf555)"><path fill="#009fe3" d="M 52.703125 59.738281 C 52.140625 59.738281 51.574219 60.003906 51.226562 60.464844 L 51.121094 60.597656 L 51.03125 60.445312 C 50.773438 59.980469 50.335938 59.738281 49.730469 59.738281 C 49.078125 59.738281 48.664062 60.09375 48.449219 60.3125 L 48.316406 60.464844 L 48.273438 60.269531 C 48.207031 60.003906 47.96875 59.851562 47.601562 59.851562 L 47.015625 59.851562 L 47.015625 64.738281 L 48.339844 64.738281 L 48.339844 62.582031 C 48.339844 62.382812 48.359375 62.207031 48.402344 62.007812 C 48.535156 61.480469 48.882812 60.929688 49.445312 60.972656 C 49.816406 61.015625 49.988281 61.28125 49.988281 61.832031 L 49.988281 64.738281 L 51.316406 64.738281 L 51.316406 62.582031 C 51.316406 62.339844 51.335938 62.164062 51.378906 61.988281 C 51.488281 61.480469 51.859375 60.972656 52.402344 60.972656 C 52.8125 60.972656 52.964844 61.214844 52.964844 61.832031 L 52.964844 64.011719 C 52.964844 64.496094 53.183594 64.71875 53.660156 64.71875 L 54.289062 64.71875 L 54.289062 61.589844 C 54.3125 60.355469 53.789062 59.738281 52.703125 59.738281 " fill-opacity="1" fill-rule="nonzero"/></g><path fill="#009fe3" d="M 40.714844 63.042969 C 40.714844 63.042969 40.152344 63.660156 39.390625 63.660156 C 38.71875 63.660156 38.023438 63.242188 38.023438 62.296875 C 38.023438 61.480469 38.566406 60.90625 39.324219 60.90625 C 39.5625 60.90625 39.847656 60.996094 39.890625 61.148438 L 39.890625 61.171875 C 40 61.523438 40.300781 61.523438 40.367188 61.523438 L 41.085938 61.523438 L 41.085938 60.886719 C 41.085938 60.046875 40.019531 59.738281 39.304688 59.738281 C 37.78125 59.738281 36.675781 60.820312 36.675781 62.296875 C 36.675781 63.769531 37.761719 64.851562 39.28125 64.851562 C 40.585938 64.851562 41.300781 63.96875 41.300781 63.96875 L 41.34375 63.925781 L 40.78125 62.957031 L 40.714844 63.042969 " fill-opacity="1" fill-rule="nonzero"/></svg>