<svg xmlns="http://www.w3.org/2000/svg" xmlns:xlink="http://www.w3.org/1999/xlink" width="130" zoomAndPan="magnify" viewBox="0 0 97.5 37.5" height="50" preserveAspectRatio="xMidYMid meet" version="1.0"><defs><clipPath id="563950a005"><path d="M 38 12.867188 L 42 12.867188 L 42 16 L 38 16 Z M 38 12.867188 " clip-rule="nonzero"/></clipPath><clipPath id="ebfb798c9a"><path d="M 51 16 L 60 16 L 60 27.667969 L 51 27.667969 Z M 51 16 " clip-rule="nonzero"/></clipPath><clipPath id="7abd566628"><path d="M 3.386719 13 L 12 13 L 12 25 L 3.386719 25 Z M 3.386719 13 " clip-rule="nonzero"/></clipPath><clipPath id="f04edccdfc"><path d="M 81 16 L 93.683594 16 L 93.683594 25 L 81 25 Z M 81 16 " clip-rule="nonzero"/></clipPath></defs><g clip-path="url(#563950a005)"><path fill="#003479" d="M 38.90625 14.207031 C 38.90625 13.4375 39.535156 12.851562 40.269531 12.851562 C 41.007812 12.851562 41.632812 13.472656 41.632812 14.207031 C 41.632812 14.941406 41.007812 15.566406 40.269531 15.566406 C 39.496094 15.566406 38.90625 14.941406 38.90625 14.207031 " fill-opacity="1" fill-rule="nonzero"/></g><path fill="#009fe3" d="M 60.414062 23.238281 C 60.414062 22.46875 61.039062 21.882812 61.777344 21.882812 C 62.515625 21.882812 63.140625 22.507812 63.140625 23.238281 C 63.140625 23.972656 62.515625 24.597656 61.777344 24.597656 C 61.003906 24.597656 60.414062 24.011719 60.414062 23.238281 " fill-opacity="1" fill-rule="nonzero"/><path fill="#003479" d="M 16.554688 22.652344 C 15.375 22.652344 14.566406 21.734375 14.566406 20.414062 C 14.566406 19.089844 15.375 18.175781 16.554688 18.175781 C 17.730469 18.175781 18.542969 19.089844 18.542969 20.414062 C 18.542969 21.773438 17.730469 22.652344 16.554688 22.652344 Z M 16.554688 16.15625 C 14.085938 16.15625 12.28125 17.953125 12.28125 20.375 C 12.28125 22.800781 14.085938 24.597656 16.554688 24.597656 C 19.058594 24.597656 20.863281 22.800781 20.863281 20.375 C 20.863281 17.953125 19.019531 16.15625 16.554688 16.15625 " fill-opacity="1" fill-rule="nonzero"/><path fill="#003479" d="M 36.257812 20.632812 C 36.144531 20.449219 36.035156 20.304688 35.925781 20.191406 L 35.851562 20.121094 L 35.925781 20.046875 C 36.035156 19.9375 36.144531 19.789062 36.257812 19.605469 L 38.429688 16.375 L 35.777344 16.375 L 34.121094 18.90625 C 34.007812 19.054688 33.824219 19.128906 33.566406 19.128906 L 33.199219 19.128906 L 33.199219 14.320312 C 33.199219 13.363281 32.609375 13.21875 31.945312 13.21875 L 30.84375 13.21875 L 30.84375 24.5625 L 33.199219 24.5625 L 33.199219 21.148438 L 33.421875 21.148438 C 33.679688 21.148438 33.863281 21.183594 33.972656 21.332031 L 35.261719 23.789062 C 35.628906 24.453125 36 24.5625 36.660156 24.5625 L 38.464844 24.5625 L 37.101562 22.359375 L 36.257812 20.632812 " fill-opacity="1" fill-rule="nonzero"/><path fill="#003479" d="M 47.710938 16.15625 C 46.492188 16.15625 45.757812 16.667969 45.316406 17.144531 L 45.167969 17.292969 L 45.132812 17.109375 C 45.019531 16.632812 44.578125 16.375 43.953125 16.375 L 42.886719 16.375 L 42.886719 24.5625 L 45.242188 24.5625 L 45.242188 20.742188 C 45.242188 20.375 45.277344 20.046875 45.390625 19.753906 C 45.648438 18.871094 46.382812 18.320312 47.265625 18.320312 C 48.003906 18.320312 48.296875 18.6875 48.296875 19.714844 L 48.296875 23.277344 C 48.296875 24.121094 48.703125 24.523438 49.550781 24.523438 L 50.65625 24.523438 L 50.65625 19.3125 C 50.617188 17.257812 49.625 16.15625 47.710938 16.15625 " fill-opacity="1" fill-rule="nonzero"/><path fill="#003479" d="M 40.308594 16.339844 L 39.203125 16.339844 L 39.203125 24.523438 L 41.523438 24.523438 L 41.523438 17.585938 C 41.523438 16.742188 41.117188 16.339844 40.308594 16.339844 " fill-opacity="1" fill-rule="nonzero"/><path fill="#003479" d="M 25.722656 22.652344 C 24.542969 22.652344 23.734375 21.734375 23.734375 20.414062 C 23.734375 19.089844 24.542969 18.175781 25.722656 18.175781 C 26.902344 18.175781 27.710938 19.089844 27.710938 20.414062 C 27.75 21.773438 26.9375 22.652344 25.722656 22.652344 Z M 25.722656 16.15625 C 23.257812 16.15625 21.453125 17.953125 21.453125 20.375 C 21.453125 22.800781 23.257812 24.636719 25.722656 24.636719 C 28.226562 24.636719 30.03125 22.835938 30.03125 20.414062 C 30.03125 17.992188 28.226562 16.15625 25.722656 16.15625 " fill-opacity="1" fill-rule="nonzero"/><path fill="#009fe3" d="M 75.917969 22.652344 C 74.742188 22.652344 73.929688 21.734375 73.929688 20.414062 C 73.929688 19.089844 74.742188 18.175781 75.917969 18.175781 C 77.097656 18.175781 77.90625 19.089844 77.90625 20.414062 C 77.90625 21.773438 77.097656 22.652344 75.917969 22.652344 Z M 75.917969 16.15625 C 73.453125 16.15625 71.648438 17.953125 71.648438 20.375 C 71.648438 22.800781 73.453125 24.597656 75.917969 24.597656 C 78.386719 24.636719 80.226562 22.875 80.226562 20.414062 C 80.226562 17.953125 78.386719 16.15625 75.917969 16.15625 " fill-opacity="1" fill-rule="nonzero"/><g clip-path="url(#ebfb798c9a)"><path fill="#003479" d="M 55.554688 22.324219 C 54.265625 22.324219 53.824219 21.222656 53.824219 20.15625 C 53.824219 19.679688 53.933594 18.210938 55.441406 18.210938 C 56.179688 18.210938 57.175781 18.429688 57.175781 20.230469 C 57.175781 21.957031 56.289062 22.324219 55.554688 22.324219 Z M 58.390625 16.300781 C 57.945312 16.300781 57.617188 16.484375 57.429688 16.816406 L 57.359375 16.925781 L 57.246094 16.816406 C 56.878906 16.484375 56.179688 16.117188 55.074219 16.117188 C 52.902344 16.117188 51.429688 17.769531 51.429688 20.191406 C 51.429688 22.617188 52.9375 24.339844 55.148438 24.339844 C 55.886719 24.339844 56.472656 24.15625 56.953125 23.828125 L 57.136719 23.679688 L 57.136719 23.902344 C 57.136719 25.003906 56.4375 25.589844 55.148438 25.589844 C 54.523438 25.589844 53.96875 25.441406 53.566406 25.296875 C 53.085938 25.148438 52.792969 25.257812 52.570312 25.773438 L 52.386719 26.214844 L 52.128906 26.875 L 52.277344 26.949219 C 53.085938 27.390625 54.152344 27.644531 55.148438 27.644531 C 57.136719 27.644531 59.457031 26.617188 59.457031 23.753906 L 59.457031 16.226562 L 58.390625 16.300781 " fill-opacity="1" fill-rule="nonzero"/></g><g clip-path="url(#7abd566628)"><path fill="#003479" d="M 7.824219 22.578125 L 5.910156 22.578125 L 5.910156 20.304688 C 5.910156 19.824219 6.09375 19.570312 6.5 19.496094 L 7.789062 19.496094 C 8.710938 19.496094 9.296875 20.082031 9.296875 21.039062 C 9.335938 21.992188 8.78125 22.578125 7.824219 22.578125 Z M 5.910156 16.449219 L 5.910156 15.859375 C 5.910156 15.347656 6.132812 15.089844 6.609375 15.054688 L 7.566406 15.054688 C 8.414062 15.054688 8.894531 15.566406 8.894531 16.375 C 8.894531 17 8.5625 17.769531 7.605469 17.769531 L 5.875 17.769531 Z M 10.257812 18.722656 L 9.925781 18.539062 L 10.21875 18.285156 C 10.550781 17.992188 11.140625 17.292969 11.140625 16.15625 C 11.140625 14.355469 9.742188 13.21875 7.605469 13.21875 L 4.878906 13.21875 C 4.253906 13.253906 3.738281 13.769531 3.738281 14.390625 L 3.738281 24.488281 L 7.679688 24.488281 C 10.070312 24.488281 11.617188 23.203125 11.617188 21.183594 C 11.582031 20.121094 11.101562 19.164062 10.257812 18.722656 " fill-opacity="1" fill-rule="nonzero"/></g><g clip-path="url(#f04edccdfc)"><path fill="#009fe3" d="M 90.648438 16.191406 C 89.691406 16.191406 88.734375 16.632812 88.144531 17.402344 L 87.960938 17.625 L 87.8125 17.367188 C 87.371094 16.59375 86.636719 16.191406 85.605469 16.191406 C 84.5 16.191406 83.800781 16.777344 83.429688 17.144531 L 83.210938 17.402344 L 83.136719 17.074219 C 83.027344 16.632812 82.621094 16.375 81.996094 16.375 L 81 16.375 L 81 24.523438 L 83.246094 24.523438 L 83.246094 20.925781 C 83.246094 20.597656 83.285156 20.304688 83.359375 19.972656 C 83.578125 19.089844 84.167969 18.175781 85.125 18.246094 C 85.75 18.320312 86.046875 18.761719 86.046875 19.679688 L 86.046875 24.523438 L 88.292969 24.523438 L 88.292969 20.925781 C 88.292969 20.523438 88.328125 20.230469 88.402344 19.9375 C 88.585938 19.089844 89.214844 18.246094 90.132812 18.246094 C 90.832031 18.246094 91.089844 18.652344 91.089844 19.679688 L 91.089844 23.3125 C 91.089844 24.121094 91.460938 24.488281 92.269531 24.488281 L 93.339844 24.488281 L 93.339844 19.273438 C 93.375 17.21875 92.492188 16.191406 90.648438 16.191406 " fill-opacity="1" fill-rule="nonzero"/></g><path fill="#009fe3" d="M 70.320312 21.699219 C 70.320312 21.699219 69.363281 22.726562 68.074219 22.726562 C 66.933594 22.726562 65.753906 22.027344 65.753906 20.449219 C 65.753906 19.089844 66.675781 18.136719 67.964844 18.136719 C 68.371094 18.136719 68.847656 18.285156 68.921875 18.539062 L 68.921875 18.578125 C 69.105469 19.164062 69.621094 19.164062 69.730469 19.164062 L 70.945312 19.164062 L 70.945312 18.101562 C 70.945312 16.707031 69.144531 16.191406 67.925781 16.191406 C 65.347656 16.191406 63.472656 17.992188 63.472656 20.449219 C 63.472656 22.910156 65.3125 24.707031 67.890625 24.707031 C 70.101562 24.707031 71.316406 23.238281 71.316406 23.238281 L 71.390625 23.167969 L 70.429688 21.550781 L 70.320312 21.699219 " fill-opacity="1" fill-rule="nonzero"/></svg>