<svg xmlns="http://www.w3.org/2000/svg" xmlns:xlink="http://www.w3.org/1999/xlink" width="75" zoomAndPan="magnify" viewBox="0 0 56.25 112.499998" height="150" preserveAspectRatio="xMidYMid meet" version="1.0"><defs><clipPath id="f653cfca9e"><path d="M 0 53 L 17 53 L 17 69.902344 L 0 69.902344 Z M 0 53 " clip-rule="nonzero"/></clipPath><clipPath id="8bf635baa0"><path d="M 53 59 L 55.511719 59 L 55.511719 62 L 53 62 Z M 53 59 " clip-rule="nonzero"/></clipPath></defs><g clip-path="url(#f653cfca9e)"><path fill="#1ed760" d="M 13.121094 60.441406 C 10.441406 58.835938 6.023438 58.6875 3.46875 59.472656 C 3.058594 59.597656 2.625 59.363281 2.5 58.949219 C 2.375 58.535156 2.605469 58.097656 3.015625 57.972656 C 5.953125 57.074219 10.832031 57.246094 13.914062 59.09375 C 14.285156 59.3125 14.40625 59.792969 14.1875 60.167969 C 13.96875 60.539062 13.488281 60.660156 13.121094 60.441406 Z M 13.035156 62.816406 C 12.84375 63.125 12.445312 63.21875 12.140625 63.03125 C 9.910156 61.648438 6.503906 61.246094 3.863281 62.054688 C 3.519531 62.160156 3.160156 61.964844 3.054688 61.621094 C 2.953125 61.273438 3.144531 60.910156 3.488281 60.804688 C 6.503906 59.882812 10.253906 60.328125 12.820312 61.917969 C 13.125 62.105469 13.21875 62.507812 13.035156 62.816406 Z M 12.015625 65.097656 C 11.867188 65.34375 11.546875 65.421875 11.304688 65.269531 C 9.355469 64.070312 6.898438 63.796875 4.003906 64.464844 C 3.726562 64.527344 3.449219 64.351562 3.386719 64.070312 C 3.320312 63.789062 3.496094 63.507812 3.773438 63.445312 C 6.941406 62.714844 9.65625 63.03125 11.84375 64.378906 C 12.089844 64.53125 12.167969 64.851562 12.015625 65.097656 Z M 8.207031 53.011719 C 3.617188 53.011719 -0.101562 56.765625 -0.101562 61.390625 C -0.101562 66.019531 3.617188 69.769531 8.207031 69.769531 C 12.796875 69.769531 16.515625 66.019531 16.515625 61.390625 C 16.515625 56.765625 12.796875 53.011719 8.207031 53.011719 " fill-opacity="1" fill-rule="nonzero"/></g><path fill="#1ed760" d="M 22.503906 60.746094 C 21.066406 60.402344 20.8125 60.160156 20.8125 59.652344 C 20.8125 59.171875 21.261719 58.847656 21.929688 58.847656 C 22.574219 58.847656 23.21875 59.09375 23.890625 59.597656 C 23.910156 59.613281 23.933594 59.621094 23.960938 59.617188 C 23.984375 59.613281 24.007812 59.597656 24.023438 59.578125 L 24.722656 58.582031 C 24.75 58.542969 24.742188 58.484375 24.707031 58.453125 C 23.90625 57.804688 23.003906 57.492188 21.949219 57.492188 C 20.402344 57.492188 19.320312 58.429688 19.320312 59.769531 C 19.320312 61.207031 20.253906 61.71875 21.867188 62.109375 C 23.238281 62.429688 23.46875 62.695312 23.46875 63.171875 C 23.46875 63.703125 23 64.03125 22.246094 64.03125 C 21.410156 64.03125 20.726562 63.746094 19.960938 63.078125 C 19.945312 63.0625 19.917969 63.054688 19.894531 63.058594 C 19.867188 63.058594 19.84375 63.070312 19.828125 63.089844 L 19.042969 64.035156 C 19.011719 64.074219 19.015625 64.132812 19.054688 64.164062 C 19.941406 64.964844 21.035156 65.386719 22.214844 65.386719 C 23.882812 65.386719 24.964844 64.46875 24.964844 63.042969 C 24.964844 61.839844 24.25 61.175781 22.503906 60.746094 " fill-opacity="1" fill-rule="nonzero"/><path fill="#1ed760" d="M 29.949219 62.359375 C 29.949219 63.375 29.332031 64.085938 28.441406 64.085938 C 27.5625 64.085938 26.902344 63.34375 26.902344 62.359375 C 26.902344 61.375 27.5625 60.636719 28.441406 60.636719 C 29.316406 60.636719 29.949219 61.359375 29.949219 62.359375 Z M 28.738281 59.320312 C 28.015625 59.320312 27.421875 59.609375 26.933594 60.195312 L 26.933594 59.535156 C 26.933594 59.480469 26.890625 59.4375 26.839844 59.4375 L 25.554688 59.4375 C 25.503906 59.4375 25.460938 59.480469 25.460938 59.535156 L 25.460938 66.898438 C 25.460938 66.949219 25.503906 66.992188 25.554688 66.992188 L 26.839844 66.992188 C 26.890625 66.992188 26.933594 66.949219 26.933594 66.898438 L 26.933594 64.574219 C 27.421875 65.128906 28.015625 65.398438 28.738281 65.398438 C 30.082031 65.398438 31.445312 64.355469 31.445312 62.359375 C 31.445312 60.363281 30.082031 59.320312 28.738281 59.320312 " fill-opacity="1" fill-rule="nonzero"/><path fill="#1ed760" d="M 34.933594 64.09375 C 34.011719 64.09375 33.316406 63.347656 33.316406 62.359375 C 33.316406 61.367188 33.988281 60.644531 34.910156 60.644531 C 35.839844 60.644531 36.539062 61.390625 36.539062 62.382812 C 36.539062 63.375 35.863281 64.09375 34.933594 64.09375 Z M 34.933594 59.320312 C 33.203125 59.320312 31.84375 60.664062 31.84375 62.382812 C 31.84375 64.078125 33.191406 65.410156 34.910156 65.410156 C 36.648438 65.410156 38.007812 64.070312 38.007812 62.359375 C 38.007812 60.65625 36.660156 59.320312 34.933594 59.320312 " fill-opacity="1" fill-rule="nonzero"/><path fill="#1ed760" d="M 41.707031 59.4375 L 40.292969 59.4375 L 40.292969 57.980469 C 40.292969 57.929688 40.25 57.886719 40.199219 57.886719 L 38.914062 57.886719 C 38.863281 57.886719 38.820312 57.929688 38.820312 57.980469 L 38.820312 59.4375 L 38.203125 59.4375 C 38.152344 59.4375 38.109375 59.480469 38.109375 59.535156 L 38.109375 60.648438 C 38.109375 60.699219 38.152344 60.742188 38.203125 60.742188 L 38.820312 60.742188 L 38.820312 63.625 C 38.820312 64.789062 39.394531 65.378906 40.527344 65.378906 C 40.988281 65.378906 41.371094 65.28125 41.730469 65.074219 C 41.761719 65.058594 41.777344 65.027344 41.777344 64.992188 L 41.777344 63.933594 C 41.777344 63.902344 41.761719 63.871094 41.734375 63.851562 C 41.707031 63.835938 41.671875 63.832031 41.644531 63.847656 C 41.394531 63.972656 41.15625 64.03125 40.890625 64.03125 C 40.476562 64.03125 40.292969 63.84375 40.292969 63.421875 L 40.292969 60.742188 L 41.707031 60.742188 C 41.757812 60.742188 41.800781 60.699219 41.800781 60.648438 L 41.800781 59.535156 C 41.800781 59.480469 41.757812 59.4375 41.707031 59.4375 " fill-opacity="1" fill-rule="nonzero"/><path fill="#1ed760" d="M 46.632812 59.445312 L 46.632812 59.265625 C 46.632812 58.738281 46.832031 58.503906 47.28125 58.503906 C 47.546875 58.503906 47.761719 58.558594 48.003906 58.640625 C 48.035156 58.648438 48.066406 58.644531 48.089844 58.625 C 48.113281 58.609375 48.128906 58.578125 48.128906 58.550781 L 48.128906 57.457031 C 48.128906 57.414062 48.101562 57.378906 48.0625 57.367188 C 47.808594 57.289062 47.480469 57.210938 46.992188 57.210938 C 45.808594 57.210938 45.179688 57.886719 45.179688 59.160156 L 45.179688 59.433594 L 44.5625 59.433594 C 44.511719 59.433594 44.46875 59.476562 44.46875 59.527344 L 44.46875 60.648438 C 44.46875 60.699219 44.511719 60.742188 44.5625 60.742188 L 45.179688 60.742188 L 45.179688 65.1875 C 45.179688 65.238281 45.222656 65.28125 45.273438 65.28125 L 46.558594 65.28125 C 46.609375 65.28125 46.652344 65.238281 46.652344 65.1875 L 46.652344 60.742188 L 47.851562 60.742188 L 49.6875 65.183594 C 49.480469 65.652344 49.273438 65.742188 48.996094 65.742188 C 48.769531 65.742188 48.53125 65.675781 48.285156 65.542969 C 48.265625 65.527344 48.238281 65.527344 48.210938 65.535156 C 48.1875 65.542969 48.167969 65.5625 48.15625 65.585938 L 47.722656 66.550781 C 47.699219 66.59375 47.71875 66.648438 47.761719 66.671875 C 48.214844 66.917969 48.625 67.027344 49.132812 67.027344 C 50.082031 67.027344 50.605469 66.578125 51.070312 65.382812 L 53.296875 59.574219 C 53.308594 59.546875 53.304688 59.511719 53.289062 59.484375 C 53.269531 59.460938 53.242188 59.445312 53.210938 59.445312 L 51.871094 59.445312 C 51.832031 59.445312 51.796875 59.46875 51.785156 59.507812 L 50.414062 63.453125 L 48.914062 59.507812 C 48.898438 59.46875 48.863281 59.445312 48.824219 59.445312 L 46.632812 59.445312 " fill-opacity="1" fill-rule="nonzero"/><path fill="#1ed760" d="M 43.777344 59.4375 L 42.492188 59.4375 C 42.441406 59.4375 42.398438 59.480469 42.398438 59.535156 L 42.398438 65.1875 C 42.398438 65.238281 42.441406 65.28125 42.492188 65.28125 L 43.777344 65.28125 C 43.828125 65.28125 43.871094 65.238281 43.871094 65.1875 L 43.871094 59.535156 C 43.871094 59.480469 43.828125 59.4375 43.777344 59.4375 " fill-opacity="1" fill-rule="nonzero"/><path fill="#1ed760" d="M 43.140625 56.867188 C 42.632812 56.867188 42.21875 57.28125 42.21875 57.792969 C 42.21875 58.308594 42.632812 58.722656 43.140625 58.722656 C 43.648438 58.722656 44.0625 58.308594 44.0625 57.792969 C 44.0625 57.28125 43.648438 56.867188 43.140625 56.867188 " fill-opacity="1" fill-rule="nonzero"/><g clip-path="url(#8bf635baa0)"><path fill="#1ed760" d="M 54.445312 60 L 54.210938 60 L 54.210938 60.304688 L 54.445312 60.304688 C 54.5625 60.304688 54.632812 60.246094 54.632812 60.152344 C 54.632812 60.054688 54.5625 60 54.445312 60 Z M 54.597656 60.433594 L 54.855469 60.792969 L 54.640625 60.792969 L 54.410156 60.464844 L 54.210938 60.464844 L 54.210938 60.792969 L 54.03125 60.792969 L 54.03125 59.835938 L 54.453125 59.835938 C 54.675781 59.835938 54.820312 59.949219 54.820312 60.144531 C 54.820312 60.300781 54.730469 60.394531 54.597656 60.433594 Z M 54.398438 59.519531 C 53.933594 59.519531 53.585938 59.890625 53.585938 60.34375 C 53.585938 60.800781 53.933594 61.164062 54.394531 61.164062 C 54.855469 61.164062 55.207031 60.792969 55.207031 60.339844 C 55.207031 59.886719 54.859375 59.519531 54.398438 59.519531 Z M 54.394531 61.257812 C 53.886719 61.257812 53.488281 60.84375 53.488281 60.34375 C 53.488281 59.84375 53.890625 59.429688 54.398438 59.429688 C 54.90625 59.429688 55.300781 59.839844 55.300781 60.339844 C 55.300781 60.839844 54.902344 61.257812 54.394531 61.257812 " fill-opacity="1" fill-rule="nonzero"/></g></svg>