<svg xmlns="http://www.w3.org/2000/svg" xmlns:xlink="http://www.w3.org/1999/xlink" width="130" zoomAndPan="magnify" viewBox="0 0 97.5 37.5" height="50" preserveAspectRatio="xMidYMid meet" version="1.0"><defs><clipPath id="35fb8a63d5"><path d="M 7 6.023438 L 33 6.023438 L 33 31 L 7 31 Z M 7 6.023438 " clip-rule="nonzero"/></clipPath><clipPath id="6abe4e7ecd"><path d="M 86 15 L 89.835938 15 L 89.835938 19 L 86 19 Z M 86 15 " clip-rule="nonzero"/></clipPath></defs><g clip-path="url(#35fb8a63d5)"><path fill="#1ed760" d="M 27.050781 17.203125 C 23.105469 14.832031 16.59375 14.613281 12.828125 15.769531 C 12.222656 15.957031 11.582031 15.609375 11.398438 15 C 11.214844 14.386719 11.554688 13.742188 12.160156 13.554688 C 16.488281 12.226562 23.675781 12.484375 28.21875 15.210938 C 28.765625 15.535156 28.941406 16.246094 28.621094 16.796875 C 28.296875 17.347656 27.59375 17.527344 27.050781 17.203125 Z M 26.921875 20.710938 C 26.644531 21.164062 26.058594 21.308594 25.609375 21.03125 C 22.320312 18.984375 17.300781 18.390625 13.40625 19.585938 C 12.902344 19.742188 12.371094 19.453125 12.214844 18.945312 C 12.0625 18.433594 12.347656 17.894531 12.851562 17.738281 C 17.300781 16.375 22.828125 17.035156 26.609375 19.386719 C 27.058594 19.664062 27.199219 20.257812 26.921875 20.710938 Z M 25.421875 24.082031 C 25.203125 24.445312 24.734375 24.5625 24.375 24.339844 C 21.5 22.5625 17.878906 22.160156 13.617188 23.144531 C 13.207031 23.242188 12.796875 22.980469 12.703125 22.566406 C 12.609375 22.148438 12.867188 21.738281 13.277344 21.640625 C 17.941406 20.5625 21.941406 21.027344 25.171875 23.019531 C 25.53125 23.242188 25.644531 23.71875 25.421875 24.082031 Z M 19.808594 6.226562 C 13.046875 6.226562 7.5625 11.769531 7.5625 18.605469 C 7.5625 25.445312 13.046875 30.984375 19.808594 30.984375 C 26.570312 30.984375 32.054688 25.445312 32.054688 18.605469 C 32.054688 11.769531 26.570312 6.226562 19.808594 6.226562 " fill-opacity="1" fill-rule="nonzero"/></g><path fill="#1ed760" d="M 40.875 17.65625 C 38.761719 17.144531 38.386719 16.789062 38.386719 16.035156 C 38.386719 15.328125 39.046875 14.847656 40.03125 14.847656 C 40.984375 14.847656 41.929688 15.210938 42.921875 15.957031 C 42.949219 15.980469 42.988281 15.988281 43.023438 15.984375 C 43.0625 15.980469 43.09375 15.957031 43.117188 15.925781 L 44.148438 14.457031 C 44.191406 14.394531 44.179688 14.3125 44.121094 14.265625 C 42.941406 13.308594 41.613281 12.84375 40.0625 12.84375 C 37.78125 12.84375 36.183594 14.226562 36.183594 16.210938 C 36.183594 18.335938 37.5625 19.085938 39.9375 19.667969 C 41.960938 20.140625 42.300781 20.535156 42.300781 21.238281 C 42.300781 22.019531 41.613281 22.507812 40.5 22.507812 C 39.265625 22.507812 38.261719 22.085938 37.132812 21.101562 C 37.105469 21.078125 37.066406 21.066406 37.03125 21.066406 C 36.996094 21.070312 36.960938 21.089844 36.9375 21.117188 L 35.78125 22.511719 C 35.730469 22.566406 35.738281 22.652344 35.792969 22.703125 C 37.105469 23.886719 38.714844 24.511719 40.453125 24.511719 C 42.914062 24.511719 44.503906 23.152344 44.503906 21.050781 C 44.503906 19.273438 43.453125 18.289062 40.875 17.65625 " fill-opacity="1" fill-rule="nonzero"/><path fill="#1ed760" d="M 51.851562 20.039062 C 51.851562 21.539062 50.9375 22.585938 49.628906 22.585938 C 48.335938 22.585938 47.359375 21.492188 47.359375 20.039062 C 47.359375 18.585938 48.335938 17.488281 49.628906 17.488281 C 50.917969 17.488281 51.851562 18.5625 51.851562 20.039062 Z M 50.066406 15.546875 C 49 15.546875 48.128906 15.972656 47.40625 16.84375 L 47.40625 15.863281 C 47.40625 15.785156 47.34375 15.722656 47.269531 15.722656 L 45.375 15.722656 C 45.296875 15.722656 45.238281 15.785156 45.238281 15.863281 L 45.238281 26.742188 C 45.238281 26.820312 45.296875 26.882812 45.375 26.882812 L 47.269531 26.882812 C 47.34375 26.882812 47.40625 26.820312 47.40625 26.742188 L 47.40625 23.308594 C 48.128906 24.128906 49.003906 24.527344 50.066406 24.527344 C 52.050781 24.527344 54.054688 22.984375 54.054688 20.039062 C 54.054688 17.089844 52.050781 15.546875 50.066406 15.546875 " fill-opacity="1" fill-rule="nonzero"/><path fill="#1ed760" d="M 59.195312 22.601562 C 57.839844 22.601562 56.816406 21.5 56.816406 20.039062 C 56.816406 18.570312 57.800781 17.503906 59.164062 17.503906 C 60.53125 17.503906 61.558594 18.605469 61.558594 20.070312 C 61.558594 21.539062 60.566406 22.601562 59.195312 22.601562 Z M 59.195312 15.546875 C 56.644531 15.546875 54.644531 17.535156 54.644531 20.070312 C 54.644531 22.578125 56.628906 24.542969 59.164062 24.542969 C 61.722656 24.542969 63.730469 22.5625 63.730469 20.039062 C 63.730469 17.519531 61.738281 15.546875 59.195312 15.546875 " fill-opacity="1" fill-rule="nonzero"/><path fill="#1ed760" d="M 69.175781 15.722656 L 67.09375 15.722656 L 67.09375 13.570312 C 67.09375 13.492188 67.03125 13.429688 66.957031 13.429688 L 65.0625 13.429688 C 64.988281 13.429688 64.925781 13.492188 64.925781 13.570312 L 64.925781 15.722656 L 64.015625 15.722656 C 63.9375 15.722656 63.875 15.785156 63.875 15.863281 L 63.875 17.507812 C 63.875 17.585938 63.9375 17.648438 64.015625 17.648438 L 64.925781 17.648438 L 64.925781 21.902344 C 64.925781 23.625 65.769531 24.496094 67.441406 24.496094 C 68.121094 24.496094 68.683594 24.355469 69.214844 24.050781 C 69.257812 24.023438 69.285156 23.976562 69.285156 23.929688 L 69.285156 22.363281 C 69.285156 22.3125 69.257812 22.269531 69.21875 22.242188 C 69.175781 22.214844 69.125 22.214844 69.082031 22.238281 C 68.71875 22.421875 68.367188 22.507812 67.972656 22.507812 C 67.363281 22.507812 67.09375 22.230469 67.09375 21.605469 L 67.09375 17.648438 L 69.175781 17.648438 C 69.253906 17.648438 69.316406 17.585938 69.316406 17.507812 L 69.316406 15.863281 C 69.316406 15.785156 69.253906 15.722656 69.175781 15.722656 " fill-opacity="1" fill-rule="nonzero"/><path fill="#1ed760" d="M 76.433594 15.730469 L 76.433594 15.464844 C 76.433594 14.6875 76.730469 14.339844 77.390625 14.339844 C 77.785156 14.339844 78.101562 14.421875 78.457031 14.539062 C 78.5 14.554688 78.546875 14.546875 78.582031 14.519531 C 78.621094 14.496094 78.640625 14.453125 78.640625 14.40625 L 78.640625 12.792969 C 78.640625 12.734375 78.601562 12.679688 78.542969 12.660156 C 78.167969 12.546875 77.6875 12.429688 76.96875 12.429688 C 75.21875 12.429688 74.296875 13.425781 74.296875 15.308594 L 74.296875 15.714844 L 73.386719 15.714844 C 73.308594 15.714844 73.246094 15.777344 73.246094 15.855469 L 73.246094 17.507812 C 73.246094 17.585938 73.308594 17.648438 73.386719 17.648438 L 74.296875 17.648438 L 74.296875 24.210938 C 74.296875 24.289062 74.359375 24.351562 74.433594 24.351562 L 76.328125 24.351562 C 76.402344 24.351562 76.464844 24.289062 76.464844 24.210938 L 76.464844 17.648438 L 78.234375 17.648438 L 80.941406 24.210938 C 80.632812 24.902344 80.332031 25.039062 79.917969 25.039062 C 79.585938 25.039062 79.234375 24.9375 78.875 24.738281 C 78.839844 24.71875 78.800781 24.714844 78.765625 24.726562 C 78.726562 24.742188 78.699219 24.769531 78.683594 24.804688 L 78.042969 26.226562 C 78.011719 26.292969 78.035156 26.371094 78.101562 26.40625 C 78.769531 26.773438 79.375 26.929688 80.121094 26.929688 C 81.519531 26.929688 82.292969 26.273438 82.972656 24.5 L 86.257812 15.921875 C 86.273438 15.878906 86.269531 15.832031 86.242188 15.792969 C 86.21875 15.753906 86.175781 15.730469 86.128906 15.730469 L 84.160156 15.730469 C 84.101562 15.730469 84.046875 15.769531 84.027344 15.824219 L 82.007812 21.65625 L 79.796875 15.820312 C 79.777344 15.765625 79.726562 15.730469 79.667969 15.730469 L 76.433594 15.730469 " fill-opacity="1" fill-rule="nonzero"/><path fill="#1ed760" d="M 72.226562 15.722656 L 70.335938 15.722656 C 70.257812 15.722656 70.195312 15.785156 70.195312 15.863281 L 70.195312 24.210938 C 70.195312 24.289062 70.257812 24.351562 70.335938 24.351562 L 72.226562 24.351562 C 72.304688 24.351562 72.367188 24.289062 72.367188 24.210938 L 72.367188 15.863281 C 72.367188 15.785156 72.304688 15.722656 72.226562 15.722656 " fill-opacity="1" fill-rule="nonzero"/><path fill="#1ed760" d="M 71.289062 11.921875 C 70.539062 11.921875 69.933594 12.535156 69.933594 13.292969 C 69.933594 14.050781 70.539062 14.664062 71.289062 14.664062 C 72.039062 14.664062 72.648438 14.050781 72.648438 13.292969 C 72.648438 12.535156 72.039062 11.921875 71.289062 11.921875 " fill-opacity="1" fill-rule="nonzero"/><g clip-path="url(#6abe4e7ecd)"><path fill="#1ed760" d="M 87.953125 16.554688 L 87.605469 16.554688 L 87.605469 17 L 87.953125 17 C 88.125 17 88.226562 16.914062 88.226562 16.777344 C 88.226562 16.632812 88.125 16.554688 87.953125 16.554688 Z M 88.175781 17.191406 L 88.554688 17.722656 L 88.234375 17.722656 L 87.894531 17.234375 L 87.605469 17.234375 L 87.605469 17.722656 L 87.339844 17.722656 L 87.339844 16.3125 L 87.960938 16.3125 C 88.289062 16.3125 88.5 16.480469 88.5 16.761719 C 88.5 16.992188 88.367188 17.136719 88.175781 17.191406 Z M 87.882812 15.839844 C 87.199219 15.839844 86.683594 16.386719 86.683594 17.058594 C 86.683594 17.730469 87.195312 18.273438 87.875 18.273438 C 88.554688 18.273438 89.074219 17.722656 89.074219 17.050781 C 89.074219 16.382812 88.558594 15.839844 87.882812 15.839844 Z M 87.875 18.40625 C 87.125 18.40625 86.542969 17.796875 86.542969 17.058594 C 86.542969 16.320312 87.132812 15.707031 87.882812 15.707031 C 88.628906 15.707031 89.214844 16.3125 89.214844 17.050781 C 89.214844 17.792969 88.625 18.40625 87.875 18.40625 " fill-opacity="1" fill-rule="nonzero"/></g></svg>