<svg xmlns="http://www.w3.org/2000/svg" xmlns:xlink="http://www.w3.org/1999/xlink" width="75" zoomAndPan="magnify" viewBox="0 0 56.25 112.499998" height="150" preserveAspectRatio="xMidYMid meet" version="1.0"><defs><clipPath id="a6bec9a03c"><path d="M 10 57 L 34 57 L 34 62.90625 L 10 62.90625 Z M 10 57 " clip-rule="nonzero"/></clipPath><clipPath id="91f2f81d54"><path d="M 12 48.84375 L 22 48.84375 L 22 57 L 12 57 Z M 12 48.84375 " clip-rule="nonzero"/></clipPath><clipPath id="2f373ced66"><path d="M 37 48.84375 L 45 48.84375 L 45 58 L 37 58 Z M 37 48.84375 " clip-rule="nonzero"/></clipPath><clipPath id="4c6e36cc2c"><path d="M 45 48.84375 L 51.335938 48.84375 L 51.335938 57 L 45 57 Z M 45 48.84375 " clip-rule="nonzero"/></clipPath><clipPath id="30e493ea6f"><path d="M 23 48.84375 L 31 48.84375 L 31 58 L 23 58 Z M 23 48.84375 " clip-rule="nonzero"/></clipPath><clipPath id="d05d3e22d7"><path d="M 4 48.84375 L 11 48.84375 L 11 58 L 4 58 Z M 4 48.84375 " clip-rule="nonzero"/></clipPath></defs><g clip-path="url(#a6bec9a03c)"><path fill="#ff9900" d="M 33.34375 59.839844 C 30.597656 61.839844 26.613281 62.90625 23.179688 62.90625 C 18.371094 62.90625 14.042969 61.148438 10.765625 58.230469 C 10.507812 58 10.738281 57.6875 11.046875 57.867188 C 14.582031 59.898438 18.953125 61.117188 23.46875 61.117188 C 26.515625 61.117188 29.863281 60.496094 32.945312 59.207031 C 33.410156 59.011719 33.800781 59.507812 33.34375 59.839844 " fill-opacity="1" fill-rule="evenodd"/></g><path fill="#ff9900" d="M 34.488281 58.550781 C 34.136719 58.109375 32.164062 58.339844 31.28125 58.445312 C 31.007812 58.476562 30.96875 58.246094 31.210938 58.078125 C 32.78125 56.988281 35.359375 57.304688 35.660156 57.667969 C 35.960938 58.035156 35.582031 60.585938 34.105469 61.800781 C 33.878906 61.988281 33.664062 61.890625 33.765625 61.640625 C 34.097656 60.824219 34.839844 58.996094 34.488281 58.550781 " fill-opacity="1" fill-rule="evenodd"/><path fill="#000000" d="M 31.339844 50.378906 L 31.339844 49.316406 C 31.339844 49.15625 31.464844 49.050781 31.613281 49.050781 L 36.425781 49.050781 C 36.578125 49.050781 36.703125 49.160156 36.703125 49.316406 L 36.703125 50.226562 C 36.699219 50.378906 36.570312 50.578125 36.339844 50.890625 L 33.847656 54.40625 C 34.773438 54.382812 35.75 54.519531 36.589844 54.984375 C 36.78125 55.089844 36.832031 55.246094 36.847656 55.398438 L 36.847656 56.527344 C 36.847656 56.683594 36.675781 56.863281 36.492188 56.769531 C 35.011719 56.003906 33.046875 55.921875 31.410156 56.777344 C 31.242188 56.867188 31.066406 56.691406 31.066406 56.535156 L 31.066406 55.460938 C 31.066406 55.289062 31.070312 54.992188 31.246094 54.730469 L 34.132812 50.644531 L 31.621094 50.644531 C 31.464844 50.644531 31.339844 50.535156 31.339844 50.378906 " fill-opacity="1" fill-rule="evenodd"/><g clip-path="url(#91f2f81d54)"><path fill="#000000" d="M 13.789062 56.996094 L 12.324219 56.996094 C 12.183594 56.984375 12.074219 56.878906 12.0625 56.75 L 12.0625 49.335938 C 12.0625 49.1875 12.1875 49.070312 12.34375 49.070312 L 13.710938 49.070312 C 13.851562 49.078125 13.964844 49.183594 13.976562 49.316406 L 13.976562 50.289062 L 14.003906 50.289062 C 14.359375 49.351562 15.027344 48.914062 15.929688 48.914062 C 16.847656 48.914062 17.417969 49.351562 17.832031 50.289062 C 18.183594 49.351562 18.988281 48.914062 19.851562 48.914062 C 20.464844 48.914062 21.136719 49.164062 21.546875 49.722656 C 22.011719 50.347656 21.914062 51.253906 21.914062 52.046875 L 21.914062 56.726562 C 21.914062 56.875 21.789062 56.996094 21.632812 56.996094 L 20.167969 56.996094 C 20.023438 56.984375 19.90625 56.867188 19.90625 56.726562 L 19.90625 52.796875 C 19.90625 52.484375 19.933594 51.703125 19.863281 51.410156 C 19.753906 50.910156 19.429688 50.769531 19.003906 50.769531 C 18.648438 50.769531 18.277344 51.003906 18.128906 51.378906 C 17.976562 51.75 17.992188 52.378906 17.992188 52.796875 L 17.992188 56.726562 C 17.992188 56.875 17.867188 56.996094 17.710938 56.996094 L 16.25 56.996094 C 16.101562 56.984375 15.984375 56.867188 15.984375 56.726562 L 15.984375 52.796875 C 15.984375 51.972656 16.121094 50.753906 15.082031 50.753906 C 14.03125 50.753906 14.070312 51.941406 14.070312 52.796875 L 14.070312 56.726562 C 14.070312 56.875 13.945312 56.996094 13.789062 56.996094 " fill-opacity="1" fill-rule="evenodd"/></g><g clip-path="url(#2f373ced66)"><path fill="#000000" d="M 40.84375 48.914062 C 43.019531 48.914062 44.191406 50.753906 44.191406 53.09375 C 44.191406 55.355469 42.894531 57.148438 40.84375 57.148438 C 38.710938 57.148438 37.550781 55.308594 37.550781 53.015625 C 37.550781 50.707031 38.726562 48.914062 40.84375 48.914062 M 40.859375 50.425781 C 39.777344 50.425781 39.710938 51.878906 39.710938 52.78125 C 39.710938 53.6875 39.695312 55.621094 40.84375 55.621094 C 41.980469 55.621094 42.035156 54.0625 42.035156 53.109375 C 42.035156 52.484375 42.007812 51.738281 41.816406 51.144531 C 41.652344 50.628906 41.324219 50.425781 40.859375 50.425781 " fill-opacity="1" fill-rule="evenodd"/></g><g clip-path="url(#4c6e36cc2c)"><path fill="#000000" d="M 47.011719 56.996094 L 45.550781 56.996094 C 45.40625 56.984375 45.289062 56.867188 45.289062 56.726562 L 45.285156 49.3125 C 45.300781 49.175781 45.421875 49.070312 45.570312 49.070312 L 46.925781 49.070312 C 47.054688 49.078125 47.160156 49.160156 47.1875 49.277344 L 47.1875 50.410156 L 47.214844 50.410156 C 47.625 49.398438 48.199219 48.914062 49.207031 48.914062 C 49.867188 48.914062 50.507812 49.148438 50.917969 49.789062 C 51.300781 50.378906 51.300781 51.378906 51.300781 52.09375 L 51.300781 56.761719 C 51.285156 56.890625 51.164062 56.996094 51.019531 56.996094 L 49.550781 56.996094 C 49.417969 56.984375 49.304688 56.886719 49.292969 56.761719 L 49.292969 52.734375 C 49.292969 51.925781 49.386719 50.738281 48.375 50.738281 C 48.019531 50.738281 47.691406 50.972656 47.527344 51.332031 C 47.324219 51.785156 47.296875 52.234375 47.296875 52.734375 L 47.296875 56.726562 C 47.292969 56.875 47.167969 56.996094 47.011719 56.996094 " fill-opacity="1" fill-rule="evenodd"/></g><g clip-path="url(#30e493ea6f)"><path fill="#000000" d="M 27.503906 53.453125 C 27.503906 54.015625 27.519531 54.484375 27.230469 54.984375 C 27 55.390625 26.628906 55.640625 26.21875 55.640625 C 25.65625 55.640625 25.328125 55.21875 25.328125 54.59375 C 25.328125 53.363281 26.445312 53.140625 27.503906 53.140625 L 27.503906 53.453125 M 28.980469 56.972656 C 28.886719 57.058594 28.746094 57.066406 28.636719 57.007812 C 28.148438 56.609375 28.0625 56.425781 27.796875 56.046875 C 26.992188 56.855469 26.421875 57.097656 25.382812 57.097656 C 24.148438 57.097656 23.191406 56.347656 23.191406 54.84375 C 23.191406 53.671875 23.835938 52.875 24.753906 52.484375 C 25.546875 52.140625 26.65625 52.078125 27.503906 51.984375 L 27.503906 51.796875 C 27.503906 51.453125 27.53125 51.046875 27.328125 50.75 C 27.148438 50.484375 26.808594 50.375 26.503906 50.375 C 25.945312 50.375 25.449219 50.65625 25.328125 51.242188 C 25.304688 51.371094 25.207031 51.5 25.074219 51.507812 L 23.65625 51.355469 C 23.535156 51.328125 23.402344 51.234375 23.4375 51.054688 C 23.761719 49.355469 25.320312 48.84375 26.710938 48.84375 C 27.421875 48.84375 28.355469 49.03125 28.914062 49.5625 C 29.628906 50.21875 29.558594 51.09375 29.558594 52.046875 L 29.558594 54.296875 C 29.558594 54.972656 29.84375 55.269531 30.113281 55.636719 C 30.203125 55.765625 30.226562 55.921875 30.105469 56.019531 C 29.808594 56.265625 29.277344 56.722656 28.984375 56.976562 L 28.980469 56.972656 " fill-opacity="1" fill-rule="evenodd"/></g><g clip-path="url(#d05d3e22d7)"><path fill="#000000" d="M 8.3125 53.453125 C 8.3125 54.015625 8.328125 54.484375 8.039062 54.984375 C 7.808594 55.390625 7.4375 55.640625 7.027344 55.640625 C 6.464844 55.640625 6.136719 55.21875 6.136719 54.59375 C 6.136719 53.363281 7.253906 53.140625 8.3125 53.140625 L 8.3125 53.453125 M 9.789062 56.972656 C 9.691406 57.058594 9.554688 57.066406 9.445312 57.007812 C 8.957031 56.609375 8.871094 56.425781 8.605469 56.046875 C 7.800781 56.855469 7.234375 57.097656 6.191406 57.097656 C 4.960938 57.097656 4 56.347656 4 54.84375 C 4 53.671875 4.644531 52.875 5.5625 52.484375 C 6.355469 52.140625 7.464844 52.078125 8.3125 51.984375 L 8.3125 51.796875 C 8.3125 51.453125 8.339844 51.046875 8.136719 50.75 C 7.957031 50.484375 7.617188 50.375 7.316406 50.375 C 6.757812 50.375 6.257812 50.65625 6.136719 51.242188 C 6.113281 51.371094 6.015625 51.5 5.882812 51.507812 L 4.464844 51.355469 C 4.34375 51.328125 4.210938 51.234375 4.246094 51.054688 C 4.574219 49.355469 6.128906 48.84375 7.519531 48.84375 C 8.230469 48.84375 9.160156 49.03125 9.722656 49.5625 C 10.4375 50.21875 10.367188 51.09375 10.367188 52.046875 L 10.367188 54.296875 C 10.367188 54.972656 10.652344 55.269531 10.921875 55.636719 C 11.015625 55.765625 11.035156 55.921875 10.917969 56.019531 C 10.617188 56.265625 10.085938 56.722656 9.792969 56.976562 L 9.789062 56.972656 " fill-opacity="1" fill-rule="evenodd"/></g></svg>