<svg xmlns="http://www.w3.org/2000/svg" xmlns:xlink="http://www.w3.org/1999/xlink" width="130" zoomAndPan="magnify" viewBox="0 0 97.5 37.5" height="50" preserveAspectRatio="xMidYMid meet" version="1.0"><defs><clipPath id="2d871cb20f"><path d="M 17 23 L 60 23 L 60 33.484375 L 17 33.484375 Z M 17 23 " clip-rule="nonzero"/></clipPath><clipPath id="1511912510"><path d="M 20 6.839844 L 39 6.839844 L 39 23 L 20 23 Z M 20 6.839844 " clip-rule="nonzero"/></clipPath><clipPath id="c886db59f6"><path d="M 67 6.839844 L 80 6.839844 L 80 23 L 67 23 Z M 67 6.839844 " clip-rule="nonzero"/></clipPath><clipPath id="f849a34197"><path d="M 81 6.839844 L 93 6.839844 L 93 23 L 81 23 Z M 81 6.839844 " clip-rule="nonzero"/></clipPath><clipPath id="87a84ea91f"><path d="M 40 6.839844 L 54 6.839844 L 54 23 L 40 23 Z M 40 6.839844 " clip-rule="nonzero"/></clipPath><clipPath id="d8df601c19"><path d="M 5 6.839844 L 19 6.839844 L 19 23 L 5 23 Z M 5 6.839844 " clip-rule="nonzero"/></clipPath></defs><g clip-path="url(#2d871cb20f)"><path fill="#ff9900" d="M 59.605469 27.675781 C 54.496094 31.464844 47.085938 33.484375 40.707031 33.484375 C 31.765625 33.484375 23.714844 30.15625 17.621094 24.628906 C 17.144531 24.191406 17.574219 23.601562 18.148438 23.9375 C 24.71875 27.785156 32.847656 30.097656 41.246094 30.097656 C 46.90625 30.097656 53.136719 28.917969 58.863281 26.476562 C 59.730469 26.105469 60.453125 27.042969 59.605469 27.675781 " fill-opacity="1" fill-rule="evenodd"/></g><path fill="#ff9900" d="M 61.730469 25.230469 C 61.078125 24.394531 57.414062 24.835938 55.765625 25.03125 C 55.265625 25.09375 55.1875 24.65625 55.640625 24.339844 C 58.5625 22.273438 63.355469 22.867188 63.914062 23.5625 C 64.472656 24.257812 63.769531 29.089844 61.023438 31.394531 C 60.601562 31.746094 60.199219 31.558594 60.386719 31.089844 C 61.003906 29.542969 62.386719 26.074219 61.730469 25.230469 " fill-opacity="1" fill-rule="evenodd"/><path fill="#000000" d="M 55.878906 9.75 L 55.878906 7.738281 C 55.878906 7.433594 56.109375 7.230469 56.386719 7.230469 L 65.332031 7.230469 C 65.621094 7.230469 65.851562 7.4375 65.851562 7.738281 L 65.851562 9.460938 C 65.847656 9.75 65.605469 10.125 65.175781 10.722656 L 60.539062 17.375 C 62.261719 17.335938 64.082031 17.59375 65.644531 18.476562 C 65.996094 18.675781 66.089844 18.96875 66.117188 19.257812 L 66.117188 21.402344 C 66.117188 21.695312 65.796875 22.039062 65.460938 21.859375 C 62.707031 20.410156 59.050781 20.25 56.007812 21.875 C 55.695312 22.046875 55.371094 21.707031 55.371094 21.414062 L 55.371094 19.378906 C 55.371094 19.050781 55.375 18.492188 55.699219 17.996094 L 61.074219 10.253906 L 56.398438 10.253906 C 56.109375 10.253906 55.878906 10.046875 55.878906 9.75 " fill-opacity="1" fill-rule="evenodd"/><g clip-path="url(#1511912510)"><path fill="#000000" d="M 23.242188 22.285156 L 20.519531 22.285156 C 20.261719 22.265625 20.054688 22.066406 20.035156 21.816406 L 20.035156 7.773438 C 20.035156 7.492188 20.269531 7.269531 20.558594 7.269531 L 23.097656 7.269531 C 23.359375 7.28125 23.570312 7.484375 23.589844 7.738281 L 23.589844 9.574219 L 23.640625 9.574219 C 24.304688 7.800781 25.546875 6.972656 27.222656 6.972656 C 28.929688 6.972656 29.992188 7.800781 30.757812 9.574219 C 31.417969 7.800781 32.914062 6.972656 34.519531 6.972656 C 35.660156 6.972656 36.90625 7.445312 37.667969 8.507812 C 38.53125 9.691406 38.355469 11.40625 38.355469 12.910156 L 38.351562 21.777344 C 38.351562 22.054688 38.117188 22.285156 37.824219 22.285156 L 35.105469 22.285156 C 34.835938 22.265625 34.617188 22.046875 34.617188 21.777344 L 34.617188 14.332031 C 34.617188 13.738281 34.671875 12.261719 34.539062 11.699219 C 34.335938 10.757812 33.730469 10.492188 32.941406 10.492188 C 32.28125 10.492188 31.59375 10.933594 31.3125 11.640625 C 31.035156 12.351562 31.058594 13.535156 31.058594 14.332031 L 31.058594 21.777344 C 31.058594 22.054688 30.828125 22.285156 30.535156 22.285156 L 27.816406 22.285156 C 27.542969 22.265625 27.328125 22.046875 27.328125 21.777344 L 27.324219 14.332031 C 27.324219 12.765625 27.582031 10.460938 25.648438 10.460938 C 23.691406 10.460938 23.765625 12.707031 23.765625 14.332031 L 23.765625 21.777344 C 23.765625 22.054688 23.535156 22.285156 23.242188 22.285156 " fill-opacity="1" fill-rule="evenodd"/></g><g clip-path="url(#c886db59f6)"><path fill="#000000" d="M 73.554688 6.972656 C 77.59375 6.972656 79.777344 10.460938 79.777344 14.894531 C 79.777344 19.179688 77.363281 22.578125 73.554688 22.578125 C 69.585938 22.578125 67.425781 19.089844 67.425781 14.742188 C 67.425781 10.371094 69.613281 6.972656 73.554688 6.972656 M 73.578125 9.839844 C 71.570312 9.839844 71.445312 12.589844 71.445312 14.300781 C 71.445312 16.019531 71.417969 19.683594 73.554688 19.683594 C 75.664062 19.683594 75.761719 16.726562 75.761719 14.925781 C 75.761719 13.738281 75.710938 12.324219 75.355469 11.199219 C 75.050781 10.222656 74.441406 9.839844 73.578125 9.839844 " fill-opacity="1" fill-rule="evenodd"/></g><g clip-path="url(#f849a34197)"><path fill="#000000" d="M 85.015625 22.285156 L 82.304688 22.285156 C 82.035156 22.265625 81.816406 22.046875 81.816406 21.777344 L 81.8125 7.726562 C 81.835938 7.46875 82.058594 7.269531 82.335938 7.269531 L 84.859375 7.269531 C 85.097656 7.28125 85.292969 7.441406 85.34375 7.664062 L 85.34375 9.808594 L 85.394531 9.808594 C 86.15625 7.890625 87.226562 6.972656 89.105469 6.972656 C 90.324219 6.972656 91.515625 7.417969 92.28125 8.628906 C 92.996094 9.753906 92.996094 11.640625 92.996094 13 L 92.996094 21.839844 C 92.964844 22.085938 92.738281 22.285156 92.46875 22.285156 L 89.742188 22.285156 C 89.492188 22.265625 89.285156 22.078125 89.257812 21.839844 L 89.257812 14.214844 C 89.257812 12.675781 89.433594 10.429688 87.554688 10.429688 C 86.890625 10.429688 86.285156 10.875 85.980469 11.554688 C 85.597656 12.410156 85.546875 13.265625 85.546875 14.214844 L 85.546875 21.777344 C 85.542969 22.054688 85.308594 22.285156 85.015625 22.285156 " fill-opacity="1" fill-rule="evenodd"/></g><g clip-path="url(#87a84ea91f)"><path fill="#000000" d="M 48.75 15.574219 C 48.75 16.640625 48.773438 17.53125 48.238281 18.476562 C 47.804688 19.246094 47.117188 19.71875 46.355469 19.71875 C 45.308594 19.71875 44.699219 18.917969 44.699219 17.738281 C 44.699219 15.40625 46.777344 14.984375 48.75 14.984375 L 48.75 15.574219 M 51.492188 22.246094 C 51.3125 22.40625 51.054688 22.417969 50.851562 22.3125 C 49.945312 21.554688 49.78125 21.207031 49.289062 20.488281 C 47.796875 22.019531 46.734375 22.476562 44.800781 22.476562 C 42.507812 22.476562 40.726562 21.054688 40.726562 18.210938 C 40.726562 15.992188 41.921875 14.476562 43.628906 13.738281 C 45.105469 13.085938 47.171875 12.96875 48.75 12.789062 L 48.75 12.433594 C 48.75 11.785156 48.796875 11.015625 48.414062 10.453125 C 48.085938 9.949219 47.449219 9.742188 46.886719 9.742188 C 45.851562 9.742188 44.925781 10.277344 44.703125 11.382812 C 44.65625 11.628906 44.476562 11.871094 44.226562 11.882812 L 41.589844 11.601562 C 41.367188 11.550781 41.117188 11.367188 41.183594 11.027344 C 41.789062 7.808594 44.683594 6.839844 47.269531 6.839844 C 48.59375 6.839844 50.324219 7.191406 51.371094 8.203125 C 52.695312 9.445312 52.570312 11.101562 52.570312 12.910156 L 52.570312 17.171875 C 52.570312 18.453125 53.097656 19.015625 53.59375 19.707031 C 53.765625 19.957031 53.804688 20.25 53.582031 20.4375 C 53.027344 20.902344 52.039062 21.769531 51.496094 22.253906 L 51.492188 22.246094 " fill-opacity="1" fill-rule="evenodd"/></g><g clip-path="url(#d8df601c19)"><path fill="#000000" d="M 13.0625 15.574219 C 13.0625 16.640625 13.089844 17.53125 12.554688 18.476562 C 12.121094 19.246094 11.433594 19.71875 10.667969 19.71875 C 9.625 19.71875 9.015625 18.917969 9.015625 17.738281 C 9.015625 15.40625 11.09375 14.984375 13.0625 14.984375 L 13.0625 15.574219 M 15.808594 22.246094 C 15.628906 22.40625 15.367188 22.417969 15.164062 22.3125 C 14.261719 21.554688 14.101562 21.207031 13.601562 20.488281 C 12.109375 22.019531 11.050781 22.476562 9.117188 22.476562 C 6.824219 22.476562 5.042969 21.054688 5.042969 18.210938 C 5.042969 15.992188 6.238281 14.476562 7.945312 13.738281 C 9.421875 13.085938 11.484375 12.96875 13.0625 12.789062 L 13.0625 12.433594 C 13.0625 11.785156 13.113281 11.015625 12.734375 10.453125 C 12.398438 9.949219 11.765625 9.742188 11.207031 9.742188 C 10.167969 9.742188 9.242188 10.277344 9.015625 11.382812 C 8.96875 11.628906 8.789062 11.871094 8.542969 11.882812 L 5.902344 11.601562 C 5.679688 11.550781 5.4375 11.367188 5.496094 11.027344 C 6.105469 7.808594 8.996094 6.839844 11.585938 6.839844 C 12.910156 6.839844 14.640625 7.191406 15.683594 8.203125 C 17.007812 9.445312 16.882812 11.101562 16.882812 12.910156 L 16.882812 17.171875 C 16.882812 18.453125 17.410156 19.015625 17.910156 19.707031 C 18.085938 19.957031 18.125 20.25 17.902344 20.4375 C 17.347656 20.902344 16.359375 21.769531 15.816406 22.253906 L 15.808594 22.246094 " fill-opacity="1" fill-rule="evenodd"/></g></svg>