<svg xmlns="http://www.w3.org/2000/svg" xmlns:xlink="http://www.w3.org/1999/xlink" width="75" zoomAndPan="magnify" viewBox="0 0 56.25 112.499998" height="150" preserveAspectRatio="xMidYMid meet" version="1.0"><defs><clipPath id="58fee594c2"><path d="M 0 56.003906 L 54.03125 56.003906 L 54.03125 74.507812 L 0 74.507812 Z M 0 56.003906 " clip-rule="nonzero"/></clipPath></defs><g clip-path="url(#58fee594c2)"><path fill="#000000" d="M 44.59375 74.5 C 42.445312 74.5 40.398438 73.804688 38.738281 72.503906 C 37.082031 73.789062 35.03125 74.5 32.886719 74.5 C 30.742188 74.5 28.691406 73.804688 27.035156 72.503906 C 25.378906 73.789062 23.328125 74.5 21.183594 74.5 C 19.039062 74.5 16.988281 73.804688 15.332031 72.503906 C 13.671875 73.789062 11.625 74.5 9.476562 74.5 C 6.980469 74.5 4.628906 73.5625 2.851562 71.851562 C 1.046875 70.136719 0.0390625 67.851562 0 65.414062 C -0.0390625 62.96875 0.882812 60.652344 2.605469 58.875 C 4.316406 57.109375 6.640625 56.089844 9.136719 56.011719 L 9.777344 56.011719 C 11.8125 56.078125 13.742188 56.773438 15.316406 57.992188 C 16.878906 56.773438 18.804688 56.078125 20.84375 56.011719 L 20.882812 57.054688 L 20.882812 56.011719 L 21.480469 56.011719 C 23.519531 56.078125 25.445312 56.773438 27.023438 57.992188 C 28.597656 56.773438 30.511719 56.078125 32.5625 56.011719 L 33.199219 56.011719 C 35.238281 56.078125 37.164062 56.773438 38.738281 57.992188 C 40.300781 56.773438 42.230469 56.078125 44.28125 56.011719 L 44.320312 57.054688 L 44.320312 56.011719 L 44.917969 56.011719 C 47.402344 56.089844 49.726562 57.109375 51.449219 58.875 C 53.175781 60.640625 54.097656 62.96875 54.058594 65.402344 C 54.015625 67.851562 53.011719 70.136719 51.230469 71.851562 C 49.425781 73.5625 47.078125 74.5 44.59375 74.5 Z M 40.289062 70.992188 C 41.496094 71.863281 42.988281 72.386719 44.59375 72.386719 C 48.542969 72.386719 51.816406 69.242188 51.871094 65.390625 C 51.9375 61.535156 48.789062 58.296875 44.851562 58.152344 L 44.335938 58.152344 C 42.828125 58.207031 41.441406 58.714844 40.300781 59.53125 C 41.660156 61.203125 42.367188 63.261719 42.339844 65.414062 C 42.285156 67.460938 41.578125 69.402344 40.289062 70.992188 Z M 28.582031 70.992188 C 29.792969 71.863281 31.285156 72.386719 32.886719 72.386719 C 34.488281 72.386719 35.96875 71.863281 37.179688 70.992188 C 35.902344 69.414062 35.183594 67.460938 35.140625 65.414062 C 35.101562 63.261719 35.820312 61.203125 37.179688 59.53125 C 36.039062 58.714844 34.652344 58.207031 33.144531 58.152344 L 32.628906 58.152344 C 31.121094 58.207031 29.738281 58.714844 28.597656 59.53125 C 29.953125 61.203125 30.660156 63.261719 30.632812 65.414062 C 30.578125 67.460938 29.859375 69.402344 28.582031 70.992188 Z M 16.863281 70.992188 C 18.074219 71.863281 19.566406 72.386719 21.167969 72.386719 C 22.769531 72.386719 24.25 71.863281 25.460938 70.992188 C 24.183594 69.414062 23.464844 67.460938 23.421875 65.414062 C 23.382812 63.261719 24.101562 61.203125 25.460938 59.53125 C 24.320312 58.714844 22.933594 58.207031 21.425781 58.152344 L 20.910156 58.152344 C 19.402344 58.207031 18.019531 58.714844 16.878906 59.53125 C 18.234375 61.203125 18.941406 63.261719 18.914062 65.414062 C 18.859375 67.460938 18.140625 69.402344 16.863281 70.992188 Z M 9.191406 58.136719 C 5.253906 58.273438 2.105469 61.523438 2.171875 65.375 C 2.242188 69.226562 5.5 72.371094 9.449219 72.371094 C 11.054688 72.371094 12.53125 71.851562 13.742188 70.980469 C 12.464844 69.402344 11.746094 67.449219 11.703125 65.402344 C 11.664062 63.25 12.382812 61.1875 13.742188 59.515625 C 12.601562 58.699219 11.214844 58.191406 9.707031 58.136719 Z M 27.023438 61.042969 C 26.097656 62.257812 25.570312 63.757812 25.597656 65.375 C 25.621094 66.898438 26.152344 68.316406 27.023438 69.46875 C 27.890625 68.316406 28.421875 66.898438 28.449219 65.375 C 28.472656 63.757812 27.929688 62.257812 27.023438 61.042969 Z M 15.304688 61.042969 C 14.378906 62.257812 13.851562 63.757812 13.878906 65.375 C 13.90625 66.898438 14.433594 68.316406 15.304688 69.46875 C 16.171875 68.316406 16.703125 66.898438 16.730469 65.375 C 16.757812 63.757812 16.226562 62.257812 15.304688 61.042969 Z M 38.726562 61.042969 C 37.804688 62.257812 37.273438 63.757812 37.300781 65.375 C 37.328125 66.898438 37.855469 68.316406 38.726562 69.46875 C 39.59375 68.316406 40.125 66.898438 40.152344 65.375 C 40.191406 63.757812 39.648438 62.257812 38.726562 61.042969 Z M 38.726562 61.042969 " fill-opacity="1" fill-rule="nonzero"/></g></svg>