<svg xmlns="http://www.w3.org/2000/svg" xmlns:xlink="http://www.w3.org/1999/xlink" width="130" zoomAndPan="magnify" viewBox="0 0 97.5 37.5" height="50" preserveAspectRatio="xMidYMid meet" version="1.0"><defs><clipPath id="016ad1fe1a"><path d="M 4.09375 3.699219 L 90.691406 3.699219 L 90.691406 34.046875 L 4.09375 34.046875 Z M 4.09375 3.699219 " clip-rule="nonzero"/></clipPath></defs><g clip-path="url(#016ad1fe1a)"><path fill="#000000" d="M 75.566406 34.035156 C 72.125 34.035156 68.839844 32.894531 66.183594 30.765625 C 63.53125 32.871094 60.246094 34.035156 56.804688 34.035156 C 53.367188 34.035156 50.082031 32.894531 47.425781 30.765625 C 44.769531 32.871094 41.484375 34.035156 38.046875 34.035156 C 34.605469 34.035156 31.320312 32.894531 28.664062 30.765625 C 26.011719 32.871094 22.722656 34.035156 19.285156 34.035156 C 15.28125 34.035156 11.515625 32.5 8.664062 29.691406 C 5.769531 26.882812 4.160156 23.128906 4.09375 19.136719 C 4.03125 15.121094 5.511719 11.324219 8.273438 8.40625 C 11.015625 5.511719 14.738281 3.84375 18.742188 3.710938 L 19.765625 3.710938 C 23.03125 3.820312 26.121094 4.960938 28.644531 6.960938 C 31.148438 4.960938 34.238281 3.820312 37.5 3.710938 L 37.566406 5.421875 L 37.566406 3.710938 L 38.523438 3.710938 C 41.789062 3.820312 44.878906 4.960938 47.402344 6.960938 C 49.929688 4.960938 52.996094 3.820312 56.285156 3.710938 L 57.304688 3.710938 C 60.570312 3.820312 63.660156 4.960938 66.183594 6.960938 C 68.6875 4.960938 71.777344 3.820312 75.066406 3.710938 L 75.128906 5.421875 L 75.128906 3.710938 L 76.085938 3.710938 C 80.070312 3.84375 83.792969 5.511719 86.554688 8.40625 C 89.320312 11.304688 90.800781 15.121094 90.734375 19.113281 C 90.667969 23.128906 89.058594 26.882812 86.207031 29.691406 C 83.3125 32.5 79.546875 34.035156 75.566406 34.035156 Z M 68.667969 28.285156 C 70.601562 29.710938 72.996094 30.566406 75.566406 30.566406 C 81.898438 30.566406 87.144531 25.410156 87.230469 19.09375 C 87.339844 12.773438 82.289062 7.464844 75.980469 7.222656 L 75.152344 7.222656 C 72.734375 7.308594 70.515625 8.144531 68.6875 9.480469 C 70.863281 12.226562 71.996094 15.605469 71.953125 19.136719 C 71.867188 22.492188 70.734375 25.675781 68.667969 28.285156 Z M 49.90625 28.285156 C 51.84375 29.710938 54.238281 30.566406 56.804688 30.566406 C 59.375 30.566406 61.746094 29.710938 63.683594 28.285156 C 61.636719 25.695312 60.484375 22.492188 60.417969 19.136719 C 60.351562 15.605469 61.507812 12.226562 63.683594 9.480469 C 61.855469 8.144531 59.636719 7.308594 57.21875 7.222656 L 56.390625 7.222656 C 53.976562 7.308594 51.757812 8.144531 49.929688 9.480469 C 52.105469 12.226562 53.238281 15.605469 53.191406 19.136719 C 53.105469 22.492188 51.953125 25.675781 49.90625 28.285156 Z M 31.125 28.285156 C 33.0625 29.710938 35.457031 30.566406 38.023438 30.566406 C 40.59375 30.566406 42.964844 29.710938 44.902344 28.285156 C 42.855469 25.695312 41.703125 22.492188 41.636719 19.136719 C 41.570312 15.605469 42.726562 12.226562 44.902344 9.480469 C 43.074219 8.144531 40.851562 7.308594 38.4375 7.222656 L 37.609375 7.222656 C 35.195312 7.308594 32.976562 8.144531 31.148438 9.480469 C 33.324219 12.226562 34.453125 15.605469 34.410156 19.136719 C 34.324219 22.492188 33.171875 25.675781 31.125 28.285156 Z M 18.828125 7.199219 C 12.519531 7.417969 7.46875 12.75 7.578125 19.070312 C 7.6875 25.390625 12.910156 30.546875 19.242188 30.546875 C 21.8125 30.546875 24.183594 29.691406 26.121094 28.265625 C 24.074219 25.675781 22.921875 22.472656 22.855469 19.113281 C 22.789062 15.582031 23.941406 12.203125 26.121094 9.460938 C 24.292969 8.121094 22.070312 7.289062 19.65625 7.199219 Z M 47.402344 11.960938 C 45.925781 13.957031 45.074219 16.414062 45.117188 19.070312 C 45.164062 21.570312 46.011719 23.898438 47.402344 25.785156 C 48.796875 23.898438 49.644531 21.570312 49.6875 19.070312 C 49.734375 16.414062 48.863281 13.957031 47.402344 11.960938 Z M 28.621094 11.960938 C 27.140625 13.957031 26.292969 16.414062 26.335938 19.070312 C 26.378906 21.570312 27.230469 23.898438 28.621094 25.785156 C 30.015625 23.898438 30.863281 21.570312 30.90625 19.070312 C 30.949219 16.414062 30.101562 13.957031 28.621094 11.960938 Z M 66.164062 11.960938 C 64.683594 13.957031 63.835938 16.414062 63.878906 19.070312 C 63.921875 21.570312 64.769531 23.898438 66.164062 25.785156 C 67.554688 23.898438 68.40625 21.570312 68.449219 19.070312 C 68.515625 16.414062 67.644531 13.957031 66.164062 11.960938 Z M 66.164062 11.960938 " fill-opacity="1" fill-rule="nonzero"/></g></svg>