<svg xmlns="http://www.w3.org/2000/svg" xmlns:xlink="http://www.w3.org/1999/xlink" width="411" zoomAndPan="magnify" viewBox="0 0 308.25 341.249987" height="455" preserveAspectRatio="xMidYMid meet" version="1.0"><defs><filter x="0%" y="0%" width="100%" height="100%" id="abcd9f47e4"><feColorMatrix values="0 0 0 0 1 0 0 0 0 1 0 0 0 0 1 0 0 0 1 0" color-interpolation-filters="sRGB"/></filter><clipPath id="c61a4bc443"><path d="M 0 0.0390625 L 307.5 0.0390625 L 307.5 340.460938 L 0 340.460938 Z M 0 0.0390625 " clip-rule="nonzero"/></clipPath><clipPath id="7446162b47"><path d="M 33 0.0390625 L 277 0.0390625 L 277 340.460938 L 33 340.460938 Z M 33 0.0390625 " clip-rule="nonzero"/></clipPath><mask id="612562b598"><g filter="url(#abcd9f47e4)"><rect x="-30.825" width="369.9" fill="#000000" y="-34.124999" height="409.499984" fill-opacity="0.12"/></g></mask><clipPath id="5b27276ec2"><path d="M 0.148438 0.0390625 L 243.289062 0.0390625 L 243.289062 340.460938 L 0.148438 340.460938 Z M 0.148438 0.0390625 " clip-rule="nonzero"/></clipPath><clipPath id="f4a0d979a2"><rect x="0" width="244" y="0" height="341"/></clipPath></defs><g clip-path="url(#c61a4bc443)"><path fill="#ffffff" d="M 0 0.0390625 L 307.5 0.0390625 L 307.5 340.460938 L 0 340.460938 Z M 0 0.0390625 " fill-opacity="1" fill-rule="nonzero"/><path fill="#24315e" d="M 0 0.0390625 L 307.5 0.0390625 L 307.5 340.460938 L 0 340.460938 Z M 0 0.0390625 " fill-opacity="1" fill-rule="nonzero"/></g><g clip-path="url(#7446162b47)"><g mask="url(#612562b598)"><g transform="matrix(1, 0, 0, 1, 33, 0.000000000000000763)"><g clip-path="url(#f4a0d979a2)"><g clip-path="url(#5b27276ec2)"><path fill="#ffffff" d="M 159.425781 305.976562 C 116.882812 261.421875 191.132812 221.195312 168.804688 175.910156 C 169.519531 191.714844 163.019531 205.390625 147.164062 217.601562 C 104.648438 248.472656 97.4375 283.675781 125.550781 323.949219 C 129.144531 328.972656 133.476562 333.992188 137.808594 339.753906 C 150.785156 333.992188 163.757812 326.066406 174.5625 318.1875 C 168.804688 314.59375 163.019531 310.261719 159.425781 305.976562 Z M 103.199219 317.449219 C 90.9375 290.863281 90.25 266.441406 103.199219 243.449219 C 86.628906 257.828125 77.988281 277.226562 78.703125 301.644531 C 41.949219 272.941406 19.59375 229.074219 19.59375 180.21875 C 19.59375 140.707031 19.59375 101.195312 19.59375 60.957031 C 54.921875 58.078125 94.554688 50.175781 121.957031 27.183594 C 124.097656 29.335938 127.003906 31.492188 129.882812 33.65625 C 121.957031 40.832031 113.289062 47.308594 103.9375 51.617188 C 111.863281 58.804688 116.195312 68.144531 116.195312 78.917969 C 111.125 71.015625 102.484375 64.550781 93.84375 61.671875 C 107.53125 81.070312 108.957031 95.449219 97.4375 104.0625 C 85.175781 112.691406 79.417969 120.59375 81.582031 127.054688 L 39.78125 164.425781 C 54.921875 167.292969 67.15625 168.019531 77.988281 166.582031 C 54.207031 173.054688 44.828125 182.386719 50.589844 196.761719 C 54.207031 201.058594 62.136719 205.390625 72.226562 208.984375 C 80.15625 211.839844 85.175781 215.433594 86.628906 219.027344 C 72.226562 212.578125 61.394531 208.984375 54.207031 208.984375 C 43.375 223.359375 47.710938 239.164062 68.609375 254.96875 C 76.535156 233.402344 100.339844 221.195312 121.957031 228.382812 C 129.144531 206.816406 121.957031 183.8125 103.9375 170.886719 C 116.195312 173.054688 132.761719 184.550781 140.691406 183.097656 C 148.617188 182.382812 155.089844 173.769531 161.589844 158.679688 C 166.636719 144.300781 150.042969 137.839844 163.019531 119.878906 C 159.425781 139.28125 196.890625 164.425781 181.777344 216.171875 C 172.398438 244.875 144.285156 268.609375 170.945312 296.625 C 175.992188 301.644531 181.039062 305.238281 186.085938 308.144531 C 195.464844 300.21875 204.105469 290.863281 211.316406 280.820312 C 205.558594 276.535156 201.226562 271.464844 198.34375 265.015625 C 186.824219 237 209.867188 201.796875 193.296875 155.085938 C 181.777344 121.308594 165.183594 118.441406 175.992188 74.609375 C 192.582031 78.917969 209.867188 76.050781 224.292969 65.980469 C 224.292969 69.574219 224.292969 72.453125 224.292969 76.050781 C 222.125 96.886719 210.605469 116.285156 192.582031 127.058594 C 230.765625 191.714844 201.9375 203.222656 209.863281 244.875 C 212.03125 252.804688 215.648438 259.992188 220.695312 265.753906 C 235.8125 239.855469 243.738281 211.152344 243.023438 180.21875 L 243.023438 42.988281 C 236.550781 42.988281 230.765625 42.273438 225.003906 42.273438 C 217.078125 48.734375 207.722656 54.484375 198.34375 58.078125 C 193.296875 60.230469 187.539062 62.398438 181.039062 63.113281 C 184.65625 61.671875 188.25 59.519531 191.84375 57.363281 C 199.058594 52.328125 205.558594 46.582031 211.316406 40.832031 C 201.222656 39.40625 192.582031 37.964844 183.917969 35.8125 C 178.894531 41.558594 172.398438 45.867188 165.921875 50.902344 C 157.257812 56.648438 147.902344 61.671875 138.523438 65.980469 C 140.6875 77.476562 135.640625 88.972656 126.261719 96.160156 C 132.046875 85.390625 132.761719 72.453125 127.714844 61.671875 C 136.355469 56.648438 145.023438 50.902344 152.210938 45.867188 C 158.710938 41.558594 164.46875 36.523438 170.230469 32.21875 C 148.617188 25.027344 132.050781 14.246094 121.957031 -0.117188 C 101.769531 27.183594 60.683594 41.558594 0.148438 42.988281 L 0.148438 180.21875 C 0.148438 240.59375 31.855469 295.933594 82.320312 326.804688 C 94.558594 334.730469 107.53125 340.441406 121.957031 345.515625 C 114.027344 335.421875 108.269531 326.066406 103.199219 317.449219 Z M 186.085938 104.789062 C 197.632812 102.625 207.722656 96.160156 212.769531 85.390625 C 204.105469 89.699219 194.75 91.128906 185.371094 89.699219 C 183.917969 94.722656 183.917969 100.46875 186.085938 104.789062 Z M 134.929688 133.53125 C 121.21875 133.53125 104.648438 138.554688 85.175781 146.457031 L 101.769531 133.53125 C 99.601562 122.035156 105.363281 119.878906 114.027344 122.035156 C 122.671875 124.1875 129.882812 128.496094 134.929688 133.53125 Z M 134.929688 133.53125 " fill-opacity="1" fill-rule="evenodd"/></g></g></g></g></g><path stroke-linecap="butt" transform="matrix(0.74818, 0, 0, 0.74818, 0, 16.799201)" fill="none" stroke-linejoin="miter" d="M 0 2.001758 L 131.522359 2.001758 " stroke="#24315e" stroke-width="4" stroke-opacity="1" stroke-miterlimit="4"/></svg>