<svg xmlns="http://www.w3.org/2000/svg" xmlns:xlink="http://www.w3.org/1999/xlink" width="213" zoomAndPan="magnify" viewBox="0 0 159.75 334.499999" height="446" preserveAspectRatio="xMidYMid meet" version="1.0"><defs><filter x="0%" y="0%" width="100%" height="100%" id="2cf322db42"><feColorMatrix values="0 0 0 0 1 0 0 0 0 1 0 0 0 0 1 0 0 0 1 0" color-interpolation-filters="sRGB"/></filter><clipPath id="dcb1721906"><path d="M 0 0.0117188 L 159.5 0.0117188 L 159.5 333.988281 L 0 333.988281 Z M 0 0.0117188 " clip-rule="nonzero"/></clipPath><mask id="d57b185fe3"><g filter="url(#2cf322db42)"><rect x="-15.975" width="191.7" fill="#000000" y="-33.45" height="401.399999" fill-opacity="0.12"/></g></mask><clipPath id="dd04cc0904"><path d="M 0.949219 0.5625 L 128.25 0.5625 L 128.25 181.667969 L 0.949219 181.667969 Z M 0.949219 0.5625 " clip-rule="nonzero"/></clipPath><clipPath id="b2210b7715"><rect x="0" width="129" y="0" height="182"/></clipPath></defs><g clip-path="url(#dcb1721906)"><path fill="#ffffff" d="M 0 0.0117188 L 159.5 0.0117188 L 159.5 333.988281 L 0 333.988281 Z M 0 0.0117188 " fill-opacity="1" fill-rule="nonzero"/><path fill="#073e73" d="M 0 0.0117188 L 159.5 0.0117188 L 159.5 333.988281 L 0 333.988281 Z M 0 0.0117188 " fill-opacity="1" fill-rule="nonzero"/></g><g mask="url(#d57b185fe3)"><g transform="matrix(1, 0, 0, 1, 15, 76)"><g clip-path="url(#b2210b7715)"><g clip-path="url(#dd04cc0904)"><path fill="#ffffff" d="M 84.375 160.808594 C 62.09375 137.472656 100.984375 116.402344 89.289062 92.683594 C 89.660156 100.960938 86.257812 108.125 77.953125 114.519531 C 55.6875 130.6875 51.90625 149.128906 66.632812 170.222656 C 68.515625 172.851562 70.785156 175.484375 73.054688 178.5 C 79.847656 175.484375 86.644531 171.332031 92.304688 167.203125 C 89.289062 165.320312 86.257812 163.050781 84.375 160.808594 Z M 54.925781 166.816406 C 48.503906 152.890625 48.144531 140.101562 54.925781 128.058594 C 46.246094 135.589844 41.722656 145.75 42.09375 158.539062 C 22.84375 143.503906 11.136719 120.527344 11.136719 94.941406 C 11.136719 74.246094 11.136719 53.550781 11.136719 32.472656 C 29.640625 30.964844 50.398438 26.824219 64.75 14.78125 C 65.871094 15.910156 67.394531 17.039062 68.902344 18.175781 C 64.75 21.933594 60.210938 25.324219 55.3125 27.582031 C 59.464844 31.34375 61.734375 36.238281 61.734375 41.878906 C 59.078125 37.742188 54.550781 34.355469 50.023438 32.847656 C 57.195312 43.007812 57.941406 50.539062 51.90625 55.050781 C 45.484375 59.570312 42.46875 63.710938 43.605469 67.09375 L 21.710938 86.667969 C 29.640625 88.167969 36.046875 88.550781 41.722656 87.796875 C 29.265625 91.1875 24.351562 96.074219 27.371094 103.605469 C 29.265625 105.855469 33.417969 108.125 38.703125 110.007812 C 42.855469 111.5 45.484375 113.382812 46.246094 115.265625 C 38.703125 111.890625 33.03125 110.007812 29.265625 110.007812 C 23.59375 117.535156 25.863281 125.816406 36.808594 134.09375 C 40.960938 122.796875 53.429688 116.402344 64.75 120.167969 C 68.515625 108.871094 64.75 96.820312 55.3125 90.050781 C 61.734375 91.1875 70.410156 97.210938 74.5625 96.449219 C 78.714844 96.074219 82.105469 91.5625 85.511719 83.65625 C 88.152344 76.125 79.460938 72.742188 86.257812 63.335938 C 84.375 73.496094 104 86.667969 96.082031 113.769531 C 91.171875 128.804688 76.445312 141.234375 90.410156 155.910156 C 93.054688 158.539062 95.695312 160.421875 98.339844 161.945312 C 103.253906 157.792969 107.777344 152.890625 111.554688 147.632812 C 108.539062 145.386719 106.269531 142.730469 104.761719 139.355469 C 98.726562 124.679688 110.796875 106.242188 102.117188 81.773438 C 96.082031 64.082031 87.390625 62.582031 93.054688 39.625 C 101.742188 41.878906 110.796875 40.378906 118.351562 35.105469 C 118.351562 36.988281 118.351562 38.496094 118.351562 40.378906 C 117.214844 51.292969 111.183594 61.453125 101.742188 67.09375 C 121.742188 100.960938 106.644531 106.988281 110.796875 128.804688 C 111.929688 132.957031 113.824219 136.722656 116.46875 139.742188 C 124.386719 126.175781 128.539062 111.140625 128.164062 94.941406 L 128.164062 23.0625 C 124.773438 23.0625 121.742188 22.6875 118.726562 22.6875 C 114.574219 26.070312 109.671875 29.082031 104.761719 30.964844 C 102.117188 32.09375 99.101562 33.226562 95.695312 33.601562 C 97.589844 32.847656 99.472656 31.71875 101.355469 30.589844 C 105.132812 27.953125 108.539062 24.945312 111.554688 21.933594 C 106.269531 21.183594 101.742188 20.429688 97.203125 19.300781 C 94.574219 22.3125 91.171875 24.570312 87.777344 27.207031 C 83.238281 30.21875 78.339844 32.847656 73.425781 35.105469 C 74.5625 41.125 71.917969 47.148438 67.007812 50.914062 C 70.035156 45.269531 70.410156 38.496094 67.765625 32.847656 C 72.292969 30.21875 76.832031 27.207031 80.597656 24.570312 C 84 22.3125 87.019531 19.675781 90.035156 17.421875 C 78.714844 13.65625 70.035156 8.007812 64.75 0.484375 C 54.175781 14.78125 32.65625 22.3125 0.949219 23.0625 L 0.949219 94.941406 C 0.949219 126.5625 17.558594 155.546875 43.992188 171.71875 C 50.398438 175.871094 57.195312 178.859375 64.75 181.519531 C 60.597656 176.230469 57.582031 171.332031 54.925781 166.816406 Z M 98.339844 55.433594 C 104.386719 54.296875 109.671875 50.914062 112.316406 45.269531 C 107.777344 47.527344 102.878906 48.277344 97.964844 47.527344 C 97.203125 50.15625 97.203125 53.167969 98.339844 55.433594 Z M 71.546875 70.484375 C 64.363281 70.484375 55.6875 73.117188 45.488281 77.253906 L 54.175781 70.484375 C 53.042969 64.464844 56.058594 63.335938 60.597656 64.464844 C 65.125 65.59375 68.902344 67.847656 71.546875 70.484375 Z M 71.546875 70.484375 " fill-opacity="1" fill-rule="evenodd"/></g></g></g></g></svg>