<svg xmlns="http://www.w3.org/2000/svg" xmlns:xlink="http://www.w3.org/1999/xlink" width="783" zoomAndPan="magnify" viewBox="0 0 587.25 574.499982" height="766" preserveAspectRatio="xMidYMid meet" version="1.0"><defs><filter x="0%" y="0%" width="100%" height="100%" id="998f09e254"><feColorMatrix values="0 0 0 0 1 0 0 0 0 1 0 0 0 0 1 0 0 0 1 0" color-interpolation-filters="sRGB"/></filter><mask id="6380d8d129"><g filter="url(#998f09e254)"><rect x="-58.725" width="704.7" fill="#000000" y="-57.449998" height="689.399978" fill-opacity="0.12"/></g></mask><clipPath id="ce9a446e44"><path d="M 0.953125 0.6875 L 128.292969 0.6875 L 128.292969 181.84375 L 0.953125 181.84375 Z M 0.953125 0.6875 " clip-rule="nonzero"/></clipPath><clipPath id="bc916ecc31"><rect x="0" width="129" y="0" height="183"/></clipPath><clipPath id="16fde70fbc"><path d="M 79 0.117188 L 586.5 0.117188 L 586.5 573.882812 L 79 573.882812 Z M 79 0.117188 " clip-rule="nonzero"/></clipPath><mask id="9dfcff5b42"><g filter="url(#998f09e254)"><rect x="-58.725" width="704.7" fill="#000000" y="-57.449998" height="689.399978" fill-opacity="0.12"/></g></mask><clipPath id="17d3f4db7f"><path d="M 0.773438 0.117188 L 507.5 0.117188 L 507.5 573.882812 L 0.773438 573.882812 Z M 0.773438 0.117188 " clip-rule="nonzero"/></clipPath><clipPath id="19474e2005"><rect x="0" width="508" y="0" height="574"/></clipPath></defs><g mask="url(#6380d8d129)"><g transform="matrix(1, 0, 0, 1, 15, 76)"><g clip-path="url(#bc916ecc31)"><g clip-path="url(#ce9a446e44)"><path fill="#ffffff" d="M 84.402344 160.980469 C 62.117188 137.636719 101.015625 116.5625 89.316406 92.835938 C 89.691406 101.117188 86.285156 108.28125 77.980469 114.679688 C 55.707031 130.851562 51.925781 149.296875 66.65625 170.398438 C 68.539062 173.027344 70.808594 175.660156 73.078125 178.679688 C 79.875 175.660156 86.675781 171.507812 92.335938 167.378906 C 89.316406 165.496094 86.285156 163.226562 84.402344 160.980469 Z M 54.945312 166.992188 C 48.523438 153.0625 48.160156 140.269531 54.945312 128.222656 C 46.265625 135.753906 41.738281 145.917969 42.113281 158.710938 C 22.855469 143.671875 11.144531 120.691406 11.144531 95.09375 C 11.144531 74.390625 11.144531 53.691406 11.144531 32.609375 C 29.652344 31.101562 50.417969 26.960938 64.773438 14.914062 C 65.894531 16.042969 67.417969 17.171875 68.925781 18.304688 C 64.773438 22.066406 60.234375 25.457031 55.332031 27.714844 C 59.484375 31.480469 61.753906 36.375 61.753906 42.019531 C 59.097656 37.878906 54.570312 34.492188 50.042969 32.984375 C 57.214844 43.148438 57.964844 50.679688 51.925781 55.195312 C 45.503906 59.714844 42.484375 63.855469 43.621094 67.242188 L 21.71875 86.820312 C 29.652344 88.320312 36.0625 88.703125 41.738281 87.949219 C 29.277344 91.339844 24.363281 96.230469 27.382812 103.761719 C 29.277344 106.011719 33.429688 108.28125 38.71875 110.164062 C 42.871094 111.660156 45.503906 113.542969 46.265625 115.425781 C 38.71875 112.046875 33.042969 110.164062 29.277344 110.164062 C 23.601562 117.699219 25.875 125.976562 36.824219 134.257812 C 40.976562 122.960938 53.449219 116.5625 64.773438 120.328125 C 68.539062 109.03125 64.773438 96.976562 55.332031 90.207031 C 61.753906 91.339844 70.433594 97.363281 74.589844 96.601562 C 78.742188 96.230469 82.132812 91.714844 85.539062 83.808594 C 88.183594 76.273438 79.488281 72.890625 86.285156 63.480469 C 84.402344 73.644531 104.035156 86.820312 96.113281 113.929688 C 91.199219 128.96875 76.472656 141.402344 90.441406 156.082031 C 93.082031 158.710938 95.726562 160.59375 98.371094 162.117188 C 103.285156 157.964844 107.8125 153.0625 111.59375 147.800781 C 108.574219 145.558594 106.304688 142.898438 104.796875 139.519531 C 98.757812 124.84375 110.832031 106.398438 102.152344 81.925781 C 96.113281 64.230469 87.421875 62.726562 93.082031 39.761719 C 101.777344 42.019531 110.832031 40.515625 118.390625 35.242188 C 118.390625 37.125 118.390625 38.632812 118.390625 40.515625 C 117.253906 51.433594 111.21875 61.597656 101.777344 67.242188 C 121.78125 101.117188 106.679688 107.148438 110.832031 128.96875 C 111.964844 133.125 113.863281 136.890625 116.507812 139.90625 C 124.425781 126.339844 128.578125 111.300781 128.203125 95.09375 L 128.203125 23.195312 C 124.8125 23.195312 121.78125 22.820312 118.761719 22.820312 C 114.609375 26.207031 109.710938 29.21875 104.796875 31.101562 C 102.152344 32.230469 99.132812 33.363281 95.726562 33.738281 C 97.625 32.984375 99.507812 31.855469 101.390625 30.726562 C 105.167969 28.089844 108.574219 25.078125 111.59375 22.066406 C 106.304688 21.316406 101.777344 20.5625 97.238281 19.433594 C 94.605469 22.445312 91.199219 24.703125 87.808594 27.339844 C 83.269531 30.351562 78.367188 32.984375 73.453125 35.242188 C 74.589844 41.265625 71.945312 47.289062 67.03125 51.054688 C 70.0625 45.410156 70.433594 38.632812 67.789062 32.984375 C 72.316406 30.351562 76.859375 27.339844 80.625 24.703125 C 84.027344 22.445312 87.046875 19.808594 90.066406 17.550781 C 78.742188 13.785156 70.0625 8.136719 64.773438 0.609375 C 54.195312 14.914062 32.671875 22.445312 0.953125 23.195312 L 0.953125 95.09375 C 0.953125 126.726562 17.566406 155.71875 44.007812 171.894531 C 50.417969 176.046875 57.214844 179.039062 64.773438 181.695312 C 60.621094 176.40625 57.601562 171.507812 54.945312 166.992188 Z M 98.371094 55.574219 C 104.421875 54.441406 109.710938 51.054688 112.355469 45.410156 C 107.8125 47.667969 102.914062 48.417969 98 47.667969 C 97.238281 50.300781 97.238281 53.3125 98.371094 55.574219 Z M 71.570312 70.632812 C 64.386719 70.632812 55.707031 73.265625 45.503906 77.402344 L 54.195312 70.632812 C 53.0625 64.609375 56.078125 63.480469 60.621094 64.609375 C 65.148438 65.738281 68.925781 67.996094 71.570312 70.632812 Z M 71.570312 70.632812 " fill-opacity="1" fill-rule="evenodd"/></g></g></g></g><g clip-path="url(#16fde70fbc)"><g mask="url(#9dfcff5b42)"><g transform="matrix(1, 0, 0, 1, 79, 0.000000000000126524)"><g clip-path="url(#19474e2005)"><g clip-path="url(#17d3f4db7f)"><path fill="#073e73" d="M 410.28125 763.550781 C 300.910156 648.992188 491.804688 545.570312 434.398438 429.140625 C 436.234375 469.773438 419.523438 504.933594 378.761719 536.328125 C 269.453125 615.699219 250.910156 706.210938 323.191406 809.757812 C 332.429688 822.667969 343.570312 835.582031 354.710938 850.390625 C 388.066406 835.582031 421.421875 815.203125 449.207031 794.945312 C 434.398438 785.703125 419.523438 774.5625 410.28125 763.550781 Z M 265.71875 793.046875 C 234.199219 724.6875 232.429688 661.902344 265.71875 602.785156 C 223.125 639.75 200.90625 689.625 202.742188 752.414062 C 108.246094 678.613281 50.773438 565.824219 50.773438 440.21875 C 50.773438 338.628906 50.773438 237.042969 50.773438 133.59375 C 141.601562 126.1875 243.503906 105.867188 313.949219 46.753906 C 319.457031 52.289062 326.925781 57.828125 334.332031 63.398438 C 313.949219 81.847656 291.671875 98.496094 267.617188 109.570312 C 288 128.054688 299.136719 152.070312 299.136719 179.761719 C 286.101562 159.445312 263.882812 142.832031 241.667969 135.425781 C 276.859375 185.300781 280.53125 222.265625 250.90625 244.417969 C 219.386719 266.601562 204.578125 286.917969 210.148438 303.535156 L 102.675781 399.613281 C 141.597656 406.988281 173.054688 408.851562 200.90625 405.152344 C 139.765625 421.796875 115.648438 445.789062 130.460938 482.75 C 139.761719 493.792969 160.144531 504.933594 186.09375 514.175781 C 206.476562 521.515625 219.386719 530.757812 223.121094 540 C 186.09375 523.417969 158.246094 514.175781 139.765625 514.175781 C 111.917969 551.140625 123.054688 591.773438 176.792969 632.410156 C 197.171875 576.960938 258.378906 545.570312 313.949219 564.050781 C 332.429688 508.605469 313.949219 449.457031 267.617188 416.226562 C 299.136719 421.796875 341.734375 451.359375 362.117188 447.621094 C 382.496094 445.785156 399.144531 423.632812 415.851562 384.835938 C 428.828125 347.871094 386.167969 331.253906 419.523438 285.085938 C 410.28125 334.960938 506.613281 399.613281 467.75 532.65625 C 443.636719 606.457031 371.355469 667.472656 439.902344 739.5 C 452.878906 752.410156 465.851562 761.652344 478.828125 769.121094 C 502.945312 748.742188 525.160156 724.691406 543.703125 698.867188 C 528.894531 687.855469 517.753906 674.816406 510.351562 658.230469 C 480.726562 586.203125 539.96875 495.695312 497.375 375.59375 C 467.75 288.757812 425.09375 281.382812 452.878906 168.6875 C 495.539062 179.765625 539.96875 172.390625 577.058594 146.503906 C 577.058594 155.746094 577.058594 163.148438 577.058594 172.390625 C 571.488281 225.96875 541.871094 275.84375 495.539062 303.535156 C 593.707031 469.773438 519.589844 499.363281 539.96875 606.457031 C 545.539062 626.839844 554.84375 645.320312 567.820312 660.132812 C 606.679688 593.546875 627.0625 519.746094 625.226562 440.21875 L 625.226562 87.386719 C 608.578125 87.386719 593.707031 85.550781 578.894531 85.550781 C 558.515625 102.167969 534.464844 116.945312 510.347656 126.1875 C 497.371094 131.726562 482.5625 137.292969 465.851562 139.128906 C 475.15625 135.425781 484.398438 129.886719 493.640625 124.351562 C 512.183594 111.40625 528.894531 96.628906 543.703125 81.847656 C 517.753906 78.179688 495.535156 74.476562 473.257812 68.9375 C 460.34375 83.714844 443.636719 94.792969 426.988281 107.738281 C 404.710938 122.515625 380.65625 135.425781 356.542969 146.503906 C 362.113281 176.0625 349.136719 205.621094 325.023438 224.101562 C 339.898438 196.410156 341.734375 163.148438 328.757812 135.425781 C 350.972656 122.515625 373.253906 107.738281 391.734375 94.792969 C 408.445312 83.714844 423.253906 70.773438 438.066406 59.695312 C 382.496094 41.214844 339.898438 13.492188 313.949219 -23.4375 C 262.050781 46.753906 156.410156 83.714844 0.773438 87.386719 L 0.773438 440.21875 C 0.773438 595.445312 82.296875 737.730469 212.046875 817.097656 C 243.503906 837.480469 276.859375 852.160156 313.949219 865.203125 C 293.566406 839.25 278.757812 815.199219 265.71875 793.046875 Z M 478.828125 246.285156 C 508.515625 240.714844 534.464844 224.101562 547.441406 196.410156 C 525.160156 207.484375 501.109375 211.160156 476.992188 207.484375 C 473.257812 220.398438 473.257812 235.175781 478.828125 246.285156 Z M 347.304688 320.179688 C 312.050781 320.179688 269.453125 333.09375 219.390625 353.410156 L 262.050781 320.179688 C 256.480469 290.625 271.289062 285.085938 293.566406 290.625 C 315.785156 296.160156 334.332031 307.238281 347.304688 320.179688 Z M 347.304688 320.179688 " fill-opacity="1" fill-rule="evenodd"/></g></g></g></g></g></svg>