<svg xmlns="http://www.w3.org/2000/svg" xmlns:xlink="http://www.w3.org/1999/xlink" width="145" zoomAndPan="magnify" viewBox="0 0 108.75 33.749998" height="45" preserveAspectRatio="xMidYMid meet" version="1.0"><defs><clipPath id="4f0be342dd"><path d="M 1.496094 6.324219 L 23 6.324219 L 23 27 L 1.496094 27 Z M 1.496094 6.324219 " clip-rule="nonzero"/></clipPath><clipPath id="11ea9f34bb"><path d="M 32 21 L 38 21 L 38 27.171875 L 32 27.171875 Z M 32 21 " clip-rule="nonzero"/></clipPath><clipPath id="4a5d09c263"><path d="M 39 21 L 45 21 L 45 27.171875 L 39 27.171875 Z M 39 21 " clip-rule="nonzero"/></clipPath><clipPath id="49622dbbbe"><path d="M 47 21 L 53 21 L 53 27.171875 L 47 27.171875 Z M 47 21 " clip-rule="nonzero"/></clipPath><clipPath id="824023e883"><path d="M 54 21 L 59 21 L 59 27.171875 L 54 27.171875 Z M 54 21 " clip-rule="nonzero"/></clipPath><clipPath id="988023f780"><path d="M 61 21 L 67 21 L 67 27.171875 L 61 27.171875 Z M 61 21 " clip-rule="nonzero"/></clipPath><clipPath id="0ca3829412"><path d="M 69 21 L 74 21 L 74 27.171875 L 69 27.171875 Z M 69 21 " clip-rule="nonzero"/></clipPath><clipPath id="d44883e881"><path d="M 74 21 L 79 21 L 79 27.171875 L 74 27.171875 Z M 74 21 " clip-rule="nonzero"/></clipPath><clipPath id="f3356f99c6"><path d="M 81 21 L 83 21 L 83 27.171875 L 81 27.171875 Z M 81 21 " clip-rule="nonzero"/></clipPath><clipPath id="c6fa86e305"><path d="M 85 21 L 91 21 L 91 27.171875 L 85 27.171875 Z M 85 21 " clip-rule="nonzero"/></clipPath><clipPath id="58746d3b53"><path d="M 92 21 L 98 21 L 98 27.171875 L 92 27.171875 Z M 92 21 " clip-rule="nonzero"/></clipPath><clipPath id="ab623ac0b1"><path d="M 101 6.324219 L 103 6.324219 L 103 9 L 101 9 Z M 101 6.324219 " clip-rule="nonzero"/></clipPath><clipPath id="9833163bc5"><path d="M 103 6.324219 L 104.980469 6.324219 L 104.980469 9 L 103 9 Z M 103 6.324219 " clip-rule="nonzero"/></clipPath><clipPath id="674742f969"><path d="M 61 6.324219 L 76 6.324219 L 76 19 L 61 19 Z M 61 6.324219 " clip-rule="nonzero"/></clipPath><clipPath id="5e7c482591"><path d="M 95 6.324219 L 98 6.324219 L 98 19 L 95 19 Z M 95 6.324219 " clip-rule="nonzero"/></clipPath><clipPath id="f150b0aacb"><path d="M 32 6.324219 L 45 6.324219 L 45 19 L 32 19 Z M 32 6.324219 " clip-rule="nonzero"/></clipPath></defs><g clip-path="url(#4f0be342dd)"><path fill="#fcfcfc" d="M 1.496094 6.339844 L 1.496094 26.957031 L 9.628906 26.957031 L 9.628906 15.304688 L 11.832031 15.304688 L 11.832031 26.984375 L 14.203125 26.984375 L 14.203125 15.304688 L 16.375 15.304688 L 16.375 26.984375 L 18.75 26.984375 L 18.75 15.304688 L 20.976562 15.304688 L 20.976562 26.984375 L 22.425781 26.984375 L 22.425781 13.828125 L 6.707031 13.828125 L 6.707031 11.574219 L 22.425781 11.574219 L 22.425781 10.097656 L 3.78125 10.097656 L 3.78125 7.785156 L 22.425781 7.785156 L 22.425781 6.339844 Z M 1.496094 6.339844 " fill-opacity="1" fill-rule="evenodd"/></g><g clip-path="url(#11ea9f34bb)"><path fill="#fcfcfc" d="M 34.871094 27.160156 C 33.367188 27.160156 32.238281 25.972656 32.238281 24.410156 C 32.238281 22.851562 33.394531 21.636719 34.902344 21.636719 C 35.882812 21.636719 36.464844 22.039062 36.957031 22.472656 L 37.128906 22.648438 L 36.550781 23.253906 L 36.375 23.082031 C 36.03125 22.761719 35.59375 22.417969 34.902344 22.417969 C 33.859375 22.417969 33.078125 23.253906 33.078125 24.382812 C 33.078125 25.511719 33.886719 26.378906 34.902344 26.378906 C 35.480469 26.378906 35.914062 26.175781 36.40625 25.683594 L 36.578125 25.511719 L 37.160156 26.058594 L 36.984375 26.234375 C 36.523438 26.695312 35.914062 27.160156 34.871094 27.160156 Z M 34.871094 27.160156 " fill-opacity="1" fill-rule="evenodd"/></g><g clip-path="url(#4a5d09c263)"><path fill="#fcfcfc" d="M 42.078125 27.160156 C 40.574219 27.160156 39.417969 25.972656 39.417969 24.410156 C 39.417969 22.851562 40.601562 21.636719 42.109375 21.636719 C 43.613281 21.636719 44.742188 22.792969 44.769531 24.355469 L 44.769531 24.46875 C 44.742188 25.972656 43.554688 27.160156 42.078125 27.160156 Z M 42.078125 22.417969 C 41.039062 22.417969 40.253906 23.253906 40.253906 24.382812 C 40.253906 25.511719 41.066406 26.378906 42.109375 26.378906 C 43.148438 26.378906 43.933594 25.539062 43.933594 24.410156 C 43.933594 23.285156 43.121094 22.417969 42.078125 22.417969 Z M 42.078125 22.417969 " fill-opacity="1" fill-rule="evenodd"/></g><g clip-path="url(#49622dbbbe)"><path fill="#fcfcfc" d="M 51.398438 21.695312 L 51.398438 25.539062 L 48.390625 21.695312 L 47.695312 21.695312 L 47.695312 27.074219 L 48.503906 27.074219 L 48.503906 23.140625 L 51.574219 27.074219 L 52.179688 27.074219 L 52.179688 21.695312 Z M 51.398438 21.695312 " fill-opacity="1" fill-rule="evenodd"/></g><g clip-path="url(#824023e883)"><path fill="#fcfcfc" d="M 57.132812 27.128906 C 56.320312 27.128906 55.65625 26.871094 55.019531 26.292969 L 54.84375 26.148438 L 55.394531 25.511719 L 55.566406 25.683594 C 56.089844 26.175781 56.523438 26.347656 57.160156 26.347656 C 57.738281 26.347656 58.171875 26.03125 58.171875 25.597656 C 58.171875 25.25 58.085938 24.992188 56.988281 24.757812 C 55.714844 24.5 55.164062 24.007812 55.164062 23.140625 C 55.164062 22.273438 55.945312 21.605469 56.957031 21.605469 C 57.679688 21.605469 58.203125 21.78125 58.753906 22.242188 L 58.925781 22.386719 L 58.40625 23.054688 L 58.230469 22.910156 C 57.824219 22.5625 57.449219 22.417969 56.929688 22.417969 C 56.378906 22.417969 55.972656 22.707031 55.972656 23.109375 C 55.972656 23.398438 55.972656 23.71875 57.21875 23.976562 C 58.433594 24.238281 58.984375 24.730469 58.984375 25.570312 C 58.984375 26.492188 58.230469 27.128906 57.132812 27.128906 Z M 57.132812 27.128906 " fill-opacity="1" fill-rule="evenodd"/></g><g clip-path="url(#988023f780)"><path fill="#fcfcfc" d="M 64.050781 27.160156 C 62.6875 27.160156 61.820312 26.261719 61.820312 24.816406 L 61.820312 21.695312 L 62.632812 21.695312 L 62.632812 24.757812 C 62.632812 25.769531 63.125 26.347656 64.050781 26.347656 C 64.945312 26.347656 65.4375 25.800781 65.4375 24.789062 L 65.4375 21.695312 L 66.25 21.695312 L 66.25 24.757812 C 66.277344 26.234375 65.410156 27.160156 64.050781 27.160156 Z M 64.050781 27.160156 " fill-opacity="1" fill-rule="evenodd"/></g><g clip-path="url(#0ca3829412)"><path fill="#fcfcfc" d="M 69.433594 21.695312 L 69.433594 27.074219 L 73.109375 27.074219 L 73.109375 26.261719 L 70.273438 26.261719 L 70.273438 21.695312 Z M 69.433594 21.695312 " fill-opacity="1" fill-rule="evenodd"/></g><g clip-path="url(#d44883e881)"><path fill="#fcfcfc" d="M 74.527344 21.695312 L 74.527344 22.503906 L 76.234375 22.503906 L 76.234375 27.074219 L 77.046875 27.074219 L 77.046875 22.503906 L 78.726562 22.503906 L 78.726562 21.695312 Z M 74.527344 21.695312 " fill-opacity="1" fill-rule="evenodd"/></g><g clip-path="url(#f3356f99c6)"><path fill="#fcfcfc" d="M 81.503906 21.695312 L 82.316406 21.695312 L 82.316406 27.074219 L 81.503906 27.074219 Z M 81.503906 21.695312 " fill-opacity="1" fill-rule="evenodd"/></g><g clip-path="url(#c6fa86e305)"><path fill="#fcfcfc" d="M 89.234375 21.695312 L 89.234375 25.539062 L 86.222656 21.695312 L 85.558594 21.695312 L 85.558594 27.074219 L 86.367188 27.074219 L 86.367188 23.140625 L 89.4375 27.074219 L 90.042969 27.074219 L 90.042969 21.695312 Z M 89.234375 21.695312 " fill-opacity="1" fill-rule="evenodd"/></g><g clip-path="url(#58746d3b53)"><path fill="#fcfcfc" d="M 95.660156 27.160156 C 94.097656 27.160156 92.996094 26.03125 92.996094 24.410156 C 92.996094 23.054688 93.980469 21.636719 95.628906 21.636719 C 96.410156 21.636719 96.960938 21.839844 97.539062 22.328125 L 97.714844 22.472656 L 97.164062 23.109375 L 96.992188 22.964844 C 96.671875 22.675781 96.296875 22.445312 95.570312 22.445312 C 94.589844 22.445312 93.804688 23.3125 93.804688 24.410156 C 93.804688 25.597656 94.558594 26.40625 95.660156 26.40625 C 96.296875 26.40625 96.789062 26.089844 96.992188 25.972656 L 96.992188 24.902344 L 95.371094 24.902344 L 95.371094 24.09375 L 97.800781 24.09375 L 97.800781 26.292969 L 97.773438 26.320312 C 97.164062 26.871094 96.410156 27.160156 95.660156 27.160156 Z M 95.660156 27.160156 " fill-opacity="1" fill-rule="evenodd"/></g><g clip-path="url(#ab623ac0b1)"><path fill="#fcfcfc" d="M 101.128906 6.339844 L 101.128906 6.65625 L 101.707031 6.65625 L 101.707031 8.246094 L 102.027344 8.246094 L 102.027344 6.65625 L 102.605469 6.65625 L 102.605469 6.339844 Z M 101.128906 6.339844 " fill-opacity="1" fill-rule="evenodd"/></g><g clip-path="url(#9833163bc5)"><path fill="#fcfcfc" d="M 104.574219 6.339844 L 103.996094 7.667969 L 103.417969 6.339844 L 103.011719 6.339844 L 103.011719 8.246094 L 103.328125 8.246094 L 103.328125 6.945312 L 103.878906 8.246094 L 104.082031 8.246094 L 104.632812 6.945312 L 104.632812 8.246094 L 104.949219 8.246094 L 104.949219 6.339844 Z M 104.574219 6.339844 " fill-opacity="1" fill-rule="evenodd"/></g><g clip-path="url(#674742f969)"><path fill="#fcfcfc" d="M 61.792969 6.339844 L 61.792969 8.855469 L 67.464844 8.855469 L 67.464844 18.425781 L 69.953125 18.425781 L 69.953125 8.855469 L 75.570312 8.855469 L 75.570312 6.339844 Z M 61.792969 6.339844 " fill-opacity="1" fill-rule="evenodd"/></g><g clip-path="url(#5e7c482591)"><path fill="#fcfcfc" d="M 95.425781 6.339844 L 97.917969 6.339844 L 97.917969 18.425781 L 95.425781 18.425781 Z M 95.425781 6.339844 " fill-opacity="1" fill-rule="evenodd"/></g><g clip-path="url(#f150b0aacb)"><path fill="#fcfcfc" d="M 32.265625 6.339844 L 32.265625 18.425781 L 34.753906 18.425781 L 34.753906 14.144531 L 40.109375 14.144531 L 40.109375 11.628906 L 34.753906 11.628906 L 34.753906 8.855469 L 44.425781 8.855469 L 44.425781 6.339844 Z M 32.265625 6.339844 " fill-opacity="1" fill-rule="evenodd"/></g></svg>