<svg xmlns="http://www.w3.org/2000/svg" xmlns:xlink="http://www.w3.org/1999/xlink" width="145" zoomAndPan="magnify" viewBox="0 0 108.75 33.749998" height="45" preserveAspectRatio="xMidYMid meet" version="1.0"><defs><clipPath id="657464b497"><path d="M 80 5.097656 L 102.585938 5.097656 L 102.585938 28.179688 L 80 28.179688 Z M 80 5.097656 " clip-rule="nonzero"/></clipPath></defs><path fill="#ffffff" d="M 59.542969 19.773438 C 59.542969 19.953125 59.511719 20.164062 59.480469 20.3125 C 59.207031 21.097656 58.480469 21.609375 57.628906 21.609375 C 56.871094 21.609375 56.292969 21.1875 56.292969 20.285156 C 56.292969 18.898438 57.8125 18.535156 59.574219 18.535156 L 59.574219 19.773438 Z M 62.277344 17.363281 C 62.277344 15.101562 61.304688 13.082031 57.992188 13.082031 C 56.292969 13.082031 54.925781 13.566406 54.195312 13.988281 L 54.742188 15.824219 C 55.59375 15.34375 56.535156 15.070312 57.507812 15.042969 C 59.207031 15.042969 59.480469 15.976562 59.480469 16.578125 L 59.480469 16.730469 C 55.804688 16.730469 53.496094 17.996094 53.496094 20.554688 C 53.496094 22.121094 54.679688 23.597656 56.746094 23.597656 C 57.992188 23.597656 59.058594 23.117188 59.695312 22.304688 L 59.753906 22.304688 C 59.753906 22.304688 60.179688 24.050781 62.492188 23.386719 C 62.367188 22.664062 62.308594 21.882812 62.308594 20.976562 L 62.308594 17.363281 Z M 6.125 9.980469 L 8.921875 21.308594 C 9.378906 23.148438 10.167969 23.839844 12.476562 23.386719 L 13.964844 17.363281 C 14.332031 15.855469 14.605469 14.800781 14.847656 13.265625 L 14.878906 13.265625 C 15.058594 14.800781 15.300781 15.855469 15.605469 17.363281 L 16.519531 21.550781 C 16.851562 22.996094 17.703125 23.898438 19.980469 23.386719 L 23.535156 10.011719 L 20.648438 10.011719 L 19.433594 15.796875 C 19.101562 17.480469 18.796875 18.808594 18.585938 20.34375 C 18.371094 18.808594 18.097656 17.542969 17.765625 15.914062 L 16.519531 10.011719 L 13.511719 10.011719 L 12.140625 15.765625 C 11.777344 17.511719 11.414062 18.929688 11.171875 20.40625 L 11.140625 20.40625 C 10.898438 19.019531 10.59375 17.242188 10.257812 15.554688 L 9.164062 9.980469 L 6.125 9.980469 M 28.824219 19.773438 C 28.824219 19.953125 28.824219 20.164062 28.761719 20.3125 C 28.488281 21.097656 27.761719 21.609375 26.910156 21.609375 C 26.148438 21.609375 25.574219 21.1875 25.574219 20.285156 C 25.574219 18.898438 27.09375 18.535156 28.855469 18.535156 L 28.855469 19.773438 Z M 31.589844 17.363281 C 31.589844 15.101562 30.617188 13.082031 27.304688 13.082031 C 25.601562 13.082031 24.234375 13.566406 23.507812 13.988281 L 24.054688 15.824219 C 24.902344 15.34375 25.847656 15.070312 26.820312 15.042969 C 28.519531 15.042969 28.792969 15.976562 28.792969 16.578125 L 28.792969 16.730469 C 25.117188 16.730469 22.808594 17.996094 22.808594 20.554688 C 22.808594 22.121094 23.992188 23.597656 26.058594 23.597656 C 27.304688 23.597656 28.367188 23.117188 29.007812 22.304688 L 29.066406 22.304688 C 29.066406 22.304688 29.492188 24.050781 31.800781 23.386719 C 31.679688 22.664062 31.621094 21.882812 31.621094 20.976562 L 31.621094 17.363281 Z M 35.8125 20.523438 L 35.8125 9.980469 L 33.078125 9.980469 L 33.078125 23.359375 L 35.8125 23.359375 L 35.8125 20.523438 M 70.695312 10.011719 L 70.695312 19.863281 C 70.695312 21.21875 70.9375 22.183594 71.515625 22.753906 C 72 23.265625 72.789062 23.597656 73.734375 23.597656 C 74.554688 23.597656 75.34375 23.449219 75.707031 23.296875 L 75.675781 21.15625 C 75.402344 21.25 75.070312 21.277344 74.644531 21.277344 C 73.703125 21.277344 73.398438 20.707031 73.398438 19.472656 L 73.398438 15.734375 L 75.800781 15.734375 L 75.800781 13.171875 L 73.398438 13.171875 L 73.398438 9.980469 L 70.695312 10.011719 M 63.613281 13.324219 L 63.613281 23.386719 L 66.441406 23.386719 L 66.441406 18.234375 C 66.441406 17.964844 66.472656 17.722656 66.5 17.480469 C 66.714844 16.398438 67.535156 15.703125 68.75 15.703125 C 69.082031 15.703125 69.296875 15.734375 69.570312 15.765625 L 69.570312 13.113281 C 69.355469 13.082031 69.144531 13.054688 68.960938 13.054688 C 67.898438 13.054688 66.714844 13.714844 66.199219 15.191406 L 66.136719 15.191406 L 66.136719 13.292969 L 63.613281 13.324219 M 37.421875 13.324219 L 37.421875 23.386719 L 40.15625 23.386719 L 40.15625 17.480469 C 40.15625 17.210938 40.1875 16.910156 40.277344 16.667969 C 40.492188 16.066406 41.070312 15.375 41.949219 15.375 C 43.074219 15.375 43.589844 16.308594 43.589844 17.632812 L 43.589844 23.359375 L 46.355469 23.359375 L 46.355469 17.390625 C 46.355469 17.121094 46.386719 16.789062 46.476562 16.578125 C 46.691406 15.855469 47.390625 15.34375 48.148438 15.34375 C 49.273438 15.34375 49.820312 16.246094 49.820312 17.84375 L 49.820312 23.359375 L 52.585938 23.359375 L 52.585938 17.453125 C 52.585938 14.347656 50.972656 13.082031 49.183594 13.082031 C 48.363281 13.082031 47.753906 13.292969 47.175781 13.625 C 46.691406 13.925781 46.265625 14.347656 45.898438 14.890625 L 45.871094 14.890625 C 45.414062 13.777344 44.289062 13.054688 43.074219 13.082031 C 41.859375 13.023438 40.703125 13.625 40.128906 14.679688 L 40.097656 14.679688 L 40.097656 13.324219 L 37.421875 13.324219 " fill-opacity="1" fill-rule="evenodd"/><g clip-path="url(#657464b497)"><path fill="#ffffff" d="M 90.597656 12.871094 C 91.144531 12.871094 91.597656 12.570312 91.660156 12.238281 L 92.175781 6.183594 C 92.175781 5.582031 91.476562 5.097656 90.597656 5.097656 C 89.714844 5.097656 89.015625 5.582031 89.015625 6.183594 L 89.5625 12.238281 C 89.59375 12.601562 90.050781 12.871094 90.597656 12.871094 M 87.285156 14.769531 C 87.558594 14.289062 87.527344 13.777344 87.253906 13.535156 L 82.242188 10.070312 C 81.722656 9.769531 80.933594 10.128906 80.507812 10.882812 C 80.054688 11.636719 80.144531 12.511719 80.660156 12.78125 L 86.222656 15.34375 C 86.554688 15.464844 87.042969 15.222656 87.285156 14.769531 M 93.878906 14.742188 C 94.152344 15.222656 94.605469 15.464844 94.972656 15.3125 L 100.503906 12.75 C 101.019531 12.449219 101.109375 11.605469 100.652344 10.855469 C 100.199219 10.101562 99.4375 9.738281 98.921875 10.039062 L 93.910156 13.535156 C 93.636719 13.777344 93.605469 14.289062 93.878906 14.742188 M 90.597656 20.40625 C 91.144531 20.40625 91.597656 20.707031 91.660156 21.039062 L 92.175781 27.09375 C 92.175781 27.695312 91.476562 28.179688 90.597656 28.179688 C 89.714844 28.179688 89.015625 27.695312 89.015625 27.09375 L 89.5625 21.039062 C 89.59375 20.675781 90.050781 20.40625 90.597656 20.40625 M 93.878906 18.535156 C 94.152344 18.054688 94.605469 17.8125 94.972656 17.933594 L 100.503906 20.496094 C 101.019531 20.796875 101.109375 21.640625 100.652344 22.394531 C 100.199219 23.148438 99.4375 23.507812 98.921875 23.207031 L 93.910156 19.742188 C 93.636719 19.53125 93.605469 18.988281 93.878906 18.535156 M 87.285156 18.535156 C 87.558594 18.988281 87.527344 19.53125 87.253906 19.773438 L 82.242188 23.238281 C 81.722656 23.539062 80.933594 23.175781 80.507812 22.421875 C 80.054688 21.671875 80.144531 20.828125 80.660156 20.523438 L 86.222656 17.964844 C 86.554688 17.8125 87.042969 18.054688 87.285156 18.535156 M 101.6875 22.695312 L 101.746094 22.695312 C 101.808594 22.695312 101.871094 22.664062 101.871094 22.632812 C 101.871094 22.574219 101.839844 22.574219 101.777344 22.574219 L 101.71875 22.574219 L 101.71875 22.695312 Z M 101.6875 22.964844 L 101.566406 22.964844 L 101.566406 22.484375 L 101.746094 22.484375 C 101.839844 22.484375 101.871094 22.484375 101.929688 22.515625 C 101.960938 22.542969 101.992188 22.574219 101.992188 22.605469 C 101.992188 22.664062 101.960938 22.695312 101.898438 22.726562 C 101.960938 22.753906 101.992188 22.785156 101.992188 22.84375 C 101.992188 22.9375 102.019531 22.9375 102.019531 22.964844 L 101.898438 22.964844 C 101.871094 22.9375 101.871094 22.90625 101.871094 22.84375 C 101.871094 22.785156 101.839844 22.785156 101.777344 22.785156 L 101.71875 22.785156 Z M 101.746094 22.332031 C 101.535156 22.332031 101.382812 22.515625 101.382812 22.726562 C 101.382812 22.9375 101.535156 23.117188 101.746094 23.117188 C 101.960938 23.117188 102.113281 22.9375 102.113281 22.726562 C 102.144531 22.515625 101.960938 22.332031 101.746094 22.332031 Z M 101.746094 22.242188 C 102.019531 22.242188 102.234375 22.453125 102.234375 22.726562 C 102.234375 22.996094 102.019531 23.207031 101.746094 23.207031 C 101.472656 23.207031 101.230469 22.996094 101.230469 22.726562 C 101.261719 22.453125 101.472656 22.242188 101.746094 22.242188 Z M 101.746094 22.242188 " fill-opacity="1" fill-rule="evenodd"/></g></svg>