<svg xmlns="http://www.w3.org/2000/svg" xmlns:xlink="http://www.w3.org/1999/xlink" width="145" zoomAndPan="magnify" viewBox="0 0 108.75 33.749998" height="45" preserveAspectRatio="xMidYMid meet" version="1.0"><defs><clipPath id="42cf2dbde5"><path d="M 9.964844 0.597656 L 90.371094 0.597656 L 90.371094 32.613281 L 9.964844 32.613281 Z M 9.964844 0.597656 " clip-rule="nonzero"/></clipPath></defs><g clip-path="url(#42cf2dbde5)"><path fill="#ffffff" d="M 72.507812 0.664062 L 72.507812 16.5625 C 71.945312 16.988281 71.472656 17.457031 71 17.964844 L 71 0.664062 L 53.136719 0.664062 L 53.136719 15.160156 L 51.671875 15.160156 L 51.671875 0.664062 L 33.855469 0.664062 L 33.855469 15.160156 L 32.347656 15.160156 L 32.347656 0.664062 L 14.527344 0.664062 L 14.527344 17.199219 L 9.964844 32.207031 L 13.96875 32.207031 L 15.992188 25.574219 L 16.550781 25.574219 L 19.863281 32.207031 L 24.683594 32.207031 L 21.457031 25.574219 L 28.773438 25.574219 L 26.75 32.207031 L 31.140625 32.207031 L 33.164062 25.574219 L 43.882812 25.574219 L 41.945312 32.207031 L 46.335938 32.207031 L 48.230469 25.574219 L 50.210938 25.574219 L 50.253906 32.207031 L 53.953125 32.207031 L 58.214844 25.574219 L 61.015625 25.574219 L 59.59375 32.207031 L 63.941406 32.207031 L 65.359375 25.574219 L 67.859375 25.574219 C 67.773438 27.617188 68.289062 29.488281 69.664062 30.71875 C 71.34375 32.25 73.925781 32.546875 75.863281 32.546875 C 78.488281 32.546875 81.199219 32.164062 83.914062 31.570312 L 85.417969 25.574219 L 90.371094 25.574219 L 90.371094 0.664062 Z M 31.746094 16.011719 L 31.484375 16.859375 L 29.117188 24.640625 L 29.03125 24.894531 L 21.199219 24.894531 L 20.597656 23.621094 L 28.988281 15.117188 L 23.609375 15.117188 L 17.023438 22.175781 L 19.132812 15.160156 L 15.128906 15.160156 L 15.128906 1.300781 L 31.703125 1.300781 L 31.703125 16.011719 Z M 36.351562 22.601562 C 36.179688 22.601562 36.003906 22.640625 35.832031 22.640625 C 35.574219 22.640625 35.402344 22.640625 35.230469 22.640625 L 34.15625 22.640625 L 34.628906 20.855469 L 34.84375 19.964844 L 35.402344 17.882812 C 35.660156 17.882812 35.875 17.882812 36.136719 17.882812 L 36.953125 17.882812 C 38.375 17.882812 39.234375 17.964844 39.578125 18.390625 C 39.835938 18.730469 39.792969 19.285156 39.492188 20.175781 C 39.019531 21.664062 38.375 22.472656 36.351562 22.601562 M 48.402344 24.9375 L 50.167969 18.816406 L 50.210938 24.9375 Z M 51.070312 15.160156 L 46.9375 15.160156 L 44.097656 24.9375 L 39.664062 24.9375 C 41.902344 24.128906 43.28125 22.558594 43.710938 20.21875 C 44.054688 18.433594 43.882812 17.242188 43.152344 16.351562 C 42.03125 15.03125 39.792969 15.117188 37.8125 15.117188 C 37.46875 15.117188 34.542969 15.117188 34.542969 15.117188 L 34.542969 1.300781 L 51.113281 1.300781 L 51.113281 15.160156 Z M 61.101562 24.9375 L 58.601562 24.9375 L 62.390625 19.070312 Z M 70.398438 15.414062 L 70.398438 18.816406 C 69.234375 20.390625 68.503906 22.132812 68.203125 23.492188 C 68.074219 23.960938 67.988281 24.46875 67.945312 24.9375 L 65.492188 24.9375 L 67.554688 15.160156 L 60.539062 15.160156 L 54.257812 24.9375 L 53.78125 24.9375 L 53.78125 1.300781 L 70.355469 1.300781 L 70.355469 15.414062 Z M 79.953125 28.933594 C 79.003906 29.105469 78.058594 29.230469 77.15625 29.230469 C 74.746094 29.230469 73.109375 28.125 73.066406 25.574219 L 80.769531 25.574219 Z M 89.722656 24.9375 L 85.546875 24.9375 L 86.238281 22.21875 L 77.886719 22.21875 L 77.199219 24.9375 L 73.152344 24.9375 L 73.152344 24.386719 C 73.195312 24.085938 73.28125 23.746094 73.367188 23.40625 C 74.097656 20.472656 76.078125 17.542969 79.4375 17.542969 C 80.769531 17.542969 82.105469 18.050781 81.933594 19.878906 L 86.925781 19.878906 C 87.140625 19.027344 87.441406 17.582031 86.496094 16.222656 C 85.417969 14.777344 83.308594 14.183594 80.511719 14.183594 C 78.53125 14.183594 75.648438 14.480469 73.152344 16.097656 L 73.152344 1.300781 L 89.722656 1.300781 Z M 89.722656 24.9375 " fill-opacity="1" fill-rule="nonzero"/></g></svg>