<svg xmlns="http://www.w3.org/2000/svg" xmlns:xlink="http://www.w3.org/1999/xlink" width="145" zoomAndPan="magnify" viewBox="0 0 108.75 33.749998" height="45" preserveAspectRatio="xMidYMid meet" version="1.0"><defs><clipPath id="0ba8eb06f3"><path d="M 8 8.660156 L 18 8.660156 L 18 23 L 8 23 Z M 8 8.660156 " clip-rule="nonzero"/></clipPath><clipPath id="8d1c5e787d"><path d="M 21 8.660156 L 32 8.660156 L 32 22 L 21 22 Z M 21 8.660156 " clip-rule="nonzero"/></clipPath><clipPath id="e7e2bb6619"><path d="M 34 8.660156 L 50 8.660156 L 50 22 L 34 22 Z M 34 8.660156 " clip-rule="nonzero"/></clipPath><clipPath id="204905764c"><path d="M 89 12 L 100.902344 12 L 100.902344 22 L 89 22 Z M 89 12 " clip-rule="nonzero"/></clipPath><clipPath id="835a539508"><path d="M 69 11 L 80 11 L 80 27.273438 L 69 27.273438 Z M 69 11 " clip-rule="nonzero"/></clipPath></defs><g clip-path="url(#0ba8eb06f3)"><path fill="#ffffff" d="M 17.699219 8.660156 L 12.296875 8.660156 L 12.296875 9.113281 L 14.027344 9.113281 L 14.027344 18.054688 C 14.027344 20.722656 13.265625 21.484375 11.601562 21.484375 C 10.980469 21.554688 10.425781 21.105469 10.355469 20.480469 C 10.355469 20.410156 10.355469 20.339844 10.355469 20.273438 C 10.355469 19.300781 10.285156 18.710938 9.417969 18.710938 C 8.554688 18.710938 8.414062 19.613281 8.414062 19.890625 C 8.414062 21.140625 8.96875 22.074219 11.429688 22.074219 C 14.375 22.074219 15.933594 21.105469 15.933594 17.8125 L 15.933594 9.113281 L 17.734375 9.113281 Z M 17.699219 8.660156 " fill-opacity="1" fill-rule="nonzero"/></g><path fill="#ffffff" d="M 18.394531 19.960938 C 18.117188 19.960938 17.839844 20.066406 17.628906 20.273438 C 17.421875 20.480469 17.320312 20.757812 17.320312 21.035156 C 17.320312 21.3125 17.421875 21.589844 17.628906 21.761719 C 17.839844 21.972656 18.117188 22.074219 18.394531 22.074219 C 18.671875 22.074219 18.945312 21.972656 19.15625 21.761719 C 19.363281 21.554688 19.46875 21.3125 19.46875 21.035156 C 19.46875 20.445312 19.015625 19.996094 18.425781 19.996094 L 18.394531 19.996094 " fill-opacity="1" fill-rule="nonzero"/><path fill="#ffffff" d="M 30.414062 19.960938 C 29.859375 19.960938 29.375 20.410156 29.339844 20.964844 L 29.339844 21 C 29.339844 21.277344 29.480469 21.554688 29.6875 21.726562 C 29.894531 21.9375 30.171875 22.039062 30.449219 22.039062 C 30.726562 22.039062 31.003906 21.9375 31.210938 21.726562 C 31.417969 21.554688 31.523438 21.277344 31.523438 21 C 31.523438 20.722656 31.417969 20.445312 31.210938 20.238281 C 31.003906 20.03125 30.761719 19.925781 30.484375 19.925781 " fill-opacity="1" fill-rule="nonzero"/><g clip-path="url(#8d1c5e787d)"><path fill="#ffffff" d="M 26.671875 8.660156 L 21.335938 8.660156 L 21.335938 9.113281 L 22.898438 9.113281 L 22.898438 19.300781 C 22.929688 19.71875 22.898438 20.132812 22.757812 20.550781 C 22.621094 20.828125 22.378906 21.070312 22.101562 21.140625 C 21.789062 21.242188 21.441406 21.3125 21.09375 21.3125 L 21.09375 21.726562 L 26.742188 21.726562 L 26.742188 21.3125 C 26.363281 21.3125 26.015625 21.277344 25.667969 21.171875 C 25.355469 21.070312 25.113281 20.863281 25.011719 20.585938 C 24.90625 20.308594 24.835938 20.03125 24.871094 19.753906 L 24.871094 16.21875 L 26.292969 16.21875 C 30.378906 16.21875 31.523438 14.589844 31.523438 12.40625 C 31.523438 10.222656 30.796875 8.660156 26.671875 8.660156 M 25.910156 15.699219 L 24.835938 15.699219 L 24.835938 9.179688 L 25.808594 9.179688 C 28.960938 9.179688 29.722656 10.464844 29.722656 12.542969 C 29.722656 14.621094 28.476562 15.765625 25.980469 15.765625 " fill-opacity="1" fill-rule="nonzero"/></g><g clip-path="url(#e7e2bb6619)"><path fill="#ffffff" d="M 48.398438 20.515625 C 48.292969 20.238281 48.257812 19.925781 48.292969 19.613281 L 48.292969 9.113281 L 49.714844 9.113281 L 49.714844 8.695312 L 46.351562 8.695312 L 42.265625 18.644531 C 42.265625 18.679688 42.230469 18.710938 42.195312 18.710938 C 42.160156 18.710938 42.125 18.679688 42.089844 18.644531 C 42.089844 18.644531 37.863281 8.800781 37.828125 8.695312 L 34.085938 8.695312 L 34.085938 9.113281 L 35.714844 9.113281 L 35.714844 20.167969 C 35.714844 20.410156 35.613281 20.617188 35.507812 20.828125 C 35.371094 21.035156 35.160156 21.171875 34.917969 21.242188 C 34.675781 21.3125 34.398438 21.3125 34.15625 21.3125 L 34.15625 21.726562 L 37.863281 21.726562 L 37.863281 21.3125 C 37.621094 21.3125 37.414062 21.277344 37.207031 21.207031 C 36.929688 21.140625 36.722656 21 36.546875 20.792969 C 36.410156 20.585938 36.339844 20.375 36.304688 20.132812 L 36.269531 19.199219 L 36.269531 10.464844 L 36.476562 10.464844 C 36.476562 10.464844 41.292969 21.589844 41.292969 21.726562 L 41.746094 21.726562 L 46.285156 10.566406 L 46.386719 10.566406 L 46.386719 19.542969 C 46.386719 19.855469 46.351562 20.167969 46.285156 20.480469 C 46.179688 20.757812 45.972656 20.964844 45.730469 21.070312 C 45.417969 21.171875 45.105469 21.242188 44.792969 21.242188 L 44.792969 21.660156 L 49.957031 21.660156 L 49.957031 21.242188 C 49.644531 21.242188 49.296875 21.171875 48.984375 21.070312 C 48.707031 20.929688 48.5 20.6875 48.398438 20.410156 " fill-opacity="1" fill-rule="nonzero"/></g><path fill="#ffffff" d="M 55.359375 12.160156 C 52.589844 12.160156 50.855469 13.964844 50.855469 17.152344 C 50.855469 21.832031 54.496094 22.109375 55.292969 22.109375 C 56.851562 22.109375 59.796875 21.140625 59.796875 17.050781 C 59.761719 13.859375 57.890625 12.160156 55.359375 12.160156 M 55.324219 21.519531 C 53.246094 21.519531 52.933594 20.480469 52.933594 17.1875 C 52.933594 14.621094 53.109375 12.683594 55.324219 12.683594 C 57.714844 12.683594 57.75 14.691406 57.75 16.980469 C 57.75 20.339844 57.164062 21.519531 55.324219 21.519531 " fill-opacity="1" fill-rule="nonzero"/><path fill="#ffffff" d="M 67 12.300781 C 65.339844 12.300781 64.855469 13.269531 64.367188 14.277344 L 64.230469 14.277344 C 64.230469 14.277344 63.988281 12.855469 63.917969 12.40625 L 60.695312 12.40625 L 60.695312 12.890625 L 62.429688 12.890625 L 62.429688 19.371094 C 62.464844 19.820312 62.394531 20.273438 62.21875 20.6875 C 62.046875 21 61.632812 21.171875 61.007812 21.171875 L 60.730469 21.171875 L 60.730469 21.761719 L 66.066406 21.761719 L 66.066406 21.171875 L 65.824219 21.171875 C 65.132812 21.171875 64.820312 21.035156 64.644531 20.722656 C 64.472656 20.308594 64.367188 19.820312 64.4375 19.371094 L 64.4375 16.007812 C 64.4375 14.898438 65.304688 13.582031 66.308594 13.582031 C 67.347656 13.582031 67.347656 15.210938 68.5625 14.554688 C 69.183594 14.171875 69.046875 12.300781 67 12.300781 " fill-opacity="1" fill-rule="nonzero"/><path fill="#ffffff" d="M 88.308594 20.757812 C 87.71875 20.757812 87.546875 20.445312 87.511719 19.925781 L 87.511719 14.796875 C 87.582031 14.101562 87.339844 13.375 86.855469 12.855469 C 86.371094 12.371094 85.398438 12.09375 84.011719 12.09375 C 82.972656 12.023438 81.96875 12.265625 81.066406 12.820312 C 80.546875 13.132812 80.238281 13.722656 80.238281 14.3125 C 80.203125 14.554688 80.304688 14.796875 80.480469 14.96875 C 80.652344 15.109375 80.859375 15.175781 81.066406 15.175781 C 81.589844 15.175781 81.898438 14.898438 82.003906 14.207031 C 82.003906 13.792969 82.175781 13.410156 82.417969 13.097656 C 82.765625 12.785156 83.25 12.613281 83.703125 12.683594 C 84.222656 12.613281 84.777344 12.820312 85.121094 13.238281 C 85.398438 13.652344 85.503906 14.101562 85.503906 14.589844 L 85.503906 16.21875 C 83.804688 16.355469 79.75 16.703125 79.925781 19.753906 C 80.0625 21.035156 81.171875 22.003906 82.453125 21.972656 C 83.667969 21.9375 84.808594 21.382812 85.574219 20.410156 C 85.746094 21.277344 86.507812 21.867188 87.375 21.832031 C 88.621094 21.832031 89.382812 21.207031 89.453125 19.71875 L 89.140625 19.71875 C 89.070312 20.410156 88.65625 20.757812 88.308594 20.757812 M 85.503906 19.753906 C 85.503906 19.789062 85.503906 19.789062 85.503906 19.820312 L 85.503906 19.855469 C 84.949219 20.480469 84.1875 20.863281 83.355469 20.964844 C 82.558594 21 81.863281 20.375 81.832031 19.542969 C 81.832031 19.476562 81.832031 19.40625 81.832031 19.335938 C 81.832031 17.605469 84.222656 16.738281 85.539062 16.738281 Z M 85.503906 19.753906 " fill-opacity="1" fill-rule="nonzero"/><g clip-path="url(#204905764c)"><path fill="#ffffff" d="M 99.257812 20.6875 C 99.015625 20.273438 98.910156 19.789062 98.910156 19.300781 L 98.910156 15.074219 C 98.945312 14.519531 98.84375 14 98.597656 13.515625 C 98.390625 13.132812 98.046875 12.785156 97.664062 12.578125 C 97.214844 12.371094 96.726562 12.265625 96.242188 12.265625 C 94.960938 12.230469 93.785156 12.925781 93.195312 14.070312 L 92.988281 14.070312 L 92.640625 12.371094 L 89.765625 12.371094 L 89.765625 12.855469 L 91.21875 12.855469 L 91.21875 19.300781 C 91.21875 19.683594 91.183594 20.03125 91.117188 20.410156 C 91.046875 20.6875 90.839844 20.929688 90.5625 21 C 90.320312 21.105469 90.042969 21.140625 89.765625 21.140625 L 89.765625 21.726562 L 94.371094 21.726562 L 94.371094 21.140625 C 94.027344 21.171875 93.679688 21 93.4375 20.757812 C 93.230469 20.339844 93.125 19.890625 93.195312 19.441406 L 93.195312 16.980469 C 93.089844 16.078125 93.230469 15.175781 93.539062 14.3125 C 93.921875 13.652344 94.648438 13.238281 95.410156 13.269531 C 95.929688 13.203125 96.453125 13.480469 96.695312 13.929688 C 96.9375 14.621094 97.039062 15.386719 97.003906 16.113281 L 97.003906 19.164062 C 97.039062 19.542969 97.039062 19.925781 97.003906 20.308594 C 96.972656 20.585938 96.832031 20.828125 96.589844 20.964844 C 96.347656 21.105469 96.105469 21.171875 95.863281 21.171875 L 95.863281 21.761719 L 100.332031 21.761719 L 100.332031 21.171875 C 99.777344 21.105469 99.429688 20.964844 99.257812 20.6875 " fill-opacity="1" fill-rule="nonzero"/></g><g clip-path="url(#835a539508)"><path fill="#ffffff" d="M 78.367188 11.78125 C 78.054688 11.917969 77.847656 12.195312 77.8125 12.507812 C 77.742188 12.890625 77.605469 13.097656 77.394531 13.167969 C 77.1875 13.238281 76.945312 13.203125 76.738281 13.132812 C 75.90625 12.40625 74.796875 12.058594 73.722656 12.128906 C 71.816406 11.988281 70.121094 13.410156 69.980469 15.316406 C 69.980469 15.453125 69.980469 15.59375 69.980469 15.730469 C 69.980469 17.742188 70.742188 18.644531 72.40625 19.023438 C 72.511719 19.023438 72.511719 19.164062 72.40625 19.164062 C 70.984375 19.40625 69.738281 19.820312 69.738281 21.207031 C 69.738281 21.867188 70.15625 22.457031 70.777344 22.664062 C 71.679688 22.976562 72.613281 23.113281 73.550781 23.078125 C 74.277344 23.078125 75.039062 23.113281 75.765625 23.183594 C 76.183594 23.21875 76.597656 23.355469 76.980469 23.601562 C 77.292969 23.878906 77.464844 24.257812 77.429688 24.675781 C 77.429688 25.332031 77.015625 25.921875 76.425781 26.164062 C 75.628906 26.546875 74.761719 26.71875 73.894531 26.683594 C 73.097656 26.753906 72.269531 26.582031 71.574219 26.164062 C 71.160156 25.851562 70.953125 25.332031 71.089844 24.847656 C 71.230469 24.464844 71.019531 24.015625 70.605469 23.878906 L 70.5 23.878906 C 70.1875 23.84375 69.878906 23.980469 69.703125 24.222656 C 69.566406 24.464844 69.460938 24.777344 69.496094 25.089844 C 69.53125 25.992188 70.15625 26.71875 71.054688 26.890625 C 71.886719 27.167969 72.753906 27.273438 73.621094 27.273438 C 74.625 27.308594 75.628906 27.136719 76.5625 26.71875 C 77.671875 26.234375 78.433594 25.160156 78.433594 23.945312 C 78.46875 23.355469 78.296875 22.800781 77.984375 22.316406 C 77.050781 21.035156 75.734375 21.207031 72.753906 21.070312 C 71.332031 21.070312 71.054688 20.828125 71.054688 20.410156 C 71.054688 19.753906 71.574219 19.511719 73.621094 19.199219 C 75.664062 18.886719 77.570312 18.125 77.570312 15.664062 C 77.570312 15.074219 77.464844 14.449219 77.1875 13.894531 C 77.570312 14 77.984375 14 78.367188 13.894531 C 78.710938 13.792969 79.023438 13.546875 79.199219 13.238281 C 79.371094 12.992188 79.441406 12.648438 79.371094 12.371094 C 79.199219 11.851562 78.851562 11.640625 78.367188 11.78125 M 73.757812 18.609375 C 72.546875 18.609375 71.816406 18.15625 71.816406 15.699219 C 71.816406 13.964844 72.40625 12.683594 73.757812 12.683594 C 75.28125 12.683594 75.699219 13.859375 75.699219 15.664062 C 75.664062 18.226562 74.867188 18.609375 73.757812 18.609375 " fill-opacity="1" fill-rule="nonzero"/></g></svg>