<svg xmlns="http://www.w3.org/2000/svg" xmlns:xlink="http://www.w3.org/1999/xlink" width="145" zoomAndPan="magnify" viewBox="0 0 108.75 33.749998" height="45" preserveAspectRatio="xMidYMid meet" version="1.0"><defs><clipPath id="1ffd343f48"><path d="M 6.515625 10.667969 L 101.808594 10.667969 L 101.808594 22.582031 L 6.515625 22.582031 Z M 6.515625 10.667969 " clip-rule="nonzero"/></clipPath></defs><g clip-path="url(#1ffd343f48)"><path fill="#ffffff" d="M 19.902344 22.292969 L 19.902344 17.089844 C 19.902344 15.125 18.628906 13.816406 16.578125 13.792969 C 15.5 13.78125 14.382812 14.101562 13.609375 15.269531 C 13.027344 14.351562 12.105469 13.792969 10.820312 13.792969 C 9.921875 13.792969 9.035156 14.054688 8.347656 15.019531 L 8.347656 14.007812 L 6.515625 14.007812 L 6.515625 22.292969 L 8.371094 22.292969 L 8.371094 17.695312 C 8.371094 16.257812 9.183594 15.496094 10.429688 15.496094 C 11.644531 15.496094 12.261719 16.28125 12.261719 17.683594 L 12.261719 22.292969 L 14.117188 22.292969 L 14.117188 17.695312 C 14.117188 16.257812 14.964844 15.496094 16.179688 15.496094 C 17.429688 15.496094 18.035156 16.28125 18.035156 17.683594 L 18.035156 22.292969 Z M 47.351562 14.007812 L 44.347656 14.007812 L 44.347656 11.484375 L 42.492188 11.484375 L 42.492188 14.007812 L 40.78125 14.007812 L 40.78125 15.648438 L 42.492188 15.648438 L 42.492188 19.433594 C 42.492188 21.363281 43.253906 22.507812 45.425781 22.507812 C 46.226562 22.507812 47.136719 22.269531 47.71875 21.863281 L 47.183594 20.316406 C 46.636719 20.625 46.03125 20.78125 45.558594 20.78125 C 44.636719 20.78125 44.347656 20.21875 44.347656 19.386719 L 44.347656 15.648438 L 47.351562 15.648438 Z M 63.007812 13.792969 C 61.953125 13.792969 61.261719 14.28125 60.777344 15.007812 L 60.777344 14.007812 L 58.957031 14.007812 L 58.957031 22.292969 L 60.789062 22.292969 L 60.789062 17.648438 C 60.789062 16.28125 61.394531 15.519531 62.59375 15.519531 C 62.972656 15.519531 63.359375 15.566406 63.746094 15.722656 L 64.316406 14.019531 C 63.917969 13.863281 63.382812 13.792969 63.007812 13.792969 Z M 39.328125 14.660156 C 38.441406 14.089844 37.230469 13.792969 35.882812 13.792969 C 33.75 13.792969 32.367188 14.792969 32.367188 16.445312 C 32.367188 17.804688 33.386719 18.636719 35.277344 18.886719 L 36.136719 19.007812 C 37.144531 19.148438 37.617188 19.398438 37.617188 19.875 C 37.617188 20.519531 36.949219 20.875 35.6875 20.875 C 34.414062 20.875 33.492188 20.46875 32.875 20.007812 L 32.015625 21.410156 C 33.019531 22.136719 34.292969 22.480469 35.675781 22.480469 C 38.113281 22.480469 39.53125 21.351562 39.53125 19.78125 C 39.53125 18.328125 38.417969 17.566406 36.585938 17.304688 L 35.726562 17.183594 C 34.925781 17.078125 34.292969 16.921875 34.292969 16.375 C 34.292969 15.769531 34.902344 15.398438 35.90625 15.398438 C 36.984375 15.398438 38.027344 15.804688 38.539062 16.113281 Z M 88.53125 13.792969 C 87.476562 13.792969 86.785156 14.28125 86.300781 15.007812 L 86.300781 14.007812 L 84.480469 14.007812 L 84.480469 22.292969 L 86.3125 22.292969 L 86.3125 17.648438 C 86.3125 16.28125 86.917969 15.519531 88.121094 15.519531 C 88.496094 15.519531 88.882812 15.566406 89.269531 15.722656 L 89.839844 14.019531 C 89.429688 13.863281 88.90625 13.792969 88.53125 13.792969 Z M 64.863281 18.148438 C 64.863281 20.660156 66.644531 22.507812 69.359375 22.507812 C 70.632812 22.507812 71.484375 22.230469 72.40625 21.519531 L 71.519531 20.066406 C 70.828125 20.554688 70.101562 20.816406 69.3125 20.816406 C 67.84375 20.804688 66.765625 19.757812 66.765625 18.160156 C 66.765625 16.566406 67.84375 15.53125 69.3125 15.507812 C 70.113281 15.507812 70.828125 15.769531 71.519531 16.257812 L 72.40625 14.804688 C 71.484375 14.089844 70.632812 13.816406 69.359375 13.816406 C 66.65625 13.792969 64.863281 15.636719 64.863281 18.148438 Z M 82.070312 18.148438 L 82.070312 14.007812 L 80.238281 14.007812 L 80.238281 15.007812 C 79.65625 14.257812 78.769531 13.792969 77.570312 13.792969 C 75.207031 13.792969 73.351562 15.613281 73.351562 18.148438 C 73.351562 20.683594 75.207031 22.507812 77.570312 22.507812 C 78.769531 22.507812 79.65625 22.042969 80.238281 21.292969 L 80.238281 22.292969 L 82.070312 22.292969 Z M 75.230469 18.148438 C 75.230469 16.695312 76.199219 15.496094 77.789062 15.496094 C 79.304688 15.496094 80.335938 16.636719 80.335938 18.148438 C 80.335938 19.660156 79.316406 20.804688 77.789062 20.804688 C 76.199219 20.804688 75.230469 19.601562 75.230469 18.148438 Z M 53.066406 13.792969 C 50.589844 13.792969 48.855469 15.566406 48.855469 18.148438 C 48.855469 20.78125 50.664062 22.507812 53.1875 22.507812 C 54.460938 22.507812 55.625 22.195312 56.640625 21.339844 L 55.746094 20.007812 C 55.042969 20.566406 54.132812 20.875 53.296875 20.875 C 52.105469 20.875 51.039062 20.339844 50.773438 18.851562 L 57.042969 18.851562 C 57.054688 18.625 57.078125 18.398438 57.078125 18.160156 C 57.066406 15.566406 55.441406 13.792969 53.066406 13.792969 Z M 53.039062 15.410156 C 54.230469 15.410156 54.980469 16.136719 55.175781 17.421875 L 50.796875 17.421875 C 50.992188 16.222656 51.730469 15.410156 53.039062 15.410156 Z M 99.117188 18.148438 L 99.117188 10.675781 L 97.285156 10.675781 L 97.285156 15.007812 C 96.703125 14.257812 95.820312 13.792969 94.617188 13.792969 C 92.253906 13.792969 90.398438 15.613281 90.398438 18.148438 C 90.398438 20.683594 92.253906 22.507812 94.617188 22.507812 C 95.820312 22.507812 96.703125 22.042969 97.285156 21.292969 L 97.285156 22.292969 L 99.117188 22.292969 Z M 101.261719 21.53125 C 101.335938 21.53125 101.410156 21.542969 101.46875 21.566406 C 101.53125 21.589844 101.589844 21.625 101.640625 21.671875 C 101.6875 21.71875 101.722656 21.78125 101.761719 21.839844 C 101.785156 21.898438 101.808594 21.96875 101.808594 22.042969 C 101.808594 22.113281 101.796875 22.183594 101.761719 22.246094 C 101.734375 22.304688 101.6875 22.363281 101.640625 22.410156 C 101.589844 22.457031 101.53125 22.496094 101.46875 22.53125 C 101.410156 22.554688 101.335938 22.578125 101.261719 22.578125 C 101.191406 22.578125 101.117188 22.566406 101.046875 22.53125 C 100.972656 22.507812 100.925781 22.457031 100.875 22.410156 C 100.828125 22.363281 100.789062 22.304688 100.753906 22.246094 C 100.730469 22.183594 100.707031 22.113281 100.707031 22.042969 C 100.707031 21.96875 100.71875 21.898438 100.753906 21.839844 C 100.777344 21.78125 100.828125 21.71875 100.875 21.671875 C 100.925781 21.625 100.984375 21.589844 101.046875 21.566406 C 101.105469 21.542969 101.179688 21.53125 101.261719 21.53125 Z M 101.261719 22.457031 C 101.324219 22.457031 101.371094 22.445312 101.421875 22.421875 C 101.46875 22.398438 101.519531 22.375 101.554688 22.339844 C 101.589844 22.304688 101.628906 22.257812 101.640625 22.207031 C 101.664062 22.160156 101.675781 22.101562 101.675781 22.054688 C 101.675781 21.996094 101.664062 21.945312 101.640625 21.898438 C 101.613281 21.851562 101.589844 21.804688 101.554688 21.769531 C 101.519531 21.730469 101.46875 21.695312 101.421875 21.683594 C 101.371094 21.660156 101.3125 21.648438 101.261719 21.648438 C 101.203125 21.648438 101.152344 21.660156 101.09375 21.683594 C 101.046875 21.707031 100.996094 21.730469 100.960938 21.769531 C 100.925781 21.804688 100.886719 21.851562 100.875 21.898438 C 100.851562 21.945312 100.839844 22.007812 100.839844 22.054688 C 100.839844 22.113281 100.851562 22.160156 100.875 22.207031 C 100.898438 22.257812 100.925781 22.304688 100.960938 22.339844 C 100.996094 22.375 101.046875 22.410156 101.09375 22.421875 C 101.140625 22.445312 101.203125 22.457031 101.261719 22.457031 Z M 101.289062 21.804688 C 101.347656 21.804688 101.398438 21.816406 101.433594 21.851562 C 101.46875 21.875 101.480469 21.921875 101.480469 21.96875 C 101.480469 22.007812 101.46875 22.042969 101.445312 22.066406 C 101.421875 22.089844 101.371094 22.113281 101.324219 22.113281 L 101.480469 22.292969 L 101.347656 22.292969 L 101.203125 22.113281 L 101.152344 22.113281 L 101.152344 22.292969 L 101.046875 22.292969 L 101.046875 21.804688 Z M 101.167969 21.898438 L 101.167969 22.03125 L 101.289062 22.03125 C 101.3125 22.03125 101.335938 22.03125 101.359375 22.019531 C 101.371094 22.007812 101.382812 21.996094 101.382812 21.96875 C 101.382812 21.945312 101.371094 21.933594 101.359375 21.921875 C 101.347656 21.910156 101.324219 21.910156 101.289062 21.910156 L 101.167969 21.910156 Z M 92.277344 18.148438 C 92.277344 16.695312 93.25 15.496094 94.835938 15.496094 C 96.351562 15.496094 97.382812 16.636719 97.382812 18.148438 C 97.382812 19.660156 96.363281 20.804688 94.835938 20.804688 C 93.25 20.804688 92.277344 19.601562 92.277344 18.148438 Z M 30.257812 18.148438 L 30.257812 14.007812 L 28.425781 14.007812 L 28.425781 15.007812 C 27.84375 14.257812 26.957031 13.792969 25.757812 13.792969 C 23.394531 13.792969 21.539062 15.613281 21.539062 18.148438 C 21.539062 20.683594 23.394531 22.507812 25.757812 22.507812 C 26.957031 22.507812 27.84375 22.042969 28.425781 21.292969 L 28.425781 22.292969 L 30.257812 22.292969 Z M 23.417969 18.148438 C 23.417969 16.695312 24.386719 15.496094 25.976562 15.496094 C 27.492188 15.496094 28.523438 16.636719 28.523438 18.148438 C 28.523438 19.660156 27.503906 20.804688 25.976562 20.804688 C 24.386719 20.804688 23.417969 19.601562 23.417969 18.148438 Z M 23.417969 18.148438 " fill-opacity="1" fill-rule="nonzero"/></g></svg>