<svg xmlns="http://www.w3.org/2000/svg" xmlns:xlink="http://www.w3.org/1999/xlink" width="145" zoomAndPan="magnify" viewBox="0 0 108.75 33.749998" height="45" preserveAspectRatio="xMidYMid meet" version="1.0"><path fill="#ffffff" d="M 9.558594 19.414062 L 9.558594 16.902344 L 11.074219 16.902344 C 11.453125 16.902344 11.882812 16.902344 12.167969 17.136719 C 12.5 17.375 12.6875 17.800781 12.6875 18.179688 C 12.6875 18.5625 12.546875 18.894531 12.261719 19.128906 C 11.976562 19.367188 11.550781 19.414062 11.171875 19.414062 Z M 9.558594 16.285156 L 9.558594 14.054688 L 11.074219 14.054688 C 11.40625 14.054688 11.691406 14.054688 11.976562 14.195312 C 12.308594 14.386719 12.5 14.71875 12.5 15.097656 C 12.5 15.429688 12.308594 15.808594 12.070312 16 C 11.738281 16.285156 11.265625 16.285156 10.839844 16.285156 Z M 11.21875 20.078125 C 11.835938 20.078125 12.355469 20.03125 12.832031 19.652344 C 13.304688 19.273438 13.496094 18.796875 13.496094 18.230469 C 13.496094 17.375 12.925781 16.710938 12.121094 16.519531 C 12.832031 16.332031 13.304688 15.761719 13.304688 15.050781 C 13.304688 14.480469 13.019531 14.007812 12.59375 13.722656 C 12.121094 13.4375 11.738281 13.390625 11.21875 13.390625 L 8.75 13.390625 L 8.75 20.078125 L 11.21875 20.078125 " fill-opacity="1" fill-rule="evenodd"/><path fill="#ffffff" d="M 15.058594 17.566406 C 15.058594 17.136719 15.109375 16.664062 15.296875 16.332031 C 15.535156 15.902344 15.960938 15.621094 16.4375 15.621094 C 16.863281 15.621094 17.289062 15.855469 17.527344 16.1875 C 17.765625 16.617188 17.8125 17.089844 17.8125 17.566406 C 17.8125 17.992188 17.765625 18.417969 17.574219 18.84375 C 17.335938 19.273438 16.957031 19.558594 16.4375 19.558594 C 15.960938 19.558594 15.535156 19.320312 15.34375 18.941406 C 15.109375 18.511719 15.058594 17.992188 15.058594 17.566406 Z M 14.207031 17.566406 C 14.207031 18.84375 14.871094 20.175781 16.339844 20.175781 C 17.859375 20.175781 18.664062 18.941406 18.664062 17.566406 C 18.664062 16.285156 17.953125 15.003906 16.484375 15.003906 C 15.011719 15.003906 14.207031 16.1875 14.207031 17.566406 " fill-opacity="1" fill-rule="evenodd"/><path fill="#ffffff" d="M 20.230469 17.566406 C 20.230469 17.136719 20.277344 16.664062 20.46875 16.332031 C 20.65625 15.902344 21.132812 15.621094 21.605469 15.621094 C 22.035156 15.621094 22.414062 15.855469 22.652344 16.1875 C 22.933594 16.617188 22.984375 17.089844 22.984375 17.566406 C 22.984375 17.992188 22.933594 18.417969 22.746094 18.84375 C 22.507812 19.273438 22.082031 19.558594 21.605469 19.558594 C 21.132812 19.558594 20.707031 19.320312 20.515625 18.941406 C 20.277344 18.511719 20.230469 17.992188 20.230469 17.566406 Z M 19.378906 17.566406 C 19.378906 18.84375 20.042969 20.175781 21.511719 20.175781 C 23.03125 20.175781 23.789062 18.941406 23.789062 17.566406 C 23.789062 16.285156 23.078125 15.003906 21.65625 15.003906 C 20.183594 15.003906 19.378906 16.1875 19.378906 17.566406 " fill-opacity="1" fill-rule="evenodd"/><path fill="#ffffff" d="M 27.917969 15.570312 L 25.210938 19.460938 L 27.917969 19.460938 L 27.917969 20.078125 L 24.265625 20.078125 L 24.265625 19.460938 L 26.921875 15.714844 L 24.5 15.714844 L 24.5 15.144531 L 27.917969 15.144531 L 27.917969 15.570312 " fill-opacity="1" fill-rule="evenodd"/><path fill="#ffffff" d="M 32.234375 22.261719 L 32.851562 22.261719 L 32.851562 11.964844 L 32.234375 11.964844 Z M 32.234375 22.261719 " fill-opacity="1" fill-rule="nonzero"/><path fill="#ffffff" d="M 40.25 17.46875 L 38.210938 17.46875 L 39.207031 14.292969 Z M 39.730469 13.390625 L 38.828125 13.390625 L 36.644531 20.078125 L 37.355469 20.078125 L 37.972656 18.132812 L 40.441406 18.132812 L 41.105469 20.078125 L 41.910156 20.078125 L 39.730469 13.390625 " fill-opacity="1" fill-rule="evenodd"/><path fill="#ffffff" d="M 47.554688 17.089844 C 47.554688 16.332031 48.125 15.570312 48.980469 15.570312 C 49.832031 15.570312 50.355469 16.285156 50.308594 17.089844 Z M 50.355469 18.609375 C 50.117188 19.175781 49.644531 19.558594 49.027344 19.558594 C 48.503906 19.558594 47.9375 19.226562 47.699219 18.75 C 47.507812 18.417969 47.507812 18.039062 47.507812 17.660156 L 51.113281 17.660156 C 51.160156 16.285156 50.496094 15.003906 48.980469 15.003906 C 47.507812 15.003906 46.703125 16.234375 46.703125 17.613281 C 46.703125 18.988281 47.460938 20.175781 48.933594 20.175781 C 49.878906 20.175781 50.734375 19.605469 51.066406 18.703125 L 50.355469 18.609375 " fill-opacity="1" fill-rule="evenodd"/><path fill="#ffffff" d="M 52.917969 15.953125 L 52.964844 15.953125 C 53.203125 15.429688 53.816406 15.003906 54.484375 15.003906 C 55.097656 15.003906 55.574219 15.238281 55.90625 15.761719 C 56.144531 16.1875 56.09375 16.851562 56.09375 17.328125 L 56.09375 20.078125 L 55.335938 20.078125 L 55.335938 16.996094 C 55.335938 16.710938 55.382812 16.378906 55.242188 16.09375 C 55.050781 15.808594 54.71875 15.667969 54.386719 15.667969 C 53.960938 15.667969 53.628906 15.855469 53.34375 16.140625 C 53.058594 16.519531 52.964844 16.996094 52.964844 17.46875 L 52.964844 20.078125 L 52.207031 20.078125 L 52.207031 15.144531 L 52.917969 15.144531 L 52.917969 15.953125 " fill-opacity="1" fill-rule="evenodd"/><path fill="#ffffff" d="M 98.363281 15.953125 C 98.601562 15.429688 99.21875 15.003906 99.882812 15.003906 C 100.5 15.003906 100.972656 15.238281 101.304688 15.761719 C 101.542969 16.1875 101.542969 16.851562 101.542969 17.328125 L 101.542969 20.078125 L 100.78125 20.078125 L 100.78125 16.996094 C 100.78125 16.710938 100.78125 16.378906 100.640625 16.09375 C 100.449219 15.808594 100.117188 15.667969 99.785156 15.667969 C 99.40625 15.667969 99.027344 15.855469 98.789062 16.140625 C 98.457031 16.519531 98.363281 16.996094 98.363281 17.46875 L 98.363281 20.078125 L 97.605469 20.078125 L 97.605469 15.144531 L 98.363281 15.144531 L 98.363281 15.953125 " fill-opacity="1" fill-rule="evenodd"/><path fill="#ffffff" d="M 60.460938 22.261719 L 61.078125 22.261719 L 61.078125 11.964844 L 60.460938 11.964844 Z M 60.460938 22.261719 " fill-opacity="1" fill-rule="nonzero"/><path fill="#ffffff" d="M 69.664062 20.078125 L 69.664062 16.851562 L 66.578125 16.851562 L 66.578125 20.078125 L 65.820312 20.078125 L 65.820312 13.390625 L 66.578125 13.390625 L 66.578125 16.234375 L 69.664062 16.234375 L 69.664062 13.390625 L 70.46875 13.390625 L 70.46875 20.078125 L 69.664062 20.078125 " fill-opacity="1" fill-rule="evenodd"/><path fill="#ffffff" d="M 74.882812 17.898438 C 74.882812 18.75 74.265625 19.558594 73.363281 19.558594 C 72.746094 19.558594 72.273438 19.320312 72.273438 18.703125 C 72.273438 17.707031 73.363281 17.566406 74.265625 17.566406 L 74.882812 17.566406 Z M 74.265625 16.996094 C 73.648438 16.996094 72.9375 17.042969 72.414062 17.28125 C 71.894531 17.515625 71.511719 18.085938 71.511719 18.65625 C 71.511719 19.652344 72.273438 20.175781 73.222656 20.175781 C 73.980469 20.175781 74.550781 19.84375 74.882812 19.128906 L 74.976562 20.078125 L 75.734375 20.078125 C 75.640625 19.746094 75.59375 19.367188 75.59375 19.035156 L 75.59375 17.089844 C 75.59375 16.566406 75.59375 15.902344 75.214844 15.476562 C 74.832031 15.050781 74.265625 15.003906 73.742188 15.003906 C 72.839844 15.003906 71.796875 15.335938 71.65625 16.378906 L 72.320312 16.472656 C 72.460938 15.808594 73.078125 15.621094 73.648438 15.621094 C 74.5 15.621094 74.882812 15.902344 74.882812 16.804688 L 74.882812 16.996094 L 74.265625 16.996094 " fill-opacity="1" fill-rule="evenodd"/><path fill="#ffffff" d="M 77.632812 15.144531 L 77.632812 16 C 77.871094 15.476562 78.441406 15.003906 79.105469 15.003906 C 79.816406 15.003906 80.382812 15.523438 80.480469 16.09375 C 80.761719 15.476562 81.332031 15.003906 82.09375 15.003906 C 82.613281 15.003906 83.089844 15.289062 83.324219 15.714844 C 83.5625 16.140625 83.5625 16.664062 83.5625 17.136719 L 83.5625 20.078125 L 82.804688 20.078125 L 82.804688 17.136719 C 82.804688 16.804688 82.804688 16.425781 82.660156 16.140625 C 82.519531 15.808594 82.1875 15.621094 81.855469 15.621094 C 81.476562 15.621094 81.097656 15.855469 80.90625 16.1875 C 80.621094 16.566406 80.621094 16.949219 80.621094 17.421875 L 80.621094 20.078125 L 79.863281 20.078125 L 79.863281 16.949219 C 79.863281 16.664062 79.863281 16.332031 79.71875 16.09375 C 79.53125 15.808594 79.199219 15.621094 78.867188 15.621094 C 78.535156 15.621094 78.203125 15.855469 77.964844 16.09375 C 77.726562 16.425781 77.679688 16.851562 77.679688 17.234375 L 77.679688 20.078125 L 76.921875 20.078125 L 76.921875 15.144531 L 77.632812 15.144531 " fill-opacity="1" fill-rule="evenodd"/><path fill="#ffffff" d="M 84.9375 15.144531 L 85.699219 15.144531 L 85.699219 20.078125 L 84.9375 20.078125 Z M 84.890625 13.390625 L 85.746094 13.390625 L 85.746094 14.242188 L 84.890625 14.242188 Z M 84.890625 13.390625 " fill-opacity="1" fill-rule="evenodd"/><path fill="#ffffff" d="M 87.261719 20.078125 L 87.976562 20.078125 L 87.976562 13.390625 L 87.261719 13.390625 Z M 87.261719 20.078125 " fill-opacity="1" fill-rule="nonzero"/><path fill="#ffffff" d="M 42.671875 20.078125 L 43.382812 20.078125 L 43.382812 13.390625 L 42.671875 13.390625 Z M 42.671875 20.078125 " fill-opacity="1" fill-rule="nonzero"/><path fill="#ffffff" d="M 44.945312 20.078125 L 45.660156 20.078125 L 45.660156 13.390625 L 44.945312 13.390625 Z M 44.945312 20.078125 " fill-opacity="1" fill-rule="nonzero"/><path fill="#ffffff" d="M 91.816406 20.078125 L 91.105469 20.175781 C 90.015625 20.175781 89.683594 19.507812 89.683594 18.5625 L 89.683594 15.714844 L 88.828125 15.714844 L 88.828125 15.097656 L 89.683594 15.097656 L 89.683594 13.863281 L 90.441406 13.816406 L 90.441406 15.097656 L 91.53125 15.097656 L 91.53125 15.714844 L 90.441406 15.714844 L 90.441406 18.65625 C 90.441406 19.226562 90.632812 19.558594 91.246094 19.558594 L 91.816406 19.507812 L 91.816406 20.078125 " fill-opacity="1" fill-rule="evenodd"/><path fill="#ffffff" d="M 93.050781 17.566406 C 93.050781 17.136719 93.097656 16.664062 93.289062 16.332031 C 93.476562 15.902344 93.90625 15.621094 94.378906 15.621094 C 94.851562 15.621094 95.234375 15.855469 95.46875 16.1875 C 95.753906 16.617188 95.800781 17.089844 95.800781 17.566406 C 95.800781 17.992188 95.753906 18.417969 95.566406 18.84375 C 95.328125 19.273438 94.902344 19.558594 94.378906 19.558594 C 93.953125 19.558594 93.523438 19.320312 93.335938 18.941406 C 93.097656 18.511719 93.050781 17.992188 93.050781 17.566406 Z M 92.195312 17.566406 C 92.195312 18.84375 92.859375 20.175781 94.332031 20.175781 C 95.847656 20.175781 96.609375 18.941406 96.609375 17.566406 C 96.609375 16.285156 95.898438 15.003906 94.472656 15.003906 C 92.957031 15.003906 92.195312 16.1875 92.195312 17.566406 " fill-opacity="1" fill-rule="evenodd"/></svg>