<svg xmlns="http://www.w3.org/2000/svg" xmlns:xlink="http://www.w3.org/1999/xlink" width="145" zoomAndPan="magnify" viewBox="0 0 108.75 33.749998" height="45" preserveAspectRatio="xMidYMid meet" version="1.0"><defs><clipPath id="265860f0ff"><path d="M 36.269531 18 L 65 18 L 65 33.5 L 36.269531 33.5 Z M 36.269531 18 " clip-rule="nonzero"/></clipPath><clipPath id="cded47b2f7"><path d="M 36.269531 1 L 69.773438 1 L 69.773438 14 L 36.269531 14 Z M 36.269531 1 " clip-rule="nonzero"/></clipPath></defs><g clip-path="url(#265860f0ff)"><path fill="#ffffff" d="M 41.671875 31.316406 L 50.140625 31.316406 L 50.140625 35.21875 L 36.601562 35.21875 L 36.601562 18.25 L 46.21875 18.25 L 48.457031 22.148438 L 41.671875 22.148438 L 41.671875 24.949219 L 47.800781 24.949219 L 47.800781 28.515625 L 41.671875 28.515625 Z M 59.164062 18.25 L 56.300781 23.78125 L 53.433594 18.25 L 47.800781 18.25 L 53.730469 28.515625 L 53.730469 35.21875 L 58.800781 35.21875 L 58.800781 28.515625 L 64.730469 18.25 Z M 59.164062 18.25 " fill-opacity="1" fill-rule="evenodd"/></g><g clip-path="url(#cded47b2f7)"><path fill="#ffe600" d="M 69.773438 1.011719 L 36.269531 13.28125 L 69.773438 7.347656 Z M 69.773438 1.011719 " fill-opacity="1" fill-rule="evenodd"/></g></svg>