<svg xmlns="http://www.w3.org/2000/svg" xmlns:xlink="http://www.w3.org/1999/xlink" width="145" zoomAndPan="magnify" viewBox="0 0 108.75 33.749998" height="45" preserveAspectRatio="xMidYMid meet" version="1.0"><defs><g/><clipPath id="3f1d3af721"><path d="M 9.371094 0 L 46.367188 0 L 46.367188 33.5 L 9.371094 33.5 Z M 9.371094 0 " clip-rule="nonzero"/></clipPath></defs><g clip-path="url(#3f1d3af721)"><path fill="#ffffff" d="M 9.371094 -1.675781 L 46.367188 -1.675781 L 46.367188 35.175781 L 9.371094 35.175781 Z M 9.371094 -1.675781 " fill-opacity="1" fill-rule="nonzero"/></g><g fill="#000000" fill-opacity="1"><g transform="translate(13.237115, 17.83906)"><g><path d="M 6.796875 0 L 6.046875 -2.15625 L 2.828125 -2.15625 L 2.078125 0 L 0.3125 0 L 3.390625 -8.453125 L 5.484375 -8.453125 L 8.5625 0 Z M 4.4375 -7.15625 L 4.40625 -7.03125 C 4.363281 -6.882812 4.3125 -6.71875 4.25 -6.53125 C 4.195312 -6.34375 3.851562 -5.332031 3.21875 -3.5 L 5.65625 -3.5 L 4.828125 -5.921875 L 4.5625 -6.75 Z M 4.4375 -7.15625 "/></g></g></g><g fill="#000000" fill-opacity="1"><g transform="translate(22.113858, 17.83906)"><g><path d="M 0.859375 -7.671875 L 0.859375 -8.90625 L 2.546875 -8.90625 L 2.546875 -7.671875 Z M 0.859375 0 L 0.859375 -6.5 L 2.546875 -6.5 L 2.546875 0 Z M 0.859375 0 "/></g></g></g><g fill="#000000" fill-opacity="1"><g transform="translate(25.528914, 17.83906)"><g><path d="M 7.84375 0 L 7.84375 -5.125 C 7.84375 -5.238281 7.84375 -5.351562 7.84375 -5.46875 C 7.851562 -5.59375 7.875 -6.09375 7.90625 -6.96875 C 7.625 -5.894531 7.414062 -5.144531 7.28125 -4.71875 L 5.75 0 L 4.484375 0 L 2.96875 -4.71875 L 2.328125 -6.96875 C 2.367188 -6.039062 2.390625 -5.425781 2.390625 -5.125 L 2.390625 0 L 0.828125 0 L 0.828125 -8.453125 L 3.1875 -8.453125 L 4.703125 -3.734375 L 4.84375 -3.265625 L 5.125 -2.140625 L 5.5 -3.5 L 7.0625 -8.453125 L 9.421875 -8.453125 L 9.421875 0 Z M 7.84375 0 "/></g></g></g><g fill="#000000" fill-opacity="1"><g transform="translate(35.768077, 17.83906)"><g><path d="M 0.828125 0 L 0.828125 -8.453125 L 2.59375 -8.453125 L 2.59375 -1.375 L 7.140625 -1.375 L 7.140625 0 Z M 0.828125 0 "/></g></g></g><g fill="#000000" fill-opacity="1"><g transform="translate(13.237115, 22.646333)"><g><path d="M 2.03125 -0.546875 C 2.476562 -0.546875 2.789062 -0.769531 2.96875 -1.21875 L 3.625 -0.96875 C 3.488281 -0.625 3.28125 -0.367188 3 -0.203125 C 2.726562 -0.0351562 2.40625 0.046875 2.03125 0.046875 C 1.445312 0.046875 1 -0.113281 0.6875 -0.4375 C 0.375 -0.769531 0.21875 -1.226562 0.21875 -1.8125 C 0.21875 -2.40625 0.367188 -2.859375 0.671875 -3.171875 C 0.972656 -3.484375 1.414062 -3.640625 2 -3.640625 C 2.414062 -3.640625 2.753906 -3.554688 3.015625 -3.390625 C 3.285156 -3.222656 3.472656 -2.972656 3.578125 -2.640625 L 2.921875 -2.46875 C 2.859375 -2.644531 2.742188 -2.785156 2.578125 -2.890625 C 2.421875 -2.992188 2.234375 -3.046875 2.015625 -3.046875 C 1.671875 -3.046875 1.410156 -2.941406 1.234375 -2.734375 C 1.054688 -2.523438 0.96875 -2.21875 0.96875 -1.8125 C 0.96875 -1.394531 1.054688 -1.078125 1.234375 -0.859375 C 1.421875 -0.648438 1.6875 -0.546875 2.03125 -0.546875 Z M 2.03125 -0.546875 "/></g></g></g><g fill="#000000" fill-opacity="1"><g transform="translate(17.001139, 22.646333)"><g><path d="M 1 0.046875 C 0.726562 0.046875 0.519531 -0.0234375 0.375 -0.171875 C 0.226562 -0.316406 0.15625 -0.519531 0.15625 -0.78125 C 0.15625 -1.0625 0.25 -1.273438 0.4375 -1.421875 C 0.625 -1.578125 0.890625 -1.65625 1.234375 -1.65625 L 1.828125 -1.671875 L 1.828125 -1.8125 C 1.828125 -1.988281 1.796875 -2.117188 1.734375 -2.203125 C 1.671875 -2.296875 1.570312 -2.34375 1.4375 -2.34375 C 1.300781 -2.34375 1.203125 -2.3125 1.140625 -2.25 C 1.078125 -2.1875 1.039062 -2.085938 1.03125 -1.953125 L 0.28125 -1.984375 C 0.320312 -2.253906 0.441406 -2.457031 0.640625 -2.59375 C 0.847656 -2.738281 1.125 -2.8125 1.46875 -2.8125 C 1.8125 -2.8125 2.078125 -2.722656 2.265625 -2.546875 C 2.453125 -2.378906 2.546875 -2.132812 2.546875 -1.8125 L 2.546875 -0.8125 C 2.546875 -0.65625 2.5625 -0.546875 2.59375 -0.484375 C 2.632812 -0.429688 2.695312 -0.40625 2.78125 -0.40625 C 2.832031 -0.40625 2.882812 -0.410156 2.9375 -0.421875 L 2.9375 -0.03125 C 2.894531 -0.0195312 2.851562 -0.0078125 2.8125 0 C 2.78125 0 2.75 0 2.71875 0 C 2.6875 0.0078125 2.648438 0.015625 2.609375 0.015625 C 2.566406 0.0234375 2.523438 0.03125 2.484375 0.03125 C 2.296875 0.03125 2.160156 -0.0078125 2.078125 -0.09375 C 1.992188 -0.1875 1.941406 -0.316406 1.921875 -0.484375 L 1.90625 -0.484375 C 1.707031 -0.128906 1.40625 0.046875 1 0.046875 Z M 1.828125 -1.28125 L 1.46875 -1.265625 C 1.300781 -1.265625 1.179688 -1.25 1.109375 -1.21875 C 1.046875 -1.1875 0.992188 -1.140625 0.953125 -1.078125 C 0.921875 -1.015625 0.90625 -0.929688 0.90625 -0.828125 C 0.90625 -0.703125 0.929688 -0.609375 0.984375 -0.546875 C 1.046875 -0.484375 1.128906 -0.453125 1.234375 -0.453125 C 1.347656 -0.453125 1.445312 -0.476562 1.53125 -0.53125 C 1.625 -0.59375 1.695312 -0.675781 1.75 -0.78125 C 1.800781 -0.894531 1.828125 -1.015625 1.828125 -1.140625 Z M 1.828125 -1.28125 "/></g></g></g><g fill="#000000" fill-opacity="1"><g transform="translate(19.899871, 22.646333)"><g><path d="M 1.984375 0 L 1.984375 -1.546875 C 1.984375 -2.023438 1.84375 -2.265625 1.5625 -2.265625 C 1.425781 -2.265625 1.3125 -2.191406 1.21875 -2.046875 C 1.125 -1.898438 1.078125 -1.710938 1.078125 -1.484375 L 1.078125 0 L 0.359375 0 L 0.359375 -2.140625 C 0.359375 -2.285156 0.359375 -2.40625 0.359375 -2.5 C 0.359375 -2.59375 0.351562 -2.675781 0.34375 -2.75 L 1.03125 -2.75 C 1.03125 -2.71875 1.035156 -2.628906 1.046875 -2.484375 C 1.054688 -2.347656 1.0625 -2.253906 1.0625 -2.203125 C 1.15625 -2.421875 1.265625 -2.578125 1.390625 -2.671875 C 1.523438 -2.765625 1.6875 -2.8125 1.875 -2.8125 C 2.289062 -2.8125 2.546875 -2.609375 2.640625 -2.203125 L 2.65625 -2.203125 C 2.75 -2.421875 2.859375 -2.578125 2.984375 -2.671875 C 3.117188 -2.765625 3.285156 -2.8125 3.484375 -2.8125 C 3.753906 -2.8125 3.957031 -2.71875 4.09375 -2.53125 C 4.238281 -2.351562 4.3125 -2.09375 4.3125 -1.75 L 4.3125 0 L 3.609375 0 L 3.609375 -1.546875 C 3.609375 -2.023438 3.46875 -2.265625 3.1875 -2.265625 C 3.050781 -2.265625 2.9375 -2.195312 2.84375 -2.0625 C 2.757812 -1.9375 2.710938 -1.753906 2.703125 -1.515625 L 2.703125 0 Z M 1.984375 0 "/></g></g></g><g fill="#000000" fill-opacity="1"><g transform="translate(24.534277, 22.646333)"><g><path d="M 2.96875 -1.390625 C 2.96875 -0.929688 2.875 -0.578125 2.6875 -0.328125 C 2.507812 -0.078125 2.253906 0.046875 1.921875 0.046875 C 1.722656 0.046875 1.550781 0.00390625 1.40625 -0.078125 C 1.257812 -0.160156 1.148438 -0.28125 1.078125 -0.4375 L 1.0625 -0.4375 C 1.070312 -0.382812 1.078125 -0.226562 1.078125 0.03125 L 1.078125 1.078125 L 0.359375 1.078125 L 0.359375 -2.125 C 0.359375 -2.382812 0.351562 -2.59375 0.34375 -2.75 L 1.046875 -2.75 C 1.046875 -2.726562 1.046875 -2.671875 1.046875 -2.578125 C 1.054688 -2.484375 1.0625 -2.394531 1.0625 -2.3125 L 1.078125 -2.3125 C 1.242188 -2.644531 1.539062 -2.8125 1.96875 -2.8125 C 2.28125 -2.8125 2.523438 -2.6875 2.703125 -2.4375 C 2.878906 -2.195312 2.96875 -1.847656 2.96875 -1.390625 Z M 2.234375 -1.390625 C 2.234375 -2.003906 2.039062 -2.3125 1.65625 -2.3125 C 1.46875 -2.3125 1.320312 -2.226562 1.21875 -2.0625 C 1.113281 -1.894531 1.0625 -1.664062 1.0625 -1.375 C 1.0625 -1.070312 1.113281 -0.835938 1.21875 -0.671875 C 1.320312 -0.515625 1.46875 -0.4375 1.65625 -0.4375 C 2.039062 -0.4375 2.234375 -0.753906 2.234375 -1.390625 Z M 2.234375 -1.390625 "/></g></g></g><g fill="#000000" fill-opacity="1"><g transform="translate(27.718046, 22.646333)"><g><path d="M 1.046875 -2.75 L 1.046875 -1.203125 C 1.046875 -0.722656 1.207031 -0.484375 1.53125 -0.484375 C 1.695312 -0.484375 1.832031 -0.554688 1.9375 -0.703125 C 2.050781 -0.859375 2.109375 -1.050781 2.109375 -1.28125 L 2.109375 -2.75 L 2.828125 -2.75 L 2.828125 -0.609375 C 2.828125 -0.378906 2.832031 -0.175781 2.84375 0 L 2.15625 0 C 2.132812 -0.238281 2.125 -0.421875 2.125 -0.546875 C 2.019531 -0.335938 1.894531 -0.1875 1.75 -0.09375 C 1.601562 0 1.429688 0.046875 1.234375 0.046875 C 0.941406 0.046875 0.71875 -0.0390625 0.5625 -0.21875 C 0.40625 -0.394531 0.328125 -0.65625 0.328125 -1 L 0.328125 -2.75 Z M 1.046875 -2.75 "/></g></g></g><g fill="#000000" fill-opacity="1"><g transform="translate(30.901815, 22.646333)"><g><path d="M 2.6875 -0.8125 C 2.6875 -0.539062 2.578125 -0.328125 2.359375 -0.171875 C 2.140625 -0.0234375 1.835938 0.046875 1.453125 0.046875 C 1.078125 0.046875 0.785156 -0.0078125 0.578125 -0.125 C 0.378906 -0.25 0.25 -0.4375 0.1875 -0.6875 L 0.8125 -0.78125 C 0.84375 -0.65625 0.898438 -0.5625 0.984375 -0.5 C 1.078125 -0.445312 1.234375 -0.421875 1.453125 -0.421875 C 1.648438 -0.421875 1.796875 -0.445312 1.890625 -0.5 C 1.984375 -0.550781 2.03125 -0.628906 2.03125 -0.734375 C 2.03125 -0.828125 1.992188 -0.898438 1.921875 -0.953125 C 1.847656 -1.003906 1.722656 -1.046875 1.546875 -1.078125 C 1.140625 -1.160156 0.863281 -1.234375 0.71875 -1.296875 C 0.582031 -1.367188 0.476562 -1.457031 0.40625 -1.5625 C 0.332031 -1.675781 0.296875 -1.8125 0.296875 -1.96875 C 0.296875 -2.238281 0.394531 -2.445312 0.59375 -2.59375 C 0.800781 -2.738281 1.085938 -2.8125 1.453125 -2.8125 C 1.785156 -2.8125 2.050781 -2.742188 2.25 -2.609375 C 2.445312 -2.484375 2.570312 -2.300781 2.625 -2.0625 L 1.984375 -2 C 1.960938 -2.113281 1.910156 -2.195312 1.828125 -2.25 C 1.753906 -2.300781 1.628906 -2.328125 1.453125 -2.328125 C 1.285156 -2.328125 1.160156 -2.304688 1.078125 -2.265625 C 0.992188 -2.222656 0.953125 -2.148438 0.953125 -2.046875 C 0.953125 -1.972656 0.984375 -1.910156 1.046875 -1.859375 C 1.109375 -1.816406 1.21875 -1.78125 1.375 -1.75 C 1.59375 -1.695312 1.785156 -1.648438 1.953125 -1.609375 C 2.117188 -1.566406 2.25 -1.507812 2.34375 -1.4375 C 2.445312 -1.375 2.53125 -1.289062 2.59375 -1.1875 C 2.65625 -1.09375 2.6875 -0.96875 2.6875 -0.8125 Z M 2.6875 -0.8125 "/></g></g></g><g fill="#000000" fill-opacity="1"><g transform="translate(13.671065, 24.656275)"><g><path d="M 0.59375 0 L 0.59375 -0.34375 L 0.25 -0.34375 L 0.25 0 L 0.078125 0 L 0.078125 -0.8125 L 0.25 -0.8125 L 0.25 -0.484375 L 0.59375 -0.484375 L 0.59375 -0.8125 L 0.765625 -0.8125 L 0.765625 0 Z M 0.59375 0 "/></g></g><g transform="translate(14.514739, 24.656275)"><g><path d="M 0.234375 -0.625 L 0.234375 -0.265625 C 0.234375 -0.160156 0.269531 -0.109375 0.34375 -0.109375 C 0.382812 -0.109375 0.414062 -0.125 0.4375 -0.15625 C 0.457031 -0.1875 0.46875 -0.226562 0.46875 -0.28125 L 0.46875 -0.625 L 0.640625 -0.625 L 0.640625 -0.140625 C 0.640625 -0.0859375 0.640625 -0.0390625 0.640625 0 L 0.484375 0 C 0.484375 -0.0507812 0.484375 -0.09375 0.484375 -0.125 L 0.46875 -0.125 C 0.445312 -0.0703125 0.421875 -0.0351562 0.390625 -0.015625 C 0.359375 0.00390625 0.320312 0.015625 0.28125 0.015625 C 0.207031 0.015625 0.15625 -0.00390625 0.125 -0.046875 C 0.09375 -0.0859375 0.078125 -0.144531 0.078125 -0.21875 L 0.078125 -0.625 Z M 0.234375 -0.625 "/></g></g><g transform="translate(15.228354, 24.656275)"><g><path d="M 0.453125 0 L 0.453125 -0.34375 C 0.453125 -0.457031 0.421875 -0.515625 0.359375 -0.515625 C 0.316406 -0.515625 0.285156 -0.492188 0.265625 -0.453125 C 0.253906 -0.421875 0.25 -0.378906 0.25 -0.328125 L 0.25 0 L 0.078125 0 L 0.078125 -0.484375 C 0.078125 -0.515625 0.078125 -0.539062 0.078125 -0.5625 C 0.078125 -0.582031 0.078125 -0.601562 0.078125 -0.625 L 0.234375 -0.625 C 0.234375 -0.613281 0.234375 -0.59375 0.234375 -0.5625 C 0.234375 -0.53125 0.234375 -0.507812 0.234375 -0.5 C 0.253906 -0.539062 0.28125 -0.570312 0.3125 -0.59375 C 0.34375 -0.613281 0.378906 -0.625 0.421875 -0.625 C 0.515625 -0.625 0.570312 -0.582031 0.59375 -0.5 C 0.613281 -0.539062 0.640625 -0.570312 0.671875 -0.59375 C 0.703125 -0.613281 0.738281 -0.625 0.78125 -0.625 C 0.84375 -0.625 0.890625 -0.601562 0.921875 -0.5625 C 0.953125 -0.53125 0.96875 -0.472656 0.96875 -0.390625 L 0.96875 0 L 0.8125 0 L 0.8125 -0.34375 C 0.8125 -0.457031 0.78125 -0.515625 0.71875 -0.515625 C 0.6875 -0.515625 0.660156 -0.5 0.640625 -0.46875 C 0.617188 -0.4375 0.609375 -0.394531 0.609375 -0.34375 L 0.609375 0 Z M 0.453125 0 "/></g></g><g transform="translate(16.267117, 24.656275)"><g><path d="M 0.21875 0.015625 C 0.164062 0.015625 0.117188 0 0.078125 -0.03125 C 0.046875 -0.0703125 0.03125 -0.117188 0.03125 -0.171875 C 0.03125 -0.234375 0.0507812 -0.28125 0.09375 -0.3125 C 0.132812 -0.351562 0.195312 -0.375 0.28125 -0.375 L 0.40625 -0.375 L 0.40625 -0.40625 C 0.40625 -0.445312 0.398438 -0.476562 0.390625 -0.5 C 0.378906 -0.519531 0.359375 -0.53125 0.328125 -0.53125 C 0.296875 -0.53125 0.269531 -0.519531 0.25 -0.5 C 0.238281 -0.488281 0.234375 -0.46875 0.234375 -0.4375 L 0.0625 -0.453125 C 0.0703125 -0.503906 0.0976562 -0.546875 0.140625 -0.578125 C 0.191406 -0.609375 0.253906 -0.625 0.328125 -0.625 C 0.410156 -0.625 0.472656 -0.601562 0.515625 -0.5625 C 0.554688 -0.53125 0.578125 -0.476562 0.578125 -0.40625 L 0.578125 -0.1875 C 0.578125 -0.144531 0.578125 -0.117188 0.578125 -0.109375 C 0.585938 -0.0976562 0.601562 -0.09375 0.625 -0.09375 C 0.632812 -0.09375 0.644531 -0.09375 0.65625 -0.09375 L 0.65625 -0.015625 C 0.644531 -0.00390625 0.632812 0 0.625 0 C 0.625 0 0.617188 0 0.609375 0 C 0.597656 0 0.585938 0 0.578125 0 C 0.578125 0 0.570312 0 0.5625 0 C 0.519531 0 0.488281 -0.00390625 0.46875 -0.015625 C 0.445312 -0.0351562 0.4375 -0.0664062 0.4375 -0.109375 L 0.421875 -0.109375 C 0.378906 -0.0234375 0.3125 0.015625 0.21875 0.015625 Z M 0.40625 -0.28125 L 0.328125 -0.28125 C 0.296875 -0.28125 0.269531 -0.273438 0.25 -0.265625 C 0.238281 -0.265625 0.226562 -0.253906 0.21875 -0.234375 C 0.207031 -0.222656 0.203125 -0.207031 0.203125 -0.1875 C 0.203125 -0.15625 0.207031 -0.128906 0.21875 -0.109375 C 0.238281 -0.0976562 0.257812 -0.09375 0.28125 -0.09375 C 0.300781 -0.09375 0.320312 -0.0976562 0.34375 -0.109375 C 0.363281 -0.128906 0.378906 -0.148438 0.390625 -0.171875 C 0.398438 -0.203125 0.40625 -0.226562 0.40625 -0.25 Z M 0.40625 -0.28125 "/></g></g><g transform="translate(16.916842, 24.656275)"><g><path d="M 0.484375 0 L 0.484375 -0.34375 C 0.484375 -0.457031 0.445312 -0.515625 0.375 -0.515625 C 0.332031 -0.515625 0.300781 -0.492188 0.28125 -0.453125 C 0.257812 -0.421875 0.25 -0.378906 0.25 -0.328125 L 0.25 0 L 0.078125 0 L 0.078125 -0.484375 C 0.078125 -0.515625 0.078125 -0.539062 0.078125 -0.5625 C 0.078125 -0.582031 0.078125 -0.601562 0.078125 -0.625 L 0.234375 -0.625 C 0.234375 -0.613281 0.234375 -0.59375 0.234375 -0.5625 C 0.234375 -0.53125 0.234375 -0.507812 0.234375 -0.5 C 0.253906 -0.539062 0.28125 -0.570312 0.3125 -0.59375 C 0.351562 -0.613281 0.394531 -0.625 0.4375 -0.625 C 0.5 -0.625 0.546875 -0.601562 0.578125 -0.5625 C 0.617188 -0.53125 0.640625 -0.472656 0.640625 -0.390625 L 0.640625 0 Z M 0.484375 0 "/></g></g><g transform="translate(17.630457, 24.656275)"><g/></g><g transform="translate(17.955035, 24.656275)"><g><path d="M 0.078125 0 L 0.078125 -0.8125 L 0.25 -0.8125 L 0.25 0 Z M 0.078125 0 "/></g></g><g transform="translate(18.279612, 24.656275)"><g><path d="M 0.484375 0 L 0.484375 -0.34375 C 0.484375 -0.457031 0.445312 -0.515625 0.375 -0.515625 C 0.332031 -0.515625 0.300781 -0.492188 0.28125 -0.453125 C 0.257812 -0.421875 0.25 -0.378906 0.25 -0.328125 L 0.25 0 L 0.078125 0 L 0.078125 -0.484375 C 0.078125 -0.515625 0.078125 -0.539062 0.078125 -0.5625 C 0.078125 -0.582031 0.078125 -0.601562 0.078125 -0.625 L 0.234375 -0.625 C 0.234375 -0.613281 0.234375 -0.59375 0.234375 -0.5625 C 0.234375 -0.53125 0.234375 -0.507812 0.234375 -0.5 C 0.253906 -0.539062 0.28125 -0.570312 0.3125 -0.59375 C 0.351562 -0.613281 0.394531 -0.625 0.4375 -0.625 C 0.5 -0.625 0.546875 -0.601562 0.578125 -0.5625 C 0.617188 -0.53125 0.640625 -0.472656 0.640625 -0.390625 L 0.640625 0 Z M 0.484375 0 "/></g></g><g transform="translate(18.993227, 24.656275)"><g><path d="M 0.234375 0.015625 C 0.191406 0.015625 0.15625 0.00390625 0.125 -0.015625 C 0.101562 -0.046875 0.09375 -0.0859375 0.09375 -0.140625 L 0.09375 -0.515625 L 0.015625 -0.515625 L 0.015625 -0.625 L 0.09375 -0.625 L 0.15625 -0.765625 L 0.25 -0.765625 L 0.25 -0.625 L 0.375 -0.625 L 0.375 -0.515625 L 0.25 -0.515625 L 0.25 -0.1875 C 0.25 -0.15625 0.253906 -0.128906 0.265625 -0.109375 C 0.273438 -0.0976562 0.296875 -0.09375 0.328125 -0.09375 C 0.335938 -0.09375 0.351562 -0.0976562 0.375 -0.109375 L 0.375 -0.015625 C 0.332031 0.00390625 0.285156 0.015625 0.234375 0.015625 Z M 0.234375 0.015625 "/></g></g><g transform="translate(19.382264, 24.656275)"><g><path d="M 0.328125 0.015625 C 0.242188 0.015625 0.175781 -0.0078125 0.125 -0.0625 C 0.0703125 -0.125 0.046875 -0.207031 0.046875 -0.3125 C 0.046875 -0.414062 0.0703125 -0.492188 0.125 -0.546875 C 0.175781 -0.597656 0.25 -0.625 0.34375 -0.625 C 0.425781 -0.625 0.488281 -0.59375 0.53125 -0.53125 C 0.582031 -0.476562 0.609375 -0.394531 0.609375 -0.28125 L 0.21875 -0.28125 C 0.21875 -0.21875 0.226562 -0.171875 0.25 -0.140625 C 0.269531 -0.109375 0.300781 -0.09375 0.34375 -0.09375 C 0.394531 -0.09375 0.429688 -0.117188 0.453125 -0.171875 L 0.609375 -0.15625 C 0.554688 -0.0390625 0.460938 0.015625 0.328125 0.015625 Z M 0.328125 -0.53125 C 0.296875 -0.53125 0.269531 -0.515625 0.25 -0.484375 C 0.226562 -0.460938 0.21875 -0.425781 0.21875 -0.375 L 0.453125 -0.375 C 0.453125 -0.425781 0.441406 -0.460938 0.421875 -0.484375 C 0.398438 -0.515625 0.367188 -0.53125 0.328125 -0.53125 Z M 0.328125 -0.53125 "/></g></g><g transform="translate(20.03199, 24.656275)"><g><path d="M 0.078125 0 L 0.078125 -0.84375 L 0.25 -0.84375 L 0.25 0 Z M 0.078125 0 "/></g></g><g transform="translate(20.356568, 24.656275)"><g><path d="M 0.078125 0 L 0.078125 -0.84375 L 0.25 -0.84375 L 0.25 0 Z M 0.078125 0 "/></g></g><g transform="translate(20.681145, 24.656275)"><g><path d="M 0.078125 -0.734375 L 0.078125 -0.84375 L 0.25 -0.84375 L 0.25 -0.734375 Z M 0.078125 0 L 0.078125 -0.625 L 0.25 -0.625 L 0.25 0 Z M 0.078125 0 "/></g></g><g transform="translate(21.005723, 24.656275)"><g><path d="M 0.34375 0.25 C 0.269531 0.25 0.207031 0.234375 0.15625 0.203125 C 0.113281 0.171875 0.0859375 0.128906 0.078125 0.078125 L 0.234375 0.0625 C 0.242188 0.0820312 0.253906 0.0976562 0.265625 0.109375 C 0.285156 0.128906 0.3125 0.140625 0.34375 0.140625 C 0.382812 0.140625 0.414062 0.125 0.4375 0.09375 C 0.457031 0.0703125 0.46875 0.0351562 0.46875 -0.015625 L 0.46875 -0.109375 C 0.4375 -0.0351562 0.375 0 0.28125 0 C 0.207031 0 0.148438 -0.0234375 0.109375 -0.078125 C 0.0664062 -0.128906 0.046875 -0.207031 0.046875 -0.3125 C 0.046875 -0.414062 0.0664062 -0.492188 0.109375 -0.546875 C 0.148438 -0.597656 0.207031 -0.625 0.28125 -0.625 C 0.375 -0.625 0.4375 -0.585938 0.46875 -0.515625 L 0.484375 -0.515625 C 0.484375 -0.535156 0.484375 -0.554688 0.484375 -0.578125 C 0.484375 -0.597656 0.484375 -0.613281 0.484375 -0.625 L 0.640625 -0.625 C 0.640625 -0.582031 0.640625 -0.53125 0.640625 -0.46875 L 0.640625 -0.015625 C 0.640625 0.0664062 0.613281 0.128906 0.5625 0.171875 C 0.507812 0.222656 0.4375 0.25 0.34375 0.25 Z M 0.46875 -0.3125 C 0.46875 -0.375 0.457031 -0.421875 0.4375 -0.453125 C 0.414062 -0.492188 0.382812 -0.515625 0.34375 -0.515625 C 0.257812 -0.515625 0.21875 -0.445312 0.21875 -0.3125 C 0.21875 -0.175781 0.257812 -0.109375 0.34375 -0.109375 C 0.382812 -0.109375 0.414062 -0.125 0.4375 -0.15625 C 0.457031 -0.195312 0.46875 -0.25 0.46875 -0.3125 Z M 0.46875 -0.3125 "/></g></g><g transform="translate(21.719338, 24.656275)"><g><path d="M 0.328125 0.015625 C 0.242188 0.015625 0.175781 -0.0078125 0.125 -0.0625 C 0.0703125 -0.125 0.046875 -0.207031 0.046875 -0.3125 C 0.046875 -0.414062 0.0703125 -0.492188 0.125 -0.546875 C 0.175781 -0.597656 0.25 -0.625 0.34375 -0.625 C 0.425781 -0.625 0.488281 -0.59375 0.53125 -0.53125 C 0.582031 -0.476562 0.609375 -0.394531 0.609375 -0.28125 L 0.21875 -0.28125 C 0.21875 -0.21875 0.226562 -0.171875 0.25 -0.140625 C 0.269531 -0.109375 0.300781 -0.09375 0.34375 -0.09375 C 0.394531 -0.09375 0.429688 -0.117188 0.453125 -0.171875 L 0.609375 -0.15625 C 0.554688 -0.0390625 0.460938 0.015625 0.328125 0.015625 Z M 0.328125 -0.53125 C 0.296875 -0.53125 0.269531 -0.515625 0.25 -0.484375 C 0.226562 -0.460938 0.21875 -0.425781 0.21875 -0.375 L 0.453125 -0.375 C 0.453125 -0.425781 0.441406 -0.460938 0.421875 -0.484375 C 0.398438 -0.515625 0.367188 -0.53125 0.328125 -0.53125 Z M 0.328125 -0.53125 "/></g></g><g transform="translate(22.369063, 24.656275)"><g><path d="M 0.484375 0 L 0.484375 -0.34375 C 0.484375 -0.457031 0.445312 -0.515625 0.375 -0.515625 C 0.332031 -0.515625 0.300781 -0.492188 0.28125 -0.453125 C 0.257812 -0.421875 0.25 -0.378906 0.25 -0.328125 L 0.25 0 L 0.078125 0 L 0.078125 -0.484375 C 0.078125 -0.515625 0.078125 -0.539062 0.078125 -0.5625 C 0.078125 -0.582031 0.078125 -0.601562 0.078125 -0.625 L 0.234375 -0.625 C 0.234375 -0.613281 0.234375 -0.59375 0.234375 -0.5625 C 0.234375 -0.53125 0.234375 -0.507812 0.234375 -0.5 C 0.253906 -0.539062 0.28125 -0.570312 0.3125 -0.59375 C 0.351562 -0.613281 0.394531 -0.625 0.4375 -0.625 C 0.5 -0.625 0.546875 -0.601562 0.578125 -0.5625 C 0.617188 -0.53125 0.640625 -0.472656 0.640625 -0.390625 L 0.640625 0 Z M 0.484375 0 "/></g></g><g transform="translate(23.082678, 24.656275)"><g><path d="M 0.34375 0.015625 C 0.25 0.015625 0.175781 -0.0078125 0.125 -0.0625 C 0.0703125 -0.125 0.046875 -0.207031 0.046875 -0.3125 C 0.046875 -0.40625 0.0703125 -0.476562 0.125 -0.53125 C 0.175781 -0.59375 0.25 -0.625 0.34375 -0.625 C 0.414062 -0.625 0.472656 -0.601562 0.515625 -0.5625 C 0.566406 -0.53125 0.597656 -0.484375 0.609375 -0.421875 L 0.453125 -0.421875 C 0.441406 -0.453125 0.425781 -0.472656 0.40625 -0.484375 C 0.394531 -0.503906 0.375 -0.515625 0.34375 -0.515625 C 0.257812 -0.515625 0.21875 -0.445312 0.21875 -0.3125 C 0.21875 -0.164062 0.257812 -0.09375 0.34375 -0.09375 C 0.375 -0.09375 0.398438 -0.101562 0.421875 -0.125 C 0.441406 -0.144531 0.453125 -0.175781 0.453125 -0.21875 L 0.625 -0.203125 C 0.613281 -0.160156 0.59375 -0.125 0.5625 -0.09375 C 0.539062 -0.0625 0.507812 -0.0351562 0.46875 -0.015625 C 0.4375 0.00390625 0.394531 0.015625 0.34375 0.015625 Z M 0.34375 0.015625 "/></g></g><g transform="translate(23.732404, 24.656275)"><g><path d="M 0.328125 0.015625 C 0.242188 0.015625 0.175781 -0.0078125 0.125 -0.0625 C 0.0703125 -0.125 0.046875 -0.207031 0.046875 -0.3125 C 0.046875 -0.414062 0.0703125 -0.492188 0.125 -0.546875 C 0.175781 -0.597656 0.25 -0.625 0.34375 -0.625 C 0.425781 -0.625 0.488281 -0.59375 0.53125 -0.53125 C 0.582031 -0.476562 0.609375 -0.394531 0.609375 -0.28125 L 0.21875 -0.28125 C 0.21875 -0.21875 0.226562 -0.171875 0.25 -0.140625 C 0.269531 -0.109375 0.300781 -0.09375 0.34375 -0.09375 C 0.394531 -0.09375 0.429688 -0.117188 0.453125 -0.171875 L 0.609375 -0.15625 C 0.554688 -0.0390625 0.460938 0.015625 0.328125 0.015625 Z M 0.328125 -0.53125 C 0.296875 -0.53125 0.269531 -0.515625 0.25 -0.484375 C 0.226562 -0.460938 0.21875 -0.425781 0.21875 -0.375 L 0.453125 -0.375 C 0.453125 -0.425781 0.441406 -0.460938 0.421875 -0.484375 C 0.398438 -0.515625 0.367188 -0.53125 0.328125 -0.53125 Z M 0.328125 -0.53125 "/></g></g></g><g fill="#000000" fill-opacity="1"><g transform="translate(13.671065, 25.824526)"><g><path d="M 0.75 0 L 0.75 -0.484375 C 0.75 -0.492188 0.75 -0.503906 0.75 -0.515625 C 0.75 -0.523438 0.75 -0.578125 0.75 -0.671875 C 0.726562 -0.566406 0.707031 -0.492188 0.6875 -0.453125 L 0.546875 0 L 0.421875 0 L 0.28125 -0.453125 L 0.21875 -0.671875 C 0.226562 -0.578125 0.234375 -0.515625 0.234375 -0.484375 L 0.234375 0 L 0.078125 0 L 0.078125 -0.8125 L 0.296875 -0.8125 L 0.453125 -0.359375 L 0.46875 -0.3125 L 0.484375 -0.203125 L 0.53125 -0.328125 L 0.671875 -0.8125 L 0.890625 -0.8125 L 0.890625 0 Z M 0.75 0 "/></g></g><g transform="translate(14.644228, 25.824526)"><g><path d="M 0.328125 0.015625 C 0.242188 0.015625 0.175781 -0.0078125 0.125 -0.0625 C 0.0703125 -0.125 0.046875 -0.207031 0.046875 -0.3125 C 0.046875 -0.414062 0.0703125 -0.492188 0.125 -0.546875 C 0.175781 -0.597656 0.25 -0.625 0.34375 -0.625 C 0.425781 -0.625 0.488281 -0.59375 0.53125 -0.53125 C 0.582031 -0.476562 0.609375 -0.394531 0.609375 -0.28125 L 0.21875 -0.28125 C 0.21875 -0.21875 0.226562 -0.171875 0.25 -0.140625 C 0.269531 -0.109375 0.300781 -0.09375 0.34375 -0.09375 C 0.394531 -0.09375 0.429688 -0.117188 0.453125 -0.171875 L 0.609375 -0.15625 C 0.554688 -0.0390625 0.460938 0.015625 0.328125 0.015625 Z M 0.328125 -0.53125 C 0.296875 -0.53125 0.269531 -0.515625 0.25 -0.484375 C 0.226562 -0.460938 0.21875 -0.425781 0.21875 -0.375 L 0.453125 -0.375 C 0.453125 -0.425781 0.441406 -0.460938 0.421875 -0.484375 C 0.398438 -0.515625 0.367188 -0.53125 0.328125 -0.53125 Z M 0.328125 -0.53125 "/></g></g><g transform="translate(15.293954, 25.824526)"><g><path d="M 0.328125 0.015625 C 0.242188 0.015625 0.175781 -0.0078125 0.125 -0.0625 C 0.0703125 -0.125 0.046875 -0.207031 0.046875 -0.3125 C 0.046875 -0.414062 0.0703125 -0.492188 0.125 -0.546875 C 0.175781 -0.597656 0.25 -0.625 0.34375 -0.625 C 0.425781 -0.625 0.488281 -0.59375 0.53125 -0.53125 C 0.582031 -0.476562 0.609375 -0.394531 0.609375 -0.28125 L 0.21875 -0.28125 C 0.21875 -0.21875 0.226562 -0.171875 0.25 -0.140625 C 0.269531 -0.109375 0.300781 -0.09375 0.34375 -0.09375 C 0.394531 -0.09375 0.429688 -0.117188 0.453125 -0.171875 L 0.609375 -0.15625 C 0.554688 -0.0390625 0.460938 0.015625 0.328125 0.015625 Z M 0.328125 -0.53125 C 0.296875 -0.53125 0.269531 -0.515625 0.25 -0.484375 C 0.226562 -0.460938 0.21875 -0.425781 0.21875 -0.375 L 0.453125 -0.375 C 0.453125 -0.425781 0.441406 -0.460938 0.421875 -0.484375 C 0.398438 -0.515625 0.367188 -0.53125 0.328125 -0.53125 Z M 0.328125 -0.53125 "/></g></g><g transform="translate(15.94368, 25.824526)"><g><path d="M 0.234375 0.015625 C 0.191406 0.015625 0.15625 0.00390625 0.125 -0.015625 C 0.101562 -0.046875 0.09375 -0.0859375 0.09375 -0.140625 L 0.09375 -0.515625 L 0.015625 -0.515625 L 0.015625 -0.625 L 0.09375 -0.625 L 0.15625 -0.765625 L 0.25 -0.765625 L 0.25 -0.625 L 0.375 -0.625 L 0.375 -0.515625 L 0.25 -0.515625 L 0.25 -0.1875 C 0.25 -0.15625 0.253906 -0.128906 0.265625 -0.109375 C 0.273438 -0.0976562 0.296875 -0.09375 0.328125 -0.09375 C 0.335938 -0.09375 0.351562 -0.0976562 0.375 -0.109375 L 0.375 -0.015625 C 0.332031 0.00390625 0.285156 0.015625 0.234375 0.015625 Z M 0.234375 0.015625 "/></g></g><g transform="translate(16.332717, 25.824526)"><g><path d="M 0.609375 -0.1875 C 0.609375 -0.125 0.582031 -0.0703125 0.53125 -0.03125 C 0.476562 0 0.410156 0.015625 0.328125 0.015625 C 0.242188 0.015625 0.175781 0.00390625 0.125 -0.015625 C 0.0820312 -0.046875 0.0546875 -0.09375 0.046875 -0.15625 L 0.1875 -0.171875 C 0.1875 -0.140625 0.195312 -0.117188 0.21875 -0.109375 C 0.238281 -0.0976562 0.273438 -0.09375 0.328125 -0.09375 C 0.367188 -0.09375 0.398438 -0.0976562 0.421875 -0.109375 C 0.441406 -0.117188 0.453125 -0.140625 0.453125 -0.171875 C 0.453125 -0.191406 0.441406 -0.207031 0.421875 -0.21875 C 0.410156 -0.226562 0.382812 -0.238281 0.34375 -0.25 C 0.25 -0.257812 0.1875 -0.269531 0.15625 -0.28125 C 0.125 -0.300781 0.0976562 -0.320312 0.078125 -0.34375 C 0.0664062 -0.375 0.0625 -0.40625 0.0625 -0.4375 C 0.0625 -0.5 0.0820312 -0.546875 0.125 -0.578125 C 0.175781 -0.609375 0.242188 -0.625 0.328125 -0.625 C 0.398438 -0.625 0.457031 -0.609375 0.5 -0.578125 C 0.550781 -0.554688 0.582031 -0.519531 0.59375 -0.46875 L 0.453125 -0.453125 C 0.441406 -0.472656 0.425781 -0.488281 0.40625 -0.5 C 0.394531 -0.519531 0.367188 -0.53125 0.328125 -0.53125 C 0.285156 -0.53125 0.253906 -0.523438 0.234375 -0.515625 C 0.222656 -0.503906 0.21875 -0.484375 0.21875 -0.453125 C 0.21875 -0.441406 0.222656 -0.429688 0.234375 -0.421875 C 0.242188 -0.410156 0.269531 -0.398438 0.3125 -0.390625 C 0.351562 -0.378906 0.394531 -0.367188 0.4375 -0.359375 C 0.476562 -0.347656 0.507812 -0.332031 0.53125 -0.3125 C 0.550781 -0.300781 0.566406 -0.285156 0.578125 -0.265625 C 0.597656 -0.242188 0.609375 -0.21875 0.609375 -0.1875 Z M 0.609375 -0.1875 "/></g></g><g transform="translate(16.982442, 25.824526)"><g/></g><g transform="translate(17.30702, 25.824526)"><g><path d="M 0.640625 0 L 0.578125 -0.203125 L 0.265625 -0.203125 L 0.203125 0 L 0.03125 0 L 0.328125 -0.8125 L 0.515625 -0.8125 L 0.8125 0 Z M 0.421875 -0.6875 L 0.421875 -0.671875 C 0.410156 -0.660156 0.398438 -0.644531 0.390625 -0.625 C 0.390625 -0.601562 0.363281 -0.503906 0.3125 -0.328125 L 0.53125 -0.328125 L 0.453125 -0.5625 L 0.4375 -0.640625 Z M 0.421875 -0.6875 "/></g></g><g transform="translate(18.150694, 25.824526)"><g><path d="M 0.078125 0 L 0.078125 -0.46875 C 0.078125 -0.507812 0.078125 -0.539062 0.078125 -0.5625 C 0.078125 -0.582031 0.078125 -0.601562 0.078125 -0.625 L 0.234375 -0.625 C 0.234375 -0.613281 0.234375 -0.585938 0.234375 -0.546875 C 0.234375 -0.515625 0.234375 -0.492188 0.234375 -0.484375 C 0.253906 -0.523438 0.269531 -0.554688 0.28125 -0.578125 C 0.289062 -0.597656 0.300781 -0.609375 0.3125 -0.609375 C 0.332031 -0.617188 0.359375 -0.625 0.390625 -0.625 C 0.410156 -0.625 0.425781 -0.625 0.4375 -0.625 L 0.4375 -0.484375 C 0.414062 -0.492188 0.394531 -0.5 0.375 -0.5 C 0.332031 -0.5 0.300781 -0.484375 0.28125 -0.453125 C 0.257812 -0.421875 0.25 -0.367188 0.25 -0.296875 L 0.25 0 Z M 0.078125 0 "/></g></g><g transform="translate(18.605331, 25.824526)"><g><path d="M 0.234375 0.015625 C 0.191406 0.015625 0.15625 0.00390625 0.125 -0.015625 C 0.101562 -0.046875 0.09375 -0.0859375 0.09375 -0.140625 L 0.09375 -0.515625 L 0.015625 -0.515625 L 0.015625 -0.625 L 0.09375 -0.625 L 0.15625 -0.765625 L 0.25 -0.765625 L 0.25 -0.625 L 0.375 -0.625 L 0.375 -0.515625 L 0.25 -0.515625 L 0.25 -0.1875 C 0.25 -0.15625 0.253906 -0.128906 0.265625 -0.109375 C 0.273438 -0.0976562 0.296875 -0.09375 0.328125 -0.09375 C 0.335938 -0.09375 0.351562 -0.0976562 0.375 -0.109375 L 0.375 -0.015625 C 0.332031 0.00390625 0.285156 0.015625 0.234375 0.015625 Z M 0.234375 0.015625 "/></g></g><g transform="translate(18.994368, 25.824526)"><g><path d="M 0.078125 -0.734375 L 0.078125 -0.84375 L 0.25 -0.84375 L 0.25 -0.734375 Z M 0.078125 0 L 0.078125 -0.625 L 0.25 -0.625 L 0.25 0 Z M 0.078125 0 "/></g></g><g transform="translate(19.318946, 25.824526)"><g><path d="M 0.265625 -0.515625 L 0.265625 0 L 0.109375 0 L 0.109375 -0.515625 L 0.015625 -0.515625 L 0.015625 -0.625 L 0.109375 -0.625 L 0.109375 -0.6875 C 0.109375 -0.738281 0.125 -0.773438 0.15625 -0.796875 C 0.1875 -0.828125 0.234375 -0.84375 0.296875 -0.84375 C 0.316406 -0.84375 0.347656 -0.84375 0.390625 -0.84375 L 0.390625 -0.734375 C 0.378906 -0.734375 0.363281 -0.734375 0.34375 -0.734375 C 0.3125 -0.734375 0.289062 -0.726562 0.28125 -0.71875 C 0.269531 -0.707031 0.265625 -0.691406 0.265625 -0.671875 L 0.265625 -0.625 L 0.390625 -0.625 L 0.390625 -0.515625 Z M 0.265625 -0.515625 "/></g></g><g transform="translate(19.707983, 25.824526)"><g><path d="M 0.078125 -0.734375 L 0.078125 -0.84375 L 0.25 -0.84375 L 0.25 -0.734375 Z M 0.078125 0 L 0.078125 -0.625 L 0.25 -0.625 L 0.25 0 Z M 0.078125 0 "/></g></g><g transform="translate(20.03256, 25.824526)"><g><path d="M 0.34375 0.015625 C 0.25 0.015625 0.175781 -0.0078125 0.125 -0.0625 C 0.0703125 -0.125 0.046875 -0.207031 0.046875 -0.3125 C 0.046875 -0.40625 0.0703125 -0.476562 0.125 -0.53125 C 0.175781 -0.59375 0.25 -0.625 0.34375 -0.625 C 0.414062 -0.625 0.472656 -0.601562 0.515625 -0.5625 C 0.566406 -0.53125 0.597656 -0.484375 0.609375 -0.421875 L 0.453125 -0.421875 C 0.441406 -0.453125 0.425781 -0.472656 0.40625 -0.484375 C 0.394531 -0.503906 0.375 -0.515625 0.34375 -0.515625 C 0.257812 -0.515625 0.21875 -0.445312 0.21875 -0.3125 C 0.21875 -0.164062 0.257812 -0.09375 0.34375 -0.09375 C 0.375 -0.09375 0.398438 -0.101562 0.421875 -0.125 C 0.441406 -0.144531 0.453125 -0.175781 0.453125 -0.21875 L 0.625 -0.203125 C 0.613281 -0.160156 0.59375 -0.125 0.5625 -0.09375 C 0.539062 -0.0625 0.507812 -0.0351562 0.46875 -0.015625 C 0.4375 0.00390625 0.394531 0.015625 0.34375 0.015625 Z M 0.34375 0.015625 "/></g></g><g transform="translate(20.682286, 25.824526)"><g><path d="M 0.078125 -0.734375 L 0.078125 -0.84375 L 0.25 -0.84375 L 0.25 -0.734375 Z M 0.078125 0 L 0.078125 -0.625 L 0.25 -0.625 L 0.25 0 Z M 0.078125 0 "/></g></g><g transform="translate(21.006864, 25.824526)"><g><path d="M 0.21875 0.015625 C 0.164062 0.015625 0.117188 0 0.078125 -0.03125 C 0.046875 -0.0703125 0.03125 -0.117188 0.03125 -0.171875 C 0.03125 -0.234375 0.0507812 -0.28125 0.09375 -0.3125 C 0.132812 -0.351562 0.195312 -0.375 0.28125 -0.375 L 0.40625 -0.375 L 0.40625 -0.40625 C 0.40625 -0.445312 0.398438 -0.476562 0.390625 -0.5 C 0.378906 -0.519531 0.359375 -0.53125 0.328125 -0.53125 C 0.296875 -0.53125 0.269531 -0.519531 0.25 -0.5 C 0.238281 -0.488281 0.234375 -0.46875 0.234375 -0.4375 L 0.0625 -0.453125 C 0.0703125 -0.503906 0.0976562 -0.546875 0.140625 -0.578125 C 0.191406 -0.609375 0.253906 -0.625 0.328125 -0.625 C 0.410156 -0.625 0.472656 -0.601562 0.515625 -0.5625 C 0.554688 -0.53125 0.578125 -0.476562 0.578125 -0.40625 L 0.578125 -0.1875 C 0.578125 -0.144531 0.578125 -0.117188 0.578125 -0.109375 C 0.585938 -0.0976562 0.601562 -0.09375 0.625 -0.09375 C 0.632812 -0.09375 0.644531 -0.09375 0.65625 -0.09375 L 0.65625 -0.015625 C 0.644531 -0.00390625 0.632812 0 0.625 0 C 0.625 0 0.617188 0 0.609375 0 C 0.597656 0 0.585938 0 0.578125 0 C 0.578125 0 0.570312 0 0.5625 0 C 0.519531 0 0.488281 -0.00390625 0.46875 -0.015625 C 0.445312 -0.0351562 0.4375 -0.0664062 0.4375 -0.109375 L 0.421875 -0.109375 C 0.378906 -0.0234375 0.3125 0.015625 0.21875 0.015625 Z M 0.40625 -0.28125 L 0.328125 -0.28125 C 0.296875 -0.28125 0.269531 -0.273438 0.25 -0.265625 C 0.238281 -0.265625 0.226562 -0.253906 0.21875 -0.234375 C 0.207031 -0.222656 0.203125 -0.207031 0.203125 -0.1875 C 0.203125 -0.15625 0.207031 -0.128906 0.21875 -0.109375 C 0.238281 -0.0976562 0.257812 -0.09375 0.28125 -0.09375 C 0.300781 -0.09375 0.320312 -0.0976562 0.34375 -0.109375 C 0.363281 -0.128906 0.378906 -0.148438 0.390625 -0.171875 C 0.398438 -0.203125 0.40625 -0.226562 0.40625 -0.25 Z M 0.40625 -0.28125 "/></g></g><g transform="translate(21.65659, 25.824526)"><g><path d="M 0.078125 0 L 0.078125 -0.84375 L 0.25 -0.84375 L 0.25 0 Z M 0.078125 0 "/></g></g></g><g fill="#000000" fill-opacity="1"><g transform="translate(13.671065, 26.992778)"><g><path d="M 0.078125 0 L 0.078125 -0.8125 L 0.25 -0.8125 L 0.25 -0.125 L 0.6875 -0.125 L 0.6875 0 Z M 0.078125 0 "/></g></g><g transform="translate(14.38468, 26.992778)"><g><path d="M 0.328125 0.015625 C 0.242188 0.015625 0.175781 -0.0078125 0.125 -0.0625 C 0.0703125 -0.125 0.046875 -0.207031 0.046875 -0.3125 C 0.046875 -0.414062 0.0703125 -0.492188 0.125 -0.546875 C 0.175781 -0.597656 0.25 -0.625 0.34375 -0.625 C 0.425781 -0.625 0.488281 -0.59375 0.53125 -0.53125 C 0.582031 -0.476562 0.609375 -0.394531 0.609375 -0.28125 L 0.21875 -0.28125 C 0.21875 -0.21875 0.226562 -0.171875 0.25 -0.140625 C 0.269531 -0.109375 0.300781 -0.09375 0.34375 -0.09375 C 0.394531 -0.09375 0.429688 -0.117188 0.453125 -0.171875 L 0.609375 -0.15625 C 0.554688 -0.0390625 0.460938 0.015625 0.328125 0.015625 Z M 0.328125 -0.53125 C 0.296875 -0.53125 0.269531 -0.515625 0.25 -0.484375 C 0.226562 -0.460938 0.21875 -0.425781 0.21875 -0.375 L 0.453125 -0.375 C 0.453125 -0.425781 0.441406 -0.460938 0.421875 -0.484375 C 0.398438 -0.515625 0.367188 -0.53125 0.328125 -0.53125 Z M 0.328125 -0.53125 "/></g></g><g transform="translate(15.034406, 26.992778)"><g><path d="M 0.21875 0.015625 C 0.164062 0.015625 0.117188 0 0.078125 -0.03125 C 0.046875 -0.0703125 0.03125 -0.117188 0.03125 -0.171875 C 0.03125 -0.234375 0.0507812 -0.28125 0.09375 -0.3125 C 0.132812 -0.351562 0.195312 -0.375 0.28125 -0.375 L 0.40625 -0.375 L 0.40625 -0.40625 C 0.40625 -0.445312 0.398438 -0.476562 0.390625 -0.5 C 0.378906 -0.519531 0.359375 -0.53125 0.328125 -0.53125 C 0.296875 -0.53125 0.269531 -0.519531 0.25 -0.5 C 0.238281 -0.488281 0.234375 -0.46875 0.234375 -0.4375 L 0.0625 -0.453125 C 0.0703125 -0.503906 0.0976562 -0.546875 0.140625 -0.578125 C 0.191406 -0.609375 0.253906 -0.625 0.328125 -0.625 C 0.410156 -0.625 0.472656 -0.601562 0.515625 -0.5625 C 0.554688 -0.53125 0.578125 -0.476562 0.578125 -0.40625 L 0.578125 -0.1875 C 0.578125 -0.144531 0.578125 -0.117188 0.578125 -0.109375 C 0.585938 -0.0976562 0.601562 -0.09375 0.625 -0.09375 C 0.632812 -0.09375 0.644531 -0.09375 0.65625 -0.09375 L 0.65625 -0.015625 C 0.644531 -0.00390625 0.632812 0 0.625 0 C 0.625 0 0.617188 0 0.609375 0 C 0.597656 0 0.585938 0 0.578125 0 C 0.578125 0 0.570312 0 0.5625 0 C 0.519531 0 0.488281 -0.00390625 0.46875 -0.015625 C 0.445312 -0.0351562 0.4375 -0.0664062 0.4375 -0.109375 L 0.421875 -0.109375 C 0.378906 -0.0234375 0.3125 0.015625 0.21875 0.015625 Z M 0.40625 -0.28125 L 0.328125 -0.28125 C 0.296875 -0.28125 0.269531 -0.273438 0.25 -0.265625 C 0.238281 -0.265625 0.226562 -0.253906 0.21875 -0.234375 C 0.207031 -0.222656 0.203125 -0.207031 0.203125 -0.1875 C 0.203125 -0.15625 0.207031 -0.128906 0.21875 -0.109375 C 0.238281 -0.0976562 0.257812 -0.09375 0.28125 -0.09375 C 0.300781 -0.09375 0.320312 -0.0976562 0.34375 -0.109375 C 0.363281 -0.128906 0.378906 -0.148438 0.390625 -0.171875 C 0.398438 -0.203125 0.40625 -0.226562 0.40625 -0.25 Z M 0.40625 -0.28125 "/></g></g><g transform="translate(15.684132, 26.992778)"><g><path d="M 0.078125 0 L 0.078125 -0.46875 C 0.078125 -0.507812 0.078125 -0.539062 0.078125 -0.5625 C 0.078125 -0.582031 0.078125 -0.601562 0.078125 -0.625 L 0.234375 -0.625 C 0.234375 -0.613281 0.234375 -0.585938 0.234375 -0.546875 C 0.234375 -0.515625 0.234375 -0.492188 0.234375 -0.484375 C 0.253906 -0.523438 0.269531 -0.554688 0.28125 -0.578125 C 0.289062 -0.597656 0.300781 -0.609375 0.3125 -0.609375 C 0.332031 -0.617188 0.359375 -0.625 0.390625 -0.625 C 0.410156 -0.625 0.425781 -0.625 0.4375 -0.625 L 0.4375 -0.484375 C 0.414062 -0.492188 0.394531 -0.5 0.375 -0.5 C 0.332031 -0.5 0.300781 -0.484375 0.28125 -0.453125 C 0.257812 -0.421875 0.25 -0.367188 0.25 -0.296875 L 0.25 0 Z M 0.078125 0 "/></g></g><g transform="translate(16.138769, 26.992778)"><g><path d="M 0.484375 0 L 0.484375 -0.34375 C 0.484375 -0.457031 0.445312 -0.515625 0.375 -0.515625 C 0.332031 -0.515625 0.300781 -0.492188 0.28125 -0.453125 C 0.257812 -0.421875 0.25 -0.378906 0.25 -0.328125 L 0.25 0 L 0.078125 0 L 0.078125 -0.484375 C 0.078125 -0.515625 0.078125 -0.539062 0.078125 -0.5625 C 0.078125 -0.582031 0.078125 -0.601562 0.078125 -0.625 L 0.234375 -0.625 C 0.234375 -0.613281 0.234375 -0.59375 0.234375 -0.5625 C 0.234375 -0.53125 0.234375 -0.507812 0.234375 -0.5 C 0.253906 -0.539062 0.28125 -0.570312 0.3125 -0.59375 C 0.351562 -0.613281 0.394531 -0.625 0.4375 -0.625 C 0.5 -0.625 0.546875 -0.601562 0.578125 -0.5625 C 0.617188 -0.53125 0.640625 -0.472656 0.640625 -0.390625 L 0.640625 0 Z M 0.484375 0 "/></g></g><g transform="translate(16.852383, 26.992778)"><g><path d="M 0.078125 -0.734375 L 0.078125 -0.84375 L 0.25 -0.84375 L 0.25 -0.734375 Z M 0.078125 0 L 0.078125 -0.625 L 0.25 -0.625 L 0.25 0 Z M 0.078125 0 "/></g></g><g transform="translate(17.176961, 26.992778)"><g><path d="M 0.484375 0 L 0.484375 -0.34375 C 0.484375 -0.457031 0.445312 -0.515625 0.375 -0.515625 C 0.332031 -0.515625 0.300781 -0.492188 0.28125 -0.453125 C 0.257812 -0.421875 0.25 -0.378906 0.25 -0.328125 L 0.25 0 L 0.078125 0 L 0.078125 -0.484375 C 0.078125 -0.515625 0.078125 -0.539062 0.078125 -0.5625 C 0.078125 -0.582031 0.078125 -0.601562 0.078125 -0.625 L 0.234375 -0.625 C 0.234375 -0.613281 0.234375 -0.59375 0.234375 -0.5625 C 0.234375 -0.53125 0.234375 -0.507812 0.234375 -0.5 C 0.253906 -0.539062 0.28125 -0.570312 0.3125 -0.59375 C 0.351562 -0.613281 0.394531 -0.625 0.4375 -0.625 C 0.5 -0.625 0.546875 -0.601562 0.578125 -0.5625 C 0.617188 -0.53125 0.640625 -0.472656 0.640625 -0.390625 L 0.640625 0 Z M 0.484375 0 "/></g></g><g transform="translate(17.890575, 26.992778)"><g><path d="M 0.34375 0.25 C 0.269531 0.25 0.207031 0.234375 0.15625 0.203125 C 0.113281 0.171875 0.0859375 0.128906 0.078125 0.078125 L 0.234375 0.0625 C 0.242188 0.0820312 0.253906 0.0976562 0.265625 0.109375 C 0.285156 0.128906 0.3125 0.140625 0.34375 0.140625 C 0.382812 0.140625 0.414062 0.125 0.4375 0.09375 C 0.457031 0.0703125 0.46875 0.0351562 0.46875 -0.015625 L 0.46875 -0.109375 C 0.4375 -0.0351562 0.375 0 0.28125 0 C 0.207031 0 0.148438 -0.0234375 0.109375 -0.078125 C 0.0664062 -0.128906 0.046875 -0.207031 0.046875 -0.3125 C 0.046875 -0.414062 0.0664062 -0.492188 0.109375 -0.546875 C 0.148438 -0.597656 0.207031 -0.625 0.28125 -0.625 C 0.375 -0.625 0.4375 -0.585938 0.46875 -0.515625 L 0.484375 -0.515625 C 0.484375 -0.535156 0.484375 -0.554688 0.484375 -0.578125 C 0.484375 -0.597656 0.484375 -0.613281 0.484375 -0.625 L 0.640625 -0.625 C 0.640625 -0.582031 0.640625 -0.53125 0.640625 -0.46875 L 0.640625 -0.015625 C 0.640625 0.0664062 0.613281 0.128906 0.5625 0.171875 C 0.507812 0.222656 0.4375 0.25 0.34375 0.25 Z M 0.46875 -0.3125 C 0.46875 -0.375 0.457031 -0.421875 0.4375 -0.453125 C 0.414062 -0.492188 0.382812 -0.515625 0.34375 -0.515625 C 0.257812 -0.515625 0.21875 -0.445312 0.21875 -0.3125 C 0.21875 -0.175781 0.257812 -0.109375 0.34375 -0.109375 C 0.382812 -0.109375 0.414062 -0.125 0.4375 -0.15625 C 0.457031 -0.195312 0.46875 -0.25 0.46875 -0.3125 Z M 0.46875 -0.3125 "/></g></g><g transform="translate(18.60419, 26.992778)"><g/></g><g transform="translate(18.928768, 26.992778)"><g><path d="M 0.078125 -0.734375 L 0.078125 -0.84375 L 0.25 -0.84375 L 0.25 -0.734375 Z M 0.078125 0 L 0.078125 -0.625 L 0.25 -0.625 L 0.25 0 Z M 0.078125 0 "/></g></g><g transform="translate(19.253346, 26.992778)"><g><path d="M 0.484375 0 L 0.484375 -0.34375 C 0.484375 -0.457031 0.445312 -0.515625 0.375 -0.515625 C 0.332031 -0.515625 0.300781 -0.492188 0.28125 -0.453125 C 0.257812 -0.421875 0.25 -0.378906 0.25 -0.328125 L 0.25 0 L 0.078125 0 L 0.078125 -0.484375 C 0.078125 -0.515625 0.078125 -0.539062 0.078125 -0.5625 C 0.078125 -0.582031 0.078125 -0.601562 0.078125 -0.625 L 0.234375 -0.625 C 0.234375 -0.613281 0.234375 -0.59375 0.234375 -0.5625 C 0.234375 -0.53125 0.234375 -0.507812 0.234375 -0.5 C 0.253906 -0.539062 0.28125 -0.570312 0.3125 -0.59375 C 0.351562 -0.613281 0.394531 -0.625 0.4375 -0.625 C 0.5 -0.625 0.546875 -0.601562 0.578125 -0.5625 C 0.617188 -0.53125 0.640625 -0.472656 0.640625 -0.390625 L 0.640625 0 Z M 0.484375 0 "/></g></g><g transform="translate(19.96696, 26.992778)"><g><path d="M 0.234375 0.015625 C 0.191406 0.015625 0.15625 0.00390625 0.125 -0.015625 C 0.101562 -0.046875 0.09375 -0.0859375 0.09375 -0.140625 L 0.09375 -0.515625 L 0.015625 -0.515625 L 0.015625 -0.625 L 0.09375 -0.625 L 0.15625 -0.765625 L 0.25 -0.765625 L 0.25 -0.625 L 0.375 -0.625 L 0.375 -0.515625 L 0.25 -0.515625 L 0.25 -0.1875 C 0.25 -0.15625 0.253906 -0.128906 0.265625 -0.109375 C 0.273438 -0.0976562 0.296875 -0.09375 0.328125 -0.09375 C 0.335938 -0.09375 0.351562 -0.0976562 0.375 -0.109375 L 0.375 -0.015625 C 0.332031 0.00390625 0.285156 0.015625 0.234375 0.015625 Z M 0.234375 0.015625 "/></g></g><g transform="translate(20.355997, 26.992778)"><g><path d="M 0.328125 0.015625 C 0.242188 0.015625 0.175781 -0.0078125 0.125 -0.0625 C 0.0703125 -0.125 0.046875 -0.207031 0.046875 -0.3125 C 0.046875 -0.414062 0.0703125 -0.492188 0.125 -0.546875 C 0.175781 -0.597656 0.25 -0.625 0.34375 -0.625 C 0.425781 -0.625 0.488281 -0.59375 0.53125 -0.53125 C 0.582031 -0.476562 0.609375 -0.394531 0.609375 -0.28125 L 0.21875 -0.28125 C 0.21875 -0.21875 0.226562 -0.171875 0.25 -0.140625 C 0.269531 -0.109375 0.300781 -0.09375 0.34375 -0.09375 C 0.394531 -0.09375 0.429688 -0.117188 0.453125 -0.171875 L 0.609375 -0.15625 C 0.554688 -0.0390625 0.460938 0.015625 0.328125 0.015625 Z M 0.328125 -0.53125 C 0.296875 -0.53125 0.269531 -0.515625 0.25 -0.484375 C 0.226562 -0.460938 0.21875 -0.425781 0.21875 -0.375 L 0.453125 -0.375 C 0.453125 -0.425781 0.441406 -0.460938 0.421875 -0.484375 C 0.398438 -0.515625 0.367188 -0.53125 0.328125 -0.53125 Z M 0.328125 -0.53125 "/></g></g><g transform="translate(21.005723, 26.992778)"><g><path d="M 0.078125 0 L 0.078125 -0.84375 L 0.25 -0.84375 L 0.25 0 Z M 0.078125 0 "/></g></g><g transform="translate(21.330301, 26.992778)"><g><path d="M 0.078125 0 L 0.078125 -0.84375 L 0.25 -0.84375 L 0.25 0 Z M 0.078125 0 "/></g></g><g transform="translate(21.654878, 26.992778)"><g><path d="M 0.078125 -0.734375 L 0.078125 -0.84375 L 0.25 -0.84375 L 0.25 -0.734375 Z M 0.078125 0 L 0.078125 -0.625 L 0.25 -0.625 L 0.25 0 Z M 0.078125 0 "/></g></g><g transform="translate(21.979456, 26.992778)"><g><path d="M 0.34375 0.25 C 0.269531 0.25 0.207031 0.234375 0.15625 0.203125 C 0.113281 0.171875 0.0859375 0.128906 0.078125 0.078125 L 0.234375 0.0625 C 0.242188 0.0820312 0.253906 0.0976562 0.265625 0.109375 C 0.285156 0.128906 0.3125 0.140625 0.34375 0.140625 C 0.382812 0.140625 0.414062 0.125 0.4375 0.09375 C 0.457031 0.0703125 0.46875 0.0351562 0.46875 -0.015625 L 0.46875 -0.109375 C 0.4375 -0.0351562 0.375 0 0.28125 0 C 0.207031 0 0.148438 -0.0234375 0.109375 -0.078125 C 0.0664062 -0.128906 0.046875 -0.207031 0.046875 -0.3125 C 0.046875 -0.414062 0.0664062 -0.492188 0.109375 -0.546875 C 0.148438 -0.597656 0.207031 -0.625 0.28125 -0.625 C 0.375 -0.625 0.4375 -0.585938 0.46875 -0.515625 L 0.484375 -0.515625 C 0.484375 -0.535156 0.484375 -0.554688 0.484375 -0.578125 C 0.484375 -0.597656 0.484375 -0.613281 0.484375 -0.625 L 0.640625 -0.625 C 0.640625 -0.582031 0.640625 -0.53125 0.640625 -0.46875 L 0.640625 -0.015625 C 0.640625 0.0664062 0.613281 0.128906 0.5625 0.171875 C 0.507812 0.222656 0.4375 0.25 0.34375 0.25 Z M 0.46875 -0.3125 C 0.46875 -0.375 0.457031 -0.421875 0.4375 -0.453125 C 0.414062 -0.492188 0.382812 -0.515625 0.34375 -0.515625 C 0.257812 -0.515625 0.21875 -0.445312 0.21875 -0.3125 C 0.21875 -0.175781 0.257812 -0.109375 0.34375 -0.109375 C 0.382812 -0.109375 0.414062 -0.125 0.4375 -0.15625 C 0.457031 -0.195312 0.46875 -0.25 0.46875 -0.3125 Z M 0.46875 -0.3125 "/></g></g><g transform="translate(22.693071, 26.992778)"><g><path d="M 0.328125 0.015625 C 0.242188 0.015625 0.175781 -0.0078125 0.125 -0.0625 C 0.0703125 -0.125 0.046875 -0.207031 0.046875 -0.3125 C 0.046875 -0.414062 0.0703125 -0.492188 0.125 -0.546875 C 0.175781 -0.597656 0.25 -0.625 0.34375 -0.625 C 0.425781 -0.625 0.488281 -0.59375 0.53125 -0.53125 C 0.582031 -0.476562 0.609375 -0.394531 0.609375 -0.28125 L 0.21875 -0.28125 C 0.21875 -0.21875 0.226562 -0.171875 0.25 -0.140625 C 0.269531 -0.109375 0.300781 -0.09375 0.34375 -0.09375 C 0.394531 -0.09375 0.429688 -0.117188 0.453125 -0.171875 L 0.609375 -0.15625 C 0.554688 -0.0390625 0.460938 0.015625 0.328125 0.015625 Z M 0.328125 -0.53125 C 0.296875 -0.53125 0.269531 -0.515625 0.25 -0.484375 C 0.226562 -0.460938 0.21875 -0.425781 0.21875 -0.375 L 0.453125 -0.375 C 0.453125 -0.425781 0.441406 -0.460938 0.421875 -0.484375 C 0.398438 -0.515625 0.367188 -0.53125 0.328125 -0.53125 Z M 0.328125 -0.53125 "/></g></g><g transform="translate(23.342797, 26.992778)"><g><path d="M 0.484375 0 L 0.484375 -0.34375 C 0.484375 -0.457031 0.445312 -0.515625 0.375 -0.515625 C 0.332031 -0.515625 0.300781 -0.492188 0.28125 -0.453125 C 0.257812 -0.421875 0.25 -0.378906 0.25 -0.328125 L 0.25 0 L 0.078125 0 L 0.078125 -0.484375 C 0.078125 -0.515625 0.078125 -0.539062 0.078125 -0.5625 C 0.078125 -0.582031 0.078125 -0.601562 0.078125 -0.625 L 0.234375 -0.625 C 0.234375 -0.613281 0.234375 -0.59375 0.234375 -0.5625 C 0.234375 -0.53125 0.234375 -0.507812 0.234375 -0.5 C 0.253906 -0.539062 0.28125 -0.570312 0.3125 -0.59375 C 0.351562 -0.613281 0.394531 -0.625 0.4375 -0.625 C 0.5 -0.625 0.546875 -0.601562 0.578125 -0.5625 C 0.617188 -0.53125 0.640625 -0.472656 0.640625 -0.390625 L 0.640625 0 Z M 0.484375 0 "/></g></g><g transform="translate(24.056411, 26.992778)"><g><path d="M 0.34375 0.015625 C 0.25 0.015625 0.175781 -0.0078125 0.125 -0.0625 C 0.0703125 -0.125 0.046875 -0.207031 0.046875 -0.3125 C 0.046875 -0.40625 0.0703125 -0.476562 0.125 -0.53125 C 0.175781 -0.59375 0.25 -0.625 0.34375 -0.625 C 0.414062 -0.625 0.472656 -0.601562 0.515625 -0.5625 C 0.566406 -0.53125 0.597656 -0.484375 0.609375 -0.421875 L 0.453125 -0.421875 C 0.441406 -0.453125 0.425781 -0.472656 0.40625 -0.484375 C 0.394531 -0.503906 0.375 -0.515625 0.34375 -0.515625 C 0.257812 -0.515625 0.21875 -0.445312 0.21875 -0.3125 C 0.21875 -0.164062 0.257812 -0.09375 0.34375 -0.09375 C 0.375 -0.09375 0.398438 -0.101562 0.421875 -0.125 C 0.441406 -0.144531 0.453125 -0.175781 0.453125 -0.21875 L 0.625 -0.203125 C 0.613281 -0.160156 0.59375 -0.125 0.5625 -0.09375 C 0.539062 -0.0625 0.507812 -0.0351562 0.46875 -0.015625 C 0.4375 0.00390625 0.394531 0.015625 0.34375 0.015625 Z M 0.34375 0.015625 "/></g></g><g transform="translate(24.706137, 26.992778)"><g><path d="M 0.328125 0.015625 C 0.242188 0.015625 0.175781 -0.0078125 0.125 -0.0625 C 0.0703125 -0.125 0.046875 -0.207031 0.046875 -0.3125 C 0.046875 -0.414062 0.0703125 -0.492188 0.125 -0.546875 C 0.175781 -0.597656 0.25 -0.625 0.34375 -0.625 C 0.425781 -0.625 0.488281 -0.59375 0.53125 -0.53125 C 0.582031 -0.476562 0.609375 -0.394531 0.609375 -0.28125 L 0.21875 -0.28125 C 0.21875 -0.21875 0.226562 -0.171875 0.25 -0.140625 C 0.269531 -0.109375 0.300781 -0.09375 0.34375 -0.09375 C 0.394531 -0.09375 0.429688 -0.117188 0.453125 -0.171875 L 0.609375 -0.15625 C 0.554688 -0.0390625 0.460938 0.015625 0.328125 0.015625 Z M 0.328125 -0.53125 C 0.296875 -0.53125 0.269531 -0.515625 0.25 -0.484375 C 0.226562 -0.460938 0.21875 -0.425781 0.21875 -0.375 L 0.453125 -0.375 C 0.453125 -0.425781 0.441406 -0.460938 0.421875 -0.484375 C 0.398438 -0.515625 0.367188 -0.53125 0.328125 -0.53125 Z M 0.328125 -0.53125 "/></g></g></g><g fill="#ffffff" fill-opacity="1"><g transform="translate(48.637796, 14.955265)"><g><path d="M 2.15625 -4.484375 C 2.8125 -4.484375 3.394531 -4.320312 3.90625 -4 L 3.46875 -3.109375 C 3.238281 -3.242188 2.988281 -3.351562 2.71875 -3.4375 C 2.457031 -3.53125 2.238281 -3.578125 2.0625 -3.578125 C 1.726562 -3.578125 1.5625 -3.46875 1.5625 -3.25 C 1.5625 -3.113281 1.640625 -3.003906 1.796875 -2.921875 C 1.960938 -2.835938 2.160156 -2.765625 2.390625 -2.703125 C 2.617188 -2.640625 2.847656 -2.5625 3.078125 -2.46875 C 3.316406 -2.382812 3.515625 -2.242188 3.671875 -2.046875 C 3.835938 -1.859375 3.921875 -1.613281 3.921875 -1.3125 C 3.921875 -0.882812 3.75 -0.550781 3.40625 -0.3125 C 3.070312 -0.0820312 2.648438 0.03125 2.140625 0.03125 C 1.773438 0.03125 1.410156 -0.03125 1.046875 -0.15625 C 0.679688 -0.28125 0.367188 -0.453125 0.109375 -0.671875 L 0.546875 -1.546875 C 0.765625 -1.347656 1.023438 -1.1875 1.328125 -1.0625 C 1.640625 -0.9375 1.914062 -0.875 2.15625 -0.875 C 2.332031 -0.875 2.472656 -0.90625 2.578125 -0.96875 C 2.679688 -1.039062 2.734375 -1.140625 2.734375 -1.265625 C 2.734375 -1.390625 2.671875 -1.488281 2.546875 -1.5625 C 2.429688 -1.644531 2.285156 -1.707031 2.109375 -1.75 C 1.941406 -1.789062 1.753906 -1.84375 1.546875 -1.90625 C 1.347656 -1.976562 1.160156 -2.054688 0.984375 -2.140625 C 0.816406 -2.222656 0.671875 -2.347656 0.546875 -2.515625 C 0.429688 -2.691406 0.375 -2.90625 0.375 -3.15625 C 0.375 -3.5625 0.535156 -3.882812 0.859375 -4.125 C 1.179688 -4.363281 1.613281 -4.484375 2.15625 -4.484375 Z M 2.15625 -4.484375 "/></g></g></g><g fill="#ffffff" fill-opacity="1"><g transform="translate(52.726489, 14.955265)"><g><path d="M 1.921875 -3.453125 C 2.265625 -3.453125 2.566406 -3.382812 2.828125 -3.25 C 3.097656 -3.125 3.304688 -2.9375 3.453125 -2.6875 L 2.671875 -2.21875 C 2.492188 -2.445312 2.257812 -2.5625 1.96875 -2.5625 C 1.757812 -2.5625 1.585938 -2.484375 1.453125 -2.328125 C 1.316406 -2.171875 1.25 -1.960938 1.25 -1.703125 C 1.25 -1.441406 1.316406 -1.234375 1.453125 -1.078125 C 1.585938 -0.921875 1.757812 -0.84375 1.96875 -0.84375 C 2.289062 -0.84375 2.523438 -0.96875 2.671875 -1.21875 L 3.46875 -0.75 C 3.332031 -0.5 3.128906 -0.304688 2.859375 -0.171875 C 2.585938 -0.0351562 2.273438 0.03125 1.921875 0.03125 C 1.390625 0.03125 0.960938 -0.125 0.640625 -0.4375 C 0.316406 -0.757812 0.15625 -1.179688 0.15625 -1.703125 C 0.15625 -2.222656 0.316406 -2.644531 0.640625 -2.96875 C 0.972656 -3.289062 1.398438 -3.453125 1.921875 -3.453125 Z M 1.921875 -3.453125 "/></g></g><g transform="translate(56.294572, 14.955265)"><g><path d="M 2.71875 -3.46875 C 3.09375 -3.46875 3.394531 -3.347656 3.625 -3.109375 C 3.851562 -2.867188 3.96875 -2.550781 3.96875 -2.15625 L 3.96875 0 L 2.875 0 L 2.875 -1.859375 C 2.875 -2.054688 2.816406 -2.210938 2.703125 -2.328125 C 2.597656 -2.441406 2.453125 -2.5 2.265625 -2.5 C 2.054688 -2.5 1.882812 -2.421875 1.75 -2.265625 C 1.625 -2.117188 1.5625 -1.925781 1.5625 -1.6875 L 1.5625 0 L 0.46875 0 L 0.46875 -4.703125 L 1.5625 -4.703125 L 1.5625 -2.859375 C 1.800781 -3.253906 2.1875 -3.457031 2.71875 -3.46875 Z M 2.71875 -3.46875 "/></g></g></g><g fill="#ffffff" fill-opacity="1"><g transform="translate(60.599129, 14.955265)"><g><path d="M 2.03125 -3.453125 C 2.582031 -3.453125 3.03125 -3.289062 3.375 -2.96875 C 3.71875 -2.65625 3.890625 -2.234375 3.890625 -1.703125 C 3.890625 -1.179688 3.71875 -0.757812 3.375 -0.4375 C 3.03125 -0.125 2.582031 0.03125 2.03125 0.03125 C 1.46875 0.03125 1.015625 -0.125 0.671875 -0.4375 C 0.328125 -0.757812 0.15625 -1.179688 0.15625 -1.703125 C 0.15625 -2.234375 0.328125 -2.65625 0.671875 -2.96875 C 1.015625 -3.289062 1.46875 -3.453125 2.03125 -3.453125 Z M 2.03125 -2.59375 C 1.800781 -2.59375 1.613281 -2.507812 1.46875 -2.34375 C 1.320312 -2.175781 1.25 -1.960938 1.25 -1.703125 C 1.25 -1.429688 1.320312 -1.210938 1.46875 -1.046875 C 1.613281 -0.890625 1.800781 -0.8125 2.03125 -0.8125 C 2.25 -0.8125 2.425781 -0.890625 2.5625 -1.046875 C 2.707031 -1.210938 2.78125 -1.429688 2.78125 -1.703125 C 2.78125 -1.960938 2.707031 -2.175781 2.5625 -2.34375 C 2.425781 -2.507812 2.25 -2.59375 2.03125 -2.59375 Z M 2.03125 -2.59375 "/></g></g></g><g fill="#ffffff" fill-opacity="1"><g transform="translate(64.64338, 14.955265)"><g><path d="M 2.03125 -3.453125 C 2.582031 -3.453125 3.03125 -3.289062 3.375 -2.96875 C 3.71875 -2.65625 3.890625 -2.234375 3.890625 -1.703125 C 3.890625 -1.179688 3.71875 -0.757812 3.375 -0.4375 C 3.03125 -0.125 2.582031 0.03125 2.03125 0.03125 C 1.46875 0.03125 1.015625 -0.125 0.671875 -0.4375 C 0.328125 -0.757812 0.15625 -1.179688 0.15625 -1.703125 C 0.15625 -2.234375 0.328125 -2.65625 0.671875 -2.96875 C 1.015625 -3.289062 1.46875 -3.453125 2.03125 -3.453125 Z M 2.03125 -2.59375 C 1.800781 -2.59375 1.613281 -2.507812 1.46875 -2.34375 C 1.320312 -2.175781 1.25 -1.960938 1.25 -1.703125 C 1.25 -1.429688 1.320312 -1.210938 1.46875 -1.046875 C 1.613281 -0.890625 1.800781 -0.8125 2.03125 -0.8125 C 2.25 -0.8125 2.425781 -0.890625 2.5625 -1.046875 C 2.707031 -1.210938 2.78125 -1.429688 2.78125 -1.703125 C 2.78125 -1.960938 2.707031 -2.175781 2.5625 -2.34375 C 2.425781 -2.507812 2.25 -2.59375 2.03125 -2.59375 Z M 2.03125 -2.59375 "/></g></g></g><g fill="#ffffff" fill-opacity="1"><g transform="translate(68.68763, 14.955265)"><g><path d="M 1.5625 0 L 0.46875 0 L 0.46875 -4.703125 L 1.5625 -4.703125 Z M 1.5625 0 "/></g></g></g><g fill="#ffffff" fill-opacity="1"><g transform="translate(70.725628, 14.955265)"><g/></g></g><g fill="#ffffff" fill-opacity="1"><g transform="translate(72.198574, 14.955265)"><g><path d="M 2.03125 -3.453125 C 2.582031 -3.453125 3.03125 -3.289062 3.375 -2.96875 C 3.71875 -2.65625 3.890625 -2.234375 3.890625 -1.703125 C 3.890625 -1.179688 3.71875 -0.757812 3.375 -0.4375 C 3.03125 -0.125 2.582031 0.03125 2.03125 0.03125 C 1.46875 0.03125 1.015625 -0.125 0.671875 -0.4375 C 0.328125 -0.757812 0.15625 -1.179688 0.15625 -1.703125 C 0.15625 -2.234375 0.328125 -2.65625 0.671875 -2.96875 C 1.015625 -3.289062 1.46875 -3.453125 2.03125 -3.453125 Z M 2.03125 -2.59375 C 1.800781 -2.59375 1.613281 -2.507812 1.46875 -2.34375 C 1.320312 -2.175781 1.25 -1.960938 1.25 -1.703125 C 1.25 -1.429688 1.320312 -1.210938 1.46875 -1.046875 C 1.613281 -0.890625 1.800781 -0.8125 2.03125 -0.8125 C 2.25 -0.8125 2.425781 -0.890625 2.5625 -1.046875 C 2.707031 -1.210938 2.78125 -1.429688 2.78125 -1.703125 C 2.78125 -1.960938 2.707031 -2.175781 2.5625 -2.34375 C 2.425781 -2.507812 2.25 -2.59375 2.03125 -2.59375 Z M 2.03125 -2.59375 "/></g></g></g><g fill="#ffffff" fill-opacity="1"><g transform="translate(76.242825, 14.955265)"><g><path d="M 2.125 -3.890625 C 2.007812 -3.890625 1.910156 -3.859375 1.828125 -3.796875 C 1.753906 -3.734375 1.71875 -3.640625 1.71875 -3.515625 L 1.71875 -3.265625 L 2.5 -3.265625 L 2.5 -2.546875 L 1.71875 -2.546875 L 1.71875 0 L 0.640625 0 L 0.640625 -2.546875 L 0.171875 -2.546875 L 0.171875 -3.265625 L 0.640625 -3.265625 L 0.640625 -3.578125 C 0.640625 -3.953125 0.757812 -4.242188 1 -4.453125 C 1.25 -4.660156 1.566406 -4.765625 1.953125 -4.765625 C 2.316406 -4.765625 2.632812 -4.679688 2.90625 -4.515625 L 2.515625 -3.75 C 2.390625 -3.84375 2.257812 -3.890625 2.125 -3.890625 Z M 2.125 -3.890625 "/></g></g></g><g fill="#ffffff" fill-opacity="1"><g transform="translate(48.637796, 23.67699)"><g><path d="M 5.328125 0 L 4.328125 0 L 4.3125 -2.890625 L 3.25 -0.4375 L 2.515625 -0.4375 L 1.453125 -2.890625 L 1.453125 0 L 0.4375 0 L 0.4375 -4.453125 L 1.6875 -4.453125 L 2.890625 -1.796875 L 4.09375 -4.453125 L 5.328125 -4.453125 Z M 5.328125 0 "/></g></g></g><g fill="#ffffff" fill-opacity="1"><g transform="translate(54.415296, 23.67699)"><g><path d="M 1.96875 -3.46875 C 2.4375 -3.46875 2.800781 -3.359375 3.0625 -3.140625 C 3.320312 -2.921875 3.457031 -2.617188 3.46875 -2.234375 L 3.46875 0 L 2.390625 0 L 2.390625 -0.390625 C 2.171875 -0.0976562 1.820312 0.046875 1.34375 0.046875 C 0.988281 0.046875 0.703125 -0.0507812 0.484375 -0.25 C 0.273438 -0.445312 0.171875 -0.703125 0.171875 -1.015625 C 0.171875 -1.347656 0.28125 -1.601562 0.5 -1.78125 C 0.726562 -1.957031 1.054688 -2.050781 1.484375 -2.0625 L 2.390625 -2.0625 L 2.390625 -2.109375 C 2.390625 -2.273438 2.332031 -2.40625 2.21875 -2.5 C 2.101562 -2.59375 1.9375 -2.640625 1.71875 -2.640625 C 1.40625 -2.640625 1.066406 -2.546875 0.703125 -2.359375 L 0.390625 -3.078125 C 0.941406 -3.335938 1.46875 -3.46875 1.96875 -3.46875 Z M 1.6875 -0.6875 C 1.851562 -0.6875 2 -0.726562 2.125 -0.8125 C 2.257812 -0.90625 2.347656 -1.019531 2.390625 -1.15625 L 2.390625 -1.46875 L 1.6875 -1.46875 C 1.363281 -1.46875 1.203125 -1.34375 1.203125 -1.09375 C 1.203125 -0.96875 1.242188 -0.867188 1.328125 -0.796875 C 1.410156 -0.722656 1.53125 -0.6875 1.6875 -0.6875 Z M 1.6875 -0.6875 "/></g></g></g><g fill="#ffffff" fill-opacity="1"><g transform="translate(58.224635, 23.67699)"><g><path d="M 1.921875 -3.453125 C 2.265625 -3.453125 2.566406 -3.382812 2.828125 -3.25 C 3.097656 -3.125 3.304688 -2.9375 3.453125 -2.6875 L 2.671875 -2.21875 C 2.492188 -2.445312 2.257812 -2.5625 1.96875 -2.5625 C 1.757812 -2.5625 1.585938 -2.484375 1.453125 -2.328125 C 1.316406 -2.171875 1.25 -1.960938 1.25 -1.703125 C 1.25 -1.441406 1.316406 -1.234375 1.453125 -1.078125 C 1.585938 -0.921875 1.757812 -0.84375 1.96875 -0.84375 C 2.289062 -0.84375 2.523438 -0.96875 2.671875 -1.21875 L 3.46875 -0.75 C 3.332031 -0.5 3.128906 -0.304688 2.859375 -0.171875 C 2.585938 -0.0351562 2.273438 0.03125 1.921875 0.03125 C 1.390625 0.03125 0.960938 -0.125 0.640625 -0.4375 C 0.316406 -0.757812 0.15625 -1.179688 0.15625 -1.703125 C 0.15625 -2.222656 0.316406 -2.644531 0.640625 -2.96875 C 0.972656 -3.289062 1.398438 -3.453125 1.921875 -3.453125 Z M 1.921875 -3.453125 "/></g></g><g transform="translate(61.792719, 23.67699)"><g><path d="M 2.71875 -3.46875 C 3.09375 -3.46875 3.394531 -3.347656 3.625 -3.109375 C 3.851562 -2.867188 3.96875 -2.550781 3.96875 -2.15625 L 3.96875 0 L 2.875 0 L 2.875 -1.859375 C 2.875 -2.054688 2.816406 -2.210938 2.703125 -2.328125 C 2.597656 -2.441406 2.453125 -2.5 2.265625 -2.5 C 2.054688 -2.5 1.882812 -2.421875 1.75 -2.265625 C 1.625 -2.117188 1.5625 -1.925781 1.5625 -1.6875 L 1.5625 0 L 0.46875 0 L 0.46875 -4.703125 L 1.5625 -4.703125 L 1.5625 -2.859375 C 1.800781 -3.253906 2.1875 -3.457031 2.71875 -3.46875 Z M 2.71875 -3.46875 "/></g></g></g><g fill="#ffffff" fill-opacity="1"><g transform="translate(66.097276, 23.67699)"><g><path d="M 0.5625 -4.8125 C 0.675781 -4.925781 0.816406 -4.984375 0.984375 -4.984375 C 1.160156 -4.984375 1.300781 -4.925781 1.40625 -4.8125 C 1.507812 -4.707031 1.5625 -4.570312 1.5625 -4.40625 C 1.5625 -4.238281 1.507812 -4.097656 1.40625 -3.984375 C 1.300781 -3.867188 1.160156 -3.8125 0.984375 -3.8125 C 0.816406 -3.8125 0.675781 -3.867188 0.5625 -3.984375 C 0.457031 -4.097656 0.40625 -4.238281 0.40625 -4.40625 C 0.40625 -4.570312 0.457031 -4.707031 0.5625 -4.8125 Z M 1.53125 0 L 0.4375 0 L 0.4375 -3.421875 L 1.53125 -3.421875 Z M 1.53125 0 "/></g></g></g><g fill="#ffffff" fill-opacity="1"><g transform="translate(68.071785, 23.67699)"><g><path d="M 2.671875 -3.46875 C 3.046875 -3.46875 3.347656 -3.347656 3.578125 -3.109375 C 3.804688 -2.867188 3.921875 -2.550781 3.921875 -2.15625 L 3.921875 0 L 2.828125 0 L 2.828125 -1.859375 C 2.828125 -2.054688 2.773438 -2.210938 2.671875 -2.328125 C 2.566406 -2.441406 2.421875 -2.5 2.234375 -2.5 C 2.035156 -2.5 1.875 -2.4375 1.75 -2.3125 C 1.625 -2.1875 1.550781 -2.019531 1.53125 -1.8125 L 1.53125 0 L 0.4375 0 L 0.4375 -3.421875 L 1.53125 -3.421875 L 1.53125 -2.859375 C 1.769531 -3.253906 2.148438 -3.457031 2.671875 -3.46875 Z M 2.671875 -3.46875 "/></g></g></g><g fill="#ffffff" fill-opacity="1"><g transform="translate(72.344598, 23.67699)"><g><path d="M 1.9375 -3.453125 C 2.53125 -3.453125 2.972656 -3.269531 3.265625 -2.90625 C 3.566406 -2.539062 3.695312 -2.046875 3.65625 -1.421875 L 1.25 -1.421875 C 1.3125 -1.210938 1.410156 -1.050781 1.546875 -0.9375 C 1.679688 -0.832031 1.851562 -0.78125 2.0625 -0.78125 C 2.375 -0.78125 2.644531 -0.894531 2.875 -1.125 L 3.453125 -0.5625 C 3.085938 -0.164062 2.59375 0.03125 1.96875 0.03125 C 1.414062 0.03125 0.972656 -0.125 0.640625 -0.4375 C 0.316406 -0.75 0.15625 -1.171875 0.15625 -1.703125 C 0.15625 -2.234375 0.316406 -2.65625 0.640625 -2.96875 C 0.972656 -3.289062 1.40625 -3.453125 1.9375 -3.453125 Z M 1.234375 -2 L 2.609375 -2 C 2.609375 -2.207031 2.546875 -2.375 2.421875 -2.5 C 2.304688 -2.632812 2.148438 -2.703125 1.953125 -2.703125 C 1.765625 -2.703125 1.601562 -2.640625 1.46875 -2.515625 C 1.34375 -2.390625 1.265625 -2.21875 1.234375 -2 Z M 1.234375 -2 "/></g></g></g><g fill="#ffffff" fill-opacity="1"><g transform="translate(76.166635, 23.67699)"><g/></g></g><g fill="#ffffff" fill-opacity="1"><g transform="translate(77.639582, 23.67699)"><g><path d="M 1.578125 -0.9375 L 3.453125 -0.9375 L 3.453125 0 L 0.4375 0 L 0.4375 -4.4375 L 1.578125 -4.4375 Z M 1.578125 -0.9375 "/></g></g></g><g fill="#ffffff" fill-opacity="1"><g transform="translate(81.194967, 23.67699)"><g><path d="M 1.9375 -3.453125 C 2.53125 -3.453125 2.972656 -3.269531 3.265625 -2.90625 C 3.566406 -2.539062 3.695312 -2.046875 3.65625 -1.421875 L 1.25 -1.421875 C 1.3125 -1.210938 1.410156 -1.050781 1.546875 -0.9375 C 1.679688 -0.832031 1.851562 -0.78125 2.0625 -0.78125 C 2.375 -0.78125 2.644531 -0.894531 2.875 -1.125 L 3.453125 -0.5625 C 3.085938 -0.164062 2.59375 0.03125 1.96875 0.03125 C 1.414062 0.03125 0.972656 -0.125 0.640625 -0.4375 C 0.316406 -0.75 0.15625 -1.171875 0.15625 -1.703125 C 0.15625 -2.234375 0.316406 -2.65625 0.640625 -2.96875 C 0.972656 -3.289062 1.40625 -3.453125 1.9375 -3.453125 Z M 1.234375 -2 L 2.609375 -2 C 2.609375 -2.207031 2.546875 -2.375 2.421875 -2.5 C 2.304688 -2.632812 2.148438 -2.703125 1.953125 -2.703125 C 1.765625 -2.703125 1.601562 -2.640625 1.46875 -2.515625 C 1.34375 -2.390625 1.265625 -2.21875 1.234375 -2 Z M 1.234375 -2 "/></g></g></g><g fill="#ffffff" fill-opacity="1"><g transform="translate(85.017005, 23.67699)"><g><path d="M 1.96875 -3.46875 C 2.4375 -3.46875 2.800781 -3.359375 3.0625 -3.140625 C 3.320312 -2.921875 3.457031 -2.617188 3.46875 -2.234375 L 3.46875 0 L 2.390625 0 L 2.390625 -0.390625 C 2.171875 -0.0976562 1.820312 0.046875 1.34375 0.046875 C 0.988281 0.046875 0.703125 -0.0507812 0.484375 -0.25 C 0.273438 -0.445312 0.171875 -0.703125 0.171875 -1.015625 C 0.171875 -1.347656 0.28125 -1.601562 0.5 -1.78125 C 0.726562 -1.957031 1.054688 -2.050781 1.484375 -2.0625 L 2.390625 -2.0625 L 2.390625 -2.109375 C 2.390625 -2.273438 2.332031 -2.40625 2.21875 -2.5 C 2.101562 -2.59375 1.9375 -2.640625 1.71875 -2.640625 C 1.40625 -2.640625 1.066406 -2.546875 0.703125 -2.359375 L 0.390625 -3.078125 C 0.941406 -3.335938 1.46875 -3.46875 1.96875 -3.46875 Z M 1.6875 -0.6875 C 1.851562 -0.6875 2 -0.726562 2.125 -0.8125 C 2.257812 -0.90625 2.347656 -1.019531 2.390625 -1.15625 L 2.390625 -1.46875 L 1.6875 -1.46875 C 1.363281 -1.46875 1.203125 -1.34375 1.203125 -1.09375 C 1.203125 -0.96875 1.242188 -0.867188 1.328125 -0.796875 C 1.410156 -0.722656 1.53125 -0.6875 1.6875 -0.6875 Z M 1.6875 -0.6875 "/></g></g></g><g fill="#ffffff" fill-opacity="1"><g transform="translate(88.826344, 23.67699)"><g><path d="M 1.53125 -3.421875 L 1.53125 -2.84375 C 1.769531 -3.25 2.140625 -3.457031 2.640625 -3.46875 L 2.640625 -2.484375 C 2.328125 -2.515625 2.070312 -2.460938 1.875 -2.328125 C 1.675781 -2.191406 1.5625 -2 1.53125 -1.75 L 1.53125 0 L 0.4375 0 L 0.4375 -3.421875 Z M 1.53125 -3.421875 "/></g></g></g><g fill="#ffffff" fill-opacity="1"><g transform="translate(91.537327, 23.67699)"><g><path d="M 2.671875 -3.46875 C 3.046875 -3.46875 3.347656 -3.347656 3.578125 -3.109375 C 3.804688 -2.867188 3.921875 -2.550781 3.921875 -2.15625 L 3.921875 0 L 2.828125 0 L 2.828125 -1.859375 C 2.828125 -2.054688 2.773438 -2.210938 2.671875 -2.328125 C 2.566406 -2.441406 2.421875 -2.5 2.234375 -2.5 C 2.035156 -2.5 1.875 -2.4375 1.75 -2.3125 C 1.625 -2.1875 1.550781 -2.019531 1.53125 -1.8125 L 1.53125 0 L 0.4375 0 L 0.4375 -3.421875 L 1.53125 -3.421875 L 1.53125 -2.859375 C 1.769531 -3.253906 2.148438 -3.457031 2.671875 -3.46875 Z M 2.671875 -3.46875 "/></g></g></g><g fill="#ffffff" fill-opacity="1"><g transform="translate(95.810139, 23.67699)"><g><path d="M 0.5625 -4.8125 C 0.675781 -4.925781 0.816406 -4.984375 0.984375 -4.984375 C 1.160156 -4.984375 1.300781 -4.925781 1.40625 -4.8125 C 1.507812 -4.707031 1.5625 -4.570312 1.5625 -4.40625 C 1.5625 -4.238281 1.507812 -4.097656 1.40625 -3.984375 C 1.300781 -3.867188 1.160156 -3.8125 0.984375 -3.8125 C 0.816406 -3.8125 0.675781 -3.867188 0.5625 -3.984375 C 0.457031 -4.097656 0.40625 -4.238281 0.40625 -4.40625 C 0.40625 -4.570312 0.457031 -4.707031 0.5625 -4.8125 Z M 1.53125 0 L 0.4375 0 L 0.4375 -3.421875 L 1.53125 -3.421875 Z M 1.53125 0 "/></g></g></g><g fill="#ffffff" fill-opacity="1"><g transform="translate(97.784648, 23.67699)"><g><path d="M 2.671875 -3.46875 C 3.046875 -3.46875 3.347656 -3.347656 3.578125 -3.109375 C 3.804688 -2.867188 3.921875 -2.550781 3.921875 -2.15625 L 3.921875 0 L 2.828125 0 L 2.828125 -1.859375 C 2.828125 -2.054688 2.773438 -2.210938 2.671875 -2.328125 C 2.566406 -2.441406 2.421875 -2.5 2.234375 -2.5 C 2.035156 -2.5 1.875 -2.4375 1.75 -2.3125 C 1.625 -2.1875 1.550781 -2.019531 1.53125 -1.8125 L 1.53125 0 L 0.4375 0 L 0.4375 -3.421875 L 1.53125 -3.421875 L 1.53125 -2.859375 C 1.769531 -3.253906 2.148438 -3.457031 2.671875 -3.46875 Z M 2.671875 -3.46875 "/></g></g></g><g fill="#ffffff" fill-opacity="1"><g transform="translate(102.057461, 23.67699)"><g><path d="M 3.703125 -3.421875 L 3.703125 -0.3125 C 3.703125 0.164062 3.53125 0.550781 3.1875 0.84375 C 2.851562 1.132812 2.410156 1.28125 1.859375 1.28125 C 1.285156 1.28125 0.773438 1.128906 0.328125 0.828125 L 0.703125 0.078125 C 1.035156 0.304688 1.390625 0.421875 1.765625 0.421875 C 2.023438 0.421875 2.226562 0.359375 2.375 0.234375 C 2.53125 0.109375 2.609375 -0.0625 2.609375 -0.28125 L 2.609375 -0.640625 C 2.378906 -0.335938 2.050781 -0.1875 1.625 -0.1875 C 1.195312 -0.1875 0.84375 -0.335938 0.5625 -0.640625 C 0.289062 -0.941406 0.15625 -1.34375 0.15625 -1.84375 C 0.15625 -2.320312 0.285156 -2.707031 0.546875 -3 C 0.816406 -3.300781 1.171875 -3.453125 1.609375 -3.453125 C 2.046875 -3.460938 2.378906 -3.3125 2.609375 -3 L 2.609375 -3.421875 Z M 1.90625 -0.984375 C 2.113281 -0.984375 2.28125 -1.054688 2.40625 -1.203125 C 2.539062 -1.359375 2.609375 -1.5625 2.609375 -1.8125 C 2.609375 -2.0625 2.539062 -2.257812 2.40625 -2.40625 C 2.28125 -2.5625 2.113281 -2.640625 1.90625 -2.640625 C 1.6875 -2.640625 1.507812 -2.5625 1.375 -2.40625 C 1.25 -2.257812 1.1875 -2.0625 1.1875 -1.8125 C 1.1875 -1.5625 1.25 -1.359375 1.375 -1.203125 C 1.507812 -1.054688 1.6875 -0.984375 1.90625 -0.984375 Z M 1.90625 -0.984375 "/></g></g></g></svg>