<svg xmlns="http://www.w3.org/2000/svg" xmlns:xlink="http://www.w3.org/1999/xlink" width="145" zoomAndPan="magnify" viewBox="0 0 108.75 33.749998" height="45" preserveAspectRatio="xMidYMid meet" version="1.0"><defs><clipPath id="467c102eec"><path d="M 25.914062 2.824219 L 82.496094 2.824219 L 82.496094 30.371094 L 25.914062 30.371094 Z M 25.914062 2.824219 " clip-rule="nonzero"/></clipPath></defs><g clip-path="url(#467c102eec)"><path fill="#ffffff" d="M 38.335938 2.828125 L 39.953125 2.828125 L 39.953125 11.308594 L 38.335938 11.308594 Z M 25.917969 12.351562 L 25.917969 13.800781 L 28.476562 13.800781 L 28.476562 20.835938 L 30.109375 20.835938 L 30.109375 13.796875 L 32.667969 13.796875 L 32.667969 12.351562 Z M 40.386719 2.828125 L 40.386719 4.273438 L 43.148438 4.273438 L 43.148438 11.308594 L 44.765625 11.308594 L 44.765625 4.273438 L 47.527344 4.273438 L 47.527344 2.824219 Z M 32.234375 17.128906 L 34.949219 17.128906 C 34.898438 16.359375 34.390625 15.824219 33.652344 15.824219 C 32.792969 15.824219 32.375 16.335938 32.234375 17.128906 Z M 30.613281 17.785156 C 30.613281 15.980469 31.84375 14.582031 33.625 14.582031 C 35.589844 14.582031 36.640625 16.074219 36.640625 18.246094 L 32.207031 18.246094 C 32.328125 19.183594 32.851562 19.765625 33.769531 19.765625 C 34.398438 19.765625 34.769531 19.480469 34.949219 19.019531 L 36.546875 19.019531 C 36.320312 20.097656 35.351562 21.011719 33.78125 21.011719 C 31.757812 21.011719 30.613281 19.597656 30.613281 17.777344 Z M 36.941406 17.792969 C 36.941406 19.605469 38.144531 21.003906 40.074219 21.003906 C 41.707031 21.003906 42.71875 19.972656 42.828125 18.679688 L 41.265625 18.679688 C 41.15625 19.367188 40.695312 19.710938 40.035156 19.710938 C 39.046875 19.710938 38.582031 18.941406 38.582031 17.789062 C 38.582031 16.617188 39.082031 15.867188 40.058594 15.867188 C 40.328125 15.863281 40.585938 15.957031 40.792969 16.128906 C 40.996094 16.300781 41.132812 16.542969 41.175781 16.804688 L 42.761719 16.804688 C 42.546875 15.488281 41.570312 14.578125 39.984375 14.578125 C 38.128906 14.578125 36.9375 15.976562 36.9375 17.792969 Z M 44.757812 12.347656 L 43.140625 12.347656 L 43.140625 20.828125 L 44.761719 20.828125 L 44.761719 17.375 C 44.761719 16.542969 45.285156 15.976562 46 15.976562 C 46.679688 15.976562 47.0625 16.4375 47.0625 17.089844 L 47.0625 20.824219 L 48.679688 20.824219 L 48.679688 16.859375 C 48.679688 15.53125 47.835938 14.582031 46.574219 14.582031 C 45.738281 14.582031 45.238281 14.902344 44.800781 15.542969 L 44.761719 15.542969 Z M 50.753906 14.742188 L 49.171875 14.742188 L 49.171875 20.828125 L 50.792969 20.828125 L 50.792969 17.375 C 50.792969 16.542969 51.316406 15.976562 52.03125 15.976562 C 52.710938 15.976562 53.089844 16.4375 53.089844 17.089844 L 53.089844 20.824219 L 54.707031 20.824219 L 54.707031 16.859375 C 54.707031 15.53125 53.863281 14.582031 52.601562 14.582031 C 51.765625 14.582031 51.207031 14.925781 50.789062 15.578125 L 50.753906 15.578125 Z M 59.75 17.800781 C 59.75 16.613281 59.191406 15.804688 58.203125 15.804688 C 57.214844 15.804688 56.652344 16.613281 56.652344 17.800781 C 56.652344 18.984375 57.203125 19.78125 58.203125 19.78125 C 59.203125 19.78125 59.75 18.984375 59.75 17.800781 Z M 55.011719 17.800781 C 55.011719 15.984375 56.308594 14.585938 58.203125 14.585938 C 60.097656 14.585938 61.394531 15.984375 61.394531 17.800781 C 61.394531 19.613281 60.097656 21.011719 58.203125 21.011719 C 56.308594 21.011719 55.011719 19.609375 55.011719 17.800781 Z M 61.722656 20.835938 L 63.34375 20.835938 L 63.34375 12.351562 L 61.730469 12.351562 Z M 68.421875 17.800781 C 68.421875 16.613281 67.863281 15.804688 66.875 15.804688 C 65.886719 15.804688 65.324219 16.609375 65.324219 17.800781 C 65.324219 18.988281 65.875 19.78125 66.875 19.78125 C 67.875 19.78125 68.421875 18.984375 68.421875 17.800781 Z M 63.683594 17.800781 C 63.683594 15.984375 64.980469 14.585938 66.875 14.585938 C 68.769531 14.585938 70.066406 15.984375 70.066406 17.800781 C 70.066406 19.613281 68.769531 21.011719 66.875 21.011719 C 64.980469 21.011719 63.683594 19.609375 63.683594 17.800781 Z M 74.710938 17.527344 C 74.710938 16.632812 74.234375 15.875 73.257812 15.875 C 72.433594 15.875 71.886719 16.515625 71.886719 17.535156 C 71.886719 18.554688 72.433594 19.175781 73.269531 19.175781 C 74.292969 19.175781 74.710938 18.425781 74.710938 17.523438 Z M 70.433594 21.011719 L 72.042969 21.011719 C 72.171875 21.390625 72.519531 21.6875 73.273438 21.6875 C 74.191406 21.6875 74.628906 21.25 74.628906 20.417969 L 74.628906 19.75 L 74.59375 19.75 C 74.402344 19.984375 74.15625 20.167969 73.878906 20.292969 C 73.601562 20.417969 73.300781 20.472656 73 20.464844 C 71.640625 20.464844 70.304688 19.394531 70.304688 17.558594 C 70.304688 15.742188 71.402344 14.578125 72.949219 14.578125 C 73.710938 14.578125 74.273438 14.875 74.640625 15.386719 L 74.664062 15.386719 L 74.664062 14.746094 L 76.226562 14.746094 L 76.226562 20.367188 C 76.226562 21.222656 75.953125 21.804688 75.5 22.21875 C 74.988281 22.695312 74.203125 22.90625 73.296875 22.90625 C 71.628906 22.90625 70.605469 22.195312 70.4375 21.011719 Z M 77.066406 22.828125 L 78.019531 22.828125 C 79.257812 22.828125 79.710938 22.34375 80.175781 20.988281 L 82.304688 14.75 L 80.671875 14.75 L 79.8125 17.488281 C 79.621094 18.046875 79.457031 18.816406 79.457031 18.816406 L 79.433594 18.816406 C 79.433594 18.816406 79.230469 18.046875 79.039062 17.488281 L 78.136719 14.75 L 76.429688 14.75 L 78.074219 19.078125 C 78.417969 20.003906 78.539062 20.394531 78.539062 20.726562 C 78.539062 21.226562 78.277344 21.558594 77.632812 21.558594 L 77.0625 21.558594 Z M 30.164062 25.683594 L 32.238281 25.683594 C 33.144531 25.683594 33.609375 25.269531 33.609375 24.519531 C 33.609375 23.75 33.121094 23.371094 32.265625 23.371094 L 30.164062 23.371094 Z M 31.859375 27.082031 L 30.164062 27.082031 L 30.164062 30.355469 L 28.472656 30.355469 L 28.472656 21.875 L 32.308594 21.875 C 33.394531 21.875 34.039062 22.160156 34.539062 22.671875 C 34.78125 22.910156 34.976562 23.195312 35.109375 23.511719 C 35.238281 23.828125 35.304688 24.167969 35.300781 24.507812 C 35.300781 25.695312 34.6875 26.507812 33.613281 26.863281 L 35.742188 30.355469 L 33.839844 30.355469 Z M 36.820312 26.65625 L 39.535156 26.65625 C 39.488281 25.886719 38.976562 25.351562 38.238281 25.351562 C 37.378906 25.351562 36.964844 25.863281 36.820312 26.65625 Z M 35.203125 27.308594 C 35.203125 25.503906 36.433594 24.105469 38.214844 24.105469 C 40.179688 24.105469 41.226562 25.601562 41.226562 27.769531 L 36.796875 27.769531 C 36.914062 28.707031 37.441406 29.289062 38.355469 29.289062 C 38.988281 29.289062 39.359375 29.003906 39.535156 28.542969 L 41.132812 28.542969 C 40.910156 29.621094 39.941406 30.535156 38.371094 30.535156 C 36.34375 30.535156 35.203125 29.121094 35.203125 27.300781 Z M 43.011719 30.351562 L 44.558594 30.351562 L 46.828125 24.265625 L 45.207031 24.265625 L 43.808594 28.386719 L 43.785156 28.386719 L 42.402344 24.273438 L 40.753906 24.273438 Z M 47.058594 30.351562 L 48.679688 30.351562 L 48.679688 24.273438 L 47.058594 24.273438 Z M 47.058594 23.847656 L 48.679688 23.847656 L 48.679688 22.398438 L 47.058594 22.398438 Z M 50.65625 26.652344 L 53.371094 26.652344 C 53.324219 25.878906 52.8125 25.347656 52.074219 25.347656 C 51.214844 25.347656 50.800781 25.855469 50.65625 26.652344 Z M 49.039062 27.300781 C 49.039062 25.5 50.269531 24.101562 52.050781 24.101562 C 54.015625 24.101562 55.0625 25.59375 55.0625 27.765625 L 50.632812 27.765625 C 50.75 28.703125 51.277344 29.285156 52.191406 29.285156 C 52.824219 29.285156 53.195312 29 53.371094 28.535156 L 54.96875 28.535156 C 54.746094 29.617188 53.777344 30.527344 52.207031 30.527344 C 50.179688 30.527344 49.039062 29.117188 49.039062 27.296875 Z M 56.441406 30.34375 L 57.90625 30.34375 L 59.023438 26.359375 L 59.046875 26.359375 L 60.132812 30.34375 L 61.609375 30.34375 L 63.433594 24.273438 L 61.859375 24.273438 L 60.8125 28.160156 L 60.789062 28.160156 L 59.703125 24.277344 L 58.324219 24.277344 L 57.296875 28.160156 L 57.273438 28.160156 L 56.269531 24.277344 L 54.65625 24.277344 Z M 35.242188 2.828125 L 33.226562 9.042969 L 31.125 2.828125 L 28.472656 2.828125 L 28.472656 11.308594 L 30.039062 11.308594 L 30.039062 4.59375 L 32.335938 11.308594 L 33.992188 11.308594 L 36.179688 4.59375 L 36.179688 11.308594 L 37.789062 11.308594 L 37.789062 2.828125 Z M 35.242188 2.828125 " fill-opacity="1" fill-rule="nonzero"/></g></svg>