<svg xmlns="http://www.w3.org/2000/svg" xmlns:xlink="http://www.w3.org/1999/xlink" width="145" zoomAndPan="magnify" viewBox="0 0 108.75 33.749998" height="45" preserveAspectRatio="xMidYMid meet" version="1.0"><path fill="#ffffff" d="M 65.578125 22.976562 C 61.515625 21.011719 60.867188 17.976562 60.839844 17.75 C 60.804688 17.480469 60.765625 17.265625 61.066406 16.988281 C 61.355469 16.71875 62.644531 15.921875 63 15.671875 C 63.589844 15.261719 63.851562 14.847656 63.660156 14.339844 C 63.527344 13.992188 63.199219 13.859375 62.855469 13.859375 C 62.746094 13.859375 62.640625 13.871094 62.535156 13.894531 C 61.882812 14.035156 61.253906 14.359375 60.890625 14.449219 C 60.847656 14.460938 60.800781 14.464844 60.757812 14.46875 C 60.5625 14.46875 60.488281 14.378906 60.507812 14.148438 C 60.550781 13.4375 60.648438 12.054688 60.539062 10.761719 C 60.382812 8.984375 59.808594 8.101562 59.128906 7.324219 C 58.800781 6.945312 57.273438 5.320312 54.324219 5.320312 C 51.378906 5.320312 49.851562 6.945312 49.523438 7.316406 C 48.84375 8.097656 48.269531 8.980469 48.117188 10.757812 C 48.003906 12.050781 48.105469 13.433594 48.148438 14.140625 C 48.160156 14.363281 48.09375 14.460938 47.898438 14.460938 C 47.851562 14.460938 47.808594 14.457031 47.765625 14.445312 C 47.402344 14.355469 46.769531 14.03125 46.121094 13.890625 C 46.015625 13.867188 45.910156 13.855469 45.800781 13.855469 C 45.453125 13.855469 45.128906 13.988281 44.996094 14.335938 C 44.804688 14.84375 45.0625 15.253906 45.65625 15.667969 C 46.011719 15.917969 47.300781 16.714844 47.589844 16.980469 C 47.890625 17.257812 47.851562 17.472656 47.816406 17.746094 C 47.789062 17.976562 47.140625 21.011719 43.078125 22.972656 C 42.839844 23.089844 42.4375 23.332031 43.148438 23.726562 C 44.269531 24.34375 45.015625 24.277344 45.59375 24.652344 C 46.085938 24.96875 45.796875 25.652344 46.152344 25.898438 C 46.59375 26.203125 47.894531 25.878906 49.570312 26.433594 C 50.980469 26.894531 51.832031 28.207031 54.328125 28.207031 C 56.824219 28.207031 57.703125 26.890625 59.085938 26.433594 C 60.761719 25.878906 62.0625 26.203125 62.503906 25.898438 C 62.859375 25.652344 62.570312 24.96875 63.0625 24.652344 C 63.640625 24.277344 64.386719 24.34375 65.507812 23.726562 C 66.21875 23.335938 65.816406 23.09375 65.578125 22.976562 Z M 65.578125 22.976562 " fill-opacity="1" fill-rule="nonzero"/><path fill="#000000" d="M 67.34375 22.746094 C 67.160156 22.25 66.816406 21.984375 66.417969 21.765625 C 66.34375 21.722656 66.277344 21.6875 66.21875 21.660156 C 66.101562 21.597656 65.980469 21.539062 65.859375 21.476562 C 64.628906 20.824219 63.664062 20 63 19.023438 C 62.808594 18.75 62.644531 18.457031 62.507812 18.152344 C 62.449219 17.988281 62.453125 17.898438 62.492188 17.8125 C 62.535156 17.746094 62.585938 17.691406 62.652344 17.648438 C 62.863281 17.507812 63.082031 17.367188 63.230469 17.269531 C 63.492188 17.101562 63.703125 16.964844 63.835938 16.867188 C 64.34375 16.515625 64.695312 16.140625 64.917969 15.71875 C 65.246094 15.101562 65.285156 14.46875 65.03125 13.816406 C 64.695312 12.9375 63.863281 12.386719 62.855469 12.386719 C 62.640625 12.386719 62.429688 12.410156 62.222656 12.457031 C 62.164062 12.46875 62.109375 12.480469 62.054688 12.496094 C 62.066406 11.890625 62.050781 11.253906 61.996094 10.628906 C 61.808594 8.425781 61.035156 7.269531 60.230469 6.351562 C 59.714844 5.769531 59.117188 5.289062 58.4375 4.90625 C 57.21875 4.210938 55.832031 3.855469 54.324219 3.855469 C 52.816406 3.855469 51.441406 4.210938 50.21875 4.90625 C 49.539062 5.289062 48.9375 5.769531 48.421875 6.351562 C 47.617188 7.273438 46.84375 8.429688 46.65625 10.632812 C 46.601562 11.257812 46.585938 11.898438 46.597656 12.496094 C 46.542969 12.484375 46.488281 12.46875 46.433594 12.457031 C 46.222656 12.414062 46.011719 12.390625 45.796875 12.390625 C 44.789062 12.390625 43.953125 12.9375 43.621094 13.820312 C 43.367188 14.472656 43.40625 15.105469 43.730469 15.722656 C 43.953125 16.144531 44.308594 16.519531 44.8125 16.875 C 44.945312 16.96875 45.15625 17.101562 45.421875 17.277344 C 45.5625 17.367188 45.773438 17.503906 45.976562 17.640625 C 46.046875 17.6875 46.109375 17.746094 46.152344 17.816406 C 46.195312 17.90625 46.199219 18 46.136719 18.175781 C 46 18.472656 45.839844 18.757812 45.652344 19.027344 C 45 19.980469 44.066406 20.792969 42.871094 21.4375 C 42.242188 21.773438 41.582031 22 41.304688 22.75 C 41.097656 23.320312 41.234375 23.96875 41.765625 24.511719 C 41.960938 24.71875 42.183594 24.886719 42.4375 25.019531 C 42.957031 25.304688 43.5 25.523438 44.074219 25.675781 C 44.195312 25.707031 44.304688 25.757812 44.40625 25.824219 C 44.601562 25.996094 44.574219 26.25 44.832031 26.625 C 44.960938 26.816406 45.121094 26.984375 45.316406 27.117188 C 45.855469 27.492188 46.464844 27.515625 47.109375 27.539062 C 47.691406 27.5625 48.351562 27.585938 49.105469 27.835938 C 49.417969 27.9375 49.742188 28.136719 50.117188 28.371094 C 51.019531 28.925781 52.257812 29.683594 54.324219 29.683594 C 56.390625 29.683594 57.636719 28.921875 58.546875 28.363281 C 58.917969 28.136719 59.242188 27.9375 59.542969 27.835938 C 60.296875 27.589844 60.957031 27.5625 61.539062 27.542969 C 62.183594 27.515625 62.792969 27.492188 63.335938 27.121094 C 63.5625 26.960938 63.746094 26.757812 63.886719 26.515625 C 64.074219 26.199219 64.066406 25.980469 64.242188 25.824219 C 64.335938 25.761719 64.441406 25.714844 64.554688 25.683594 C 65.132812 25.53125 65.6875 25.3125 66.214844 25.023438 C 66.480469 24.878906 66.714844 24.695312 66.917969 24.472656 L 66.925781 24.464844 C 67.421875 23.929688 67.546875 23.300781 67.34375 22.746094 Z M 65.507812 23.734375 C 64.386719 24.351562 63.640625 24.285156 63.0625 24.660156 C 62.566406 24.976562 62.859375 25.660156 62.5 25.90625 C 62.0625 26.210938 60.761719 25.886719 59.085938 26.441406 C 57.699219 26.898438 56.816406 28.214844 54.328125 28.214844 C 51.835938 28.214844 50.976562 26.898438 49.566406 26.4375 C 47.894531 25.882812 46.589844 26.207031 46.152344 25.902344 C 45.792969 25.65625 46.082031 24.972656 45.59375 24.65625 C 45.011719 24.285156 44.265625 24.351562 43.144531 23.734375 C 42.433594 23.339844 42.835938 23.097656 43.074219 22.980469 C 47.136719 21.015625 47.785156 17.980469 47.8125 17.753906 C 47.847656 17.480469 47.886719 17.269531 47.585938 16.992188 C 47.296875 16.722656 46.007812 15.925781 45.652344 15.675781 C 45.0625 15.261719 44.800781 14.851562 44.992188 14.34375 C 45.125 13.996094 45.453125 13.863281 45.796875 13.863281 C 45.90625 13.863281 46.011719 13.875 46.117188 13.898438 C 46.765625 14.039062 47.398438 14.363281 47.761719 14.453125 C 47.804688 14.464844 47.851562 14.46875 47.894531 14.46875 C 48.089844 14.46875 48.15625 14.371094 48.144531 14.148438 C 48.101562 13.441406 48.003906 12.058594 48.113281 10.765625 C 48.265625 8.988281 48.839844 8.105469 49.519531 7.328125 C 49.847656 6.953125 51.382812 5.328125 54.324219 5.328125 C 57.261719 5.328125 58.800781 6.945312 59.128906 7.316406 C 59.808594 8.097656 60.382812 8.980469 60.535156 10.757812 C 60.648438 12.050781 60.550781 13.433594 60.503906 14.140625 C 60.488281 14.375 60.558594 14.460938 60.753906 14.460938 C 60.800781 14.460938 60.84375 14.457031 60.886719 14.445312 C 61.253906 14.355469 61.882812 14.03125 62.53125 13.890625 C 62.636719 13.867188 62.746094 13.855469 62.855469 13.855469 C 63.199219 13.855469 63.523438 13.988281 63.65625 14.335938 C 63.847656 14.84375 63.589844 15.253906 63 15.667969 C 62.640625 15.917969 61.355469 16.714844 61.066406 16.980469 C 60.765625 17.257812 60.804688 17.472656 60.839844 17.746094 C 60.867188 17.976562 61.515625 21.011719 65.574219 22.972656 C 65.816406 23.09375 66.21875 23.335938 65.507812 23.734375 Z M 65.507812 23.734375 " fill-opacity="1" fill-rule="nonzero"/></svg>