<svg xmlns="http://www.w3.org/2000/svg" xmlns:xlink="http://www.w3.org/1999/xlink" width="145" zoomAndPan="magnify" viewBox="0 0 108.75 33.749998" height="45" preserveAspectRatio="xMidYMid meet" version="1.0"><defs><clipPath id="8bcc143378"><path d="M 2.632812 7.394531 L 18 7.394531 L 18 26 L 2.632812 26 Z M 2.632812 7.394531 " clip-rule="nonzero"/></clipPath><clipPath id="617ba6eeb9"><path d="M 33 7.394531 L 39 7.394531 L 39 26 L 33 26 Z M 33 7.394531 " clip-rule="nonzero"/></clipPath><clipPath id="4fde6acd41"><path d="M 55 7.394531 L 61 7.394531 L 61 11 L 55 11 Z M 55 7.394531 " clip-rule="nonzero"/></clipPath><clipPath id="7cdc1335f9"><path d="M 61 7.394531 L 72 7.394531 L 72 26 L 61 26 Z M 61 7.394531 " clip-rule="nonzero"/></clipPath><clipPath id="a117bcb4f4"><path d="M 72 7.394531 L 83 7.394531 L 83 26 L 72 26 Z M 72 7.394531 " clip-rule="nonzero"/></clipPath></defs><path fill="#86bc25" d="M 97.492188 23.269531 C 97.492188 21.792969 98.707031 20.644531 100.144531 20.644531 C 101.632812 20.644531 102.792969 21.847656 102.792969 23.269531 C 102.792969 24.695312 101.578125 25.898438 100.144531 25.898438 C 98.707031 25.898438 97.492188 24.75 97.492188 23.269531 " fill-opacity="1" fill-rule="nonzero"/><g clip-path="url(#8bcc143378)"><path fill="#ffffff" d="M 17.886719 16.207031 C 17.886719 19.273438 17.113281 21.574219 15.457031 23.214844 C 13.800781 24.859375 11.480469 25.679688 8.5 25.679688 L 2.648438 25.679688 L 2.648438 7.449219 L 8.832031 7.449219 C 11.757812 7.449219 13.964844 8.160156 15.511719 9.695312 C 17.113281 11.171875 17.886719 13.363281 17.886719 16.207031 M 12.804688 16.375 C 12.804688 14.675781 12.476562 13.472656 11.8125 12.652344 C 11.203125 11.882812 10.15625 11.445312 8.832031 11.445312 L 7.507812 11.445312 L 7.507812 21.628906 L 8.609375 21.628906 C 10.101562 21.628906 11.148438 21.191406 11.867188 20.316406 C 12.476562 19.4375 12.804688 18.125 12.804688 16.375 " fill-opacity="1" fill-rule="nonzero"/></g><g clip-path="url(#617ba6eeb9)"><path fill="#ffffff" d="M 33.949219 7.394531 L 38.53125 7.394531 L 38.53125 25.679688 L 33.949219 25.679688 Z M 33.949219 7.394531 " fill-opacity="1" fill-rule="nonzero"/></g><path fill="#ffffff" d="M 53.660156 18.835938 C 53.660156 21.027344 53.105469 22.777344 51.890625 24.035156 C 50.679688 25.296875 49.023438 25.898438 46.925781 25.898438 C 44.882812 25.898438 43.28125 25.296875 42.066406 23.980469 C 40.851562 22.667969 40.242188 20.972656 40.242188 18.835938 C 40.242188 16.648438 40.796875 14.894531 42.011719 13.691406 C 43.226562 12.433594 44.882812 11.828125 46.980469 11.828125 C 48.304688 11.828125 49.464844 12.101562 50.457031 12.652344 C 51.507812 13.199219 52.222656 14.019531 52.777344 15.058594 C 53.4375 16.207031 53.660156 17.414062 53.660156 18.835938 M 44.992188 18.835938 C 44.992188 20.039062 45.15625 20.863281 45.433594 21.464844 C 45.710938 22.066406 46.207031 22.339844 46.980469 22.339844 C 47.753906 22.339844 48.195312 22.066406 48.523438 21.464844 C 48.800781 20.863281 48.964844 19.929688 48.964844 18.835938 C 48.964844 17.632812 48.800781 16.8125 48.523438 16.207031 C 48.25 15.660156 47.753906 15.332031 46.980469 15.332031 C 46.316406 15.332031 45.765625 15.605469 45.433594 16.207031 C 45.15625 16.8125 44.992188 17.632812 44.992188 18.835938 " fill-opacity="1" fill-rule="nonzero"/><path fill="#ffffff" d="M 55.535156 12.046875 L 60.117188 12.046875 L 60.117188 25.625 L 55.535156 25.625 Z M 55.535156 12.046875 " fill-opacity="1" fill-rule="nonzero"/><g clip-path="url(#4fde6acd41)"><path fill="#ffffff" d="M 55.535156 7.394531 L 60.117188 7.394531 L 60.117188 10.460938 L 55.535156 10.460938 Z M 55.535156 7.394531 " fill-opacity="1" fill-rule="nonzero"/></g><g clip-path="url(#7cdc1335f9)"><path fill="#ffffff" d="M 69.449219 22.175781 C 70.054688 22.175781 70.828125 22.011719 71.65625 21.738281 L 71.65625 25.1875 C 71.050781 25.460938 70.441406 25.625 69.890625 25.734375 C 69.339844 25.84375 68.675781 25.898438 67.902344 25.898438 C 66.355469 25.898438 65.253906 25.515625 64.535156 24.695312 C 63.871094 23.925781 63.484375 22.722656 63.484375 21.136719 L 63.484375 15.550781 L 61.886719 15.550781 L 61.886719 12.046875 L 63.484375 12.046875 L 63.484375 8.65625 L 68.125 7.886719 L 68.125 12.15625 L 71.105469 12.15625 L 71.105469 15.605469 L 68.125 15.605469 L 68.125 20.863281 C 68.234375 21.792969 68.621094 22.175781 69.449219 22.175781 " fill-opacity="1" fill-rule="nonzero"/></g><g clip-path="url(#a117bcb4f4)"><path fill="#ffffff" d="M 80.160156 22.175781 C 80.765625 22.175781 81.539062 22.011719 82.367188 21.738281 L 82.367188 25.1875 C 81.757812 25.460938 81.152344 25.625 80.601562 25.734375 C 80.046875 25.84375 79.386719 25.898438 78.613281 25.898438 C 77.066406 25.898438 75.960938 25.515625 75.246094 24.695312 C 74.582031 23.925781 74.195312 22.722656 74.195312 21.136719 L 74.195312 15.550781 L 72.59375 15.550781 L 72.59375 12.046875 L 74.195312 12.046875 L 74.195312 8.601562 L 78.832031 7.886719 L 78.832031 12.15625 L 81.816406 12.15625 L 81.816406 15.605469 L 78.832031 15.605469 L 78.832031 20.863281 C 78.890625 21.792969 79.332031 22.175781 80.160156 22.175781 " fill-opacity="1" fill-rule="nonzero"/></g><path fill="#ffffff" d="M 94.734375 13.417969 C 93.628906 12.320312 92.082031 11.828125 90.097656 11.828125 C 87.996094 11.828125 86.339844 12.433594 85.183594 13.691406 C 84.023438 14.949219 83.472656 16.703125 83.472656 19 C 83.472656 21.191406 84.078125 22.941406 85.292969 24.144531 C 86.5625 25.351562 88.273438 25.953125 90.480469 25.953125 C 91.585938 25.953125 92.46875 25.898438 93.242188 25.734375 C 93.960938 25.570312 94.789062 25.351562 95.449219 24.96875 L 94.789062 21.902344 C 94.292969 22.121094 93.738281 22.285156 93.296875 22.394531 C 92.636719 22.558594 91.863281 22.613281 91.089844 22.613281 C 90.207031 22.613281 89.488281 22.394531 88.992188 22.011719 C 88.496094 21.574219 88.21875 20.972656 88.21875 20.203125 L 96.445312 20.203125 L 96.445312 18.070312 C 96.390625 16.042969 95.78125 14.511719 94.734375 13.417969 M 88.21875 17.195312 C 88.273438 16.484375 88.496094 15.878906 88.824219 15.550781 C 89.15625 15.222656 89.597656 15.058594 90.207031 15.058594 C 90.757812 15.058594 91.308594 15.222656 91.640625 15.605469 C 91.972656 15.988281 92.136719 16.484375 92.195312 17.195312 Z M 88.21875 17.195312 " fill-opacity="1" fill-rule="nonzero"/><path fill="#ffffff" d="M 30.527344 13.417969 C 29.367188 12.320312 27.878906 11.828125 25.890625 11.828125 C 23.792969 11.828125 22.136719 12.433594 20.976562 13.691406 C 19.816406 14.949219 19.265625 16.703125 19.265625 19 C 19.265625 21.191406 19.871094 22.941406 21.085938 24.144531 C 22.355469 25.351562 24.066406 25.953125 26.277344 25.953125 C 27.378906 25.953125 28.265625 25.898438 29.035156 25.734375 C 29.753906 25.570312 30.582031 25.351562 31.246094 24.96875 L 30.582031 21.847656 C 30.085938 22.066406 29.535156 22.230469 29.09375 22.339844 C 28.429688 22.503906 27.65625 22.558594 26.882812 22.558594 C 26 22.558594 25.28125 22.339844 24.785156 21.957031 C 24.289062 21.519531 24.011719 20.917969 24.011719 20.148438 L 32.238281 20.148438 L 32.238281 18.070312 C 32.183594 16.042969 31.578125 14.511719 30.527344 13.417969 M 23.957031 17.195312 C 24.011719 16.484375 24.234375 15.878906 24.566406 15.550781 C 24.894531 15.222656 25.339844 15.058594 25.945312 15.058594 C 26.550781 15.058594 27.050781 15.222656 27.378906 15.605469 C 27.710938 15.988281 27.878906 16.484375 27.933594 17.195312 Z M 23.957031 17.195312 " fill-opacity="1" fill-rule="nonzero"/></svg>