<svg xmlns="http://www.w3.org/2000/svg" xmlns:xlink="http://www.w3.org/1999/xlink" width="145" zoomAndPan="magnify" viewBox="0 0 108.75 33.749998" height="45" preserveAspectRatio="xMidYMid meet" version="1.0"><defs><clipPath id="a221af25a0"><path d="M 29.3125 4.101562 L 75.46875 4.101562 L 75.46875 30.15625 L 29.3125 30.15625 Z M 29.3125 4.101562 " clip-rule="nonzero"/></clipPath></defs><g clip-path="url(#a221af25a0)"><path fill="#ffffff" d="M 35.355469 18.902344 C 35.355469 20.101562 34.535156 20.910156 32.71875 20.910156 L 29.3125 20.910156 L 29.3125 13.480469 L 32.617188 13.480469 C 34.195312 13.480469 35.039062 14.195312 35.039062 15.414062 C 35.039062 16.285156 34.535156 16.890625 33.738281 17.09375 C 34.785156 17.316406 35.359375 18.015625 35.359375 18.902344 Z M 31.355469 16.570312 L 32.148438 16.570312 C 32.679688 16.570312 33.007812 16.367188 33.007812 15.863281 C 33.007812 15.359375 32.679688 15.15625 32.148438 15.15625 L 31.355469 15.15625 Z M 31.355469 19.207031 L 32.425781 19.207031 C 32.945312 19.207031 33.234375 18.980469 33.234375 18.550781 C 33.234375 18.121094 32.945312 17.894531 32.425781 17.894531 L 31.355469 17.894531 Z M 39.839844 19.824219 C 39.675781 20.59375 39.082031 21.0625 38.085938 21.0625 C 37.023438 21.0625 36.28125 20.40625 36.28125 19.03125 L 36.28125 15.082031 L 38.324219 15.082031 L 38.324219 18.601562 C 38.324219 19.1875 38.484375 19.527344 38.957031 19.535156 C 39.488281 19.535156 39.816406 19.054688 39.816406 18.109375 L 39.816406 15.082031 L 41.859375 15.082031 L 41.859375 20.910156 L 40.03125 20.910156 Z M 44.398438 18.902344 C 44.511719 19.390625 44.886719 19.636719 45.324219 19.636719 C 45.691406 19.636719 45.941406 19.507812 45.941406 19.257812 C 45.941406 19.003906 45.726562 18.890625 45.3125 18.804688 L 44.527344 18.640625 C 43.472656 18.414062 42.914062 17.871094 42.914062 16.910156 C 42.914062 15.5 44.125 14.941406 45.425781 14.941406 C 46.824219 14.941406 47.667969 15.527344 47.878906 16.609375 L 46.027344 16.882812 C 45.960938 16.554688 45.761719 16.367188 45.371094 16.367188 C 45.078125 16.367188 44.878906 16.507812 44.878906 16.734375 C 44.878906 16.960938 45.039062 17.074219 45.347656 17.125 L 46.128906 17.269531 C 47.417969 17.480469 47.96875 18.179688 47.96875 19.164062 C 47.96875 20.539062 46.769531 21.066406 45.332031 21.066406 C 44.007812 21.066406 43.125 20.589844 42.796875 19.554688 Z M 49.820312 12.558594 C 50.425781 12.558594 50.945312 12.980469 50.945312 13.628906 C 50.945312 14.285156 50.425781 14.703125 49.820312 14.703125 C 49.214844 14.703125 48.699219 14.285156 48.699219 13.628906 C 48.699219 12.976562 49.214844 12.554688 49.816406 12.558594 Z M 50.84375 15.082031 L 50.84375 20.910156 L 48.8125 20.910156 L 48.8125 15.082031 Z M 54.027344 16.203125 C 54.332031 15.335938 55.011719 14.941406 55.882812 14.941406 C 56.777344 14.941406 57.589844 15.480469 57.589844 16.808594 L 57.589844 20.910156 L 55.558594 20.910156 L 55.558594 17.589844 C 55.558594 17 55.382812 16.632812 54.863281 16.632812 C 54.421875 16.632812 54.042969 16.898438 54.042969 17.792969 L 54.042969 20.910156 L 52.011719 20.910156 L 52.011719 15.082031 L 53.84375 15.082031 Z M 62.238281 18.804688 L 63.929688 19.332031 C 63.601562 20.582031 62.566406 21.0625 61.40625 21.0625 C 59.675781 21.0625 58.414062 19.964844 58.414062 18.058594 C 58.414062 16.089844 59.527344 14.941406 61.355469 14.941406 C 63.082031 14.941406 63.972656 16.046875 63.972656 17.667969 C 63.972656 17.878906 63.972656 18.132812 63.949219 18.398438 L 60.390625 18.398438 C 60.429688 19.117188 60.78125 19.503906 61.382812 19.507812 C 61.808594 19.511719 62.09375 19.316406 62.238281 18.804688 Z M 62.035156 17.367188 C 62.035156 16.863281 61.859375 16.421875 61.292969 16.421875 C 60.800781 16.421875 60.484375 16.824219 60.433594 17.367188 Z M 66.296875 18.902344 C 66.410156 19.390625 66.785156 19.636719 67.222656 19.636719 C 67.589844 19.636719 67.84375 19.507812 67.84375 19.257812 C 67.84375 19.003906 67.628906 18.890625 67.210938 18.804688 L 66.429688 18.640625 C 65.371094 18.414062 64.816406 17.871094 64.816406 16.910156 C 64.816406 15.5 66.027344 14.941406 67.324219 14.941406 C 68.726562 14.941406 69.570312 15.527344 69.78125 16.609375 L 67.925781 16.882812 C 67.863281 16.554688 67.660156 16.367188 67.269531 16.367188 C 66.980469 16.367188 66.777344 16.507812 66.777344 16.734375 C 66.777344 16.960938 66.941406 17.074219 67.25 17.125 L 68.03125 17.269531 C 69.320312 17.480469 69.851562 18.179688 69.851562 19.164062 C 69.851562 20.539062 68.65625 21.066406 67.21875 21.066406 C 65.894531 21.066406 65.011719 20.589844 64.683594 19.554688 Z M 72.160156 18.902344 C 72.273438 19.390625 72.648438 19.636719 73.085938 19.636719 C 73.453125 19.636719 73.703125 19.507812 73.703125 19.257812 C 73.703125 19.003906 73.488281 18.890625 73.074219 18.804688 L 72.292969 18.640625 C 71.230469 18.414062 70.675781 17.871094 70.675781 16.910156 C 70.675781 15.5 71.886719 14.941406 73.1875 14.941406 C 74.585938 14.941406 75.429688 15.527344 75.640625 16.609375 L 73.785156 16.882812 C 73.722656 16.554688 73.523438 16.367188 73.132812 16.367188 C 72.839844 16.367188 72.640625 16.507812 72.640625 16.734375 C 72.640625 16.960938 72.800781 17.074219 73.109375 17.125 L 73.894531 17.269531 C 75.179688 17.480469 75.730469 18.179688 75.730469 19.164062 C 75.730469 20.539062 74.53125 21.066406 73.09375 21.066406 C 71.769531 21.066406 70.886719 20.589844 70.558594 19.554688 Z M 33.472656 29.90625 C 33.234375 29.707031 33.144531 29.429688 33.058594 29.074219 L 32.832031 28.152344 C 32.707031 27.625 32.492188 27.523438 32.011719 27.523438 L 31.367188 27.523438 L 31.367188 29.90625 L 29.3125 29.90625 L 29.3125 22.476562 L 32.492188 22.476562 C 34.15625 22.476562 35.304688 23.128906 35.304688 24.8125 C 35.304688 25.984375 34.546875 26.566406 33.726562 26.703125 C 34.40625 26.847656 34.75 27.140625 34.929688 27.792969 L 35.28125 29.066406 C 35.371094 29.390625 35.476562 29.652344 35.738281 29.910156 L 33.472656 29.910156 Z M 31.367188 25.859375 L 32.164062 25.859375 C 32.882812 25.859375 33.195312 25.566406 33.195312 25.039062 C 33.195312 24.507812 32.882812 24.21875 32.164062 24.21875 L 31.367188 24.21875 Z M 39.683594 27.800781 L 41.371094 28.332031 C 41.042969 29.578125 40.011719 30.058594 38.851562 30.058594 C 37.121094 30.058594 35.859375 28.960938 35.859375 27.058594 C 35.859375 25.089844 36.96875 23.941406 38.800781 23.941406 C 40.527344 23.941406 41.417969 25.046875 41.417969 26.667969 C 41.417969 26.878906 41.417969 27.132812 41.390625 27.398438 L 37.828125 27.398438 C 37.867188 28.113281 38.21875 28.503906 38.820312 28.507812 C 39.253906 28.503906 39.539062 28.328125 39.6875 27.800781 Z M 39.480469 26.359375 C 39.480469 25.855469 39.304688 25.414062 38.734375 25.414062 C 38.246094 25.414062 37.929688 25.816406 37.878906 26.359375 Z M 41.703125 24.078125 L 43.847656 24.078125 L 44.515625 26.425781 C 44.753906 27.273438 44.890625 27.855469 44.890625 27.851562 L 44.914062 27.851562 C 44.914062 27.851562 45.039062 27.269531 45.304688 26.425781 L 46.0625 24.078125 L 48.042969 24.078125 L 45.921875 29.90625 L 43.734375 29.90625 Z M 49.699219 21.554688 C 50.308594 21.554688 50.824219 21.980469 50.824219 22.628906 C 50.824219 23.28125 50.308594 23.703125 49.699219 23.703125 C 49.097656 23.703125 48.578125 23.285156 48.578125 22.628906 C 48.578125 21.972656 49.097656 21.5625 49.703125 21.554688 Z M 50.726562 24.078125 L 50.726562 29.90625 L 48.691406 29.90625 L 48.691406 24.078125 Z M 55.464844 27.800781 L 57.15625 28.332031 C 56.828125 29.578125 55.792969 30.058594 54.632812 30.058594 C 52.902344 30.058594 51.640625 28.960938 51.640625 27.058594 C 51.640625 25.089844 52.753906 23.941406 54.582031 23.941406 C 56.308594 23.941406 57.199219 25.046875 57.199219 26.667969 C 57.199219 26.878906 57.199219 27.132812 57.175781 27.398438 L 53.617188 27.398438 C 53.652344 28.113281 54.003906 28.503906 54.605469 28.507812 C 55.035156 28.503906 55.328125 28.328125 55.457031 27.800781 Z M 55.261719 26.359375 C 55.261719 25.855469 55.085938 25.414062 54.519531 25.414062 C 54.027344 25.414062 53.710938 25.816406 53.660156 26.359375 Z M 63.089844 24.078125 L 63.503906 26.109375 C 63.71875 27.152344 63.832031 27.949219 63.832031 27.941406 L 63.855469 27.941406 C 63.855469 27.941406 63.980469 27.171875 64.222656 26.136719 L 64.6875 24.078125 L 66.667969 24.078125 L 65.089844 29.90625 L 62.808594 29.90625 L 62.457031 28.203125 C 62.277344 27.347656 62.140625 26.335938 62.140625 26.335938 L 62.117188 26.335938 C 62.117188 26.335938 61.976562 27.347656 61.800781 28.207031 L 61.445312 29.910156 L 59.179688 29.910156 L 57.601562 24.082031 L 59.65625 24.082031 L 60.125 26.140625 C 60.363281 27.179688 60.496094 27.945312 60.496094 27.945312 L 60.523438 27.945312 C 60.523438 27.945312 60.636719 27.160156 60.847656 26.113281 L 61.269531 24.082031 L 63.089844 24.082031 Z M 42.191406 9.992188 C 42.191406 10.269531 42.273438 10.417969 42.484375 10.421875 C 42.609375 10.421875 42.738281 10.371094 42.851562 10.308594 L 42.851562 11.746094 C 42.574219 11.949219 42.308594 12.023438 41.839844 12.023438 C 41.058594 12.023438 40.628906 11.671875 40.402344 11.101562 C 40.078125 11.707031 39.558594 12.050781 38.726562 12.050781 C 37.652344 12.050781 36.984375 11.417969 36.984375 10.421875 C 36.984375 9.171875 37.878906 8.542969 39.632812 8.542969 L 40.226562 8.542969 L 40.226562 8.152344 C 40.226562 7.773438 40.101562 7.507812 39.734375 7.507812 C 39.382812 7.507812 39.21875 7.722656 39.191406 8.203125 L 37.25 7.898438 C 37.363281 6.703125 38.296875 5.945312 39.796875 5.945312 C 41.464844 5.945312 42.1875 6.675781 42.1875 7.949219 L 42.1875 9.992188 Z M 40.226562 9.578125 L 39.960938 9.578125 C 39.226562 9.578125 38.976562 9.804688 38.976562 10.183594 C 38.976562 10.460938 39.171875 10.671875 39.511719 10.675781 C 39.851562 10.675781 40.21875 10.5 40.21875 9.957031 L 40.21875 9.578125 Z M 47.609375 8.378906 C 47.367188 8.289062 47.230469 8.226562 46.902344 8.226562 C 46.421875 8.226562 45.839844 8.417969 45.839844 9.453125 L 45.839844 11.910156 L 43.808594 11.910156 L 43.808594 6.082031 L 45.550781 6.082031 L 45.753906 7.519531 C 45.917969 6.550781 46.738281 6.082031 47.734375 6.082031 Z M 48.3125 6.082031 L 50.457031 6.082031 L 51.125 8.429688 C 51.367188 9.273438 51.5 9.859375 51.5 9.855469 L 51.523438 9.855469 C 51.523438 9.855469 51.652344 9.273438 51.917969 8.429688 L 52.671875 6.082031 L 54.652344 6.082031 L 52.535156 11.910156 L 50.34375 11.910156 Z M 60.019531 9.992188 C 60.019531 10.269531 60.101562 10.417969 60.3125 10.421875 C 60.441406 10.421875 60.566406 10.371094 60.679688 10.308594 L 60.679688 11.746094 C 60.402344 11.949219 60.136719 12.023438 59.671875 12.023438 C 58.886719 12.023438 58.460938 11.671875 58.230469 11.105469 C 57.90625 11.710938 57.386719 12.050781 56.554688 12.046875 C 55.480469 12.046875 54.8125 11.417969 54.8125 10.421875 C 54.8125 9.171875 55.710938 8.542969 57.464844 8.542969 L 58.054688 8.542969 L 58.054688 8.152344 C 58.054688 7.773438 57.929688 7.507812 57.5625 7.507812 C 57.210938 7.507812 57.046875 7.722656 57.019531 8.203125 L 55.078125 7.898438 C 55.191406 6.703125 56.125 5.945312 57.628906 5.945312 C 59.292969 5.945312 60.015625 6.675781 60.015625 7.949219 L 60.015625 9.992188 Z M 58.054688 9.578125 L 57.789062 9.578125 C 57.054688 9.578125 56.804688 9.804688 56.804688 10.183594 C 56.804688 10.460938 57 10.671875 57.339844 10.675781 C 57.679688 10.675781 58.046875 10.5 58.046875 9.957031 L 58.046875 9.578125 Z M 65.4375 8.378906 C 65.199219 8.289062 65.0625 8.226562 64.730469 8.226562 C 64.253906 8.226562 63.671875 8.417969 63.671875 9.453125 L 63.671875 11.910156 L 61.644531 11.910156 L 61.644531 6.082031 L 63.382812 6.082031 L 63.585938 7.519531 C 63.75 6.550781 64.566406 6.082031 65.566406 6.082031 Z M 70.332031 4.113281 L 72.375 4.113281 L 72.375 11.910156 L 70.535156 11.910156 L 70.347656 10.902344 C 70.132812 11.683594 69.4375 12.0625 68.554688 12.0625 C 67.191406 12.0625 66.222656 11.003906 66.222656 9.109375 C 66.222656 7.15625 67.15625 5.945312 68.792969 5.945312 C 69.539062 5.945312 70.128906 6.285156 70.339844 6.839844 L 70.339844 4.113281 Z M 70.347656 8.582031 C 70.347656 7.835938 69.980469 7.433594 69.386719 7.433594 C 68.796875 7.433594 68.289062 7.875 68.289062 9.035156 C 68.289062 9.996094 68.695312 10.5 69.363281 10.5 C 69.878906 10.5 70.347656 10.109375 70.347656 9.3125 Z M 29.3125 11.910156 L 29.3125 4.480469 L 31.378906 4.480469 L 31.378906 7.242188 L 33.929688 7.242188 L 33.929688 4.480469 L 35.996094 4.480469 L 35.996094 11.910156 L 33.929688 11.910156 L 33.929688 9.035156 L 31.378906 9.035156 L 31.378906 11.910156 Z M 29.3125 11.910156 " fill-opacity="1" fill-rule="nonzero"/></g></svg>