<svg xmlns="http://www.w3.org/2000/svg" xmlns:xlink="http://www.w3.org/1999/xlink" width="145" zoomAndPan="magnify" viewBox="0 0 108.75 33.749998" height="45" preserveAspectRatio="xMidYMid meet" version="1.0"><defs><clipPath id="43087454f5"><path d="M 34 10 L 92.242188 10 L 92.242188 32.570312 L 34 32.570312 Z M 34 10 " clip-rule="nonzero"/></clipPath><clipPath id="7fb6a0c23d"><path d="M 14.070312 1.300781 L 73 1.300781 L 73 32 L 14.070312 32 Z M 14.070312 1.300781 " clip-rule="nonzero"/></clipPath></defs><g clip-path="url(#43087454f5)"><path fill="#ffffff" d="M 79.285156 23.339844 C 79.285156 23.464844 79.46875 23.589844 79.59375 23.652344 C 79.65625 23.652344 79.65625 23.714844 79.59375 23.839844 C 79.160156 24.769531 78.792969 25.269531 78.296875 26.015625 C 77.804688 26.761719 77.25 27.320312 76.632812 27.820312 C 75.644531 28.628906 74.289062 29.558594 73.175781 28.9375 C 72.683594 28.6875 72.4375 27.941406 72.496094 27.382812 C 72.496094 25.765625 73.238281 24.085938 74.535156 22.46875 C 76.136719 20.480469 77.925781 19.421875 79.097656 19.984375 C 80.332031 20.542969 79.902344 21.972656 79.40625 23.09375 C 79.285156 23.15625 79.285156 23.277344 79.285156 23.339844 M 92.242188 10.777344 C 92.304688 10.652344 92.242188 10.53125 92.054688 10.53125 C 91.070312 10.53125 89.710938 10.53125 88.664062 10.53125 C 88.414062 10.53125 88.292969 10.59375 88.167969 10.777344 C 87.800781 11.523438 83.046875 18.675781 82.183594 20.042969 C 82.0625 20.230469 81.875 20.230469 81.8125 19.984375 C 81.691406 19.175781 81.011719 18.242188 79.902344 17.742188 C 79.039062 17.433594 78.234375 17.308594 77.371094 17.433594 C 75.828125 17.621094 74.472656 18.488281 73.238281 19.421875 C 71.386719 20.851562 69.84375 22.65625 67.808594 23.960938 C 66.699219 24.710938 65.15625 25.332031 64.167969 24.398438 C 63.242188 23.527344 63.367188 21.597656 64.785156 20.105469 C 64.910156 19.984375 65.09375 20.105469 65.09375 20.230469 C 64.972656 20.914062 65.15625 21.539062 65.648438 22.035156 C 66.265625 22.59375 67.128906 22.65625 67.933594 22.285156 C 68.859375 21.847656 69.351562 20.976562 69.476562 19.984375 C 69.722656 18.488281 68.550781 17.121094 67.128906 17.058594 C 65.957031 16.996094 64.847656 17.371094 63.738281 18.304688 C 63.179688 18.738281 62.875 19.113281 62.378906 19.796875 C 62.257812 19.984375 62.070312 19.984375 62.070312 19.734375 C 62.132812 17.804688 61.332031 16.6875 59.726562 16.6875 C 58.492188 16.625 57.195312 17.308594 56.148438 18.179688 C 55.039062 19.113281 54.050781 20.292969 53 21.414062 C 52.878906 21.539062 52.753906 21.539062 52.691406 21.289062 C 52.632812 19.984375 52.324219 18.738281 51.765625 17.867188 C 51.582031 17.558594 51.089844 17.433594 50.78125 17.621094 C 50.59375 17.742188 50.039062 17.992188 49.609375 18.304688 C 49.421875 18.488281 49.300781 18.738281 49.421875 19.050781 C 49.976562 20.976562 49.855469 23.15625 49.113281 24.957031 C 48.4375 26.636719 47.015625 28.191406 45.414062 28.6875 C 44.363281 29 43.253906 28.875 42.574219 27.941406 C 41.648438 26.636719 42.019531 24.335938 43.4375 22.46875 C 44.671875 20.792969 46.460938 19.734375 48.25 19.050781 C 48.4375 18.988281 48.496094 18.800781 48.4375 18.675781 C 48.3125 18.367188 48.1875 17.992188 48.128906 17.804688 C 47.941406 17.371094 47.511719 17.308594 46.957031 17.371094 C 45.660156 17.496094 44.488281 17.992188 43.316406 18.613281 C 40.292969 20.230469 38.75 23.402344 38.070312 25.082031 C 37.761719 25.890625 37.453125 26.386719 37.144531 26.824219 C 36.652344 27.445312 36.035156 28.003906 34.984375 28.9375 C 34.863281 29.0625 34.800781 29.1875 34.863281 29.375 C 34.984375 29.621094 35.542969 30.429688 35.726562 30.492188 C 35.910156 30.617188 36.097656 30.429688 36.21875 30.367188 C 36.960938 29.871094 37.886719 29 38.378906 28.441406 C 38.5625 28.253906 38.6875 28.316406 38.8125 28.628906 C 39.242188 30.121094 40.292969 31.363281 41.835938 31.859375 C 44.609375 32.792969 47.511719 31.425781 49.667969 29.0625 C 51.027344 27.570312 51.582031 26.574219 52.074219 25.890625 C 53 24.769531 54.730469 22.285156 56.828125 20.667969 C 57.628906 20.042969 58.492188 19.609375 58.984375 19.921875 C 59.355469 20.167969 59.480469 20.730469 58.863281 21.785156 C 56.703125 25.765625 53.558594 30.367188 53 31.550781 C 52.878906 31.738281 53 31.921875 53.1875 31.921875 C 54.296875 31.921875 55.40625 31.921875 56.457031 31.921875 C 56.640625 31.921875 56.703125 31.859375 56.765625 31.738281 C 58.429688 29.125 59.972656 26.636719 61.640625 24.085938 C 61.761719 23.960938 61.824219 24.023438 61.824219 24.148438 C 61.886719 24.769531 62.007812 25.578125 62.378906 26.078125 C 62.996094 27.074219 63.921875 27.507812 64.910156 27.507812 C 65.710938 27.507812 66.082031 27.382812 66.945312 27.074219 C 67.625 26.824219 68.179688 26.449219 68.609375 26.140625 C 68.859375 25.953125 68.917969 26.265625 68.917969 26.324219 C 68.550781 28.378906 69.042969 30.867188 71.015625 31.859375 C 73.484375 33.042969 76.136719 31.363281 77.679688 29.808594 C 77.804688 29.683594 77.988281 29.683594 77.988281 29.996094 C 78.050781 30.554688 78.296875 31.300781 78.792969 31.738281 C 80.085938 33.042969 82.679688 32.546875 85.332031 30.492188 C 86.996094 29.1875 88.785156 27.320312 90.328125 25.394531 C 90.390625 25.332031 90.453125 25.207031 90.328125 25.082031 C 90.082031 24.832031 89.710938 24.523438 89.464844 24.335938 C 89.339844 24.210938 89.21875 24.273438 89.09375 24.335938 C 87.492188 25.890625 86.007812 27.695312 83.910156 29.125 C 83.234375 29.621094 82.0625 30.058594 81.566406 29.3125 C 81.382812 29.0625 81.382812 28.6875 81.566406 28.191406 C 81.9375 26.636719 91.746094 11.648438 92.242188 10.777344 " fill-opacity="1" fill-rule="nonzero"/></g><g clip-path="url(#7fb6a0c23d)"><path fill="#ffffff" d="M 46.277344 12.582031 C 46.339844 12.832031 46.398438 12.832031 46.523438 12.832031 C 47.015625 12.707031 47.570312 12.332031 47.878906 11.835938 C 48.1875 11.402344 48.3125 10.777344 48.003906 10.53125 C 47.757812 10.28125 47.324219 10.34375 47.015625 10.652344 C 46.339844 11.152344 46.152344 11.960938 46.277344 12.582031 M 21.351562 31.859375 C 17.710938 31.859375 14.503906 29.621094 14.132812 25.703125 C 13.945312 23.527344 14.5625 21.597656 15.734375 19.984375 C 16.847656 18.550781 18.636719 17.371094 20.238281 17.058594 C 20.734375 16.933594 21.414062 16.996094 21.722656 17.371094 C 22.152344 17.867188 22.027344 18.488281 21.597656 18.675781 C 20.425781 19.296875 19.007812 20.355469 18.265625 21.785156 C 17.710938 22.96875 17.585938 24.335938 18.449219 25.703125 C 19.929688 27.941406 24.003906 28.003906 27.765625 24.460938 C 28.691406 23.589844 29.554688 22.78125 30.421875 21.785156 C 32.085938 19.859375 32.640625 19.175781 34.863281 16.066406 C 34.863281 16.003906 34.925781 16.003906 34.863281 15.941406 C 34.863281 15.878906 34.800781 15.878906 34.738281 15.878906 C 33.257812 15.878906 31.960938 16.3125 30.730469 17.246094 C 30.359375 17.496094 29.863281 17.496094 29.617188 17.121094 C 29.371094 16.75 29.554688 16.1875 29.988281 15.941406 C 32.023438 14.511719 34.246094 14.261719 36.464844 13.886719 C 36.464844 13.886719 36.589844 13.886719 36.773438 13.703125 C 37.699219 12.519531 38.378906 11.402344 39.367188 10.21875 C 40.351562 8.976562 41.648438 7.855469 42.636719 6.984375 C 43.992188 5.804688 44.855469 5.429688 45.78125 4.933594 C 46.03125 4.808594 45.722656 4.683594 45.660156 4.683594 C 40.660156 3.75 35.480469 2.507812 30.542969 4.371094 C 27.089844 5.679688 25.609375 8.414062 26.347656 10.21875 C 26.839844 11.523438 28.570312 11.710938 30.171875 10.964844 C 31.46875 10.28125 32.703125 9.285156 33.566406 7.917969 C 34.058594 7.171875 35.046875 7.730469 34.492188 9.039062 C 33.011719 12.457031 30.296875 15.195312 26.902344 15.320312 C 24.003906 15.441406 22.214844 13.265625 22.214844 10.652344 C 22.214844 5.492188 27.953125 2.070312 33.9375 1.574219 C 41.15625 0.953125 48.003906 2.878906 55.222656 3.8125 C 60.714844 4.496094 66.019531 4.496094 71.511719 3.191406 C 72.191406 3.066406 72.621094 3.503906 72.558594 4.125 C 72.496094 5.058594 71.757812 5.988281 69.96875 7.046875 C 67.871094 8.167969 65.710938 8.539062 63.488281 8.539062 C 57.9375 8.539062 52.878906 6.363281 47.570312 5.242188 C 47.570312 5.492188 47.632812 5.742188 47.449219 5.925781 C 44.550781 8.105469 41.894531 10.28125 40.105469 13.390625 C 40.046875 13.453125 40.046875 13.515625 40.167969 13.515625 C 41.710938 13.453125 43.066406 13.390625 44.550781 13.265625 C 44.796875 13.265625 44.796875 13.203125 44.796875 13.015625 C 44.671875 11.960938 44.980469 10.714844 45.90625 9.90625 C 46.832031 9.039062 48.066406 8.976562 48.867188 9.597656 C 49.792969 10.28125 49.667969 11.585938 49.175781 12.519531 C 48.683594 13.515625 47.878906 14.011719 47.078125 14.261719 C 47.078125 14.261719 46.894531 14.324219 46.957031 14.449219 C 47.015625 14.695312 48.066406 15.320312 48.1875 15.441406 C 48.3125 15.566406 48.25 15.816406 48.066406 16.003906 C 47.941406 16.125 47.757812 16.25 47.570312 16.25 C 47.386719 16.25 47.261719 16.1875 47.015625 16.066406 C 46.523438 15.816406 45.90625 15.378906 45.535156 14.820312 C 45.414062 14.632812 45.351562 14.632812 44.980469 14.632812 C 43.4375 14.757812 41.03125 14.945312 39.367188 15.132812 C 38.996094 15.195312 38.933594 15.257812 38.8125 15.378906 C 36.21875 19.734375 33.382812 24.398438 30.359375 27.570312 C 26.964844 30.929688 24.25 31.859375 21.351562 31.859375 " fill-opacity="1" fill-rule="nonzero"/></g></svg>