<svg xmlns="http://www.w3.org/2000/svg" xmlns:xlink="http://www.w3.org/1999/xlink" width="145" zoomAndPan="magnify" viewBox="0 0 108.75 33.749998" height="45" preserveAspectRatio="xMidYMid meet" version="1.0"><defs><clipPath id="273ada7b9e"><path d="M 0.753906 9.109375 L 107.960938 9.109375 L 107.960938 24.742188 L 0.753906 24.742188 Z M 0.753906 9.109375 " clip-rule="nonzero"/></clipPath></defs><g clip-path="url(#273ada7b9e)"><path fill="#ffffff" d="M 106.535156 22.921875 L 106.535156 23.316406 L 106.765625 23.316406 C 106.910156 23.316406 106.996094 23.265625 106.996094 23.117188 C 106.996094 22.996094 106.929688 22.921875 106.792969 22.921875 Z M 106.332031 22.75 L 106.792969 22.75 C 107.058594 22.75 107.199219 22.886719 107.199219 23.105469 C 107.199219 23.296875 107.117188 23.40625 106.984375 23.460938 L 107.195312 23.859375 L 106.972656 23.859375 L 106.777344 23.492188 L 106.535156 23.492188 L 106.535156 23.859375 L 106.332031 23.859375 Z M 106.757812 24.304688 C 107.308594 24.304688 107.691406 23.964844 107.691406 23.328125 C 107.691406 22.695312 107.308594 22.355469 106.757812 22.355469 C 106.203125 22.355469 105.820312 22.695312 105.820312 23.328125 C 105.820312 23.964844 106.203125 24.304688 106.757812 24.304688 Z M 106.757812 22.199219 C 107.460938 22.199219 107.875 22.652344 107.875 23.328125 C 107.875 24.003906 107.460938 24.453125 106.757812 24.453125 C 106.050781 24.453125 105.644531 24.003906 105.644531 23.328125 C 105.644531 22.652344 106.050781 22.199219 106.757812 22.199219 Z M 54.738281 24.320312 L 50.742188 17.242188 L 54.492188 13.070312 L 50.675781 13.070312 L 46.777344 17.546875 L 46.777344 9.109375 L 43.414062 9.109375 L 43.414062 24.320312 L 46.777344 24.320312 L 46.777344 21.585938 L 48.386719 19.824219 L 50.910156 24.320312 Z M 104.691406 24.320312 L 100.695312 17.242188 L 104.445312 13.070312 L 100.675781 13.070312 L 96.730469 17.546875 L 96.730469 9.109375 L 93.367188 9.109375 L 93.367188 24.320312 L 96.730469 24.320312 L 96.730469 21.585938 L 98.34375 19.824219 L 100.863281 24.320312 Z M 26.277344 20.558594 C 26.277344 21.589844 25.300781 22.269531 24.191406 22.269531 C 23.140625 22.269531 22.625 21.71875 22.625 20.953125 C 22.625 20.148438 23.207031 19.5625 24.375 19.5625 C 25.097656 19.5625 25.75 19.6875 26.277344 19.8125 Z M 30.867188 24.128906 L 30.867188 21.742188 C 30.722656 21.78125 30.503906 21.824219 30.292969 21.824219 C 29.851562 21.824219 29.640625 21.601562 29.640625 21.179688 L 29.640625 17.238281 C 29.640625 14.289062 27.703125 12.710938 24.496094 12.710938 C 22.417969 12.710938 20.621094 13.488281 19.503906 14.5 L 21.375 16.65625 C 22.125 15.992188 23.121094 15.554688 24.078125 15.554688 C 25.5625 15.554688 26.277344 16.3125 26.277344 17.570312 L 26.277344 17.941406 C 25.566406 17.765625 24.691406 17.601562 23.609375 17.601562 C 20.898438 17.601562 19.144531 18.921875 19.144531 21.136719 C 19.144531 23.394531 20.609375 24.585938 22.882812 24.585938 C 24.441406 24.585938 25.816406 23.933594 26.554688 23.089844 C 26.992188 24.199219 27.933594 24.5 28.875 24.5 C 29.492188 24.5 30.226562 24.390625 30.867188 24.128906 Z M 59.152344 16.1875 L 61.753906 16.1875 C 63.375 16.1875 64.152344 15.261719 64.152344 14.148438 C 64.152344 12.839844 63.40625 12.125 61.753906 12.125 L 59.152344 12.125 Z M 64.144531 24.320312 L 61.320312 19.203125 L 59.152344 19.203125 L 59.152344 24.320312 L 55.648438 24.320312 L 55.648438 9.109375 L 61.953125 9.109375 C 65.363281 9.109375 67.75 10.769531 67.75 14.046875 C 67.75 16.144531 66.730469 17.609375 64.933594 18.527344 L 68.199219 24.320312 Z M 92.574219 15.773438 C 91.636719 13.789062 89.898438 12.679688 87.269531 12.679688 C 84.160156 12.679688 81.390625 14.675781 81.390625 18.621094 C 81.390625 22.476562 83.828125 24.609375 87.222656 24.609375 C 89.609375 24.609375 91.617188 23.632812 92.550781 21.535156 L 89.816406 20.089844 C 89.324219 21.027344 88.550781 21.609375 87.335938 21.609375 C 85.773438 21.609375 84.742188 20.460938 84.742188 18.617188 C 84.742188 16.765625 85.90625 15.648438 87.3125 15.648438 C 88.402344 15.648438 89.242188 16.160156 89.75 17.25 Z M 42.578125 15.773438 C 41.640625 13.789062 39.902344 12.679688 37.273438 12.679688 C 34.164062 12.679688 31.390625 14.675781 31.390625 18.621094 C 31.390625 22.476562 33.832031 24.609375 37.226562 24.609375 C 39.613281 24.609375 41.617188 23.632812 42.554688 21.535156 L 39.820312 20.089844 C 39.328125 21.027344 38.550781 21.609375 37.339844 21.609375 C 35.777344 21.609375 34.746094 20.460938 34.746094 18.617188 C 34.746094 16.765625 35.910156 15.648438 37.316406 15.648438 C 38.402344 15.648438 39.246094 16.160156 39.75 17.25 Z M 9.332031 19.714844 C 9.332031 20.714844 8.660156 21.371094 7.382812 21.371094 L 4.324219 21.371094 L 4.324219 18.058594 L 7.382812 18.058594 C 8.597656 18.058594 9.332031 18.691406 9.332031 19.714844 Z M 9.011719 13.597656 C 9.011719 14.632812 8.363281 15.230469 7.132812 15.230469 L 4.328125 15.230469 L 4.328125 12.058594 L 7.132812 12.058594 C 8.261719 12.058594 9.011719 12.570312 9.011719 13.597656 Z M 13.050781 19.9375 C 13.050781 18.230469 12.183594 16.910156 10.632812 16.332031 C 12.105469 15.519531 12.621094 14.425781 12.621094 13.15625 C 12.621094 10.933594 11.046875 9.109375 7.539062 9.109375 L 0.789062 9.109375 L 0.789062 24.320312 L 7.824219 24.320312 C 11.359375 24.320312 13.050781 22.523438 13.050781 19.9375 Z M 76.996094 18.628906 C 76.996094 20.550781 75.746094 21.632812 74.277344 21.632812 C 72.808594 21.632812 71.554688 20.550781 71.554688 18.628906 C 71.554688 16.6875 72.804688 15.648438 74.277344 15.648438 C 75.746094 15.648438 76.996094 16.6875 76.996094 18.628906 Z M 80.34375 18.628906 C 80.34375 14.960938 77.558594 12.664062 74.277344 12.664062 C 70.992188 12.664062 68.207031 14.960938 68.207031 18.628906 C 68.207031 22.296875 70.992188 24.617188 74.277344 24.617188 C 77.558594 24.617188 80.34375 22.296875 80.34375 18.628906 Z M 14.410156 24.320312 L 17.804688 24.320312 L 17.804688 9.109375 L 14.410156 9.109375 Z M 14.410156 24.320312 " fill-opacity="1" fill-rule="evenodd"/></g></svg>