<svg xmlns="http://www.w3.org/2000/svg" xmlns:xlink="http://www.w3.org/1999/xlink" width="145" zoomAndPan="magnify" viewBox="0 0 108.75 33.749998" height="45" preserveAspectRatio="xMidYMid meet" version="1.0"><defs><clipPath id="d34378ae10"><path d="M 3.625 12 L 8 12 L 8 19 L 3.625 19 Z M 3.625 12 " clip-rule="nonzero"/></clipPath><clipPath id="942620e789"><path d="M 91 9.910156 L 101.898438 9.910156 L 101.898438 21.074219 L 91 21.074219 Z M 91 9.910156 " clip-rule="nonzero"/></clipPath></defs><path fill="#ffffff" d="M 45.460938 15.492188 C 45.441406 16.367188 45.765625 17.203125 46.375 17.835938 C 46.96875 18.453125 47.796875 18.804688 48.640625 18.785156 C 50.382812 18.785156 51.800781 17.316406 51.800781 15.511719 C 51.835938 14.617188 51.511719 13.761719 50.921875 13.128906 C 50.328125 12.496094 49.5 12.160156 48.640625 12.179688 C 46.878906 12.199219 45.476562 13.667969 45.460938 15.492188 Z M 46.664062 15.492188 C 46.664062 14.320312 47.472656 13.222656 48.675781 13.222656 C 49.878906 13.222656 50.6875 14.132812 50.6875 15.492188 C 50.722656 16.070312 50.527344 16.628906 50.148438 17.054688 C 49.769531 17.484375 49.25 17.726562 48.695312 17.726562 C 47.472656 17.761719 46.664062 16.8125 46.664062 15.492188 Z M 46.664062 15.492188 " fill-opacity="1" fill-rule="nonzero"/><path fill="#ffffff" d="M 38.527344 15.492188 C 38.492188 16.367188 38.8125 17.222656 39.425781 17.855469 C 40.035156 18.488281 40.84375 18.824219 41.707031 18.785156 C 42.660156 18.824219 43.574219 18.359375 44.132812 17.539062 L 44.167969 17.503906 L 43.285156 16.738281 L 43.25 16.8125 C 42.945312 17.429688 42.335938 17.800781 41.671875 17.761719 C 40.46875 17.761719 39.660156 16.777344 39.660156 15.492188 C 39.621094 14.914062 39.820312 14.355469 40.199219 13.929688 C 40.574219 13.5 41.09375 13.257812 41.652344 13.242188 C 42.300781 13.257812 42.890625 13.59375 43.234375 14.152344 L 43.269531 14.191406 L 44.148438 13.464844 L 44.113281 13.425781 C 43.503906 12.664062 42.605469 12.214844 41.652344 12.214844 C 40.808594 12.214844 40.019531 12.570312 39.425781 13.183594 C 38.851562 13.78125 38.527344 14.617188 38.527344 15.492188 Z M 38.527344 15.492188 " fill-opacity="1" fill-rule="nonzero"/><path fill="#ffffff" d="M 83.179688 15.996094 L 83.179688 18.636719 L 84.3125 18.636719 L 84.3125 15.996094 L 86.539062 12.347656 L 85.300781 12.347656 L 83.753906 14.878906 L 82.265625 12.347656 L 80.972656 12.347656 Z M 83.179688 15.996094 " fill-opacity="1" fill-rule="nonzero"/><path fill="#ffffff" d="M 62.578125 12.347656 L 62.578125 18.621094 L 63.746094 18.621094 L 63.746094 16.292969 C 63.816406 16.292969 63.925781 16.328125 64.035156 16.328125 C 65.507812 16.328125 66.53125 15.679688 66.53125 14.355469 C 66.53125 13.109375 65.648438 12.347656 63.996094 12.347656 Z M 63.746094 13.296875 L 64.035156 13.296875 C 64.984375 13.296875 65.378906 13.667969 65.378906 14.320312 C 65.378906 14.972656 64.949219 15.34375 64.035156 15.34375 C 63.945312 15.363281 63.835938 15.34375 63.746094 15.304688 Z M 63.746094 13.296875 " fill-opacity="1" fill-rule="nonzero"/><path fill="#ffffff" d="M 54.910156 15.230469 L 56.8125 18.804688 L 58.679688 15.230469 L 59.417969 18.636719 L 60.621094 18.636719 L 59.023438 12.234375 L 56.847656 16.480469 L 54.585938 12.234375 L 53.078125 18.675781 L 54.207031 18.675781 Z M 54.910156 15.230469 " fill-opacity="1" fill-rule="nonzero"/><path fill="#ffffff" d="M 23.816406 16.070312 L 19.792969 12.234375 L 19.792969 18.675781 L 20.886719 18.675781 L 20.886719 14.953125 L 24.929688 18.804688 L 24.929688 12.347656 L 23.816406 12.347656 Z M 23.816406 16.070312 " fill-opacity="1" fill-rule="nonzero"/><path fill="#ffffff" d="M 15.984375 12.347656 L 15.984375 18.636719 L 17.152344 18.636719 L 17.152344 12.347656 Z M 15.984375 12.347656 " fill-opacity="1" fill-rule="nonzero"/><path fill="#ffffff" d="M 14.511719 18.636719 L 11.546875 12.214844 L 8.582031 18.636719 L 9.75 18.636719 L 10.34375 17.277344 L 12.660156 17.277344 L 13.21875 18.636719 Z M 10.773438 16.292969 L 11.546875 14.46875 L 12.25 16.292969 Z M 10.773438 16.292969 " fill-opacity="1" fill-rule="nonzero"/><g clip-path="url(#d34378ae10)"><path fill="#ffffff" d="M 6.554688 15.304688 C 7.058594 15.0625 7.363281 14.5625 7.363281 13.984375 C 7.363281 12.886719 6.519531 12.347656 5.082031 12.347656 L 3.625 12.347656 L 3.625 18.621094 L 5.351562 18.621094 C 6.894531 18.621094 7.738281 17.96875 7.738281 16.796875 C 7.722656 16.089844 7.238281 15.472656 6.554688 15.304688 Z M 5.277344 15.957031 C 6.085938 15.957031 6.554688 16.179688 6.554688 16.832031 C 6.554688 17.410156 6.125 17.671875 5.277344 17.671875 L 4.792969 17.671875 L 4.792969 15.957031 Z M 4.792969 15.027344 L 4.792969 13.316406 L 5.007812 13.316406 C 5.855469 13.316406 6.285156 13.539062 6.285156 14.191406 C 6.285156 14.839844 5.855469 15.027344 5.046875 15.027344 Z M 4.792969 15.027344 " fill-opacity="1" fill-rule="nonzero"/></g><path fill="#ffffff" d="M 33.605469 18.675781 L 34.953125 18.675781 C 34.953125 18.675781 33.929688 17.464844 33.75 17.261719 C 33.894531 17.074219 34.773438 15.695312 34.773438 15.695312 L 33.675781 15.695312 L 33.15625 16.535156 L 32.203125 15.398438 C 33.011719 14.953125 33.515625 14.339844 33.515625 13.6875 C 33.515625 12.8125 32.777344 12.234375 31.828125 12.234375 C 30.765625 12.234375 30.066406 12.886719 30.066406 13.761719 C 30.101562 14.320312 30.335938 14.859375 30.730469 15.25 C 30.101562 15.621094 29.527344 16.164062 29.527344 17.074219 C 29.527344 18.0625 30.300781 18.824219 31.433594 18.824219 C 32.078125 18.84375 32.6875 18.5625 33.121094 18.0625 Z M 31.089844 13.78125 C 31.089844 13.59375 31.164062 13.390625 31.289062 13.257812 C 31.414062 13.128906 31.613281 13.054688 31.792969 13.054688 C 31.96875 13.035156 32.132812 13.109375 32.257812 13.222656 C 32.382812 13.351562 32.457031 13.519531 32.457031 13.707031 C 32.457031 14.152344 32.023438 14.46875 31.613281 14.691406 C 31.34375 14.46875 31.144531 14.132812 31.089844 13.78125 Z M 32.472656 17.355469 C 32.238281 17.652344 31.898438 17.835938 31.523438 17.820312 C 31.289062 17.835938 31.054688 17.761719 30.875 17.59375 C 30.695312 17.429688 30.605469 17.1875 30.605469 16.945312 C 30.640625 16.515625 30.875 16.125 31.234375 15.921875 L 31.269531 15.921875 Z M 32.472656 17.355469 " fill-opacity="1" fill-rule="nonzero"/><path fill="#ffffff" d="M 78.476562 16.070312 L 74.453125 12.234375 L 74.453125 18.636719 L 75.582031 18.636719 L 75.582031 14.953125 L 79.589844 18.804688 L 79.589844 12.347656 L 78.476562 12.347656 Z M 78.476562 16.070312 " fill-opacity="1" fill-rule="nonzero"/><path fill="#ffffff" d="M 72.976562 18.636719 L 70.015625 12.214844 L 67.050781 18.636719 L 68.21875 18.636719 L 68.8125 17.277344 L 71.128906 17.277344 L 71.683594 18.636719 Z M 69.242188 16.292969 L 70.015625 14.46875 L 70.714844 16.292969 Z M 69.242188 16.292969 " fill-opacity="1" fill-rule="nonzero"/><g clip-path="url(#942620e789)"><path fill="#ffffff" d="M 98.394531 15.789062 L 97.40625 11.265625 L 94.695312 14.914062 Z M 101.898438 15.492188 C 101.898438 18.582031 99.492188 21.074219 96.507812 21.074219 C 93.527344 21.074219 91.121094 18.582031 91.121094 15.492188 C 91.121094 12.402344 93.527344 9.910156 96.507812 9.910156 C 96.796875 9.910156 97.066406 9.945312 97.351562 9.984375 L 96.902344 10.597656 L 96.507812 10.597656 C 95.324219 10.578125 94.175781 11.0625 93.3125 11.917969 C 92.449219 12.773438 91.964844 13.964844 91.964844 15.195312 C 91.964844 17.800781 93.996094 19.902344 96.507812 19.902344 C 99.023438 19.902344 101.054688 17.800781 101.054688 15.195312 C 101.035156 13.296875 99.886719 11.582031 98.160156 10.933594 L 97.980469 10.167969 C 100.300781 10.820312 101.898438 13.015625 101.898438 15.492188 Z M 101.898438 15.492188 " fill-opacity="1" fill-rule="nonzero"/></g></svg>