<svg xmlns="http://www.w3.org/2000/svg" xmlns:xlink="http://www.w3.org/1999/xlink" width="145" zoomAndPan="magnify" viewBox="0 0 108.75 33.749998" height="45" preserveAspectRatio="xMidYMid meet" version="1.0"><defs><clipPath id="58921812bd"><path d="M 10.550781 4.050781 L 22 4.050781 L 22 14 L 10.550781 14 Z M 10.550781 4.050781 " clip-rule="nonzero"/></clipPath><clipPath id="b217c5e6c0"><path d="M 37 4.050781 L 40 4.050781 L 40 6 L 37 6 Z M 37 4.050781 " clip-rule="nonzero"/></clipPath><clipPath id="a000a672bf"><path d="M 27 4.050781 L 48 4.050781 L 48 14 L 27 14 Z M 27 4.050781 " clip-rule="nonzero"/></clipPath><clipPath id="9722e15c12"><path d="M 65 19 L 73 19 L 73 29.363281 L 65 29.363281 Z M 65 19 " clip-rule="nonzero"/></clipPath><clipPath id="5ddea382b9"><path d="M 85 20 L 92.441406 20 L 92.441406 29.363281 L 85 29.363281 Z M 85 20 " clip-rule="nonzero"/></clipPath></defs><g clip-path="url(#58921812bd)"><path fill="#ffffff" d="M 11.855469 5.238281 C 11.855469 5.050781 11.332031 4.527344 11.140625 4.527344 L 10.664062 4.527344 L 10.664062 4.050781 L 13.425781 4.050781 L 16.285156 11.222656 L 16.332031 11.222656 L 19.332031 4.050781 L 21.808594 4.050781 L 21.808594 4.527344 L 21.332031 4.527344 C 21.140625 4.527344 20.617188 5.050781 20.617188 5.238281 L 20.617188 12.363281 C 20.617188 12.554688 21.1875 13.074219 21.332031 13.074219 L 21.808594 13.074219 L 21.808594 13.550781 L 18.140625 13.550781 L 18.140625 13.074219 L 18.617188 13.074219 C 18.808594 13.074219 19.332031 12.554688 19.332031 12.363281 L 19.332031 5.429688 L 15.902344 13.691406 L 12.425781 5.289062 L 12.425781 12.316406 C 12.425781 12.507812 13 13.027344 13.140625 13.027344 L 13.617188 13.027344 L 13.617188 13.503906 L 10.664062 13.503906 L 10.664062 13.027344 L 11.140625 13.027344 C 11.332031 13.027344 11.855469 12.507812 11.855469 12.316406 Z M 11.855469 5.238281 " fill-opacity="1" fill-rule="nonzero"/></g><path fill="#ffffff" d="M 25.855469 9.464844 C 26.046875 8.515625 25.855469 7.660156 24.808594 7.660156 C 23.570312 7.660156 22.996094 8.660156 22.996094 10.082031 C 22.996094 11.460938 23.855469 12.601562 25.285156 12.601562 C 26.332031 12.601562 26.808594 12.222656 27.234375 11.507812 L 27.617188 11.507812 C 27.234375 12.839844 26.378906 13.691406 24.855469 13.691406 C 23.140625 13.691406 22.046875 12.222656 22.046875 10.511719 C 22.046875 8.515625 23.378906 7.234375 24.996094 7.234375 C 25.949219 7.234375 26.617188 7.519531 27.1875 8.089844 L 26.285156 9.464844 Z M 25.855469 9.464844 " fill-opacity="1" fill-rule="nonzero"/><g clip-path="url(#b217c5e6c0)"><path fill="#ffffff" d="M 38.28125 5.90625 C 38.757812 5.90625 39.09375 5.574219 39.09375 5.097656 C 39.09375 4.621094 38.710938 4.335938 38.28125 4.335938 C 37.804688 4.335938 37.472656 4.621094 37.472656 5.097656 C 37.472656 5.574219 37.804688 5.90625 38.28125 5.90625 " fill-opacity="1" fill-rule="nonzero"/></g><g clip-path="url(#a000a672bf)"><path fill="#ffffff" d="M 46.996094 13.074219 C 46.804688 13.074219 46.328125 12.648438 46.328125 12.410156 L 46.328125 8.992188 C 46.328125 7.945312 45.566406 7.234375 44.617188 7.234375 C 43.519531 7.234375 42.949219 7.851562 42.1875 8.613281 L 41.949219 7.375 L 39.996094 7.375 L 39.996094 7.851562 L 40.378906 7.851562 C 40.570312 7.851562 41.042969 8.328125 41.042969 8.515625 L 41.042969 12.457031 C 41.042969 12.648438 40.570312 13.125 40.378906 13.125 L 39.617188 13.125 C 39.425781 13.125 38.949219 12.695312 38.949219 12.457031 L 38.949219 7.375 L 36.757812 7.375 L 36.757812 7.851562 L 37.140625 7.851562 C 37.332031 7.851562 37.804688 8.277344 37.804688 8.46875 L 37.804688 12.410156 C 37.804688 12.601562 37.332031 13.074219 37.140625 13.074219 L 36.425781 13.074219 C 36.234375 13.074219 35.472656 12.507812 35.28125 12.269531 L 31.949219 7.851562 L 34.28125 5.382812 C 34.425781 5.238281 35.332031 4.527344 35.519531 4.527344 L 35.996094 4.527344 L 35.996094 4.050781 L 32.570312 4.050781 L 32.570312 4.527344 L 33.046875 4.527344 C 33.234375 4.527344 33.757812 5.191406 33.617188 5.335938 L 30.234375 9.132812 L 30.234375 5.238281 C 30.234375 5.050781 30.808594 4.527344 30.949219 4.527344 L 31.425781 4.527344 L 31.425781 4.050781 L 27.710938 4.050781 L 27.710938 4.527344 L 28.1875 4.527344 C 28.378906 4.527344 28.902344 5.050781 28.902344 5.238281 L 28.902344 12.363281 C 28.902344 12.554688 28.332031 13.074219 28.1875 13.074219 L 27.710938 13.074219 L 27.710938 13.550781 L 31.425781 13.550781 L 31.425781 13.074219 L 30.949219 13.074219 C 30.757812 13.074219 30.234375 12.554688 30.234375 12.363281 L 30.234375 9.847656 L 31.1875 8.800781 L 34.472656 13.550781 L 43.332031 13.550781 L 43.332031 13.074219 L 42.996094 13.074219 C 42.804688 13.074219 42.332031 12.648438 42.332031 12.410156 L 42.332031 9.277344 C 42.332031 8.847656 43.472656 7.996094 44.328125 7.996094 C 44.996094 7.996094 45.328125 8.46875 45.328125 9.039062 L 45.328125 12.410156 C 45.328125 12.601562 44.855469 13.074219 44.664062 13.074219 L 44.328125 13.074219 L 44.328125 13.550781 L 47.328125 13.550781 L 47.328125 13.074219 Z M 46.996094 13.074219 " fill-opacity="1" fill-rule="nonzero"/></g><path fill="#ffffff" d="M 48.140625 11.367188 C 48.140625 11.9375 48.996094 13.171875 50.328125 13.171875 C 51.089844 13.171875 51.519531 12.886719 51.519531 12.316406 C 51.519531 11.605469 50.902344 11.414062 50.378906 11.175781 C 49.949219 10.984375 49.617188 10.84375 49.089844 10.605469 C 48.328125 10.273438 47.804688 9.75 47.804688 8.945312 C 47.804688 7.851562 48.472656 7.1875 49.664062 7.1875 C 50.328125 7.1875 50.710938 7.519531 51.1875 7.519531 C 51.378906 7.519531 51.472656 7.472656 51.519531 7.328125 L 51.851562 7.328125 L 51.851562 9.230469 L 51.472656 9.230469 C 51.472656 8.707031 50.757812 7.660156 49.617188 7.660156 C 48.902344 7.660156 48.566406 7.996094 48.566406 8.46875 C 48.566406 8.992188 48.949219 9.179688 49.566406 9.464844 C 50.042969 9.65625 50.378906 9.800781 50.902344 10.035156 C 51.566406 10.273438 52.328125 10.84375 52.328125 11.839844 C 52.328125 13.027344 51.519531 13.691406 50.378906 13.691406 C 49.617188 13.691406 49.140625 13.3125 48.617188 13.3125 C 48.378906 13.3125 48.28125 13.359375 48.140625 13.503906 L 47.855469 13.503906 L 47.855469 11.320312 L 48.140625 11.320312 Z M 48.140625 11.367188 " fill-opacity="1" fill-rule="nonzero"/><path fill="#ffffff" d="M 52.664062 10.464844 C 52.664062 8.660156 53.902344 7.234375 55.519531 7.234375 C 56.902344 7.234375 57.710938 8.183594 57.757812 9.417969 L 57.804688 9.847656 L 53.710938 10.179688 C 53.710938 11.414062 54.566406 12.648438 55.949219 12.648438 C 56.996094 12.648438 57.472656 12.269531 57.851562 11.554688 L 58.234375 11.554688 C 57.804688 12.886719 57.042969 13.742188 55.566406 13.742188 C 53.804688 13.691406 52.664062 12.171875 52.664062 10.464844 M 56.710938 9.464844 C 56.804688 8.613281 56.664062 7.710938 55.472656 7.710938 C 54.1875 7.710938 53.664062 8.753906 53.664062 9.703125 Z M 56.710938 9.464844 " fill-opacity="1" fill-rule="nonzero"/><path fill="#ffffff" d="M 58.851562 8.515625 C 58.757812 8.328125 58.1875 7.851562 58.042969 7.851562 L 57.757812 7.851562 L 57.757812 7.375 L 61.042969 7.375 L 61.042969 7.851562 L 60.664062 7.851562 C 60.472656 7.851562 60.089844 8.277344 60.089844 8.515625 L 61.519531 11.792969 L 62.949219 8.515625 C 62.949219 8.277344 62.566406 7.851562 62.425781 7.851562 L 62.042969 7.851562 L 62.042969 7.375 L 64.519531 7.375 L 64.519531 7.851562 L 64.234375 7.851562 C 64.089844 7.851562 63.664062 8.328125 63.519531 8.515625 L 61.425781 13.265625 L 59.851562 16.683594 L 59.28125 16.449219 L 60.949219 13.074219 Z M 58.851562 8.515625 " fill-opacity="1" fill-rule="nonzero"/><path fill="#ffffff" d="M 29.046875 18.441406 C 29.046875 19.203125 29.570312 19.820312 30.378906 20.105469 C 31.617188 21.433594 33.09375 22.8125 34.378906 23.953125 C 34.757812 23.332031 34.855469 22.714844 34.855469 21.910156 C 34.855469 21.054688 34.28125 20.53125 33.332031 20.484375 L 33.332031 20.007812 L 36.710938 20.007812 L 36.710938 20.484375 L 36.378906 20.484375 C 36.1875 20.484375 35.519531 21.246094 35.519531 21.527344 C 35.472656 22.335938 35.28125 23.332031 34.664062 24.1875 C 35.378906 24.804688 36.042969 25.328125 36.617188 25.707031 L 37.1875 25.707031 L 37.1875 26.183594 L 36.140625 26.183594 C 35.234375 26.183594 34.570312 25.945312 33.757812 25.234375 C 32.996094 25.945312 32.046875 26.375 30.617188 26.375 C 29.09375 26.375 27.617188 25.234375 27.617188 23.570312 C 27.617188 22.242188 28.285156 21.292969 29.140625 20.675781 C 28.664062 20.105469 28.378906 19.535156 28.378906 18.679688 C 28.378906 17.300781 29.285156 16.589844 30.664062 16.589844 C 31.519531 16.589844 31.996094 16.875 32.378906 16.875 C 32.570312 16.875 32.710938 16.875 32.808594 16.683594 L 33.234375 16.683594 L 33.234375 18.917969 L 32.808594 18.917969 C 32.808594 18.300781 31.855469 17.015625 30.617188 17.015625 C 29.664062 17.066406 29.046875 17.585938 29.046875 18.441406 M 28.617188 23 C 28.617188 24.378906 30.046875 25.660156 31.425781 25.660156 C 32.28125 25.660156 32.949219 25.421875 33.472656 25.042969 C 32.09375 23.855469 30.570312 22.382812 29.378906 21.007812 C 28.902344 21.480469 28.617188 22.003906 28.617188 23 " fill-opacity="1" fill-rule="nonzero"/><path fill="#ffffff" d="M 46.949219 20.105469 C 46.949219 19.105469 45.855469 17.160156 44.042969 17.160156 C 42.378906 17.160156 41.425781 18.0625 41.234375 20.199219 C 41.1875 21.054688 41.1875 21.765625 41.28125 22.621094 C 41.425781 24.285156 42.566406 25.660156 44.519531 25.660156 C 46.1875 25.660156 46.949219 24.949219 47.566406 23.714844 L 48.042969 23.714844 C 47.425781 25.421875 46.09375 26.421875 44.1875 26.421875 C 41.472656 26.421875 39.710938 24.1875 39.710938 21.480469 C 39.710938 18.773438 41.28125 16.589844 43.949219 16.589844 C 44.949219 16.589844 45.617188 17.015625 46.328125 17.015625 C 46.617188 17.015625 46.757812 16.921875 46.902344 16.78125 L 47.328125 16.78125 L 47.328125 20.152344 L 46.949219 20.152344 Z M 46.949219 20.105469 " fill-opacity="1" fill-rule="nonzero"/><path fill="#ffffff" d="M 48.710938 23.144531 C 48.710938 21.148438 50.140625 19.914062 51.757812 19.914062 C 53.378906 19.914062 54.804688 21.148438 54.804688 23.144531 C 54.804688 25.136719 53.378906 26.421875 51.757812 26.421875 C 50.140625 26.421875 48.710938 25.136719 48.710938 23.144531 M 53.617188 24.1875 C 53.710938 23.570312 53.710938 22.714844 53.617188 22.097656 C 53.519531 21.101562 52.949219 20.4375 51.804688 20.4375 C 50.710938 20.4375 50.140625 21.101562 49.996094 22.097656 C 49.902344 22.714844 49.902344 23.570312 49.996094 24.1875 C 50.140625 25.136719 50.664062 25.851562 51.804688 25.851562 C 52.949219 25.804688 53.519531 25.136719 53.617188 24.1875 " fill-opacity="1" fill-rule="nonzero"/><path fill="#ffffff" d="M 64.851562 25.089844 C 64.851562 25.28125 65.328125 25.753906 65.519531 25.753906 L 65.804688 25.753906 L 65.804688 26.230469 L 62.710938 26.230469 L 62.710938 25.753906 L 63.042969 25.753906 C 63.234375 25.753906 63.710938 25.328125 63.710938 25.089844 L 63.710938 21.671875 C 63.710938 21.054688 63.425781 20.675781 62.757812 20.675781 C 61.949219 20.675781 60.949219 21.433594 60.949219 21.863281 L 60.949219 25.089844 C 60.949219 25.28125 61.425781 25.753906 61.613281 25.753906 L 61.949219 25.753906 L 61.949219 26.230469 L 58.804688 26.230469 L 58.804688 25.753906 L 59.140625 25.753906 C 59.328125 25.753906 59.804688 25.328125 59.804688 25.089844 L 59.804688 21.671875 C 59.804688 21.054688 59.472656 20.675781 58.804688 20.675781 C 57.996094 20.675781 56.996094 21.480469 56.996094 21.910156 L 56.996094 25.089844 C 56.996094 25.28125 57.472656 25.753906 57.664062 25.753906 L 57.996094 25.753906 L 57.996094 26.230469 L 54.851562 26.230469 L 54.851562 25.753906 L 55.1875 25.753906 C 55.378906 25.753906 55.851562 25.328125 55.851562 25.089844 L 55.851562 21.148438 C 55.851562 20.960938 55.378906 20.484375 55.1875 20.484375 L 54.851562 20.484375 L 54.851562 20.007812 L 56.757812 20.007812 L 56.996094 21.195312 C 57.710938 20.4375 58.140625 19.867188 59.234375 19.867188 C 60.042969 19.867188 60.757812 20.292969 60.851562 21.148438 C 61.613281 20.390625 62.089844 19.867188 63.136719 19.867188 C 64.042969 19.867188 64.804688 20.484375 64.804688 21.625 L 64.804688 25.089844 Z M 64.851562 25.089844 " fill-opacity="1" fill-rule="nonzero"/><g clip-path="url(#9722e15c12)"><path fill="#ffffff" d="M 67.613281 20.058594 L 67.804688 21.339844 C 68.328125 20.34375 68.996094 19.914062 70.042969 19.914062 C 71.566406 19.914062 72.472656 21.195312 72.472656 23.050781 C 72.472656 24.902344 71.421875 26.375 69.949219 26.375 C 68.851562 26.375 68.28125 25.945312 67.851562 25.136719 L 67.851562 28.082031 C 67.851562 28.273438 68.328125 28.746094 68.519531 28.746094 L 68.949219 28.746094 L 68.949219 29.222656 L 65.664062 29.222656 L 65.664062 28.746094 L 66.089844 28.746094 C 66.28125 28.746094 66.757812 28.320312 66.757812 28.082031 L 66.757812 21.195312 C 66.757812 21.007812 66.28125 20.53125 66.089844 20.53125 L 65.664062 20.53125 L 65.664062 20.058594 Z M 67.851562 22.289062 L 67.851562 23.902344 C 67.851562 24.851562 68.613281 25.707031 69.660156 25.707031 C 70.710938 25.707031 71.234375 25.042969 71.328125 24.046875 C 71.421875 23.476562 71.421875 22.765625 71.328125 22.195312 C 71.1875 21.195312 70.660156 20.578125 69.757812 20.578125 C 68.710938 20.625 68.136719 21.339844 67.851562 22.289062 " fill-opacity="1" fill-rule="nonzero"/></g><path fill="#ffffff" d="M 85.898438 25.753906 C 85.707031 25.753906 85.234375 25.328125 85.234375 25.089844 L 85.234375 21.671875 C 85.234375 20.625 84.46875 19.914062 83.519531 19.914062 C 82.421875 19.914062 81.851562 20.53125 81.089844 21.292969 L 80.851562 20.007812 L 78.898438 20.007812 L 78.898438 20.484375 L 79.28125 20.484375 C 79.472656 20.484375 79.945312 20.960938 79.945312 21.148438 L 79.945312 25.089844 C 79.945312 25.28125 79.472656 25.753906 79.28125 25.753906 L 78.519531 25.753906 C 78.328125 25.753906 77.851562 25.328125 77.851562 25.089844 L 77.851562 21.71875 C 77.851562 20.484375 76.851562 19.867188 75.519531 19.867188 C 74.28125 19.867188 73.566406 20.292969 73.042969 20.816406 L 73.851562 22.050781 L 74.28125 22.050781 C 73.804688 21.007812 74.183594 20.34375 75.234375 20.34375 C 76.328125 20.34375 76.710938 20.816406 76.660156 21.71875 L 76.660156 22.480469 L 75.089844 22.8125 C 74.234375 23 73.089844 23.429688 73.089844 24.664062 C 73.089844 25.660156 73.804688 26.324219 74.660156 26.324219 C 75.566406 26.324219 76.234375 25.613281 76.710938 24.949219 L 76.851562 26.183594 L 82.089844 26.183594 L 82.089844 25.707031 L 81.757812 25.707031 C 81.566406 25.707031 81.089844 25.28125 81.089844 25.042969 L 81.089844 21.910156 C 81.089844 21.480469 82.234375 20.625 83.089844 20.625 C 83.757812 20.625 84.089844 21.101562 84.089844 21.671875 L 84.089844 25.042969 C 84.089844 25.234375 83.613281 25.707031 83.421875 25.707031 L 83.042969 25.707031 L 83.042969 26.183594 L 86.183594 26.183594 L 86.183594 25.707031 L 85.898438 25.707031 Z M 76.710938 24.425781 C 76.472656 24.902344 75.804688 25.519531 75.183594 25.519531 C 74.566406 25.519531 74.183594 25.042969 74.183594 24.519531 C 74.183594 23.902344 74.421875 23.476562 75.234375 23.285156 L 76.710938 22.90625 Z M 76.710938 24.425781 " fill-opacity="1" fill-rule="nonzero"/><g clip-path="url(#5ddea382b9)"><path fill="#ffffff" d="M 86.660156 21.246094 C 86.566406 21.054688 86.042969 20.53125 85.851562 20.53125 L 85.566406 20.53125 L 85.566406 20.058594 L 88.851562 20.058594 L 88.851562 20.53125 L 88.46875 20.53125 C 88.28125 20.53125 87.898438 20.960938 87.898438 21.195312 L 89.328125 24.472656 L 90.757812 21.195312 C 90.757812 20.960938 90.375 20.53125 90.230469 20.53125 L 89.851562 20.53125 L 89.851562 20.058594 L 92.328125 20.058594 L 92.328125 20.53125 L 92.042969 20.53125 C 91.898438 20.53125 91.46875 21.007812 91.328125 21.195312 L 89.230469 25.945312 L 87.660156 29.363281 L 87.089844 29.128906 L 88.757812 25.753906 Z M 86.660156 21.246094 " fill-opacity="1" fill-rule="nonzero"/></g></svg>