<svg xmlns="http://www.w3.org/2000/svg" xmlns:xlink="http://www.w3.org/1999/xlink" width="145" zoomAndPan="magnify" viewBox="0 0 108.75 33.749998" height="45" preserveAspectRatio="xMidYMid meet" version="1.0"><defs><clipPath id="8f5ff21342"><path d="M 43 8.78125 L 47 8.78125 L 47 12 L 43 12 Z M 43 8.78125 " clip-rule="nonzero"/></clipPath><clipPath id="4e1e1d8c03"><path d="M 57 12 L 66 12 L 66 24.417969 L 57 24.417969 Z M 57 12 " clip-rule="nonzero"/></clipPath><clipPath id="f20f7587f7"><path d="M 88 12 L 102.582031 12 L 102.582031 22 L 88 22 Z M 88 12 " clip-rule="nonzero"/></clipPath></defs><g clip-path="url(#8f5ff21342)"><path fill="#ffffff" d="M 43.871094 10.199219 C 43.871094 9.386719 44.542969 8.765625 45.332031 8.765625 C 46.121094 8.765625 46.792969 9.425781 46.792969 10.199219 C 46.792969 10.976562 46.121094 11.632812 45.332031 11.632812 C 44.503906 11.632812 43.871094 10.976562 43.871094 10.199219 " fill-opacity="1" fill-rule="nonzero"/></g><path fill="#ffffff" d="M 66.925781 19.738281 C 66.925781 18.925781 67.597656 18.304688 68.386719 18.304688 C 69.175781 18.304688 69.847656 18.960938 69.847656 19.738281 C 69.847656 20.515625 69.175781 21.171875 68.386719 21.171875 C 67.558594 21.171875 66.925781 20.550781 66.925781 19.738281 " fill-opacity="1" fill-rule="nonzero"/><path fill="#ffffff" d="M 19.910156 19.117188 C 18.644531 19.117188 17.777344 18.148438 17.777344 16.753906 C 17.777344 15.355469 18.644531 14.386719 19.910156 14.386719 C 21.171875 14.386719 22.039062 15.355469 22.039062 16.753906 C 22.039062 18.1875 21.171875 19.117188 19.910156 19.117188 Z M 19.910156 12.253906 C 17.261719 12.253906 15.328125 14.15625 15.328125 16.714844 C 15.328125 19.273438 17.261719 21.171875 19.910156 21.171875 C 22.59375 21.171875 24.527344 19.273438 24.527344 16.714844 C 24.527344 14.15625 22.554688 12.253906 19.910156 12.253906 " fill-opacity="1" fill-rule="nonzero"/><path fill="#ffffff" d="M 41.027344 16.984375 C 40.910156 16.792969 40.792969 16.636719 40.675781 16.519531 L 40.59375 16.441406 L 40.675781 16.363281 C 40.792969 16.25 40.910156 16.09375 41.027344 15.898438 L 43.359375 12.488281 L 40.515625 12.488281 L 38.738281 15.164062 C 38.621094 15.316406 38.421875 15.394531 38.148438 15.394531 L 37.753906 15.394531 L 37.753906 10.316406 C 37.753906 9.308594 37.121094 9.152344 36.410156 9.152344 L 35.226562 9.152344 L 35.226562 21.132812 L 37.753906 21.132812 L 37.753906 17.527344 L 37.988281 17.527344 C 38.265625 17.527344 38.464844 17.566406 38.582031 17.722656 L 39.964844 20.320312 C 40.359375 21.019531 40.753906 21.132812 41.464844 21.132812 L 43.398438 21.132812 L 41.9375 18.808594 L 41.027344 16.984375 " fill-opacity="1" fill-rule="nonzero"/><path fill="#ffffff" d="M 53.308594 12.253906 C 52.003906 12.253906 51.214844 12.796875 50.742188 13.300781 L 50.582031 13.457031 L 50.542969 13.261719 C 50.425781 12.757812 49.953125 12.488281 49.28125 12.488281 L 48.136719 12.488281 L 48.136719 21.132812 L 50.660156 21.132812 L 50.660156 17.101562 C 50.660156 16.714844 50.703125 16.363281 50.820312 16.054688 C 51.097656 15.125 51.886719 14.542969 52.832031 14.542969 C 53.621094 14.542969 53.9375 14.929688 53.9375 16.015625 L 53.9375 19.777344 C 53.9375 20.667969 54.371094 21.09375 55.28125 21.09375 L 56.464844 21.09375 L 56.464844 15.589844 C 56.425781 13.417969 55.359375 12.253906 53.308594 12.253906 " fill-opacity="1" fill-rule="nonzero"/><path fill="#ffffff" d="M 45.371094 12.449219 L 44.1875 12.449219 L 44.1875 21.09375 L 46.675781 21.09375 L 46.675781 13.765625 C 46.675781 12.875 46.242188 12.449219 45.371094 12.449219 " fill-opacity="1" fill-rule="nonzero"/><path fill="#ffffff" d="M 29.738281 19.117188 C 28.476562 19.117188 27.605469 18.148438 27.605469 16.753906 C 27.605469 15.355469 28.476562 14.386719 29.738281 14.386719 C 31 14.386719 31.871094 15.355469 31.871094 16.753906 C 31.910156 18.1875 31.042969 19.117188 29.738281 19.117188 Z M 29.738281 12.253906 C 27.09375 12.253906 25.160156 14.15625 25.160156 16.714844 C 25.160156 19.273438 27.09375 21.210938 29.738281 21.210938 C 32.421875 21.210938 34.359375 19.3125 34.359375 16.753906 C 34.359375 14.195312 32.421875 12.253906 29.738281 12.253906 " fill-opacity="1" fill-rule="nonzero"/><path fill="#ffffff" d="M 83.546875 19.117188 C 82.285156 19.117188 81.414062 18.148438 81.414062 16.753906 C 81.414062 15.355469 82.285156 14.386719 83.546875 14.386719 C 84.808594 14.386719 85.679688 15.355469 85.679688 16.753906 C 85.679688 18.1875 84.808594 19.117188 83.546875 19.117188 Z M 83.546875 12.253906 C 80.902344 12.253906 78.96875 14.15625 78.96875 16.714844 C 78.96875 19.273438 80.902344 21.171875 83.546875 21.171875 C 86.191406 21.210938 88.164062 19.351562 88.164062 16.753906 C 88.164062 14.15625 86.191406 12.253906 83.546875 12.253906 " fill-opacity="1" fill-rule="nonzero"/><g clip-path="url(#4e1e1d8c03)"><path fill="#ffffff" d="M 61.714844 18.769531 C 60.332031 18.769531 59.859375 17.605469 59.859375 16.480469 C 59.859375 15.976562 59.980469 14.425781 61.597656 14.425781 C 62.386719 14.425781 63.453125 14.660156 63.453125 16.558594 C 63.453125 18.382812 62.503906 18.769531 61.714844 18.769531 Z M 64.753906 12.410156 C 64.28125 12.410156 63.925781 12.605469 63.730469 12.953125 L 63.648438 13.070312 L 63.53125 12.953125 C 63.136719 12.605469 62.386719 12.214844 61.203125 12.214844 C 58.875 12.214844 57.292969 13.960938 57.292969 16.519531 C 57.292969 19.078125 58.914062 20.902344 61.28125 20.902344 C 62.070312 20.902344 62.703125 20.707031 63.214844 20.359375 L 63.414062 20.203125 L 63.414062 20.4375 C 63.414062 21.597656 62.664062 22.21875 61.28125 22.21875 C 60.609375 22.21875 60.019531 22.066406 59.582031 21.910156 C 59.070312 21.753906 58.753906 21.871094 58.519531 22.414062 L 58.320312 22.878906 L 58.042969 23.578125 L 58.203125 23.65625 C 59.070312 24.121094 60.214844 24.390625 61.28125 24.390625 C 63.414062 24.390625 65.898438 23.304688 65.898438 20.28125 L 65.898438 12.332031 L 64.753906 12.410156 " fill-opacity="1" fill-rule="nonzero"/></g><path fill="#ffffff" d="M 10.550781 19.039062 L 8.5 19.039062 L 8.5 16.636719 C 8.5 16.132812 8.695312 15.859375 9.132812 15.785156 L 10.511719 15.785156 C 11.5 15.785156 12.132812 16.402344 12.132812 17.410156 C 12.171875 18.421875 11.578125 19.039062 10.550781 19.039062 Z M 8.5 12.566406 L 8.5 11.945312 C 8.5 11.402344 8.734375 11.128906 9.25 11.089844 L 10.277344 11.089844 C 11.183594 11.089844 11.695312 11.632812 11.695312 12.488281 C 11.695312 13.148438 11.339844 13.960938 10.316406 13.960938 L 8.460938 13.960938 Z M 13.15625 14.96875 L 12.800781 14.773438 L 13.117188 14.503906 C 13.472656 14.195312 14.105469 13.457031 14.105469 12.253906 C 14.105469 10.355469 12.605469 9.152344 10.316406 9.152344 L 7.394531 9.152344 C 6.722656 9.191406 6.171875 9.734375 6.171875 10.394531 L 6.171875 21.058594 L 10.394531 21.058594 C 12.960938 21.058594 14.617188 19.699219 14.617188 17.566406 C 14.578125 16.441406 14.066406 15.433594 13.15625 14.96875 " fill-opacity="1" fill-rule="nonzero"/><g clip-path="url(#f20f7587f7)"><path fill="#ffffff" d="M 99.339844 12.292969 C 98.3125 12.292969 97.285156 12.757812 96.652344 13.574219 L 96.457031 13.804688 L 96.296875 13.535156 C 95.824219 12.71875 95.035156 12.292969 93.929688 12.292969 C 92.746094 12.292969 91.996094 12.914062 91.601562 13.300781 L 91.363281 13.574219 L 91.285156 13.222656 C 91.167969 12.757812 90.730469 12.488281 90.0625 12.488281 L 88.996094 12.488281 L 88.996094 21.09375 L 91.402344 21.09375 L 91.402344 17.296875 C 91.402344 16.945312 91.441406 16.636719 91.519531 16.289062 C 91.757812 15.355469 92.390625 14.386719 93.417969 14.464844 C 94.085938 14.542969 94.402344 15.007812 94.402344 15.976562 L 94.402344 21.09375 L 96.8125 21.09375 L 96.8125 17.296875 C 96.8125 16.867188 96.851562 16.558594 96.929688 16.25 C 97.128906 15.355469 97.796875 14.464844 98.785156 14.464844 C 99.535156 14.464844 99.8125 14.890625 99.8125 15.976562 L 99.8125 19.816406 C 99.8125 20.667969 100.207031 21.058594 101.074219 21.058594 L 102.21875 21.058594 L 102.21875 15.550781 C 102.257812 13.378906 101.3125 12.292969 99.339844 12.292969 " fill-opacity="1" fill-rule="nonzero"/></g><path fill="#ffffff" d="M 77.546875 18.109375 C 77.546875 18.109375 76.519531 19.195312 75.136719 19.195312 C 73.914062 19.195312 72.652344 18.457031 72.652344 16.792969 C 72.652344 15.355469 73.636719 14.347656 75.019531 14.347656 C 75.453125 14.347656 75.96875 14.503906 76.046875 14.773438 L 76.046875 14.8125 C 76.242188 15.433594 76.796875 15.433594 76.914062 15.433594 L 78.21875 15.433594 L 78.21875 14.308594 C 78.21875 12.835938 76.28125 12.292969 74.980469 12.292969 C 72.214844 12.292969 70.203125 14.195312 70.203125 16.792969 C 70.203125 19.390625 72.175781 21.289062 74.941406 21.289062 C 77.308594 21.289062 78.613281 19.738281 78.613281 19.738281 L 78.691406 19.660156 L 77.664062 17.953125 L 77.546875 18.109375 " fill-opacity="1" fill-rule="nonzero"/></svg>