<svg xmlns="http://www.w3.org/2000/svg" xmlns:xlink="http://www.w3.org/1999/xlink" width="145" zoomAndPan="magnify" viewBox="0 0 108.75 33.749998" height="45" preserveAspectRatio="xMidYMid meet" version="1.0"><defs><clipPath id="b0afd2ad78"><path d="M 8 9.8125 L 19 9.8125 L 19 23.957031 L 8 23.957031 Z M 8 9.8125 " clip-rule="nonzero"/></clipPath><clipPath id="7311c9b8f7"><path d="M 25 10 L 34 10 L 34 23.957031 L 25 23.957031 Z M 25 10 " clip-rule="nonzero"/></clipPath><clipPath id="403c58370b"><path d="M 38 10 L 48 10 L 48 23.957031 L 38 23.957031 Z M 38 10 " clip-rule="nonzero"/></clipPath><clipPath id="b0c09c794c"><path d="M 53 10 L 63 10 L 63 23.957031 L 53 23.957031 Z M 53 10 " clip-rule="nonzero"/></clipPath><clipPath id="306aa16904"><path d="M 68 9.8125 L 71 9.8125 L 71 23.957031 L 68 23.957031 Z M 68 9.8125 " clip-rule="nonzero"/></clipPath><clipPath id="7a7d212e87"><path d="M 78 9.8125 L 88 9.8125 L 88 23.957031 L 78 23.957031 Z M 78 9.8125 " clip-rule="nonzero"/></clipPath><clipPath id="313a5e4711"><path d="M 93 10 L 102.960938 10 L 102.960938 23.957031 L 93 23.957031 Z M 93 10 " clip-rule="nonzero"/></clipPath></defs><g clip-path="url(#b0afd2ad78)"><path fill="#ffffff" d="M 16.355469 14.769531 C 16.355469 14.363281 16.3125 13.957031 16.207031 13.546875 C 16.125 13.183594 15.957031 12.816406 15.722656 12.515625 C 15.492188 12.21875 15.199219 11.960938 14.863281 11.789062 C 14.464844 11.59375 14.023438 11.507812 13.582031 11.507812 C 12.613281 11.488281 11.730469 12.023438 11.289062 12.882812 C 10.765625 13.804688 10.511719 15.113281 10.511719 16.832031 C 10.511719 18.550781 10.785156 19.835938 11.355469 20.738281 C 11.921875 21.640625 12.742188 22.089844 13.832031 22.089844 C 14.925781 22.089844 16.058594 21.597656 17.257812 20.589844 C 17.761719 20.910156 18.121094 21.382812 18.289062 21.960938 C 17.992188 22.261719 17.65625 22.542969 17.300781 22.757812 C 16.921875 22.992188 16.542969 23.207031 16.125 23.378906 C 15.703125 23.550781 15.28125 23.699219 14.839844 23.785156 C 14.421875 23.894531 14 23.9375 13.558594 23.9375 C 12.675781 23.957031 11.816406 23.765625 11.039062 23.335938 C 10.386719 22.972656 9.839844 22.433594 9.441406 21.789062 C 9.042969 21.101562 8.75 20.351562 8.578125 19.558594 C 8.410156 18.722656 8.328125 17.839844 8.328125 16.960938 C 8.308594 15.910156 8.453125 14.835938 8.75 13.828125 C 8.980469 13.011719 9.359375 12.261719 9.863281 11.59375 C 10.304688 11.035156 10.890625 10.5625 11.523438 10.265625 C 12.152344 9.964844 12.84375 9.8125 13.558594 9.8125 C 14.230469 9.8125 14.925781 9.921875 15.554688 10.136719 C 16.101562 10.328125 16.628906 10.605469 17.070312 10.992188 C 17.46875 11.335938 17.804688 11.746094 18.035156 12.238281 C 18.246094 12.6875 18.371094 13.203125 18.371094 13.699219 C 18.371094 14.492188 17.972656 14.898438 17.195312 14.898438 C 16.921875 14.878906 16.648438 14.835938 16.355469 14.769531 Z M 16.355469 14.769531 " fill-opacity="1" fill-rule="nonzero"/></g><g clip-path="url(#7311c9b8f7)"><path fill="#ffffff" d="M 27.09375 20.953125 L 27.070312 21.960938 C 27.492188 21.917969 27.933594 21.898438 28.351562 21.898438 L 33.417969 21.898438 C 33.417969 22.175781 33.394531 22.457031 33.355469 22.714844 C 33.226562 23.378906 32.785156 23.722656 32.03125 23.722656 L 26.230469 23.722656 C 25.894531 23.742188 25.578125 23.613281 25.371094 23.378906 C 25.136719 23.121094 25.03125 22.757812 25.054688 22.414062 L 25.054688 10.179688 L 25.199219 10.050781 L 33.058594 10.050781 C 33.101562 10.328125 33.121094 10.605469 33.121094 10.90625 C 33.121094 11.230469 33.082031 11.550781 32.976562 11.851562 L 27.070312 11.851562 L 27.09375 13.160156 L 27.09375 15.953125 L 28.3125 15.929688 L 31.988281 15.929688 C 32.050781 16.230469 32.09375 16.511719 32.09375 16.808594 C 32.09375 17.109375 32.074219 17.390625 31.988281 17.667969 L 28.3125 17.667969 C 27.808594 17.667969 27.40625 17.667969 27.09375 17.648438 Z M 27.09375 20.953125 " fill-opacity="1" fill-rule="nonzero"/></g><g clip-path="url(#403c58370b)"><path fill="#ffffff" d="M 45.457031 11.851562 L 44.324219 11.832031 L 44.324219 23.679688 C 43.628906 23.785156 42.914062 23.785156 42.222656 23.679688 L 42.222656 13.3125 L 42.242188 11.832031 L 42.222656 11.832031 L 41.109375 11.851562 L 38.773438 11.851562 C 38.671875 11.25 38.671875 10.648438 38.773438 10.050781 L 47.789062 10.050781 C 47.875 10.347656 47.894531 10.648438 47.914062 10.972656 C 47.914062 11.550781 47.515625 11.851562 46.738281 11.851562 Z M 45.457031 11.851562 " fill-opacity="1" fill-rule="nonzero"/></g><g clip-path="url(#b0c09c794c)"><path fill="#ffffff" d="M 59.789062 11.851562 L 58.652344 11.832031 L 58.652344 23.679688 C 57.960938 23.785156 57.246094 23.785156 56.550781 23.679688 L 56.550781 13.3125 L 56.574219 11.832031 L 56.550781 11.832031 L 55.4375 11.851562 L 53.105469 11.851562 C 53.042969 11.550781 53.023438 11.25 53.023438 10.949219 C 53.023438 10.648438 53.042969 10.347656 53.105469 10.050781 L 62.121094 10.050781 C 62.203125 10.347656 62.246094 10.648438 62.246094 10.972656 C 62.246094 11.550781 61.847656 11.851562 61.070312 11.851562 Z M 59.789062 11.851562 " fill-opacity="1" fill-rule="nonzero"/></g><g clip-path="url(#306aa16904)"><path fill="#ffffff" d="M 68.320312 23.699219 L 68.320312 10.070312 C 68.65625 10.007812 68.992188 9.984375 69.347656 9.984375 C 69.707031 9.984375 70.042969 10.007812 70.398438 10.070312 L 70.398438 23.699219 C 70.042969 23.765625 69.707031 23.785156 69.347656 23.785156 C 69.011719 23.785156 68.65625 23.765625 68.320312 23.699219 Z M 68.320312 23.699219 " fill-opacity="1" fill-rule="nonzero"/></g><g clip-path="url(#7a7d212e87)"><path fill="#ffffff" d="M 78.238281 10.050781 L 82.441406 9.984375 C 83.828125 9.984375 84.898438 10.347656 85.695312 11.058594 C 86.496094 11.765625 86.875 12.773438 86.875 14.085938 C 86.894531 14.898438 86.640625 15.714844 86.179688 16.382812 C 85.738281 17.003906 85.109375 17.476562 84.375 17.710938 C 84.984375 17.925781 85.445312 18.507812 85.761719 19.40625 L 86.621094 21.746094 C 86.875 22.433594 87.167969 22.90625 87.503906 23.183594 C 87.210938 23.613281 86.746094 23.851562 86.097656 23.851562 C 85.78125 23.871094 85.488281 23.765625 85.253906 23.550781 C 85.023438 23.25 84.835938 22.929688 84.710938 22.542969 L 83.742188 19.835938 C 83.59375 19.386719 83.363281 18.957031 83.027344 18.613281 C 82.753906 18.335938 82.335938 18.183594 81.769531 18.183594 L 80.171875 18.183594 L 80.171875 23.679688 C 79.835938 23.742188 79.476562 23.765625 79.140625 23.765625 C 78.804688 23.765625 78.46875 23.742188 78.132812 23.679688 L 78.132812 10.15625 Z M 80.171875 11.636719 L 80.171875 16.511719 C 81.179688 16.488281 81.914062 16.46875 82.335938 16.46875 C 83.21875 16.46875 83.828125 16.230469 84.183594 15.78125 C 84.5625 15.285156 84.75 14.683594 84.710938 14.0625 C 84.710938 12.453125 83.910156 11.660156 82.335938 11.660156 C 81.328125 11.660156 80.613281 11.660156 80.171875 11.636719 Z M 80.171875 11.636719 " fill-opacity="1" fill-rule="nonzero"/></g><g clip-path="url(#313a5e4711)"><path fill="#ffffff" d="M 95.972656 20.953125 L 95.953125 21.960938 C 96.371094 21.917969 96.8125 21.898438 97.234375 21.898438 L 102.296875 21.898438 C 102.296875 22.175781 102.277344 22.457031 102.234375 22.714844 C 102.128906 23.378906 101.667969 23.722656 100.910156 23.722656 L 95.109375 23.722656 C 94.773438 23.742188 94.460938 23.613281 94.25 23.378906 C 94.019531 23.121094 93.914062 22.757812 93.933594 22.414062 L 93.933594 10.179688 L 94.058594 10.050781 L 101.917969 10.050781 C 101.960938 10.328125 101.980469 10.605469 101.980469 10.886719 C 101.980469 11.207031 101.941406 11.53125 101.835938 11.832031 L 95.953125 11.832031 L 95.972656 13.140625 L 95.972656 15.929688 L 97.191406 15.910156 L 100.867188 15.910156 C 100.929688 16.210938 100.972656 16.488281 100.972656 16.789062 C 100.972656 17.089844 100.953125 17.367188 100.867188 17.648438 L 97.191406 17.648438 C 96.6875 17.648438 96.289062 17.648438 95.972656 17.625 Z M 95.972656 20.953125 " fill-opacity="1" fill-rule="nonzero"/></g></svg>