<svg xmlns="http://www.w3.org/2000/svg" xmlns:xlink="http://www.w3.org/1999/xlink" width="145" zoomAndPan="magnify" viewBox="0 0 108.75 33.749998" height="45" preserveAspectRatio="xMidYMid meet" version="1.0"><defs><clipPath id="7661fc04d1"><path d="M 1.949219 12.402344 L 100.964844 12.402344 L 100.964844 21.335938 L 1.949219 21.335938 Z M 1.949219 12.402344 " clip-rule="nonzero"/></clipPath></defs><g clip-path="url(#7661fc04d1)"><path fill="#ffffff" d="M 1.976562 12.582031 L 5.53125 12.582031 C 7.511719 12.582031 8.542969 13.605469 8.542969 14.859375 C 8.542969 15.726562 8.054688 16.316406 7.378906 16.625 L 7.378906 16.648438 C 8.246094 16.960938 8.734375 17.648438 8.734375 18.527344 C 8.734375 19.78125 7.765625 20.882812 5.675781 20.882812 L 1.976562 20.882812 Z M 5.421875 15.871094 C 6.011719 15.871094 6.277344 15.570312 6.277344 15.238281 C 6.277344 14.902344 6.011719 14.59375 5.421875 14.59375 L 4.378906 14.59375 L 4.378906 15.871094 Z M 5.457031 18.871094 C 6.078125 18.871094 6.378906 18.570312 6.378906 18.183594 C 6.378906 17.792969 6.066406 17.492188 5.46875 17.492188 L 4.378906 17.492188 L 4.378906 18.871094 Z M 9.242188 17.503906 L 9.242188 12.582031 L 11.667969 12.582031 L 11.667969 17.480469 C 11.667969 18.402344 12.121094 18.894531 12.898438 18.894531 C 13.675781 18.894531 14.164062 18.402344 14.164062 17.472656 L 14.164062 12.582031 L 16.597656 12.582031 L 16.597656 17.503906 C 16.597656 19.59375 15.199219 21.09375 12.898438 21.09375 C 10.597656 21.09375 9.242188 19.59375 9.242188 17.503906 Z M 22.765625 12.980469 L 22.765625 15.113281 C 22.246094 14.75 21.355469 14.492188 20.632812 14.492188 C 19.976562 14.492188 19.644531 14.703125 19.644531 14.980469 C 19.644531 15.257812 20.011719 15.402344 20.667969 15.636719 C 21.777344 16.027344 23.289062 16.546875 23.289062 18.3125 C 23.289062 19.890625 22.101562 21.058594 20.011719 21.058594 C 18.933594 21.058594 17.945312 20.746094 17.332031 20.335938 L 17.332031 18.09375 C 17.933594 18.582031 18.84375 18.96875 19.722656 18.96875 C 20.464844 18.96875 20.8125 18.691406 20.8125 18.382812 C 20.8125 17.980469 20.242188 17.804688 19.566406 17.558594 C 18.675781 17.234375 17.265625 16.660156 17.265625 15.046875 C 17.265625 13.589844 18.410156 12.402344 20.457031 12.402344 C 21.355469 12.402344 22.167969 12.636719 22.765625 12.980469 Z M 23.910156 12.582031 L 26.332031 12.582031 L 26.332031 20.882812 L 23.910156 20.882812 Z M 34.945312 20.882812 L 32.632812 20.882812 L 29.644531 16.425781 L 29.632812 16.425781 L 29.632812 20.882812 L 27.335938 20.882812 L 27.335938 12.582031 L 29.644531 12.582031 L 32.632812 16.960938 L 32.644531 16.960938 L 32.644531 12.582031 L 34.945312 12.582031 Z M 35.945312 12.582031 L 41.679688 12.582031 L 41.679688 14.738281 L 38.367188 14.738281 L 38.367188 15.738281 L 41.34375 15.738281 L 41.34375 17.691406 L 38.367188 17.691406 L 38.367188 18.726562 L 41.679688 18.726562 L 41.679688 20.882812 L 35.945312 20.882812 Z M 47.757812 12.980469 L 47.757812 15.113281 C 47.234375 14.75 46.347656 14.492188 45.625 14.492188 C 44.96875 14.492188 44.636719 14.703125 44.636719 14.980469 C 44.636719 15.257812 45 15.402344 45.65625 15.636719 C 46.769531 16.027344 48.28125 16.546875 48.28125 18.3125 C 48.28125 19.890625 47.089844 21.058594 45 21.058594 C 43.921875 21.058594 42.933594 20.746094 42.324219 20.335938 L 42.324219 18.09375 C 42.921875 18.582031 43.835938 18.96875 44.710938 18.96875 C 45.457031 18.96875 45.800781 18.691406 45.800781 18.382812 C 45.800781 17.980469 45.234375 17.804688 44.558594 17.558594 C 43.667969 17.234375 42.257812 16.660156 42.257812 15.046875 C 42.257812 13.589844 43.402344 12.402344 45.445312 12.402344 C 46.347656 12.402344 47.15625 12.636719 47.757812 12.980469 Z M 54.167969 12.980469 L 54.167969 15.113281 C 53.648438 14.75 52.757812 14.492188 52.035156 14.492188 C 51.378906 14.492188 51.046875 14.703125 51.046875 14.980469 C 51.046875 15.257812 51.414062 15.402344 52.070312 15.636719 C 53.179688 16.027344 54.691406 16.546875 54.691406 18.3125 C 54.691406 19.890625 53.5 21.058594 51.414062 21.058594 C 50.335938 21.058594 49.347656 20.746094 48.734375 20.335938 L 48.734375 18.09375 C 49.335938 18.582031 50.246094 18.96875 51.125 18.96875 C 51.867188 18.96875 52.214844 18.691406 52.214844 18.382812 C 52.214844 17.980469 51.644531 17.804688 50.96875 17.558594 C 50.078125 17.234375 48.667969 16.660156 48.667969 15.046875 C 48.667969 13.589844 49.8125 12.402344 51.855469 12.402344 C 52.757812 12.402344 53.570312 12.636719 54.167969 12.980469 Z M 57.496094 20.898438 L 59.917969 20.898438 L 59.917969 12.597656 L 57.496094 12.597656 Z M 68.53125 12.597656 L 66.230469 12.597656 L 66.230469 16.976562 L 66.21875 16.976562 L 63.230469 12.597656 L 60.917969 12.597656 L 60.917969 20.898438 L 63.21875 20.898438 L 63.21875 16.441406 L 63.230469 16.441406 L 66.21875 20.898438 L 68.53125 20.898438 Z M 72.429688 12.421875 C 70.382812 12.421875 69.238281 13.609375 69.238281 15.066406 C 69.238281 16.675781 70.652344 17.253906 71.539062 17.574219 C 72.21875 17.820312 72.785156 17.996094 72.785156 18.398438 C 72.785156 18.710938 72.441406 18.988281 71.695312 18.988281 C 70.816406 18.988281 69.90625 18.597656 69.308594 18.109375 L 69.308594 20.355469 C 69.917969 20.765625 70.90625 21.078125 71.984375 21.078125 C 74.074219 21.078125 75.261719 19.910156 75.261719 18.332031 C 75.261719 16.566406 73.75 16.042969 72.640625 15.652344 C 71.984375 15.421875 71.617188 15.289062 71.617188 15 C 71.617188 14.710938 71.953125 14.511719 72.605469 14.511719 C 73.328125 14.511719 74.21875 14.765625 74.742188 15.132812 L 74.742188 12.996094 C 74.140625 12.652344 73.328125 12.421875 72.429688 12.421875 Z M 75.828125 20.898438 L 78.25 20.898438 L 78.25 12.597656 L 75.828125 12.597656 Z M 81.671875 18.710938 L 82.140625 18.710938 C 83.394531 18.710938 84.207031 17.996094 84.207031 16.753906 C 84.207031 15.507812 83.394531 14.785156 82.140625 14.785156 L 81.671875 14.785156 Z M 86.652344 16.753906 C 86.652344 19.253906 84.761719 20.898438 82.050781 20.898438 L 79.25 20.898438 L 79.25 12.597656 L 82.050781 12.597656 C 84.761719 12.597656 86.652344 14.253906 86.652344 16.753906 Z M 87.308594 20.898438 L 93.042969 20.898438 L 93.042969 18.742188 L 89.730469 18.742188 L 89.730469 17.710938 L 92.707031 17.710938 L 92.707031 15.753906 L 89.730469 15.753906 L 89.730469 14.753906 L 93.042969 14.753906 L 93.042969 12.597656 L 87.308594 12.597656 Z M 96.855469 16.519531 C 97.464844 16.519531 97.941406 16.230469 97.941406 15.652344 C 97.941406 15.074219 97.464844 14.785156 96.84375 14.785156 L 96.332031 14.785156 L 96.332031 16.519531 Z M 100.820312 20.898438 L 97.964844 20.898438 L 96.386719 18.332031 L 96.332031 18.332031 L 96.332031 20.898438 L 93.910156 20.898438 L 93.910156 12.597656 L 96.863281 12.597656 C 98.941406 12.597656 100.386719 13.519531 100.386719 15.488281 C 100.386719 16.265625 100.042969 17.398438 98.664062 17.976562 Z M 100.820312 20.898438 " fill-opacity="1" fill-rule="evenodd"/></g></svg>