<svg xmlns="http://www.w3.org/2000/svg" xmlns:xlink="http://www.w3.org/1999/xlink" width="145" zoomAndPan="magnify" viewBox="0 0 108.75 33.749998" height="45" preserveAspectRatio="xMidYMid meet" version="1.0"><defs><g/><clipPath id="886264f511"><path d="M 4.761719 3.324219 L 23.371094 3.324219 L 23.371094 30.109375 L 4.761719 30.109375 Z M 4.761719 3.324219 " clip-rule="nonzero"/></clipPath></defs><g clip-path="url(#886264f511)"><path fill="#ffffff" d="M 17.128906 27.082031 C 13.824219 23.621094 19.589844 20.496094 17.855469 16.980469 C 17.910156 18.210938 17.40625 19.269531 16.175781 20.21875 C 12.875 22.617188 12.3125 25.347656 14.496094 28.476562 C 14.777344 28.867188 15.113281 29.257812 15.449219 29.703125 C 16.457031 29.257812 17.464844 28.640625 18.304688 28.027344 C 17.855469 27.75 17.40625 27.414062 17.128906 27.082031 Z M 12.761719 27.972656 C 11.808594 25.90625 11.757812 24.011719 12.761719 22.226562 C 11.476562 23.34375 10.804688 24.847656 10.859375 26.746094 C 8.007812 24.515625 6.269531 21.109375 6.269531 17.316406 C 6.269531 14.25 6.269531 11.179688 6.269531 8.054688 C 9.011719 7.832031 12.089844 7.21875 14.21875 5.433594 C 14.382812 5.601562 14.609375 5.769531 14.832031 5.9375 C 14.21875 6.492188 13.546875 6.996094 12.820312 7.332031 C 13.433594 7.890625 13.769531 8.613281 13.769531 9.449219 C 13.378906 8.835938 12.707031 8.335938 12.035156 8.113281 C 13.097656 9.617188 13.207031 10.734375 12.3125 11.402344 C 11.363281 12.074219 10.914062 12.6875 11.082031 13.1875 L 7.835938 16.089844 C 9.011719 16.3125 9.964844 16.371094 10.804688 16.257812 C 8.957031 16.761719 8.230469 17.484375 8.675781 18.601562 C 8.957031 18.933594 9.574219 19.269531 10.355469 19.550781 C 10.972656 19.773438 11.363281 20.050781 11.476562 20.328125 C 10.355469 19.828125 9.515625 19.550781 8.957031 19.550781 C 8.117188 20.667969 8.453125 21.894531 10.074219 23.121094 C 10.691406 21.445312 12.539062 20.496094 14.21875 21.054688 C 14.777344 19.382812 14.21875 17.59375 12.820312 16.59375 C 13.769531 16.761719 15.058594 17.652344 15.671875 17.539062 C 16.289062 17.484375 16.789062 16.816406 17.296875 15.644531 C 17.6875 14.527344 16.398438 14.027344 17.40625 12.632812 C 17.128906 14.136719 20.035156 16.089844 18.863281 20.109375 C 18.132812 22.335938 15.953125 24.179688 18.023438 26.355469 C 18.414062 26.746094 18.804688 27.023438 19.199219 27.25 C 19.925781 26.632812 20.597656 25.90625 21.15625 25.128906 C 20.710938 24.796875 20.371094 24.402344 20.148438 23.898438 C 19.253906 21.726562 21.042969 18.992188 19.757812 15.363281 C 18.863281 12.742188 17.574219 12.519531 18.414062 9.117188 C 19.703125 9.449219 21.042969 9.226562 22.164062 8.445312 C 22.164062 8.726562 22.164062 8.949219 22.164062 9.226562 C 21.996094 10.847656 21.101562 12.351562 19.703125 13.1875 C 22.667969 18.210938 20.429688 19.101562 21.042969 22.335938 C 21.210938 22.953125 21.492188 23.511719 21.886719 23.957031 C 23.058594 21.945312 23.675781 19.71875 23.617188 17.316406 L 23.617188 6.660156 C 23.117188 6.660156 22.667969 6.605469 22.21875 6.605469 C 21.605469 7.105469 20.878906 7.554688 20.148438 7.832031 C 19.757812 8 19.308594 8.167969 18.804688 8.222656 C 19.085938 8.113281 19.367188 7.945312 19.644531 7.777344 C 20.203125 7.386719 20.710938 6.941406 21.15625 6.492188 C 20.371094 6.382812 19.703125 6.269531 19.027344 6.105469 C 18.640625 6.550781 18.132812 6.882812 17.632812 7.277344 C 16.960938 7.722656 16.234375 8.113281 15.503906 8.445312 C 15.671875 9.339844 15.28125 10.230469 14.550781 10.789062 C 15 9.953125 15.058594 8.949219 14.664062 8.113281 C 15.335938 7.722656 16.007812 7.277344 16.566406 6.882812 C 17.070312 6.550781 17.519531 6.160156 17.964844 5.824219 C 16.289062 5.265625 15 4.429688 14.21875 3.3125 C 12.652344 5.433594 9.460938 6.550781 4.761719 6.660156 L 4.761719 17.316406 C 4.761719 22.003906 7.222656 26.300781 11.140625 28.699219 C 12.089844 29.3125 13.097656 29.757812 14.21875 30.152344 C 13.601562 29.367188 13.15625 28.640625 12.761719 27.972656 Z M 19.199219 11.460938 C 20.09375 11.292969 20.878906 10.789062 21.269531 9.953125 C 20.597656 10.289062 19.871094 10.398438 19.140625 10.289062 C 19.027344 10.679688 19.027344 11.125 19.199219 11.460938 Z M 15.226562 13.691406 C 14.160156 13.691406 12.875 14.082031 11.363281 14.695312 L 12.652344 13.691406 C 12.484375 12.796875 12.929688 12.632812 13.601562 12.796875 C 14.273438 12.964844 14.832031 13.300781 15.226562 13.691406 Z M 15.226562 13.691406 " fill-opacity="1" fill-rule="evenodd"/></g><g fill="#ffffff" fill-opacity="1"><g transform="translate(29.073399, 19.561136)"><g><path d="M 8.828125 0 L 6.921875 0 L 6.21875 -2.125 L 2.703125 -2.125 L 2.015625 0 L 0.140625 0 L 3.3125 -9.203125 L 5.65625 -9.203125 Z M 4.375 -7.28125 L 3.1875 -3.65625 L 5.71875 -3.65625 L 4.53125 -7.28125 Z M 4.375 -7.28125 "/></g></g></g><g fill="#ffffff" fill-opacity="1"><g transform="translate(38.039276, 19.561136)"><g><path d="M 1 0 L 1 -6.9375 L 2.671875 -6.9375 L 2.671875 -6.015625 L 2.8125 -5.984375 C 3.03125 -6.359375 3.289062 -6.632812 3.59375 -6.8125 C 3.90625 -6.988281 4.296875 -7.078125 4.765625 -7.078125 C 5.296875 -7.078125 5.71875 -6.972656 6.03125 -6.765625 C 6.351562 -6.554688 6.585938 -6.253906 6.734375 -5.859375 L 6.859375 -5.859375 C 7.078125 -6.273438 7.351562 -6.582031 7.6875 -6.78125 C 8.03125 -6.976562 8.453125 -7.078125 8.953125 -7.078125 C 10.390625 -7.078125 11.109375 -6.273438 11.109375 -4.671875 L 11.109375 0 L 9.375 0 L 9.375 -4.453125 C 9.375 -4.859375 9.289062 -5.148438 9.125 -5.328125 C 8.96875 -5.515625 8.710938 -5.609375 8.359375 -5.609375 C 7.410156 -5.609375 6.9375 -4.96875 6.9375 -3.6875 L 6.9375 0 L 5.1875 0 L 5.1875 -4.453125 C 5.1875 -4.859375 5.101562 -5.148438 4.9375 -5.328125 C 4.78125 -5.515625 4.523438 -5.609375 4.171875 -5.609375 C 3.722656 -5.609375 3.375 -5.457031 3.125 -5.15625 C 2.875 -4.851562 2.75 -4.375 2.75 -3.71875 L 2.75 0 Z M 1 0 "/></g></g></g><g fill="#ffffff" fill-opacity="1"><g transform="translate(50.044111, 19.561136)"><g><path d="M 4.859375 0.125 C 3.972656 0.125 3.3125 -0.203125 2.875 -0.859375 L 2.75 -0.84375 L 2.75 0 L 1 0 L 1 -9.734375 L 2.75 -9.734375 L 2.75 -6.125 L 2.875 -6.09375 C 3.113281 -6.425781 3.394531 -6.671875 3.71875 -6.828125 C 4.039062 -6.992188 4.429688 -7.078125 4.890625 -7.078125 C 5.453125 -7.078125 5.941406 -6.941406 6.359375 -6.671875 C 6.785156 -6.410156 7.113281 -6.007812 7.34375 -5.46875 C 7.582031 -4.925781 7.703125 -4.257812 7.703125 -3.46875 C 7.703125 -2.675781 7.578125 -2.007812 7.328125 -1.46875 C 7.085938 -0.9375 6.753906 -0.535156 6.328125 -0.265625 C 5.898438 -0.00390625 5.410156 0.125 4.859375 0.125 Z M 4.328125 -1.34375 C 4.835938 -1.34375 5.222656 -1.515625 5.484375 -1.859375 C 5.753906 -2.203125 5.890625 -2.738281 5.890625 -3.46875 C 5.890625 -4.195312 5.753906 -4.734375 5.484375 -5.078125 C 5.222656 -5.421875 4.835938 -5.59375 4.328125 -5.59375 C 3.835938 -5.59375 3.445312 -5.414062 3.15625 -5.0625 C 2.863281 -4.707031 2.71875 -4.175781 2.71875 -3.46875 C 2.71875 -2.75 2.863281 -2.210938 3.15625 -1.859375 C 3.445312 -1.515625 3.835938 -1.34375 4.328125 -1.34375 Z M 4.328125 -1.34375 "/></g></g></g><g fill="#ffffff" fill-opacity="1"><g transform="translate(58.355636, 19.561136)"><g><path d="M 2.703125 0.125 C 2.265625 0.125 1.878906 0.046875 1.546875 -0.109375 C 1.222656 -0.273438 0.972656 -0.515625 0.796875 -0.828125 C 0.617188 -1.148438 0.53125 -1.53125 0.53125 -1.96875 C 0.53125 -2.382812 0.617188 -2.734375 0.796875 -3.015625 C 0.972656 -3.296875 1.242188 -3.523438 1.609375 -3.703125 C 1.984375 -3.878906 2.46875 -4.015625 3.0625 -4.109375 C 3.476562 -4.171875 3.789062 -4.242188 4 -4.328125 C 4.21875 -4.410156 4.363281 -4.5 4.4375 -4.59375 C 4.519531 -4.695312 4.5625 -4.828125 4.5625 -4.984375 C 4.5625 -5.203125 4.484375 -5.367188 4.328125 -5.484375 C 4.171875 -5.609375 3.910156 -5.671875 3.546875 -5.671875 C 3.160156 -5.671875 2.789062 -5.582031 2.4375 -5.40625 C 2.09375 -5.238281 1.796875 -5.015625 1.546875 -4.734375 L 1.421875 -4.734375 L 0.6875 -5.828125 C 1.039062 -6.222656 1.46875 -6.53125 1.96875 -6.75 C 2.476562 -6.96875 3.035156 -7.078125 3.640625 -7.078125 C 4.554688 -7.078125 5.21875 -6.878906 5.625 -6.484375 C 6.039062 -6.097656 6.25 -5.546875 6.25 -4.828125 L 6.25 -1.8125 C 6.25 -1.5 6.382812 -1.34375 6.65625 -1.34375 C 6.757812 -1.34375 6.863281 -1.363281 6.96875 -1.40625 L 7.0625 -1.375 L 7.1875 -0.15625 C 7.082031 -0.09375 6.941406 -0.0390625 6.765625 0 C 6.597656 0.03125 6.414062 0.046875 6.21875 0.046875 C 5.800781 0.046875 5.472656 -0.03125 5.234375 -0.1875 C 5.003906 -0.34375 4.835938 -0.59375 4.734375 -0.9375 L 4.609375 -0.953125 C 4.265625 -0.234375 3.628906 0.125 2.703125 0.125 Z M 3.265625 -1.171875 C 3.660156 -1.171875 3.976562 -1.304688 4.21875 -1.578125 C 4.46875 -1.847656 4.59375 -2.222656 4.59375 -2.703125 L 4.59375 -3.40625 L 4.46875 -3.4375 C 4.363281 -3.351562 4.222656 -3.28125 4.046875 -3.21875 C 3.878906 -3.164062 3.640625 -3.113281 3.328125 -3.0625 C 2.941406 -3 2.664062 -2.890625 2.5 -2.734375 C 2.34375 -2.578125 2.265625 -2.359375 2.265625 -2.078125 C 2.265625 -1.785156 2.347656 -1.5625 2.515625 -1.40625 C 2.691406 -1.25 2.941406 -1.171875 3.265625 -1.171875 Z M 3.265625 -1.171875 "/></g></g></g><g fill="#ffffff" fill-opacity="1"><g transform="translate(65.67305, 19.561136)"><g><path d="M 1.875 -7.765625 C 1.550781 -7.765625 1.289062 -7.859375 1.09375 -8.046875 C 0.90625 -8.242188 0.8125 -8.492188 0.8125 -8.796875 C 0.8125 -9.097656 0.90625 -9.34375 1.09375 -9.53125 C 1.289062 -9.71875 1.550781 -9.8125 1.875 -9.8125 C 2.082031 -9.8125 2.265625 -9.765625 2.421875 -9.671875 C 2.585938 -9.585938 2.71875 -9.46875 2.8125 -9.3125 C 2.90625 -9.164062 2.953125 -8.992188 2.953125 -8.796875 C 2.953125 -8.597656 2.90625 -8.421875 2.8125 -8.265625 C 2.71875 -8.109375 2.585938 -7.984375 2.421875 -7.890625 C 2.265625 -7.804688 2.082031 -7.765625 1.875 -7.765625 Z M 1 0 L 1 -6.9375 L 2.75 -6.9375 L 2.75 0 Z M 1 0 "/></g></g></g><g fill="#ffffff" fill-opacity="1"><g transform="translate(69.410404, 19.561136)"><g><path d="M 1 0 L 1 -6.9375 L 2.671875 -6.9375 L 2.671875 -5.921875 L 2.8125 -5.890625 C 3.238281 -6.679688 3.9375 -7.078125 4.90625 -7.078125 C 5.707031 -7.078125 6.296875 -6.859375 6.671875 -6.421875 C 7.046875 -5.984375 7.234375 -5.347656 7.234375 -4.515625 L 7.234375 0 L 5.5 0 L 5.5 -4.296875 C 5.5 -4.753906 5.40625 -5.085938 5.21875 -5.296875 C 5.03125 -5.503906 4.734375 -5.609375 4.328125 -5.609375 C 3.828125 -5.609375 3.4375 -5.441406 3.15625 -5.109375 C 2.882812 -4.785156 2.75 -4.28125 2.75 -3.59375 L 2.75 0 Z M 1 0 "/></g></g></g><g fill="#ffffff" fill-opacity="1"><g transform="translate(77.539464, 19.561136)"><g><path d="M 4.046875 0.125 C 3.378906 0.125 2.785156 -0.0078125 2.265625 -0.28125 C 1.742188 -0.5625 1.335938 -0.972656 1.046875 -1.515625 C 0.765625 -2.054688 0.625 -2.707031 0.625 -3.46875 C 0.625 -4.226562 0.765625 -4.878906 1.046875 -5.421875 C 1.335938 -5.960938 1.738281 -6.375 2.25 -6.65625 C 2.769531 -6.9375 3.359375 -7.078125 4.015625 -7.078125 C 5.484375 -7.078125 6.421875 -6.546875 6.828125 -5.484375 L 5.640625 -4.625 L 5.5 -4.625 C 5.351562 -4.957031 5.164062 -5.203125 4.9375 -5.359375 C 4.707031 -5.515625 4.398438 -5.59375 4.015625 -5.59375 C 3.515625 -5.59375 3.125 -5.414062 2.84375 -5.0625 C 2.5625 -4.71875 2.421875 -4.1875 2.421875 -3.46875 C 2.421875 -2.75 2.5625 -2.210938 2.84375 -1.859375 C 3.125 -1.515625 3.523438 -1.34375 4.046875 -1.34375 C 4.421875 -1.34375 4.738281 -1.441406 5 -1.640625 C 5.269531 -1.847656 5.460938 -2.144531 5.578125 -2.53125 L 5.703125 -2.546875 L 6.9375 -1.859375 C 6.757812 -1.273438 6.429688 -0.796875 5.953125 -0.421875 C 5.484375 -0.0546875 4.847656 0.125 4.046875 0.125 Z M 4.046875 0.125 "/></g></g></g><g fill="#ffffff" fill-opacity="1"><g transform="translate(84.69329, 19.561136)"><g><path d="M 1.875 -7.765625 C 1.550781 -7.765625 1.289062 -7.859375 1.09375 -8.046875 C 0.90625 -8.242188 0.8125 -8.492188 0.8125 -8.796875 C 0.8125 -9.097656 0.90625 -9.34375 1.09375 -9.53125 C 1.289062 -9.71875 1.550781 -9.8125 1.875 -9.8125 C 2.082031 -9.8125 2.265625 -9.765625 2.421875 -9.671875 C 2.585938 -9.585938 2.71875 -9.46875 2.8125 -9.3125 C 2.90625 -9.164062 2.953125 -8.992188 2.953125 -8.796875 C 2.953125 -8.597656 2.90625 -8.421875 2.8125 -8.265625 C 2.71875 -8.109375 2.585938 -7.984375 2.421875 -7.890625 C 2.265625 -7.804688 2.082031 -7.765625 1.875 -7.765625 Z M 1 0 L 1 -6.9375 L 2.75 -6.9375 L 2.75 0 Z M 1 0 "/></g></g></g><g fill="#ffffff" fill-opacity="1"><g transform="translate(88.430644, 19.561136)"><g><path d="M 1 2.8125 L 1 -6.9375 L 2.75 -6.9375 L 2.75 -6.03125 L 2.875 -6.015625 C 3.082031 -6.367188 3.359375 -6.632812 3.703125 -6.8125 C 4.046875 -6.988281 4.445312 -7.078125 4.90625 -7.078125 C 5.46875 -7.078125 5.957031 -6.941406 6.375 -6.671875 C 6.789062 -6.410156 7.113281 -6.007812 7.34375 -5.46875 C 7.582031 -4.925781 7.703125 -4.257812 7.703125 -3.46875 C 7.703125 -2.675781 7.578125 -2.007812 7.328125 -1.46875 C 7.085938 -0.9375 6.75 -0.535156 6.3125 -0.265625 C 5.875 -0.00390625 5.367188 0.125 4.796875 0.125 C 4.359375 0.125 3.984375 0.0546875 3.671875 -0.078125 C 3.359375 -0.222656 3.09375 -0.453125 2.875 -0.765625 L 2.75 -0.734375 L 2.75 2.8125 Z M 4.3125 -1.34375 C 4.832031 -1.34375 5.222656 -1.507812 5.484375 -1.84375 C 5.753906 -2.1875 5.890625 -2.726562 5.890625 -3.46875 C 5.890625 -4.195312 5.753906 -4.734375 5.484375 -5.078125 C 5.222656 -5.421875 4.832031 -5.59375 4.3125 -5.59375 C 3.820312 -5.59375 3.429688 -5.414062 3.140625 -5.0625 C 2.859375 -4.707031 2.71875 -4.175781 2.71875 -3.46875 C 2.71875 -2.757812 2.859375 -2.226562 3.140625 -1.875 C 3.429688 -1.519531 3.820312 -1.34375 4.3125 -1.34375 Z M 4.3125 -1.34375 "/></g></g></g><g fill="#ffffff" fill-opacity="1"><g transform="translate(29.2775, 23.829939)"><g><path d="M 1.25 0.046875 C 1.050781 0.046875 0.875 0.0195312 0.71875 -0.03125 C 0.570312 -0.0820312 0.445312 -0.144531 0.34375 -0.21875 C 0.238281 -0.300781 0.160156 -0.390625 0.109375 -0.484375 L 0.421875 -0.859375 L 0.46875 -0.859375 C 0.550781 -0.734375 0.65625 -0.628906 0.78125 -0.546875 C 0.914062 -0.472656 1.070312 -0.4375 1.25 -0.4375 C 1.394531 -0.4375 1.503906 -0.46875 1.578125 -0.53125 C 1.660156 -0.59375 1.703125 -0.679688 1.703125 -0.796875 C 1.703125 -0.859375 1.6875 -0.910156 1.65625 -0.953125 C 1.632812 -1.003906 1.59375 -1.046875 1.53125 -1.078125 C 1.476562 -1.109375 1.40625 -1.132812 1.3125 -1.15625 L 0.953125 -1.25 C 0.703125 -1.300781 0.515625 -1.394531 0.390625 -1.53125 C 0.265625 -1.664062 0.203125 -1.84375 0.203125 -2.0625 C 0.203125 -2.21875 0.238281 -2.351562 0.3125 -2.46875 C 0.394531 -2.59375 0.507812 -2.6875 0.65625 -2.75 C 0.8125 -2.820312 1 -2.859375 1.21875 -2.859375 C 1.4375 -2.859375 1.617188 -2.828125 1.765625 -2.765625 C 1.921875 -2.710938 2.054688 -2.628906 2.171875 -2.515625 L 1.890625 -2.140625 L 1.84375 -2.140625 C 1.757812 -2.222656 1.664062 -2.285156 1.5625 -2.328125 C 1.457031 -2.367188 1.34375 -2.390625 1.21875 -2.390625 C 1.0625 -2.390625 0.941406 -2.359375 0.859375 -2.296875 C 0.785156 -2.242188 0.75 -2.171875 0.75 -2.078125 C 0.75 -1.992188 0.773438 -1.925781 0.828125 -1.875 C 0.878906 -1.820312 0.976562 -1.78125 1.125 -1.75 L 1.484375 -1.671875 C 1.765625 -1.609375 1.960938 -1.507812 2.078125 -1.375 C 2.203125 -1.238281 2.265625 -1.054688 2.265625 -0.828125 C 2.265625 -0.648438 2.226562 -0.492188 2.15625 -0.359375 C 2.082031 -0.234375 1.96875 -0.132812 1.8125 -0.0625 C 1.65625 0.0078125 1.46875 0.046875 1.25 0.046875 Z M 1.25 0.046875 "/></g></g></g><g fill="#ffffff" fill-opacity="1"><g transform="translate(33.098104, 23.829939)"><g><path d="M 1.234375 0.046875 C 1.035156 0.046875 0.851562 0.00390625 0.6875 -0.078125 C 0.53125 -0.171875 0.40625 -0.300781 0.3125 -0.46875 C 0.226562 -0.632812 0.1875 -0.832031 0.1875 -1.0625 C 0.1875 -1.300781 0.226562 -1.5 0.3125 -1.65625 C 0.40625 -1.820312 0.53125 -1.945312 0.6875 -2.03125 C 0.84375 -2.125 1.023438 -2.171875 1.234375 -2.171875 C 1.679688 -2.171875 1.96875 -2.007812 2.09375 -1.6875 L 1.734375 -1.421875 L 1.6875 -1.421875 C 1.644531 -1.515625 1.585938 -1.585938 1.515625 -1.640625 C 1.441406 -1.691406 1.347656 -1.71875 1.234375 -1.71875 C 1.078125 -1.71875 0.953125 -1.660156 0.859375 -1.546875 C 0.773438 -1.441406 0.734375 -1.28125 0.734375 -1.0625 C 0.734375 -0.84375 0.773438 -0.675781 0.859375 -0.5625 C 0.953125 -0.457031 1.078125 -0.40625 1.234375 -0.40625 C 1.359375 -0.40625 1.457031 -0.4375 1.53125 -0.5 C 1.613281 -0.5625 1.671875 -0.65625 1.703125 -0.78125 L 1.75 -0.78125 L 2.125 -0.578125 C 2.070312 -0.390625 1.972656 -0.238281 1.828125 -0.125 C 1.679688 -0.0078125 1.484375 0.046875 1.234375 0.046875 Z M 1.234375 0.046875 "/></g></g></g><g fill="#ffffff" fill-opacity="1"><g transform="translate(36.689461, 23.829939)"><g><path d="M 0.3125 0 L 0.3125 -2.984375 L 0.84375 -2.984375 L 0.84375 -1.84375 L 0.875 -1.84375 C 0.945312 -1.945312 1.035156 -2.023438 1.140625 -2.078125 C 1.242188 -2.140625 1.367188 -2.171875 1.515625 -2.171875 C 1.984375 -2.171875 2.21875 -1.90625 2.21875 -1.375 L 2.21875 0 L 1.6875 0 L 1.6875 -1.296875 C 1.6875 -1.441406 1.65625 -1.546875 1.59375 -1.609375 C 1.539062 -1.679688 1.453125 -1.71875 1.328125 -1.71875 C 1.179688 -1.71875 1.0625 -1.664062 0.96875 -1.5625 C 0.882812 -1.46875 0.84375 -1.316406 0.84375 -1.109375 L 0.84375 0 Z M 0.3125 0 "/></g></g></g><g fill="#ffffff" fill-opacity="1"><g transform="translate(40.579417, 23.829939)"><g><path d="M 1.234375 0.046875 C 1.023438 0.046875 0.84375 0.00390625 0.6875 -0.078125 C 0.53125 -0.171875 0.40625 -0.300781 0.3125 -0.46875 C 0.226562 -0.632812 0.1875 -0.832031 0.1875 -1.0625 C 0.1875 -1.300781 0.226562 -1.5 0.3125 -1.65625 C 0.40625 -1.820312 0.53125 -1.945312 0.6875 -2.03125 C 0.84375 -2.125 1.023438 -2.171875 1.234375 -2.171875 C 1.441406 -2.171875 1.625 -2.125 1.78125 -2.03125 C 1.9375 -1.945312 2.054688 -1.820312 2.140625 -1.65625 C 2.234375 -1.5 2.28125 -1.300781 2.28125 -1.0625 C 2.28125 -0.832031 2.234375 -0.632812 2.140625 -0.46875 C 2.054688 -0.300781 1.9375 -0.171875 1.78125 -0.078125 C 1.625 0.00390625 1.441406 0.046875 1.234375 0.046875 Z M 1.234375 -0.40625 C 1.566406 -0.40625 1.734375 -0.625 1.734375 -1.0625 C 1.734375 -1.289062 1.691406 -1.457031 1.609375 -1.5625 C 1.523438 -1.664062 1.398438 -1.71875 1.234375 -1.71875 C 0.898438 -1.71875 0.734375 -1.5 0.734375 -1.0625 C 0.734375 -0.625 0.898438 -0.40625 1.234375 -0.40625 Z M 1.234375 -0.40625 "/></g></g></g><g fill="#ffffff" fill-opacity="1"><g transform="translate(44.450108, 23.829939)"><g><path d="M 1.234375 0.046875 C 1.023438 0.046875 0.84375 0.00390625 0.6875 -0.078125 C 0.53125 -0.171875 0.40625 -0.300781 0.3125 -0.46875 C 0.226562 -0.632812 0.1875 -0.832031 0.1875 -1.0625 C 0.1875 -1.300781 0.226562 -1.5 0.3125 -1.65625 C 0.40625 -1.820312 0.53125 -1.945312 0.6875 -2.03125 C 0.84375 -2.125 1.023438 -2.171875 1.234375 -2.171875 C 1.441406 -2.171875 1.625 -2.125 1.78125 -2.03125 C 1.9375 -1.945312 2.054688 -1.820312 2.140625 -1.65625 C 2.234375 -1.5 2.28125 -1.300781 2.28125 -1.0625 C 2.28125 -0.832031 2.234375 -0.632812 2.140625 -0.46875 C 2.054688 -0.300781 1.9375 -0.171875 1.78125 -0.078125 C 1.625 0.00390625 1.441406 0.046875 1.234375 0.046875 Z M 1.234375 -0.40625 C 1.566406 -0.40625 1.734375 -0.625 1.734375 -1.0625 C 1.734375 -1.289062 1.691406 -1.457031 1.609375 -1.5625 C 1.523438 -1.664062 1.398438 -1.71875 1.234375 -1.71875 C 0.898438 -1.71875 0.734375 -1.5 0.734375 -1.0625 C 0.734375 -0.625 0.898438 -0.40625 1.234375 -0.40625 Z M 1.234375 -0.40625 "/></g></g></g><g fill="#ffffff" fill-opacity="1"><g transform="translate(48.320799, 23.829939)"><g><path d="M 0.890625 0.046875 C 0.691406 0.046875 0.539062 -0.00390625 0.4375 -0.109375 C 0.34375 -0.210938 0.296875 -0.375 0.296875 -0.59375 L 0.296875 -2.984375 L 0.828125 -2.984375 L 0.828125 -0.609375 C 0.828125 -0.472656 0.878906 -0.40625 0.984375 -0.40625 C 1.015625 -0.40625 1.050781 -0.410156 1.09375 -0.421875 L 1.109375 -0.421875 L 1.15625 -0.015625 C 1.132812 0.00390625 1.097656 0.0195312 1.046875 0.03125 C 0.992188 0.0390625 0.941406 0.046875 0.890625 0.046875 Z M 0.890625 0.046875 "/></g></g></g><g fill="#ffffff" fill-opacity="1"><g transform="translate(50.94315, 23.829939)"><g/></g></g><g fill="#ffffff" fill-opacity="1"><g transform="translate(53.274608, 23.829939)"><g><path d="M 1.234375 0.046875 C 1.023438 0.046875 0.84375 0.00390625 0.6875 -0.078125 C 0.53125 -0.171875 0.40625 -0.300781 0.3125 -0.46875 C 0.226562 -0.632812 0.1875 -0.832031 0.1875 -1.0625 C 0.1875 -1.300781 0.226562 -1.5 0.3125 -1.65625 C 0.40625 -1.820312 0.53125 -1.945312 0.6875 -2.03125 C 0.84375 -2.125 1.023438 -2.171875 1.234375 -2.171875 C 1.441406 -2.171875 1.625 -2.125 1.78125 -2.03125 C 1.9375 -1.945312 2.054688 -1.820312 2.140625 -1.65625 C 2.234375 -1.5 2.28125 -1.300781 2.28125 -1.0625 C 2.28125 -0.832031 2.234375 -0.632812 2.140625 -0.46875 C 2.054688 -0.300781 1.9375 -0.171875 1.78125 -0.078125 C 1.625 0.00390625 1.441406 0.046875 1.234375 0.046875 Z M 1.234375 -0.40625 C 1.566406 -0.40625 1.734375 -0.625 1.734375 -1.0625 C 1.734375 -1.289062 1.691406 -1.457031 1.609375 -1.5625 C 1.523438 -1.664062 1.398438 -1.71875 1.234375 -1.71875 C 0.898438 -1.71875 0.734375 -1.5 0.734375 -1.0625 C 0.734375 -0.625 0.898438 -0.40625 1.234375 -0.40625 Z M 1.234375 -0.40625 "/></g></g></g><g fill="#ffffff" fill-opacity="1"><g transform="translate(57.145298, 23.829939)"><g><path d="M 0.375 0 L 0.375 -1.703125 L 0.078125 -1.703125 L 0.078125 -2.125 L 0.375 -2.125 C 0.351562 -2.21875 0.34375 -2.304688 0.34375 -2.390625 C 0.34375 -2.523438 0.375 -2.640625 0.4375 -2.734375 C 0.5 -2.828125 0.585938 -2.898438 0.703125 -2.953125 C 0.816406 -3.003906 0.953125 -3.03125 1.109375 -3.03125 C 1.347656 -3.03125 1.523438 -2.988281 1.640625 -2.90625 L 1.515625 -2.515625 L 1.46875 -2.5 C 1.394531 -2.5625 1.296875 -2.59375 1.171875 -2.59375 C 1.066406 -2.59375 0.988281 -2.566406 0.9375 -2.515625 C 0.894531 -2.472656 0.875 -2.410156 0.875 -2.328125 C 0.875 -2.285156 0.875 -2.25 0.875 -2.21875 C 0.882812 -2.195312 0.894531 -2.164062 0.90625 -2.125 L 1.515625 -2.125 L 1.515625 -1.703125 L 0.90625 -1.703125 L 0.90625 0 Z M 0.375 0 "/></g></g></g><g fill="#ffffff" fill-opacity="1"><g transform="translate(60.079734, 23.829939)"><g/></g></g><g fill="#ffffff" fill-opacity="1"><g transform="translate(62.411192, 23.829939)"><g><path d="M 1.25 0.046875 C 1.050781 0.046875 0.875 0.0195312 0.71875 -0.03125 C 0.570312 -0.0820312 0.445312 -0.144531 0.34375 -0.21875 C 0.238281 -0.300781 0.160156 -0.390625 0.109375 -0.484375 L 0.421875 -0.859375 L 0.46875 -0.859375 C 0.550781 -0.734375 0.65625 -0.628906 0.78125 -0.546875 C 0.914062 -0.472656 1.070312 -0.4375 1.25 -0.4375 C 1.394531 -0.4375 1.503906 -0.46875 1.578125 -0.53125 C 1.660156 -0.59375 1.703125 -0.679688 1.703125 -0.796875 C 1.703125 -0.859375 1.6875 -0.910156 1.65625 -0.953125 C 1.632812 -1.003906 1.59375 -1.046875 1.53125 -1.078125 C 1.476562 -1.109375 1.40625 -1.132812 1.3125 -1.15625 L 0.953125 -1.25 C 0.703125 -1.300781 0.515625 -1.394531 0.390625 -1.53125 C 0.265625 -1.664062 0.203125 -1.84375 0.203125 -2.0625 C 0.203125 -2.21875 0.238281 -2.351562 0.3125 -2.46875 C 0.394531 -2.59375 0.507812 -2.6875 0.65625 -2.75 C 0.8125 -2.820312 1 -2.859375 1.21875 -2.859375 C 1.4375 -2.859375 1.617188 -2.828125 1.765625 -2.765625 C 1.921875 -2.710938 2.054688 -2.628906 2.171875 -2.515625 L 1.890625 -2.140625 L 1.84375 -2.140625 C 1.757812 -2.222656 1.664062 -2.285156 1.5625 -2.328125 C 1.457031 -2.367188 1.34375 -2.390625 1.21875 -2.390625 C 1.0625 -2.390625 0.941406 -2.359375 0.859375 -2.296875 C 0.785156 -2.242188 0.75 -2.171875 0.75 -2.078125 C 0.75 -1.992188 0.773438 -1.925781 0.828125 -1.875 C 0.878906 -1.820312 0.976562 -1.78125 1.125 -1.75 L 1.484375 -1.671875 C 1.765625 -1.609375 1.960938 -1.507812 2.078125 -1.375 C 2.203125 -1.238281 2.265625 -1.054688 2.265625 -0.828125 C 2.265625 -0.648438 2.226562 -0.492188 2.15625 -0.359375 C 2.082031 -0.234375 1.96875 -0.132812 1.8125 -0.0625 C 1.65625 0.0078125 1.46875 0.046875 1.25 0.046875 Z M 1.25 0.046875 "/></g></g></g><g fill="#ffffff" fill-opacity="1"><g transform="translate(66.231795, 23.829939)"><g><path d="M 1.46875 -0.5 L 1.609375 -0.109375 C 1.546875 -0.0664062 1.472656 -0.03125 1.390625 0 C 1.304688 0.03125 1.207031 0.046875 1.09375 0.046875 C 0.863281 0.046875 0.6875 -0.015625 0.5625 -0.140625 C 0.445312 -0.265625 0.390625 -0.445312 0.390625 -0.6875 L 0.390625 -1.703125 L 0.0625 -1.703125 L 0.0625 -2.125 L 0.390625 -2.125 L 0.390625 -2.546875 L 0.921875 -2.640625 L 0.921875 -2.125 L 1.53125 -2.125 L 1.53125 -1.703125 L 0.921875 -1.703125 L 0.921875 -0.734375 C 0.921875 -0.628906 0.941406 -0.550781 0.984375 -0.5 C 1.023438 -0.457031 1.085938 -0.4375 1.171875 -0.4375 C 1.273438 -0.4375 1.359375 -0.457031 1.421875 -0.5 Z M 1.46875 -0.5 "/></g></g></g><g fill="#ffffff" fill-opacity="1"><g transform="translate(69.283745, 23.829939)"><g><path d="M 0.828125 0.046875 C 0.691406 0.046875 0.570312 0.0195312 0.46875 -0.03125 C 0.375 -0.0820312 0.296875 -0.15625 0.234375 -0.25 C 0.179688 -0.351562 0.15625 -0.472656 0.15625 -0.609375 C 0.15625 -0.734375 0.179688 -0.835938 0.234375 -0.921875 C 0.296875 -1.003906 0.378906 -1.070312 0.484375 -1.125 C 0.597656 -1.1875 0.75 -1.234375 0.9375 -1.265625 C 1.0625 -1.285156 1.15625 -1.304688 1.21875 -1.328125 C 1.289062 -1.347656 1.335938 -1.375 1.359375 -1.40625 C 1.378906 -1.4375 1.390625 -1.476562 1.390625 -1.53125 C 1.390625 -1.59375 1.363281 -1.640625 1.3125 -1.671875 C 1.269531 -1.710938 1.195312 -1.734375 1.09375 -1.734375 C 0.96875 -1.734375 0.851562 -1.707031 0.75 -1.65625 C 0.644531 -1.601562 0.550781 -1.535156 0.46875 -1.453125 L 0.4375 -1.453125 L 0.203125 -1.796875 C 0.316406 -1.910156 0.453125 -2 0.609375 -2.0625 C 0.765625 -2.132812 0.929688 -2.171875 1.109375 -2.171875 C 1.390625 -2.171875 1.59375 -2.109375 1.71875 -1.984375 C 1.851562 -1.867188 1.921875 -1.703125 1.921875 -1.484375 L 1.921875 -0.5625 C 1.921875 -0.457031 1.960938 -0.40625 2.046875 -0.40625 C 2.078125 -0.40625 2.109375 -0.414062 2.140625 -0.4375 L 2.15625 -0.421875 L 2.203125 -0.046875 C 2.171875 -0.0234375 2.128906 -0.0078125 2.078125 0 C 2.023438 0.0078125 1.96875 0.015625 1.90625 0.015625 C 1.78125 0.015625 1.679688 -0.00390625 1.609375 -0.046875 C 1.535156 -0.0976562 1.484375 -0.175781 1.453125 -0.28125 L 1.40625 -0.296875 C 1.300781 -0.0664062 1.109375 0.046875 0.828125 0.046875 Z M 1 -0.359375 C 1.125 -0.359375 1.222656 -0.398438 1.296875 -0.484375 C 1.367188 -0.566406 1.40625 -0.679688 1.40625 -0.828125 L 1.40625 -1.046875 L 1.375 -1.046875 C 1.34375 -1.023438 1.300781 -1.003906 1.25 -0.984375 C 1.195312 -0.972656 1.117188 -0.957031 1.015625 -0.9375 C 0.898438 -0.914062 0.816406 -0.878906 0.765625 -0.828125 C 0.710938 -0.785156 0.6875 -0.722656 0.6875 -0.640625 C 0.6875 -0.546875 0.710938 -0.472656 0.765625 -0.421875 C 0.828125 -0.378906 0.90625 -0.359375 1 -0.359375 Z M 1 -0.359375 "/></g></g></g><g fill="#ffffff" fill-opacity="1"><g transform="translate(72.92519, 23.829939)"><g><path d="M 0.3125 0 L 0.3125 -2.125 L 0.828125 -2.125 L 0.828125 -1.8125 L 0.859375 -1.8125 C 0.910156 -1.925781 0.976562 -2.007812 1.0625 -2.0625 C 1.144531 -2.113281 1.25 -2.140625 1.375 -2.140625 C 1.5 -2.140625 1.59375 -2.125 1.65625 -2.09375 L 1.5625 -1.625 L 1.515625 -1.625 C 1.484375 -1.632812 1.453125 -1.640625 1.421875 -1.640625 C 1.390625 -1.648438 1.347656 -1.65625 1.296875 -1.65625 C 1.148438 -1.65625 1.035156 -1.601562 0.953125 -1.5 C 0.878906 -1.394531 0.84375 -1.226562 0.84375 -1 L 0.84375 0 Z M 0.3125 0 "/></g></g></g><g fill="#ffffff" fill-opacity="1"><g transform="translate(75.992552, 23.829939)"><g><path d="M 1.46875 -0.5 L 1.609375 -0.109375 C 1.546875 -0.0664062 1.472656 -0.03125 1.390625 0 C 1.304688 0.03125 1.207031 0.046875 1.09375 0.046875 C 0.863281 0.046875 0.6875 -0.015625 0.5625 -0.140625 C 0.445312 -0.265625 0.390625 -0.445312 0.390625 -0.6875 L 0.390625 -1.703125 L 0.0625 -1.703125 L 0.0625 -2.125 L 0.390625 -2.125 L 0.390625 -2.546875 L 0.921875 -2.640625 L 0.921875 -2.125 L 1.53125 -2.125 L 1.53125 -1.703125 L 0.921875 -1.703125 L 0.921875 -0.734375 C 0.921875 -0.628906 0.941406 -0.550781 0.984375 -0.5 C 1.023438 -0.457031 1.085938 -0.4375 1.171875 -0.4375 C 1.273438 -0.4375 1.359375 -0.457031 1.421875 -0.5 Z M 1.46875 -0.5 "/></g></g></g><g fill="#ffffff" fill-opacity="1"><g transform="translate(79.044503, 23.829939)"><g><path d="M 0.96875 0.046875 C 0.726562 0.046875 0.550781 -0.015625 0.4375 -0.140625 C 0.332031 -0.273438 0.28125 -0.46875 0.28125 -0.71875 L 0.28125 -2.125 L 0.8125 -2.125 L 0.8125 -0.78125 C 0.8125 -0.65625 0.835938 -0.5625 0.890625 -0.5 C 0.953125 -0.4375 1.039062 -0.40625 1.15625 -0.40625 C 1.300781 -0.40625 1.414062 -0.453125 1.5 -0.546875 C 1.582031 -0.648438 1.625 -0.804688 1.625 -1.015625 L 1.625 -2.125 L 2.15625 -2.125 L 2.15625 0 L 1.640625 0 L 1.640625 -0.3125 L 1.609375 -0.328125 C 1.535156 -0.203125 1.445312 -0.109375 1.34375 -0.046875 C 1.25 0.015625 1.125 0.046875 0.96875 0.046875 Z M 0.96875 0.046875 "/></g></g></g><g fill="#ffffff" fill-opacity="1"><g transform="translate(82.903635, 23.829939)"><g><path d="M 0.3125 0.859375 L 0.3125 -2.125 L 0.84375 -2.125 L 0.84375 -1.84375 L 0.875 -1.84375 C 0.945312 -1.945312 1.035156 -2.023438 1.140625 -2.078125 C 1.242188 -2.140625 1.363281 -2.171875 1.5 -2.171875 C 1.675781 -2.171875 1.828125 -2.128906 1.953125 -2.046875 C 2.078125 -1.960938 2.175781 -1.835938 2.25 -1.671875 C 2.320312 -1.515625 2.359375 -1.3125 2.359375 -1.0625 C 2.359375 -0.820312 2.320312 -0.617188 2.25 -0.453125 C 2.175781 -0.285156 2.070312 -0.160156 1.9375 -0.078125 C 1.800781 0.00390625 1.644531 0.046875 1.46875 0.046875 C 1.332031 0.046875 1.21875 0.0234375 1.125 -0.015625 C 1.03125 -0.0664062 0.945312 -0.140625 0.875 -0.234375 L 0.84375 -0.21875 L 0.84375 0.859375 Z M 1.328125 -0.40625 C 1.484375 -0.40625 1.601562 -0.457031 1.6875 -0.5625 C 1.769531 -0.664062 1.8125 -0.832031 1.8125 -1.0625 C 1.8125 -1.289062 1.769531 -1.457031 1.6875 -1.5625 C 1.601562 -1.664062 1.484375 -1.71875 1.328125 -1.71875 C 1.171875 -1.71875 1.046875 -1.660156 0.953125 -1.546875 C 0.867188 -1.441406 0.828125 -1.28125 0.828125 -1.0625 C 0.828125 -0.84375 0.867188 -0.675781 0.953125 -0.5625 C 1.046875 -0.457031 1.171875 -0.40625 1.328125 -0.40625 Z M 1.328125 -0.40625 "/></g></g></g><g fill="#ffffff" fill-opacity="1"><g transform="translate(86.849459, 23.829939)"><g><path d="M 1 0.046875 C 0.851562 0.046875 0.71875 0.03125 0.59375 0 C 0.476562 -0.0390625 0.375 -0.0859375 0.28125 -0.140625 C 0.195312 -0.203125 0.132812 -0.273438 0.09375 -0.359375 L 0.390625 -0.671875 L 0.4375 -0.671875 C 0.507812 -0.578125 0.59375 -0.503906 0.6875 -0.453125 C 0.78125 -0.410156 0.882812 -0.390625 1 -0.390625 C 1.101562 -0.390625 1.179688 -0.40625 1.234375 -0.4375 C 1.285156 -0.476562 1.3125 -0.535156 1.3125 -0.609375 C 1.3125 -0.660156 1.289062 -0.703125 1.25 -0.734375 C 1.21875 -0.773438 1.160156 -0.804688 1.078125 -0.828125 L 0.796875 -0.890625 C 0.578125 -0.941406 0.421875 -1.019531 0.328125 -1.125 C 0.234375 -1.226562 0.1875 -1.359375 0.1875 -1.515625 C 0.1875 -1.648438 0.21875 -1.765625 0.28125 -1.859375 C 0.351562 -1.960938 0.445312 -2.039062 0.5625 -2.09375 C 0.6875 -2.144531 0.832031 -2.171875 1 -2.171875 C 1.1875 -2.171875 1.34375 -2.140625 1.46875 -2.078125 C 1.601562 -2.023438 1.703125 -1.953125 1.765625 -1.859375 L 1.484375 -1.5625 L 1.453125 -1.5625 C 1.390625 -1.625 1.320312 -1.671875 1.25 -1.703125 C 1.175781 -1.734375 1.09375 -1.75 1 -1.75 C 0.789062 -1.75 0.6875 -1.679688 0.6875 -1.546875 C 0.6875 -1.492188 0.703125 -1.445312 0.734375 -1.40625 C 0.773438 -1.375 0.847656 -1.347656 0.953125 -1.328125 L 1.21875 -1.28125 C 1.425781 -1.226562 1.578125 -1.148438 1.671875 -1.046875 C 1.773438 -0.941406 1.828125 -0.804688 1.828125 -0.640625 C 1.828125 -0.503906 1.796875 -0.382812 1.734375 -0.28125 C 1.671875 -0.175781 1.570312 -0.09375 1.4375 -0.03125 C 1.3125 0.0195312 1.164062 0.046875 1 0.046875 Z M 1 0.046875 "/></g></g></g></svg>