<svg xmlns="http://www.w3.org/2000/svg" xmlns:xlink="http://www.w3.org/1999/xlink" width="145" zoomAndPan="magnify" viewBox="0 0 108.75 33.749998" height="45" preserveAspectRatio="xMidYMid meet" version="1.0"><defs><clipPath id="2651c7ef55"><path d="M 18.359375 2.148438 L 89.828125 2.148438 L 89.828125 31.183594 L 18.359375 31.183594 Z M 18.359375 2.148438 " clip-rule="nonzero"/></clipPath></defs><g clip-path="url(#2651c7ef55)"><path fill="#ffffff" d="M 24.382812 25.375 L 24.382812 19.074219 L 32.578125 19.074219 C 33.503906 19.074219 34.308594 19.394531 34.910156 19.957031 C 35.511719 20.519531 35.875 21.28125 35.875 22.207031 C 35.875 23.089844 35.511719 23.890625 34.910156 24.453125 C 34.308594 25.015625 33.503906 25.375 32.578125 25.375 Z M 24.382812 14.019531 L 24.382812 7.960938 L 31.253906 7.960938 C 32.136719 7.960938 32.902344 8.28125 33.464844 8.804688 C 34.027344 9.324219 34.347656 10.085938 34.347656 10.96875 C 34.347656 11.851562 34.027344 12.613281 33.464844 13.136719 C 32.902344 13.699219 32.136719 14.019531 31.253906 14.019531 Z M 89.828125 16.667969 C 89.828125 16.265625 89.828125 15.867188 89.789062 15.464844 C 89.75 15.0625 89.707031 14.660156 89.628906 14.261719 L 78.378906 14.261719 L 75.003906 19.636719 L 83.640625 19.636719 C 83.121094 21.363281 82.15625 22.886719 80.789062 23.972656 C 79.464844 25.054688 77.777344 25.65625 75.808594 25.65625 C 73.355469 25.65625 71.1875 24.652344 69.621094 23.007812 C 68.054688 21.363281 67.089844 19.117188 67.089844 16.667969 C 67.089844 14.261719 68.054688 12.054688 69.660156 10.40625 C 71.269531 8.804688 73.476562 7.800781 75.929688 7.800781 C 77.011719 7.800781 77.976562 7.960938 78.902344 8.28125 C 79.824219 8.601562 80.628906 9.042969 81.390625 9.605469 L 82.878906 7.199219 L 84.40625 4.789062 C 83.238281 3.988281 81.953125 3.347656 80.546875 2.90625 C 79.140625 2.464844 77.617188 2.222656 75.96875 2.222656 C 73.800781 2.222656 71.832031 2.625 70.101562 3.347656 C 68.375 4.066406 66.847656 5.113281 65.5625 6.394531 C 62.511719 9.445312 61.625 12.574219 61.023438 15.425781 C 60.421875 18.273438 60.058594 20.882812 57.96875 22.96875 C 57.085938 23.851562 56.121094 24.492188 55.078125 24.933594 C 54.03125 25.375 52.90625 25.617188 51.664062 25.617188 C 49.132812 25.617188 46.882812 24.574219 45.234375 22.96875 C 43.585938 21.324219 42.582031 19.117188 42.582031 16.667969 C 42.582031 14.300781 43.585938 12.09375 45.234375 10.449219 C 46.882812 8.804688 49.132812 7.800781 51.664062 7.761719 C 52.707031 7.761719 53.710938 7.921875 54.59375 8.242188 C 55.480469 8.523438 56.324219 8.964844 57.046875 9.527344 L 58.574219 7.117188 L 60.097656 4.710938 C 58.933594 3.90625 57.648438 3.265625 56.242188 2.863281 C 54.796875 2.421875 53.269531 2.222656 51.664062 2.222656 C 49.171875 2.222656 46.839844 2.824219 44.792969 3.867188 C 42.742188 4.910156 41.015625 6.4375 39.730469 8.242188 C 39.207031 6.675781 38.164062 5.3125 36.71875 4.347656 C 35.230469 3.386719 33.382812 2.824219 31.335938 2.824219 L 18.359375 2.824219 L 18.359375 30.511719 L 32.660156 30.511719 C 34.46875 30.511719 36.074219 30.070312 37.402344 29.347656 C 38.726562 28.625 39.8125 27.542969 40.535156 26.296875 C 41.859375 27.742188 43.46875 28.945312 45.316406 29.789062 C 47.164062 30.632812 49.210938 31.074219 51.421875 31.074219 C 54.03125 31.074219 56.402344 30.472656 58.453125 29.386719 C 60.5 28.304688 62.230469 26.738281 63.554688 24.855469 C 64.839844 26.738281 66.566406 28.304688 68.617188 29.386719 C 70.664062 30.472656 73.074219 31.074219 75.6875 31.074219 C 79.664062 31.074219 83.199219 29.46875 85.730469 26.820312 C 88.300781 24.25 89.828125 20.640625 89.828125 16.667969 " fill-opacity="1" fill-rule="nonzero"/></g></svg>