<svg xmlns="http://www.w3.org/2000/svg" xmlns:xlink="http://www.w3.org/1999/xlink" width="145" zoomAndPan="magnify" viewBox="0 0 108.75 33.749998" height="45" preserveAspectRatio="xMidYMid meet" version="1.0"><defs><clipPath id="7ef953cfc9"><path d="M 52 10 L 91.171875 10 L 91.171875 24 L 52 24 Z M 52 10 " clip-rule="nonzero"/></clipPath><clipPath id="8d663816ec"><path d="M 16.722656 1.644531 L 48 1.644531 L 48 32.167969 L 16.722656 32.167969 Z M 16.722656 1.644531 " clip-rule="nonzero"/></clipPath></defs><g clip-path="url(#7ef953cfc9)"><path fill="#ffffff" d="M 85.808594 23.132812 C 85.605469 23.132812 85.472656 22.992188 85.472656 22.796875 L 85.472656 12.90625 L 82.113281 12.90625 C 81.910156 12.90625 81.777344 12.773438 81.777344 12.570312 L 81.777344 11.207031 C 81.777344 11.003906 81.910156 10.871094 82.113281 10.871094 L 91.054688 10.871094 C 91.253906 10.871094 91.390625 11.011719 91.390625 11.207031 L 91.390625 12.570312 C 91.390625 12.773438 91.253906 12.90625 91.054688 12.90625 L 87.695312 12.90625 L 87.695312 22.796875 C 87.695312 23 87.554688 23.132812 87.359375 23.132812 L 85.808594 23.132812 M 60.0625 18.199219 L 58.300781 13.140625 L 56.523438 18.199219 Z M 63.972656 22.738281 C 64.046875 22.941406 63.929688 23.140625 63.710938 23.140625 L 62.113281 23.140625 C 61.882812 23.140625 61.75 23.039062 61.667969 22.820312 L 60.761719 20.207031 L 55.808594 20.207031 L 54.902344 22.8125 C 54.828125 23.03125 54.6875 23.132812 54.457031 23.132812 L 52.957031 23.132812 C 52.753906 23.132812 52.621094 22.933594 52.695312 22.730469 L 56.851562 11.167969 C 56.925781 10.953125 57.066406 10.863281 57.300781 10.863281 L 59.351562 10.863281 C 59.582031 10.863281 59.734375 10.953125 59.816406 11.167969 L 63.972656 22.738281 M 75.894531 21.476562 C 76.871094 21.476562 77.535156 21 78.074219 20.1875 L 75.585938 17.511719 C 74.632812 18.050781 74.019531 18.589844 74.019531 19.664062 C 74.019531 20.730469 74.878906 21.476562 75.894531 21.476562 M 76.582031 12.488281 C 75.78125 12.488281 75.320312 12.996094 75.320312 13.667969 C 75.320312 14.191406 75.59375 14.648438 76.222656 15.328125 C 77.3125 14.699219 77.773438 14.3125 77.773438 13.640625 C 77.773438 13.011719 77.378906 12.488281 76.582031 12.488281 M 83.378906 22.707031 C 83.582031 22.925781 83.457031 23.140625 83.210938 23.140625 L 81.261719 23.140625 C 81 23.140625 80.863281 23.082031 80.695312 22.878906 L 79.527344 21.589844 C 78.746094 22.632812 77.65625 23.410156 75.847656 23.410156 C 73.609375 23.410156 71.839844 22.058594 71.839844 19.746094 C 71.839844 17.96875 72.796875 17.011719 74.238281 16.214844 C 73.527344 15.402344 73.207031 14.542969 73.207031 13.789062 C 73.207031 11.886719 74.542969 10.585938 76.550781 10.585938 C 78.601562 10.585938 79.863281 11.796875 79.863281 13.59375 C 79.863281 15.125 78.761719 15.984375 77.59375 16.632812 L 79.3125 18.492188 L 80.277344 16.804688 C 80.394531 16.601562 80.535156 16.527344 80.78125 16.527344 L 82.269531 16.527344 C 82.515625 16.527344 82.648438 16.699219 82.5 16.960938 L 80.78125 19.902344 L 83.378906 22.707031 M 68.0625 23.132812 C 68.265625 23.132812 68.398438 22.992188 68.398438 22.796875 L 68.398438 12.90625 L 71.757812 12.90625 C 71.960938 12.90625 72.09375 12.773438 72.09375 12.570312 L 72.09375 11.207031 C 72.09375 11.003906 71.960938 10.871094 71.757812 10.871094 L 62.816406 10.871094 C 62.613281 10.871094 62.480469 11.011719 62.480469 11.207031 L 62.480469 12.570312 C 62.480469 12.773438 62.613281 12.90625 62.816406 12.90625 L 66.175781 12.90625 L 66.175781 22.796875 C 66.175781 23 66.316406 23.132812 66.511719 23.132812 Z M 68.0625 23.132812 " fill-opacity="1" fill-rule="nonzero"/></g><g clip-path="url(#8d663816ec)"><path fill="#ffffff" d="M 22.65625 29.105469 C 25.261719 31.121094 28.523438 32.332031 32.070312 32.332031 C 35.945312 32.332031 39.480469 30.890625 42.183594 28.53125 C 42.214844 28.5 42.199219 28.484375 42.167969 28.5 C 40.960938 29.308594 37.511719 31.078125 32.078125 31.078125 C 27.351562 31.078125 24.375 30.023438 22.6875 29.082031 C 22.648438 29.0625 22.632812 29.082031 22.65625 29.105469 M 33.113281 29.890625 C 36.890625 29.890625 41.042969 28.859375 43.527344 26.820312 C 44.207031 26.269531 44.855469 25.53125 45.429688 24.539062 C 45.765625 23.960938 46.085938 23.285156 46.355469 22.621094 C 46.371094 22.589844 46.347656 22.574219 46.328125 22.605469 C 44.019531 26 37.332031 28.121094 30.433594 28.121094 C 25.554688 28.121094 20.304688 26.558594 18.253906 23.582031 C 18.230469 23.550781 18.214844 23.566406 18.222656 23.597656 C 20.125 27.664062 25.933594 29.890625 33.113281 29.890625 M 28.988281 23.132812 C 21.132812 23.132812 17.425781 19.476562 16.753906 16.976562 C 16.746094 16.945312 16.722656 16.953125 16.722656 16.984375 C 16.722656 17.828125 16.804688 18.910156 16.953125 19.625 C 17.019531 19.976562 17.304688 20.527344 17.722656 20.960938 C 19.625 22.949219 24.367188 25.722656 32.578125 25.722656 C 43.765625 25.722656 46.328125 22 46.847656 20.769531 C 47.222656 19.894531 47.417969 18.304688 47.417969 16.976562 C 47.417969 16.65625 47.410156 16.394531 47.394531 16.148438 C 47.394531 16.109375 47.371094 16.101562 47.363281 16.140625 C 46.804688 19.148438 37.25 23.132812 28.988281 23.132812 M 18.199219 10.40625 C 17.753906 11.304688 17.253906 12.8125 17.101562 13.585938 C 17.035156 13.921875 17.066406 14.078125 17.183594 14.332031 C 18.125 16.335938 22.886719 19.527344 33.996094 19.527344 C 40.773438 19.527344 46.035156 17.863281 46.886719 14.828125 C 47.042969 14.265625 47.050781 13.675781 46.847656 12.878906 C 46.625 11.988281 46.199219 10.953125 45.839844 10.21875 C 45.828125 10.199219 45.8125 10.199219 45.8125 10.226562 C 45.945312 14.214844 34.832031 16.78125 29.226562 16.78125 C 23.148438 16.78125 18.089844 14.363281 18.089844 11.304688 C 18.089844 11.011719 18.148438 10.714844 18.222656 10.40625 C 18.238281 10.386719 18.214844 10.378906 18.199219 10.40625 M 42.207031 5.511719 C 42.273438 5.613281 42.304688 5.71875 42.304688 5.859375 C 42.304688 7.5625 37.085938 10.578125 28.785156 10.578125 C 22.6875 10.578125 21.535156 8.316406 21.535156 6.875 C 21.535156 6.363281 21.730469 5.839844 22.171875 5.300781 C 22.195312 5.273438 22.171875 5.257812 22.148438 5.277344 C 21.359375 5.949219 20.625 6.703125 19.992188 7.527344 C 19.6875 7.914062 19.5 8.257812 19.5 8.457031 C 19.5 11.445312 26.980469 13.601562 33.972656 13.601562 C 41.421875 13.601562 44.75 11.167969 44.75 9.035156 C 44.75 8.273438 44.453125 7.824219 43.691406 6.957031 C 43.199219 6.398438 42.730469 5.9375 42.234375 5.488281 C 42.207031 5.472656 42.191406 5.488281 42.207031 5.511719 M 39.921875 3.808594 C 37.621094 2.425781 34.949219 1.644531 32.070312 1.644531 C 29.171875 1.644531 26.417969 2.457031 24.113281 3.867188 C 23.417969 4.292969 23.03125 4.636719 23.03125 5.078125 C 23.03125 6.367188 26.054688 7.765625 31.421875 7.765625 C 36.726562 7.765625 40.847656 6.242188 40.847656 4.769531 C 40.847656 4.421875 40.542969 4.175781 39.921875 3.808594 " fill-opacity="1" fill-rule="nonzero"/></g></svg>