<svg xmlns="http://www.w3.org/2000/svg" xmlns:xlink="http://www.w3.org/1999/xlink" width="145" zoomAndPan="magnify" viewBox="0 0 108.75 33.749998" height="45" preserveAspectRatio="xMidYMid meet" version="1.0"><path fill="#ffffff" d="M 42.972656 12.292969 L 45.222656 12.292969 L 49.054688 19.183594 L 52.882812 12.292969 L 55.085938 12.292969 L 55.085938 23.617188 L 53.25 23.617188 L 53.25 14.9375 L 49.890625 20.949219 L 48.167969 20.949219 L 44.808594 14.9375 L 44.808594 23.617188 L 42.972656 23.617188 Z M 42.972656 12.292969 " fill-opacity="1" fill-rule="nonzero"/><path fill="#ffffff" d="M 61.011719 23.820312 C 60.164062 23.820312 59.414062 23.632812 58.769531 23.257812 C 58.125 22.882812 57.621094 22.363281 57.261719 21.699219 C 56.902344 21.039062 56.71875 20.277344 56.722656 19.417969 C 56.722656 18.550781 56.898438 17.785156 57.25 17.113281 C 57.601562 16.445312 58.089844 15.921875 58.714844 15.546875 C 59.34375 15.167969 60.0625 14.980469 60.875 14.980469 C 61.683594 14.980469 62.378906 15.167969 62.960938 15.550781 C 63.542969 15.929688 63.992188 16.460938 64.304688 17.148438 C 64.621094 17.832031 64.777344 18.636719 64.777344 19.558594 L 64.777344 20.058594 L 58.542969 20.058594 C 58.65625 20.75 58.9375 21.292969 59.382812 21.6875 C 59.832031 22.085938 60.394531 22.28125 61.078125 22.28125 C 61.625 22.28125 62.097656 22.203125 62.492188 22.039062 C 62.890625 21.878906 63.261719 21.632812 63.605469 21.304688 L 64.582031 22.492188 C 63.613281 23.378906 62.421875 23.820312 61.011719 23.820312 Z M 62.355469 17.101562 C 61.96875 16.710938 61.464844 16.515625 60.84375 16.515625 C 60.234375 16.515625 59.726562 16.714844 59.320312 17.113281 C 58.910156 17.515625 58.648438 18.050781 58.542969 18.722656 L 63.011719 18.722656 C 62.960938 18.035156 62.738281 17.492188 62.355469 17.101562 Z M 62.355469 17.101562 " fill-opacity="1" fill-rule="nonzero"/><path fill="#ffffff" d="M 67.003906 16.679688 L 65.316406 16.679688 L 65.316406 15.183594 L 67.003906 15.183594 L 67.003906 12.707031 L 68.777344 12.707031 L 68.777344 15.183594 L 71.347656 15.183594 L 71.347656 16.679688 L 68.777344 16.679688 L 68.777344 20.472656 C 68.777344 21.101562 68.886719 21.550781 69.101562 21.820312 C 69.320312 22.089844 69.691406 22.226562 70.21875 22.226562 C 70.449219 22.226562 70.648438 22.21875 70.8125 22.199219 C 70.972656 22.179688 71.152344 22.152344 71.347656 22.121094 L 71.347656 23.601562 C 71.125 23.664062 70.898438 23.714844 70.667969 23.746094 C 70.40625 23.785156 70.140625 23.804688 69.875 23.804688 C 67.960938 23.804688 67.003906 22.761719 67.003906 20.679688 Z M 67.003906 16.679688 " fill-opacity="1" fill-rule="nonzero"/><path fill="#ffffff" d="M 80.582031 23.617188 L 78.84375 23.617188 L 78.84375 22.4375 C 78.535156 22.878906 78.140625 23.21875 77.664062 23.460938 C 77.1875 23.699219 76.644531 23.820312 76.039062 23.820312 C 75.289062 23.820312 74.628906 23.628906 74.050781 23.25 C 73.472656 22.871094 73.019531 22.347656 72.6875 21.679688 C 72.359375 21.015625 72.191406 20.253906 72.191406 19.394531 C 72.191406 18.53125 72.359375 17.769531 72.695312 17.105469 C 73.035156 16.445312 73.496094 15.921875 74.089844 15.546875 C 74.683594 15.167969 75.367188 14.980469 76.136719 14.980469 C 76.714844 14.980469 77.238281 15.089844 77.699219 15.316406 C 78.160156 15.539062 78.539062 15.855469 78.84375 16.265625 L 78.84375 15.183594 L 80.582031 15.183594 Z M 78.8125 18.132812 C 78.621094 17.652344 78.320312 17.273438 77.914062 16.996094 C 77.503906 16.71875 77.03125 16.582031 76.492188 16.582031 C 75.734375 16.582031 75.128906 16.835938 74.679688 17.339844 C 74.230469 17.847656 74.007812 18.53125 74.007812 19.394531 C 74.007812 20.265625 74.222656 20.953125 74.65625 21.457031 C 75.089844 21.964844 75.679688 22.21875 76.421875 22.21875 C 76.96875 22.21875 77.457031 22.078125 77.882812 21.796875 C 78.3125 21.515625 78.621094 21.140625 78.8125 20.664062 Z M 78.8125 18.132812 " fill-opacity="1" fill-rule="nonzero"/><path fill="#ffffff" d="M 34.09375 11.910156 C 32.617188 11.910156 31.460938 13.019531 30.417969 14.425781 C 28.980469 12.605469 27.777344 11.910156 26.339844 11.910156 C 23.410156 11.910156 21.160156 15.707031 21.160156 19.722656 C 21.160156 22.238281 22.382812 23.824219 24.433594 23.824219 C 25.90625 23.824219 26.964844 23.132812 28.851562 19.855469 C 28.851562 19.855469 29.636719 18.476562 30.175781 17.523438 C 30.367188 17.828125 30.566406 18.15625 30.773438 18.507812 L 31.660156 19.988281 C 33.378906 22.851562 34.339844 23.824219 36.078125 23.824219 C 38.070312 23.824219 39.179688 22.214844 39.179688 19.648438 C 39.179688 15.445312 36.882812 11.910156 34.09375 11.910156 Z M 27.414062 18.96875 C 25.886719 21.351562 25.355469 21.886719 24.507812 21.886719 C 23.632812 21.886719 23.109375 21.121094 23.109375 19.757812 C 23.109375 16.839844 24.574219 13.859375 26.316406 13.859375 C 27.257812 13.859375 28.046875 14.402344 29.253906 16.121094 C 28.109375 17.871094 27.414062 18.96875 27.414062 18.96875 Z M 33.179688 18.667969 L 32.121094 16.914062 C 31.835938 16.453125 31.5625 16.027344 31.296875 15.636719 C 32.25 14.175781 33.035156 13.449219 33.96875 13.449219 C 35.910156 13.449219 37.464844 16.289062 37.464844 19.78125 C 37.464844 21.113281 37.027344 21.886719 36.117188 21.886719 C 35.246094 21.886719 34.832031 21.3125 33.179688 18.667969 Z M 33.179688 18.667969 " fill-opacity="1" fill-rule="nonzero"/></svg>