<svg xmlns="http://www.w3.org/2000/svg" xmlns:xlink="http://www.w3.org/1999/xlink" width="145" zoomAndPan="magnify" viewBox="0 0 108.75 33.749998" height="45" preserveAspectRatio="xMidYMid meet" version="1.0"><defs><clipPath id="4922b2f616"><path d="M 4.652344 9.183594 L 103.667969 9.183594 L 103.667969 24.074219 L 4.652344 24.074219 Z M 4.652344 9.183594 " clip-rule="nonzero"/></clipPath></defs><g clip-path="url(#4922b2f616)"><path fill="#ffffff" d="M 8.566406 13.21875 C 8.496094 12.933594 8.511719 12.648438 8.550781 12.488281 C 8.640625 12.039062 8.949219 11.558594 9.835938 11.558594 C 10.667969 11.558594 11.140625 12.058594 11.140625 12.824219 C 11.140625 13.074219 11.140625 13.683594 11.140625 13.683594 L 14.652344 13.683594 L 14.652344 12.699219 C 14.671875 9.664062 11.898438 9.183594 9.90625 9.183594 C 7.40625 9.183594 5.359375 10.003906 4.980469 12.273438 C 4.871094 12.898438 4.855469 13.449219 5.015625 14.148438 C 5.632812 16.984375 10.648438 17.808594 11.375 19.609375 C 11.519531 19.949219 11.464844 20.378906 11.410156 20.644531 C 11.300781 21.109375 10.976562 21.589844 10.035156 21.589844 C 9.148438 21.589844 8.621094 21.089844 8.621094 20.324219 L 8.621094 18.984375 L 4.816406 18.984375 L 4.816406 20.054688 C 4.816406 23.164062 7.300781 24.089844 9.945312 24.089844 C 12.496094 24.089844 14.582031 23.234375 14.925781 20.914062 C 15.089844 19.71875 14.960938 18.929688 14.90625 18.644531 C 14.328125 15.699219 8.964844 14.84375 8.566406 13.21875 Z M 54.449219 13.234375 C 54.394531 12.96875 54.414062 12.664062 54.433594 12.523438 C 54.542969 12.074219 54.832031 11.59375 55.71875 11.59375 C 56.535156 11.59375 57.003906 12.09375 57.003906 12.84375 C 57.003906 13.09375 57.003906 13.699219 57.003906 13.699219 L 60.484375 13.699219 L 60.484375 12.738281 C 60.484375 9.738281 57.765625 9.273438 55.792969 9.273438 C 53.308594 9.273438 51.28125 10.078125 50.898438 12.324219 C 50.808594 12.933594 50.773438 13.484375 50.9375 14.183594 C 51.535156 16.984375 56.496094 17.808594 57.222656 19.59375 C 57.347656 19.929688 57.3125 20.359375 57.242188 20.609375 C 57.132812 21.074219 56.824219 21.539062 55.882812 21.539062 C 55.011719 21.539062 54.46875 21.039062 54.46875 20.289062 L 54.46875 18.949219 L 50.71875 18.949219 L 50.71875 20.003906 C 50.71875 23.074219 53.164062 24 55.792969 24 C 58.308594 24 60.390625 23.144531 60.71875 20.859375 C 60.882812 19.664062 60.753906 18.894531 60.699219 18.609375 C 60.136719 15.71875 54.847656 14.859375 54.449219 13.234375 Z M 86.476562 20.824219 L 83.160156 9.628906 L 77.925781 9.628906 L 77.925781 23.394531 L 81.386719 23.394531 L 81.1875 11.84375 L 84.757812 23.394531 L 89.773438 23.394531 L 89.773438 9.628906 L 86.296875 9.628906 Z M 19.925781 9.628906 L 17.296875 23.539062 L 21.101562 23.539062 L 23.078125 10.664062 L 24.996094 23.539062 L 28.78125 23.539062 L 26.191406 9.628906 Z M 41.226562 9.628906 L 39.453125 20.503906 L 37.675781 9.628906 L 31.917969 9.628906 L 31.609375 23.539062 L 35.140625 23.539062 L 35.230469 10.664062 L 37.660156 23.539062 L 41.226562 23.539062 L 43.65625 10.664062 L 43.746094 23.539062 L 47.277344 23.539062 L 46.96875 9.628906 Z M 74.015625 9.628906 L 70.445312 9.628906 L 70.445312 19.914062 C 70.445312 20.09375 70.445312 20.289062 70.410156 20.449219 C 70.335938 20.789062 70.046875 21.464844 69.050781 21.464844 C 68.074219 21.464844 67.78125 20.804688 67.710938 20.449219 C 67.675781 20.304688 67.675781 20.09375 67.675781 19.914062 L 67.675781 9.628906 L 64.105469 9.628906 L 64.105469 19.59375 C 64.105469 19.84375 64.125 20.378906 64.140625 20.503906 C 64.394531 23.089844 66.460938 23.949219 69.050781 23.949219 C 71.640625 23.949219 73.722656 23.109375 73.976562 20.503906 C 73.996094 20.359375 74.03125 19.84375 74.015625 19.59375 Z M 98.503906 15.71875 L 98.503906 17.753906 L 99.953125 17.753906 L 99.953125 19.769531 C 99.953125 19.949219 99.953125 20.144531 99.917969 20.304688 C 99.863281 20.679688 99.5 21.324219 98.46875 21.324219 C 97.453125 21.324219 97.09375 20.679688 97.039062 20.304688 C 97.019531 20.144531 97 19.949219 97 19.769531 L 97 13.414062 C 97 13.183594 97.019531 12.949219 97.074219 12.753906 C 97.144531 12.414062 97.453125 11.753906 98.46875 11.753906 C 99.554688 11.753906 99.808594 12.449219 99.882812 12.753906 C 99.917969 12.949219 99.917969 13.289062 99.917969 13.289062 L 99.917969 14.058594 L 103.46875 14.058594 L 103.46875 13.59375 C 103.46875 13.59375 103.484375 13.109375 103.449219 12.664062 C 103.179688 10.078125 100.988281 9.253906 98.488281 9.253906 C 95.988281 9.253906 93.847656 10.09375 93.542969 12.683594 C 93.503906 12.914062 93.46875 13.34375 93.46875 13.609375 L 93.46875 19.449219 C 93.46875 19.699219 93.46875 19.894531 93.523438 20.359375 C 93.757812 22.894531 95.988281 23.789062 98.488281 23.789062 C 101.003906 23.789062 103.214844 22.894531 103.449219 20.359375 C 103.484375 19.894531 103.503906 19.699219 103.503906 19.449219 L 103.503906 15.71875 Z M 98.503906 15.71875 " fill-opacity="1" fill-rule="nonzero"/></g></svg>