<svg xmlns="http://www.w3.org/2000/svg" xmlns:xlink="http://www.w3.org/1999/xlink" width="145" zoomAndPan="magnify" viewBox="0 0 108.75 33.749998" height="45" preserveAspectRatio="xMidYMid meet" version="1.0"><defs><clipPath id="19dfa9b5f7"><path d="M 5.121094 11.3125 L 23 11.3125 L 23 26.945312 L 5.121094 26.945312 Z M 5.121094 11.3125 " clip-rule="nonzero"/></clipPath><clipPath id="b601f638a9"><path d="M 23 15 L 36 15 L 36 26.945312 L 23 26.945312 Z M 23 15 " clip-rule="nonzero"/></clipPath><clipPath id="11d93d9a34"><path d="M 37 15 L 47 15 L 47 26.945312 L 37 26.945312 Z M 37 15 " clip-rule="nonzero"/></clipPath><clipPath id="3a9f5f87d9"><path d="M 47 11.3125 L 59 11.3125 L 59 26.945312 L 47 26.945312 Z M 47 11.3125 " clip-rule="nonzero"/></clipPath><clipPath id="031f621ec0"><path d="M 59 15 L 72 15 L 72 26.945312 L 59 26.945312 Z M 59 15 " clip-rule="nonzero"/></clipPath><clipPath id="8b4af1795c"><path d="M 73 11.3125 L 86 11.3125 L 86 26.945312 L 73 26.945312 Z M 73 11.3125 " clip-rule="nonzero"/></clipPath><clipPath id="0f46e5c5c5"><path d="M 86 11.3125 L 91 11.3125 L 91 26.945312 L 86 26.945312 Z M 86 11.3125 " clip-rule="nonzero"/></clipPath><clipPath id="cb7461a4ee"><path d="M 92 15 L 103.394531 15 L 103.394531 26.945312 L 92 26.945312 Z M 92 15 " clip-rule="nonzero"/></clipPath></defs><g clip-path="url(#19dfa9b5f7)"><path fill="#ffffff" d="M 18.417969 11.34375 L 13.832031 19.296875 L 9.25 11.34375 L 5.40625 11.34375 L 5.40625 26.835938 L 9.234375 26.835938 L 9.234375 19.015625 L 12.421875 24.539062 L 12.996094 25.523438 L 14.671875 25.523438 L 15.394531 24.242188 L 18.417969 19.015625 L 18.417969 26.835938 L 22.246094 26.835938 L 22.246094 11.34375 Z M 18.417969 11.34375 " fill-opacity="1" fill-rule="nonzero"/></g><g clip-path="url(#b601f638a9)"><path fill="#ffffff" d="M 31.675781 21.21875 C 31.675781 20.050781 30.933594 19.179688 29.867188 19.179688 C 28.75 19.179688 27.996094 20.132812 27.996094 21.21875 C 27.996094 22.351562 28.75 23.253906 29.867188 23.253906 C 30.933594 23.253906 31.675781 22.386719 31.675781 21.21875 Z M 23.921875 21.25 C 23.921875 17.867188 26.238281 15.582031 28.585938 15.582031 C 30.210938 15.582031 31.246094 16.421875 31.855469 17.257812 L 32.234375 15.878906 L 35.667969 15.878906 L 35.667969 26.542969 L 32.234375 26.542969 L 31.855469 25.160156 C 31.246094 26.015625 30.210938 26.835938 28.585938 26.835938 C 26.238281 26.851562 23.921875 24.570312 23.921875 21.25 Z M 23.921875 21.25 " fill-opacity="1" fill-rule="nonzero"/></g><g clip-path="url(#11d93d9a34)"><path fill="#ffffff" d="M 45.621094 16.339844 L 45.621094 19.59375 C 44.867188 19.164062 43.488281 18.769531 42.320312 18.769531 C 41.648438 18.769531 41.285156 18.902344 41.285156 19.164062 C 41.285156 19.429688 41.664062 19.59375 42.699219 19.820312 C 44.539062 20.214844 46.378906 20.875 46.378906 23.191406 C 46.378906 25.425781 44.621094 26.835938 41.417969 26.835938 C 39.773438 26.835938 38.425781 26.460938 37.523438 25.964844 L 37.523438 22.484375 C 38.492188 23.125 39.660156 23.648438 41.234375 23.648438 C 42.023438 23.648438 42.484375 23.519531 42.484375 23.222656 C 42.484375 22.878906 41.910156 22.761719 40.628906 22.433594 C 38.984375 22.007812 37.390625 21.203125 37.390625 19.199219 C 37.390625 17.113281 39.101562 15.582031 42.125 15.582031 C 43.386719 15.582031 44.734375 15.863281 45.621094 16.339844 Z M 45.621094 16.339844 " fill-opacity="1" fill-rule="nonzero"/></g><g clip-path="url(#3a9f5f87d9)"><path fill="#ffffff" d="M 51.980469 16.699219 L 51.996094 16.699219 C 52.585938 16.078125 53.574219 15.566406 54.738281 15.566406 C 57.007812 15.566406 58.417969 16.949219 58.417969 19.347656 L 58.417969 26.507812 L 54.363281 26.507812 L 54.363281 20.398438 C 54.363281 19.527344 53.984375 19.148438 53.246094 19.148438 C 52.472656 19.148438 51.996094 19.65625 51.996094 20.332031 L 51.996094 26.492188 L 47.9375 26.492188 L 47.9375 11.3125 L 51.996094 11.3125 L 51.996094 16.699219 Z M 51.980469 16.699219 " fill-opacity="1" fill-rule="nonzero"/></g><g clip-path="url(#031f621ec0)"><path fill="#ffffff" d="M 67.554688 21.21875 C 67.554688 20.050781 66.816406 19.179688 65.746094 19.179688 C 64.628906 19.179688 63.875 20.132812 63.875 21.21875 C 63.875 22.351562 64.628906 23.253906 65.746094 23.253906 C 66.816406 23.253906 67.554688 22.386719 67.554688 21.21875 Z M 59.800781 21.25 C 59.800781 17.867188 62.117188 15.582031 64.464844 15.582031 C 66.09375 15.582031 67.125 16.421875 67.734375 17.257812 L 68.113281 15.878906 L 71.546875 15.878906 L 71.546875 26.542969 L 68.113281 26.542969 L 67.734375 25.160156 C 67.125 26.015625 66.09375 26.835938 64.464844 26.835938 C 62.117188 26.851562 59.800781 24.570312 59.800781 21.25 Z M 59.800781 21.25 " fill-opacity="1" fill-rule="nonzero"/></g><g clip-path="url(#8b4af1795c)"><path fill="#ffffff" d="M 77.574219 21.1875 C 77.574219 22.367188 78.316406 23.222656 79.382812 23.222656 C 80.484375 23.222656 81.238281 22.335938 81.238281 21.203125 C 81.238281 20.085938 80.484375 19.148438 79.367188 19.148438 C 78.296875 19.148438 77.574219 20.019531 77.574219 21.1875 Z M 77.609375 17.195312 C 78.214844 16.289062 79.464844 15.566406 80.777344 15.566406 C 83.226562 15.566406 85.3125 17.769531 85.3125 21.1875 C 85.3125 24.601562 83.046875 26.804688 80.597656 26.804688 C 79.054688 26.804688 77.984375 25.964844 77.394531 25.128906 L 77.015625 26.507812 L 73.582031 26.507812 L 73.582031 11.3125 L 77.625 11.3125 Z M 77.609375 17.195312 " fill-opacity="1" fill-rule="nonzero"/></g><g clip-path="url(#0f46e5c5c5)"><path fill="#ffffff" d="M 86.855469 11.3125 L 90.898438 11.3125 L 90.898438 26.507812 L 86.855469 26.507812 Z M 86.855469 11.3125 " fill-opacity="1" fill-rule="nonzero"/></g><g clip-path="url(#cb7461a4ee)"><path fill="#ffffff" d="M 99.277344 20.050781 C 99.261719 19.3125 98.769531 18.671875 97.898438 18.671875 C 97.109375 18.671875 96.453125 19.199219 96.171875 20.050781 Z M 102.988281 22.285156 L 96.320312 22.285156 C 96.828125 23.304688 97.996094 23.78125 99.261719 23.78125 C 100.410156 23.78125 101.429688 23.402344 102.367188 22.992188 L 102.367188 26.082031 C 101.265625 26.605469 100.03125 26.871094 98.6875 26.871094 C 94.613281 26.871094 92.394531 24.472656 92.394531 21.25 C 92.394531 17.917969 94.777344 15.601562 97.914062 15.601562 C 100.753906 15.601562 103.070312 17.488281 103.070312 21.070312 C 103.089844 21.464844 103.054688 21.875 102.988281 22.285156 Z M 102.988281 22.285156 " fill-opacity="1" fill-rule="nonzero"/></g></svg>