<svg xmlns="http://www.w3.org/2000/svg" xmlns:xlink="http://www.w3.org/1999/xlink" width="145" zoomAndPan="magnify" viewBox="0 0 108.75 33.749998" height="45" preserveAspectRatio="xMidYMid meet" version="1.0"><defs><clipPath id="c7ad55fde6"><path d="M 33 10 L 100.636719 10 L 100.636719 28 L 33 28 Z M 33 10 " clip-rule="nonzero"/></clipPath><clipPath id="1a54bed320"><path d="M 7.574219 5.257812 L 31 5.257812 L 31 28.339844 L 7.574219 28.339844 Z M 7.574219 5.257812 " clip-rule="nonzero"/></clipPath></defs><g clip-path="url(#c7ad55fde6)"><path fill="#ffffff" d="M 73.941406 14.234375 C 72.585938 14.234375 71.59375 14.71875 71.113281 15.601562 L 70.859375 16.085938 L 70.859375 14.460938 L 68.625 14.460938 L 68.625 24.292969 L 70.972656 24.292969 L 70.972656 18.453125 C 70.972656 17.054688 71.738281 16.257812 73.039062 16.257812 C 74.28125 16.257812 75.015625 17.027344 75.015625 18.394531 L 75.015625 24.292969 L 77.363281 24.292969 L 77.363281 17.96875 C 77.363281 15.628906 76.089844 14.234375 73.941406 14.234375 Z M 62.574219 14.234375 C 59.804688 14.234375 58.105469 15.972656 58.105469 18.765625 L 58.105469 20.132812 C 58.105469 22.839844 59.832031 24.492188 62.632812 24.492188 C 64.5 24.492188 65.796875 23.808594 66.617188 22.382812 L 65.175781 21.527344 C 64.554688 22.355469 63.59375 22.839844 62.632812 22.839844 C 61.21875 22.839844 60.371094 21.957031 60.371094 20.472656 L 60.371094 20.074219 L 66.902344 20.074219 L 66.902344 18.453125 C 66.902344 15.914062 65.203125 14.234375 62.574219 14.234375 Z M 64.78125 18.566406 L 60.371094 18.566406 L 60.371094 18.335938 C 60.371094 16.714844 61.160156 15.832031 62.574219 15.832031 C 63.960938 15.832031 64.78125 16.714844 64.78125 18.195312 Z M 100.636719 12.867188 L 100.636719 10.988281 L 92.519531 10.988281 L 92.519531 12.867188 L 95.375 12.867188 L 95.375 22.410156 L 92.519531 22.410156 L 92.519531 24.292969 L 100.636719 24.292969 L 100.636719 22.410156 L 97.78125 22.410156 L 97.78125 12.867188 Z M 39.132812 10.703125 C 35.515625 10.703125 33.25 12.980469 33.25 16.628906 L 33.25 18.621094 C 33.25 22.296875 35.515625 24.546875 39.132812 24.546875 C 42.753906 24.546875 45.015625 22.269531 45.015625 18.621094 L 45.015625 16.628906 C 45.015625 12.980469 42.753906 10.703125 39.132812 10.703125 Z M 42.582031 18.765625 C 42.582031 21.1875 41.339844 22.582031 39.132812 22.582031 C 36.925781 22.582031 35.683594 21.214844 35.683594 18.765625 L 35.683594 16.515625 C 35.683594 14.09375 36.957031 12.695312 39.132812 12.695312 C 41.3125 12.695312 42.582031 14.09375 42.582031 16.515625 Z M 52.394531 14.234375 C 51.152344 14.234375 50.105469 14.746094 49.539062 15.601562 L 49.285156 16 L 49.285156 14.460938 L 47.050781 14.460938 L 47.050781 27.652344 L 49.398438 27.652344 L 49.398438 22.894531 L 49.652344 23.265625 C 50.191406 24.0625 51.207031 24.519531 52.421875 24.519531 C 54.460938 24.519531 56.496094 23.179688 56.496094 20.21875 L 56.496094 18.535156 C 56.46875 16.398438 55.195312 14.234375 52.394531 14.234375 Z M 54.121094 20.105469 C 54.121094 21.699219 53.214844 22.667969 51.714844 22.667969 C 50.332031 22.667969 49.371094 21.640625 49.371094 20.132812 L 49.371094 18.652344 C 49.371094 17.140625 50.332031 16.085938 51.714844 16.085938 C 53.1875 16.085938 54.09375 17.054688 54.09375 18.652344 Z M 83.839844 10.988281 L 79.117188 24.292969 L 81.492188 24.292969 L 82.398438 21.441406 L 87.828125 21.441406 L 87.828125 21.472656 L 88.730469 24.292969 L 91.105469 24.292969 L 86.355469 10.988281 Z M 82.992188 19.5625 L 85.140625 12.839844 L 87.261719 19.5625 Z M 82.992188 19.5625 " fill-opacity="1" fill-rule="nonzero"/></g><g clip-path="url(#1a54bed320)"><path fill="#ffffff" d="M 28.671875 14.691406 C 29.179688 13.125 29.011719 11.386719 28.191406 9.960938 C 26.945312 7.765625 24.429688 6.65625 21.96875 7.167969 C 20.894531 5.945312 19.3125 5.261719 17.671875 5.261719 C 15.152344 5.261719 12.949219 6.882812 12.15625 9.277344 C 10.546875 9.621094 9.160156 10.617188 8.339844 12.070312 C 7.09375 14.261719 7.378906 17 9.046875 18.878906 C 8.539062 20.472656 8.734375 22.183594 9.554688 23.609375 C 10.800781 25.800781 13.316406 26.941406 15.777344 26.402344 C 16.878906 27.625 18.433594 28.339844 20.074219 28.339844 C 22.589844 28.339844 24.796875 26.714844 25.589844 24.320312 C 27.199219 23.980469 28.585938 22.980469 29.40625 21.527344 C 30.648438 19.335938 30.367188 16.570312 28.671875 14.691406 Z M 20.074219 26.828125 C 19.054688 26.828125 18.09375 26.484375 17.332031 25.832031 C 17.359375 25.800781 17.445312 25.773438 17.472656 25.746094 L 22.027344 23.09375 C 22.25 22.953125 22.394531 22.726562 22.394531 22.441406 L 22.394531 15.972656 L 24.316406 17.082031 C 24.34375 17.082031 24.34375 17.113281 24.34375 17.140625 L 24.34375 22.496094 C 24.371094 24.890625 22.449219 26.828125 20.074219 26.828125 Z M 10.855469 22.867188 C 10.347656 21.984375 10.175781 20.957031 10.347656 19.960938 C 10.375 19.988281 10.433594 20.019531 10.488281 20.046875 L 15.042969 22.695312 C 15.265625 22.839844 15.550781 22.839844 15.777344 22.695312 L 21.347656 19.449219 L 21.347656 21.699219 C 21.347656 21.726562 21.347656 21.757812 21.320312 21.757812 L 16.710938 24.433594 C 14.671875 25.632812 12.042969 24.917969 10.855469 22.867188 Z M 9.667969 12.839844 C 10.175781 11.957031 10.96875 11.300781 11.902344 10.929688 L 11.902344 16.398438 C 11.902344 16.65625 12.042969 16.914062 12.269531 17.054688 L 17.839844 20.304688 L 15.917969 21.414062 C 15.890625 21.414062 15.859375 21.441406 15.859375 21.414062 L 11.25 18.738281 C 9.160156 17.539062 8.480469 14.890625 9.667969 12.839844 Z M 25.503906 16.542969 L 19.933594 13.292969 L 21.855469 12.183594 C 21.882812 12.183594 21.914062 12.15625 21.914062 12.183594 L 26.523438 14.863281 C 28.585938 16.058594 29.265625 18.707031 28.078125 20.757812 C 27.566406 21.640625 26.777344 22.296875 25.84375 22.640625 L 25.84375 17.199219 C 25.871094 16.941406 25.730469 16.683594 25.503906 16.542969 Z M 27.398438 13.636719 C 27.371094 13.609375 27.3125 13.578125 27.257812 13.550781 L 22.703125 10.902344 C 22.476562 10.757812 22.195312 10.757812 21.96875 10.902344 L 16.398438 14.148438 L 16.398438 11.898438 C 16.398438 11.871094 16.398438 11.839844 16.425781 11.839844 L 21.035156 9.164062 C 23.101562 7.964844 25.703125 8.679688 26.890625 10.757812 C 27.398438 11.613281 27.566406 12.640625 27.398438 13.636719 Z M 15.351562 17.625 L 13.429688 16.515625 C 13.402344 16.515625 13.402344 16.484375 13.402344 16.457031 L 13.402344 11.101562 C 13.402344 8.707031 15.324219 6.769531 17.699219 6.769531 C 18.71875 6.769531 19.679688 7.113281 20.441406 7.765625 C 20.414062 7.796875 20.355469 7.824219 20.300781 7.851562 L 15.746094 10.503906 C 15.523438 10.644531 15.378906 10.871094 15.378906 11.15625 L 15.378906 17.625 Z M 16.398438 15.347656 L 18.886719 13.894531 L 21.375 15.347656 L 21.375 18.222656 L 18.886719 19.675781 L 16.398438 18.222656 Z M 16.398438 15.347656 " fill-opacity="1" fill-rule="nonzero"/></g></svg>