<svg xmlns="http://www.w3.org/2000/svg" xmlns:xlink="http://www.w3.org/1999/xlink" width="130" zoomAndPan="magnify" viewBox="0 0 97.5 37.5" height="50" preserveAspectRatio="xMidYMid meet" version="1.0"><defs><g/><clipPath id="e647b656a3"><path d="M 1.609375 3.699219 L 21.277344 3.699219 L 21.277344 31.675781 L 1.609375 31.675781 Z M 1.609375 3.699219 " clip-rule="nonzero"/></clipPath></defs><g clip-path="url(#e647b656a3)"><path fill="#24315e" d="M 14.523438 28.503906 C 11.074219 24.890625 17.09375 21.628906 15.28125 17.960938 C 15.339844 19.242188 14.8125 20.347656 13.527344 21.339844 C 10.082031 23.839844 9.496094 26.695312 11.777344 29.960938 C 12.066406 30.367188 12.417969 30.773438 12.769531 31.242188 C 13.820312 30.773438 14.871094 30.132812 15.75 29.492188 C 15.28125 29.203125 14.8125 28.851562 14.523438 28.503906 Z M 9.964844 29.433594 C 8.96875 27.277344 8.914062 25.296875 9.964844 23.433594 C 8.621094 24.601562 7.917969 26.171875 7.976562 28.152344 C 4.996094 25.824219 3.1875 22.269531 3.1875 18.308594 C 3.1875 15.105469 3.1875 11.902344 3.1875 8.640625 C 6.050781 8.40625 9.261719 7.765625 11.484375 5.902344 C 11.65625 6.078125 11.894531 6.25 12.125 6.425781 C 11.484375 7.007812 10.78125 7.535156 10.023438 7.882812 C 10.664062 8.464844 11.015625 9.222656 11.015625 10.097656 C 10.605469 9.457031 9.90625 8.929688 9.203125 8.699219 C 10.316406 10.269531 10.429688 11.4375 9.496094 12.132812 C 8.503906 12.835938 8.035156 13.476562 8.210938 14 L 4.824219 17.027344 C 6.050781 17.261719 7.042969 17.320312 7.917969 17.203125 C 5.992188 17.726562 5.230469 18.484375 5.699219 19.648438 C 5.992188 19.996094 6.632812 20.347656 7.453125 20.640625 C 8.09375 20.871094 8.503906 21.164062 8.621094 21.453125 C 7.453125 20.933594 6.574219 20.640625 5.992188 20.640625 C 5.113281 21.804688 5.464844 23.085938 7.160156 24.367188 C 7.800781 22.621094 9.730469 21.628906 11.484375 22.214844 C 12.066406 20.464844 11.484375 18.601562 10.023438 17.550781 C 11.015625 17.726562 12.359375 18.660156 13.003906 18.542969 C 13.644531 18.484375 14.171875 17.785156 14.695312 16.5625 C 15.105469 15.398438 13.761719 14.871094 14.8125 13.417969 C 14.523438 14.988281 17.558594 17.027344 16.332031 21.222656 C 15.574219 23.550781 13.292969 25.472656 15.457031 27.746094 C 15.863281 28.152344 16.273438 28.445312 16.683594 28.679688 C 17.441406 28.035156 18.144531 27.277344 18.726562 26.464844 C 18.261719 26.117188 17.910156 25.707031 17.675781 25.183594 C 16.742188 22.910156 18.609375 20.058594 17.265625 16.269531 C 16.332031 13.53125 14.988281 13.300781 15.863281 9.746094 C 17.210938 10.097656 18.609375 9.863281 19.78125 9.046875 C 19.78125 9.339844 19.78125 9.570312 19.78125 9.863281 C 19.605469 11.554688 18.671875 13.125 17.210938 14 C 20.304688 19.242188 17.96875 20.171875 18.609375 23.550781 C 18.785156 24.191406 19.078125 24.777344 19.488281 25.242188 C 20.714844 23.144531 21.355469 20.816406 21.300781 18.308594 L 21.300781 7.183594 C 20.773438 7.183594 20.304688 7.125 19.839844 7.125 C 19.195312 7.648438 18.4375 8.117188 17.675781 8.40625 C 17.265625 8.582031 16.800781 8.757812 16.273438 8.816406 C 16.566406 8.699219 16.859375 8.523438 17.148438 8.347656 C 17.734375 7.941406 18.261719 7.476562 18.726562 7.007812 C 17.910156 6.894531 17.210938 6.777344 16.507812 6.601562 C 16.101562 7.066406 15.574219 7.417969 15.046875 7.824219 C 14.347656 8.289062 13.585938 8.699219 12.828125 9.046875 C 13.003906 9.980469 12.59375 10.910156 11.832031 11.492188 C 12.300781 10.621094 12.359375 9.570312 11.949219 8.699219 C 12.652344 8.289062 13.355469 7.824219 13.9375 7.417969 C 14.464844 7.066406 14.929688 6.660156 15.398438 6.308594 C 13.644531 5.726562 12.300781 4.851562 11.484375 3.6875 C 9.847656 5.902344 6.515625 7.066406 1.609375 7.183594 L 1.609375 18.308594 C 1.609375 23.203125 4.179688 27.6875 8.269531 30.191406 C 9.261719 30.835938 10.316406 31.296875 11.484375 31.707031 C 10.839844 30.890625 10.375 30.132812 9.964844 29.433594 Z M 16.683594 12.195312 C 17.617188 12.019531 18.4375 11.492188 18.847656 10.621094 C 18.144531 10.96875 17.386719 11.085938 16.625 10.96875 C 16.507812 11.378906 16.507812 11.84375 16.683594 12.195312 Z M 12.535156 14.523438 C 11.425781 14.523438 10.082031 14.929688 8.503906 15.570312 L 9.847656 14.523438 C 9.671875 13.589844 10.140625 13.417969 10.839844 13.589844 C 11.542969 13.765625 12.125 14.117188 12.535156 14.523438 Z M 12.535156 14.523438 " fill-opacity="1" fill-rule="evenodd"/></g><g fill="#24315e" fill-opacity="1"><g transform="translate(24.768882, 21.080961)"><g><path d="M 9.21875 0 L 7.21875 0 L 6.5 -2.21875 L 2.8125 -2.21875 L 2.09375 0 L 0.140625 0 L 3.46875 -9.609375 L 5.90625 -9.609375 Z M 4.5625 -7.59375 L 3.328125 -3.8125 L 5.96875 -3.8125 L 4.734375 -7.59375 Z M 4.5625 -7.59375 "/></g></g></g><g fill="#24315e" fill-opacity="1"><g transform="translate(34.125991, 21.080961)"><g><path d="M 1.046875 0 L 1.046875 -7.25 L 2.796875 -7.25 L 2.796875 -6.265625 L 2.9375 -6.25 C 3.164062 -6.632812 3.4375 -6.921875 3.75 -7.109375 C 4.070312 -7.296875 4.484375 -7.390625 4.984375 -7.390625 C 5.523438 -7.390625 5.960938 -7.28125 6.296875 -7.0625 C 6.628906 -6.84375 6.875 -6.523438 7.03125 -6.109375 L 7.171875 -6.109375 C 7.390625 -6.546875 7.675781 -6.867188 8.03125 -7.078125 C 8.382812 -7.285156 8.820312 -7.390625 9.34375 -7.390625 C 10.84375 -7.390625 11.59375 -6.550781 11.59375 -4.875 L 11.59375 0 L 9.78125 0 L 9.78125 -4.640625 C 9.78125 -5.066406 9.695312 -5.375 9.53125 -5.5625 C 9.363281 -5.75 9.097656 -5.84375 8.734375 -5.84375 C 7.734375 -5.84375 7.234375 -5.175781 7.234375 -3.84375 L 7.234375 0 L 5.40625 0 L 5.40625 -4.640625 C 5.40625 -5.066406 5.320312 -5.375 5.15625 -5.5625 C 4.988281 -5.75 4.722656 -5.84375 4.359375 -5.84375 C 3.890625 -5.84375 3.519531 -5.6875 3.25 -5.375 C 2.988281 -5.0625 2.859375 -4.5625 2.859375 -3.875 L 2.859375 0 Z M 1.046875 0 "/></g></g></g><g fill="#24315e" fill-opacity="1"><g transform="translate(46.654664, 21.080961)"><g><path d="M 5.0625 0.140625 C 4.132812 0.140625 3.445312 -0.207031 3 -0.90625 L 2.859375 -0.875 L 2.859375 0 L 1.046875 0 L 1.046875 -10.15625 L 2.859375 -10.15625 L 2.859375 -6.390625 L 3 -6.359375 C 3.25 -6.710938 3.539062 -6.972656 3.875 -7.140625 C 4.21875 -7.304688 4.628906 -7.390625 5.109375 -7.390625 C 5.691406 -7.390625 6.203125 -7.25 6.640625 -6.96875 C 7.078125 -6.695312 7.414062 -6.28125 7.65625 -5.71875 C 7.90625 -5.15625 8.03125 -4.457031 8.03125 -3.625 C 8.03125 -2.800781 7.898438 -2.109375 7.640625 -1.546875 C 7.390625 -0.984375 7.039062 -0.5625 6.59375 -0.28125 C 6.15625 0 5.644531 0.140625 5.0625 0.140625 Z M 4.515625 -1.40625 C 5.046875 -1.40625 5.453125 -1.582031 5.734375 -1.9375 C 6.015625 -2.289062 6.15625 -2.851562 6.15625 -3.625 C 6.15625 -4.382812 6.015625 -4.941406 5.734375 -5.296875 C 5.453125 -5.660156 5.046875 -5.84375 4.515625 -5.84375 C 4.003906 -5.84375 3.597656 -5.65625 3.296875 -5.28125 C 2.992188 -4.914062 2.84375 -4.363281 2.84375 -3.625 C 2.84375 -2.875 2.992188 -2.316406 3.296875 -1.953125 C 3.597656 -1.585938 4.003906 -1.40625 4.515625 -1.40625 Z M 4.515625 -1.40625 "/></g></g></g><g fill="#24315e" fill-opacity="1"><g transform="translate(55.328868, 21.080961)"><g><path d="M 2.828125 0.140625 C 2.359375 0.140625 1.953125 0.0546875 1.609375 -0.109375 C 1.273438 -0.285156 1.015625 -0.535156 0.828125 -0.859375 C 0.640625 -1.191406 0.546875 -1.59375 0.546875 -2.0625 C 0.546875 -2.488281 0.640625 -2.847656 0.828125 -3.140625 C 1.015625 -3.429688 1.300781 -3.671875 1.6875 -3.859375 C 2.070312 -4.046875 2.570312 -4.191406 3.1875 -4.296875 C 3.625 -4.359375 3.953125 -4.429688 4.171875 -4.515625 C 4.398438 -4.597656 4.550781 -4.691406 4.625 -4.796875 C 4.707031 -4.898438 4.75 -5.035156 4.75 -5.203125 C 4.75 -5.429688 4.664062 -5.609375 4.5 -5.734375 C 4.34375 -5.859375 4.078125 -5.921875 3.703125 -5.921875 C 3.296875 -5.921875 2.910156 -5.828125 2.546875 -5.640625 C 2.191406 -5.460938 1.878906 -5.226562 1.609375 -4.9375 L 1.484375 -4.9375 L 0.71875 -6.09375 C 1.082031 -6.5 1.53125 -6.816406 2.0625 -7.046875 C 2.59375 -7.273438 3.171875 -7.390625 3.796875 -7.390625 C 4.753906 -7.390625 5.445312 -7.179688 5.875 -6.765625 C 6.300781 -6.359375 6.515625 -5.78125 6.515625 -5.03125 L 6.515625 -1.890625 C 6.515625 -1.566406 6.660156 -1.40625 6.953125 -1.40625 C 7.054688 -1.40625 7.160156 -1.425781 7.265625 -1.46875 L 7.359375 -1.4375 L 7.5 -0.171875 C 7.394531 -0.109375 7.253906 -0.0546875 7.078125 -0.015625 C 6.898438 0.0234375 6.703125 0.046875 6.484375 0.046875 C 6.046875 0.046875 5.707031 -0.0351562 5.46875 -0.203125 C 5.226562 -0.367188 5.054688 -0.628906 4.953125 -0.984375 L 4.8125 -0.984375 C 4.457031 -0.234375 3.796875 0.140625 2.828125 0.140625 Z M 3.40625 -1.21875 C 3.820312 -1.21875 4.15625 -1.359375 4.40625 -1.640625 C 4.65625 -1.921875 4.78125 -2.316406 4.78125 -2.828125 L 4.78125 -3.5625 L 4.65625 -3.59375 C 4.550781 -3.5 4.410156 -3.421875 4.234375 -3.359375 C 4.054688 -3.304688 3.800781 -3.25 3.46875 -3.1875 C 3.070312 -3.125 2.785156 -3.007812 2.609375 -2.84375 C 2.441406 -2.6875 2.359375 -2.460938 2.359375 -2.171875 C 2.359375 -1.859375 2.445312 -1.617188 2.625 -1.453125 C 2.8125 -1.296875 3.070312 -1.21875 3.40625 -1.21875 Z M 3.40625 -1.21875 "/></g></g></g><g fill="#24315e" fill-opacity="1"><g transform="translate(62.965582, 21.080961)"><g><path d="M 1.953125 -8.109375 C 1.617188 -8.109375 1.347656 -8.207031 1.140625 -8.40625 C 0.941406 -8.601562 0.84375 -8.863281 0.84375 -9.1875 C 0.84375 -9.5 0.941406 -9.753906 1.140625 -9.953125 C 1.347656 -10.148438 1.617188 -10.25 1.953125 -10.25 C 2.171875 -10.25 2.363281 -10.203125 2.53125 -10.109375 C 2.707031 -10.015625 2.84375 -9.882812 2.9375 -9.71875 C 3.03125 -9.5625 3.078125 -9.382812 3.078125 -9.1875 C 3.078125 -8.976562 3.03125 -8.789062 2.9375 -8.625 C 2.84375 -8.46875 2.707031 -8.34375 2.53125 -8.25 C 2.363281 -8.15625 2.171875 -8.109375 1.953125 -8.109375 Z M 1.046875 0 L 1.046875 -7.25 L 2.859375 -7.25 L 2.859375 0 Z M 1.046875 0 "/></g></g></g><g fill="#24315e" fill-opacity="1"><g transform="translate(66.866018, 21.080961)"><g><path d="M 1.046875 0 L 1.046875 -7.25 L 2.796875 -7.25 L 2.796875 -6.1875 L 2.9375 -6.15625 C 3.382812 -6.976562 4.113281 -7.390625 5.125 -7.390625 C 5.957031 -7.390625 6.566406 -7.160156 6.953125 -6.703125 C 7.347656 -6.242188 7.546875 -5.578125 7.546875 -4.703125 L 7.546875 0 L 5.734375 0 L 5.734375 -4.484375 C 5.734375 -4.960938 5.632812 -5.304688 5.4375 -5.515625 C 5.25 -5.734375 4.941406 -5.84375 4.515625 -5.84375 C 3.992188 -5.84375 3.585938 -5.671875 3.296875 -5.328125 C 3.003906 -4.992188 2.859375 -4.46875 2.859375 -3.75 L 2.859375 0 Z M 1.046875 0 "/></g></g></g><g fill="#24315e" fill-opacity="1"><g transform="translate(75.349795, 21.080961)"><g><path d="M 4.21875 0.140625 C 3.519531 0.140625 2.898438 -0.00390625 2.359375 -0.296875 C 1.828125 -0.585938 1.410156 -1.015625 1.109375 -1.578125 C 0.804688 -2.148438 0.65625 -2.832031 0.65625 -3.625 C 0.65625 -4.414062 0.804688 -5.09375 1.109375 -5.65625 C 1.410156 -6.226562 1.828125 -6.660156 2.359375 -6.953125 C 2.890625 -7.242188 3.5 -7.390625 4.1875 -7.390625 C 5.71875 -7.390625 6.695312 -6.832031 7.125 -5.71875 L 5.875 -4.828125 L 5.734375 -4.828125 C 5.585938 -5.171875 5.394531 -5.425781 5.15625 -5.59375 C 4.914062 -5.757812 4.59375 -5.84375 4.1875 -5.84375 C 3.664062 -5.84375 3.253906 -5.660156 2.953125 -5.296875 C 2.660156 -4.929688 2.515625 -4.375 2.515625 -3.625 C 2.515625 -2.875 2.664062 -2.316406 2.96875 -1.953125 C 3.269531 -1.585938 3.6875 -1.40625 4.21875 -1.40625 C 4.613281 -1.40625 4.945312 -1.507812 5.21875 -1.71875 C 5.5 -1.9375 5.695312 -2.242188 5.8125 -2.640625 L 5.953125 -2.65625 L 7.25 -1.9375 C 7.0625 -1.332031 6.71875 -0.832031 6.21875 -0.4375 C 5.726562 -0.0507812 5.0625 0.140625 4.21875 0.140625 Z M 4.21875 0.140625 "/></g></g></g><g fill="#24315e" fill-opacity="1"><g transform="translate(82.815783, 21.080961)"><g><path d="M 1.953125 -8.109375 C 1.617188 -8.109375 1.347656 -8.207031 1.140625 -8.40625 C 0.941406 -8.601562 0.84375 -8.863281 0.84375 -9.1875 C 0.84375 -9.5 0.941406 -9.753906 1.140625 -9.953125 C 1.347656 -10.148438 1.617188 -10.25 1.953125 -10.25 C 2.171875 -10.25 2.363281 -10.203125 2.53125 -10.109375 C 2.707031 -10.015625 2.84375 -9.882812 2.9375 -9.71875 C 3.03125 -9.5625 3.078125 -9.382812 3.078125 -9.1875 C 3.078125 -8.976562 3.03125 -8.789062 2.9375 -8.625 C 2.84375 -8.46875 2.707031 -8.34375 2.53125 -8.25 C 2.363281 -8.15625 2.171875 -8.109375 1.953125 -8.109375 Z M 1.046875 0 L 1.046875 -7.25 L 2.859375 -7.25 L 2.859375 0 Z M 1.046875 0 "/></g></g></g><g fill="#24315e" fill-opacity="1"><g transform="translate(86.716219, 21.080961)"><g><path d="M 1.046875 2.9375 L 1.046875 -7.25 L 2.859375 -7.25 L 2.859375 -6.296875 L 3 -6.265625 C 3.21875 -6.640625 3.503906 -6.921875 3.859375 -7.109375 C 4.222656 -7.296875 4.644531 -7.390625 5.125 -7.390625 C 5.707031 -7.390625 6.210938 -7.25 6.640625 -6.96875 C 7.078125 -6.695312 7.414062 -6.28125 7.65625 -5.71875 C 7.90625 -5.15625 8.03125 -4.457031 8.03125 -3.625 C 8.03125 -2.789062 7.898438 -2.09375 7.640625 -1.53125 C 7.390625 -0.976562 7.035156 -0.5625 6.578125 -0.28125 C 6.128906 0 5.601562 0.140625 5 0.140625 C 4.550781 0.140625 4.160156 0.0664062 3.828125 -0.078125 C 3.503906 -0.234375 3.226562 -0.472656 3 -0.796875 L 2.859375 -0.765625 L 2.859375 2.9375 Z M 4.5 -1.40625 C 5.039062 -1.40625 5.453125 -1.582031 5.734375 -1.9375 C 6.015625 -2.289062 6.15625 -2.851562 6.15625 -3.625 C 6.15625 -4.382812 6.015625 -4.941406 5.734375 -5.296875 C 5.453125 -5.660156 5.039062 -5.84375 4.5 -5.84375 C 3.988281 -5.84375 3.582031 -5.65625 3.28125 -5.28125 C 2.988281 -4.914062 2.84375 -4.363281 2.84375 -3.625 C 2.84375 -2.882812 2.988281 -2.328125 3.28125 -1.953125 C 3.582031 -1.585938 3.988281 -1.40625 4.5 -1.40625 Z M 4.5 -1.40625 "/></g></g></g><g fill="#24315e" fill-opacity="1"><g transform="translate(24.885748, 25.536037)"><g><path d="M 1.3125 0.046875 C 1.101562 0.046875 0.914062 0.0195312 0.75 -0.03125 C 0.59375 -0.0820312 0.460938 -0.148438 0.359375 -0.234375 C 0.253906 -0.316406 0.175781 -0.40625 0.125 -0.5 L 0.4375 -0.890625 L 0.484375 -0.890625 C 0.578125 -0.753906 0.691406 -0.648438 0.828125 -0.578125 C 0.960938 -0.503906 1.125 -0.46875 1.3125 -0.46875 C 1.457031 -0.46875 1.570312 -0.5 1.65625 -0.5625 C 1.738281 -0.625 1.78125 -0.710938 1.78125 -0.828125 C 1.78125 -0.898438 1.765625 -0.957031 1.734375 -1 C 1.710938 -1.050781 1.671875 -1.09375 1.609375 -1.125 C 1.546875 -1.15625 1.46875 -1.1875 1.375 -1.21875 L 1 -1.296875 C 0.726562 -1.359375 0.523438 -1.457031 0.390625 -1.59375 C 0.265625 -1.738281 0.203125 -1.925781 0.203125 -2.15625 C 0.203125 -2.320312 0.242188 -2.46875 0.328125 -2.59375 C 0.410156 -2.71875 0.53125 -2.8125 0.6875 -2.875 C 0.851562 -2.945312 1.046875 -2.984375 1.265625 -2.984375 C 1.492188 -2.984375 1.6875 -2.953125 1.84375 -2.890625 C 2.007812 -2.835938 2.148438 -2.75 2.265625 -2.625 L 1.96875 -2.234375 L 1.921875 -2.234375 C 1.835938 -2.316406 1.738281 -2.378906 1.625 -2.421875 C 1.519531 -2.460938 1.398438 -2.484375 1.265625 -2.484375 C 1.109375 -2.484375 0.988281 -2.457031 0.90625 -2.40625 C 0.820312 -2.351562 0.78125 -2.273438 0.78125 -2.171875 C 0.78125 -2.078125 0.804688 -2 0.859375 -1.9375 C 0.921875 -1.882812 1.023438 -1.847656 1.171875 -1.828125 L 1.5625 -1.734375 C 1.84375 -1.679688 2.046875 -1.582031 2.171875 -1.4375 C 2.304688 -1.289062 2.375 -1.101562 2.375 -0.875 C 2.375 -0.6875 2.332031 -0.523438 2.25 -0.390625 C 2.175781 -0.253906 2.054688 -0.144531 1.890625 -0.0625 C 1.734375 0.0078125 1.539062 0.046875 1.3125 0.046875 Z M 1.3125 0.046875 "/></g></g></g><g fill="#24315e" fill-opacity="1"><g transform="translate(28.873065, 25.536037)"><g><path d="M 1.296875 0.046875 C 1.078125 0.046875 0.882812 0.00390625 0.71875 -0.078125 C 0.5625 -0.171875 0.4375 -0.304688 0.34375 -0.484375 C 0.25 -0.660156 0.203125 -0.867188 0.203125 -1.109375 C 0.203125 -1.347656 0.25 -1.554688 0.34375 -1.734375 C 0.4375 -1.910156 0.5625 -2.039062 0.71875 -2.125 C 0.882812 -2.21875 1.070312 -2.265625 1.28125 -2.265625 C 1.75 -2.265625 2.050781 -2.09375 2.1875 -1.75 L 1.796875 -1.484375 L 1.765625 -1.484375 C 1.710938 -1.585938 1.648438 -1.664062 1.578125 -1.71875 C 1.503906 -1.769531 1.40625 -1.796875 1.28125 -1.796875 C 1.125 -1.796875 1 -1.738281 0.90625 -1.625 C 0.820312 -1.507812 0.78125 -1.335938 0.78125 -1.109375 C 0.78125 -0.878906 0.820312 -0.707031 0.90625 -0.59375 C 1 -0.488281 1.128906 -0.4375 1.296875 -0.4375 C 1.410156 -0.4375 1.507812 -0.46875 1.59375 -0.53125 C 1.6875 -0.59375 1.75 -0.6875 1.78125 -0.8125 L 1.828125 -0.8125 L 2.21875 -0.59375 C 2.164062 -0.40625 2.0625 -0.25 1.90625 -0.125 C 1.757812 -0.0078125 1.554688 0.046875 1.296875 0.046875 Z M 1.296875 0.046875 "/></g></g></g><g fill="#24315e" fill-opacity="1"><g transform="translate(32.621134, 25.536037)"><g><path d="M 0.3125 0 L 0.3125 -3.109375 L 0.875 -3.109375 L 0.875 -1.9375 L 0.921875 -1.921875 C 0.992188 -2.035156 1.082031 -2.117188 1.1875 -2.171875 C 1.300781 -2.234375 1.429688 -2.265625 1.578125 -2.265625 C 2.066406 -2.265625 2.3125 -1.988281 2.3125 -1.4375 L 2.3125 0 L 1.765625 0 L 1.765625 -1.359375 C 1.765625 -1.515625 1.734375 -1.625 1.671875 -1.6875 C 1.609375 -1.757812 1.515625 -1.796875 1.390625 -1.796875 C 1.234375 -1.796875 1.109375 -1.742188 1.015625 -1.640625 C 0.921875 -1.535156 0.875 -1.375 0.875 -1.15625 L 0.875 0 Z M 0.3125 0 "/></g></g></g><g fill="#24315e" fill-opacity="1"><g transform="translate(36.68083, 25.536037)"><g><path d="M 1.296875 0.046875 C 1.078125 0.046875 0.882812 0.00390625 0.71875 -0.078125 C 0.550781 -0.171875 0.421875 -0.304688 0.328125 -0.484375 C 0.242188 -0.660156 0.203125 -0.867188 0.203125 -1.109375 C 0.203125 -1.347656 0.242188 -1.554688 0.328125 -1.734375 C 0.421875 -1.910156 0.550781 -2.039062 0.71875 -2.125 C 0.882812 -2.21875 1.078125 -2.265625 1.296875 -2.265625 C 1.515625 -2.265625 1.703125 -2.21875 1.859375 -2.125 C 2.023438 -2.039062 2.15625 -1.910156 2.25 -1.734375 C 2.34375 -1.554688 2.390625 -1.347656 2.390625 -1.109375 C 2.390625 -0.867188 2.34375 -0.660156 2.25 -0.484375 C 2.15625 -0.304688 2.023438 -0.171875 1.859375 -0.078125 C 1.703125 0.00390625 1.515625 0.046875 1.296875 0.046875 Z M 1.296875 -0.4375 C 1.640625 -0.4375 1.8125 -0.660156 1.8125 -1.109375 C 1.8125 -1.347656 1.765625 -1.519531 1.671875 -1.625 C 1.585938 -1.738281 1.460938 -1.796875 1.296875 -1.796875 C 0.953125 -1.796875 0.78125 -1.566406 0.78125 -1.109375 C 0.78125 -0.660156 0.953125 -0.4375 1.296875 -0.4375 Z M 1.296875 -0.4375 "/></g></g></g><g fill="#24315e" fill-opacity="1"><g transform="translate(40.720422, 25.536037)"><g><path d="M 1.296875 0.046875 C 1.078125 0.046875 0.882812 0.00390625 0.71875 -0.078125 C 0.550781 -0.171875 0.421875 -0.304688 0.328125 -0.484375 C 0.242188 -0.660156 0.203125 -0.867188 0.203125 -1.109375 C 0.203125 -1.347656 0.242188 -1.554688 0.328125 -1.734375 C 0.421875 -1.910156 0.550781 -2.039062 0.71875 -2.125 C 0.882812 -2.21875 1.078125 -2.265625 1.296875 -2.265625 C 1.515625 -2.265625 1.703125 -2.21875 1.859375 -2.125 C 2.023438 -2.039062 2.15625 -1.910156 2.25 -1.734375 C 2.34375 -1.554688 2.390625 -1.347656 2.390625 -1.109375 C 2.390625 -0.867188 2.34375 -0.660156 2.25 -0.484375 C 2.15625 -0.304688 2.023438 -0.171875 1.859375 -0.078125 C 1.703125 0.00390625 1.515625 0.046875 1.296875 0.046875 Z M 1.296875 -0.4375 C 1.640625 -0.4375 1.8125 -0.660156 1.8125 -1.109375 C 1.8125 -1.347656 1.765625 -1.519531 1.671875 -1.625 C 1.585938 -1.738281 1.460938 -1.796875 1.296875 -1.796875 C 0.953125 -1.796875 0.78125 -1.566406 0.78125 -1.109375 C 0.78125 -0.660156 0.953125 -0.4375 1.296875 -0.4375 Z M 1.296875 -0.4375 "/></g></g></g><g fill="#24315e" fill-opacity="1"><g transform="translate(44.760013, 25.536037)"><g><path d="M 0.921875 0.046875 C 0.722656 0.046875 0.570312 -0.00390625 0.46875 -0.109375 C 0.363281 -0.222656 0.3125 -0.390625 0.3125 -0.609375 L 0.3125 -3.109375 L 0.859375 -3.109375 L 0.859375 -0.640625 C 0.859375 -0.503906 0.914062 -0.4375 1.03125 -0.4375 C 1.0625 -0.4375 1.097656 -0.441406 1.140625 -0.453125 L 1.171875 -0.4375 L 1.21875 -0.015625 C 1.1875 0.00390625 1.144531 0.0195312 1.09375 0.03125 C 1.039062 0.0390625 0.984375 0.046875 0.921875 0.046875 Z M 0.921875 0.046875 "/></g></g></g><g fill="#24315e" fill-opacity="1"><g transform="translate(47.496791, 25.536037)"><g/></g></g><g fill="#24315e" fill-opacity="1"><g transform="translate(49.929984, 25.536037)"><g><path d="M 1.296875 0.046875 C 1.078125 0.046875 0.882812 0.00390625 0.71875 -0.078125 C 0.550781 -0.171875 0.421875 -0.304688 0.328125 -0.484375 C 0.242188 -0.660156 0.203125 -0.867188 0.203125 -1.109375 C 0.203125 -1.347656 0.242188 -1.554688 0.328125 -1.734375 C 0.421875 -1.910156 0.550781 -2.039062 0.71875 -2.125 C 0.882812 -2.21875 1.078125 -2.265625 1.296875 -2.265625 C 1.515625 -2.265625 1.703125 -2.21875 1.859375 -2.125 C 2.023438 -2.039062 2.15625 -1.910156 2.25 -1.734375 C 2.34375 -1.554688 2.390625 -1.347656 2.390625 -1.109375 C 2.390625 -0.867188 2.34375 -0.660156 2.25 -0.484375 C 2.15625 -0.304688 2.023438 -0.171875 1.859375 -0.078125 C 1.703125 0.00390625 1.515625 0.046875 1.296875 0.046875 Z M 1.296875 -0.4375 C 1.640625 -0.4375 1.8125 -0.660156 1.8125 -1.109375 C 1.8125 -1.347656 1.765625 -1.519531 1.671875 -1.625 C 1.585938 -1.738281 1.460938 -1.796875 1.296875 -1.796875 C 0.953125 -1.796875 0.78125 -1.566406 0.78125 -1.109375 C 0.78125 -0.660156 0.953125 -0.4375 1.296875 -0.4375 Z M 1.296875 -0.4375 "/></g></g></g><g fill="#24315e" fill-opacity="1"><g transform="translate(53.969575, 25.536037)"><g><path d="M 0.390625 0 L 0.390625 -1.78125 L 0.078125 -1.78125 L 0.078125 -2.21875 L 0.390625 -2.21875 C 0.367188 -2.3125 0.359375 -2.398438 0.359375 -2.484375 C 0.359375 -2.628906 0.390625 -2.75 0.453125 -2.84375 C 0.515625 -2.945312 0.601562 -3.023438 0.71875 -3.078125 C 0.84375 -3.128906 0.988281 -3.15625 1.15625 -3.15625 C 1.40625 -3.15625 1.585938 -3.113281 1.703125 -3.03125 L 1.578125 -2.625 L 1.53125 -2.609375 C 1.445312 -2.671875 1.34375 -2.703125 1.21875 -2.703125 C 1.113281 -2.703125 1.035156 -2.675781 0.984375 -2.625 C 0.941406 -2.570312 0.921875 -2.503906 0.921875 -2.421875 C 0.921875 -2.390625 0.921875 -2.359375 0.921875 -2.328125 C 0.921875 -2.296875 0.929688 -2.257812 0.953125 -2.21875 L 1.578125 -2.21875 L 1.578125 -1.78125 L 0.953125 -1.78125 L 0.953125 0 Z M 0.390625 0 "/></g></g></g><g fill="#24315e" fill-opacity="1"><g transform="translate(57.032056, 25.536037)"><g/></g></g><g fill="#24315e" fill-opacity="1"><g transform="translate(59.465249, 25.536037)"><g><path d="M 1.3125 0.046875 C 1.101562 0.046875 0.914062 0.0195312 0.75 -0.03125 C 0.59375 -0.0820312 0.460938 -0.148438 0.359375 -0.234375 C 0.253906 -0.316406 0.175781 -0.40625 0.125 -0.5 L 0.4375 -0.890625 L 0.484375 -0.890625 C 0.578125 -0.753906 0.691406 -0.648438 0.828125 -0.578125 C 0.960938 -0.503906 1.125 -0.46875 1.3125 -0.46875 C 1.457031 -0.46875 1.570312 -0.5 1.65625 -0.5625 C 1.738281 -0.625 1.78125 -0.710938 1.78125 -0.828125 C 1.78125 -0.898438 1.765625 -0.957031 1.734375 -1 C 1.710938 -1.050781 1.671875 -1.09375 1.609375 -1.125 C 1.546875 -1.15625 1.46875 -1.1875 1.375 -1.21875 L 1 -1.296875 C 0.726562 -1.359375 0.523438 -1.457031 0.390625 -1.59375 C 0.265625 -1.738281 0.203125 -1.925781 0.203125 -2.15625 C 0.203125 -2.320312 0.242188 -2.46875 0.328125 -2.59375 C 0.410156 -2.71875 0.53125 -2.8125 0.6875 -2.875 C 0.851562 -2.945312 1.046875 -2.984375 1.265625 -2.984375 C 1.492188 -2.984375 1.6875 -2.953125 1.84375 -2.890625 C 2.007812 -2.835938 2.148438 -2.75 2.265625 -2.625 L 1.96875 -2.234375 L 1.921875 -2.234375 C 1.835938 -2.316406 1.738281 -2.378906 1.625 -2.421875 C 1.519531 -2.460938 1.398438 -2.484375 1.265625 -2.484375 C 1.109375 -2.484375 0.988281 -2.457031 0.90625 -2.40625 C 0.820312 -2.351562 0.78125 -2.273438 0.78125 -2.171875 C 0.78125 -2.078125 0.804688 -2 0.859375 -1.9375 C 0.921875 -1.882812 1.023438 -1.847656 1.171875 -1.828125 L 1.5625 -1.734375 C 1.84375 -1.679688 2.046875 -1.582031 2.171875 -1.4375 C 2.304688 -1.289062 2.375 -1.101562 2.375 -0.875 C 2.375 -0.6875 2.332031 -0.523438 2.25 -0.390625 C 2.175781 -0.253906 2.054688 -0.144531 1.890625 -0.0625 C 1.734375 0.0078125 1.539062 0.046875 1.3125 0.046875 Z M 1.3125 0.046875 "/></g></g></g><g fill="#24315e" fill-opacity="1"><g transform="translate(63.452566, 25.536037)"><g><path d="M 1.53125 -0.53125 L 1.671875 -0.109375 C 1.617188 -0.0664062 1.546875 -0.03125 1.453125 0 C 1.359375 0.03125 1.253906 0.046875 1.140625 0.046875 C 0.898438 0.046875 0.71875 -0.015625 0.59375 -0.140625 C 0.46875 -0.273438 0.40625 -0.46875 0.40625 -0.71875 L 0.40625 -1.78125 L 0.0625 -1.78125 L 0.0625 -2.21875 L 0.40625 -2.21875 L 0.40625 -2.65625 L 0.96875 -2.75 L 0.96875 -2.21875 L 1.59375 -2.21875 L 1.59375 -1.78125 L 0.96875 -1.78125 L 0.96875 -0.765625 C 0.96875 -0.648438 0.988281 -0.566406 1.03125 -0.515625 C 1.070312 -0.472656 1.140625 -0.453125 1.234375 -0.453125 C 1.328125 -0.453125 1.410156 -0.476562 1.484375 -0.53125 Z M 1.53125 -0.53125 "/></g></g></g><g fill="#24315e" fill-opacity="1"><g transform="translate(66.637691, 25.536037)"><g><path d="M 0.859375 0.046875 C 0.722656 0.046875 0.601562 0.0195312 0.5 -0.03125 C 0.394531 -0.0820312 0.3125 -0.160156 0.25 -0.265625 C 0.195312 -0.367188 0.171875 -0.488281 0.171875 -0.625 C 0.171875 -0.757812 0.195312 -0.867188 0.25 -0.953125 C 0.3125 -1.046875 0.398438 -1.117188 0.515625 -1.171875 C 0.628906 -1.234375 0.785156 -1.28125 0.984375 -1.3125 C 1.109375 -1.332031 1.207031 -1.351562 1.28125 -1.375 C 1.351562 -1.40625 1.398438 -1.4375 1.421875 -1.46875 C 1.441406 -1.5 1.453125 -1.539062 1.453125 -1.59375 C 1.453125 -1.664062 1.425781 -1.71875 1.375 -1.75 C 1.332031 -1.789062 1.253906 -1.8125 1.140625 -1.8125 C 1.015625 -1.8125 0.894531 -1.785156 0.78125 -1.734375 C 0.664062 -1.679688 0.570312 -1.609375 0.5 -1.515625 L 0.453125 -1.515625 L 0.21875 -1.859375 C 0.332031 -1.984375 0.46875 -2.082031 0.625 -2.15625 C 0.789062 -2.226562 0.972656 -2.265625 1.171875 -2.265625 C 1.460938 -2.265625 1.671875 -2.203125 1.796875 -2.078125 C 1.929688 -1.953125 2 -1.773438 2 -1.546875 L 2 -0.578125 C 2 -0.484375 2.039062 -0.4375 2.125 -0.4375 C 2.164062 -0.4375 2.203125 -0.441406 2.234375 -0.453125 L 2.265625 -0.4375 L 2.296875 -0.046875 C 2.265625 -0.0234375 2.222656 -0.0078125 2.171875 0 C 2.117188 0.0078125 2.054688 0.015625 1.984375 0.015625 C 1.847656 0.015625 1.742188 -0.0078125 1.671875 -0.0625 C 1.597656 -0.113281 1.546875 -0.191406 1.515625 -0.296875 L 1.46875 -0.296875 C 1.363281 -0.0664062 1.160156 0.046875 0.859375 0.046875 Z M 1.046875 -0.375 C 1.171875 -0.375 1.269531 -0.414062 1.34375 -0.5 C 1.425781 -0.59375 1.46875 -0.710938 1.46875 -0.859375 L 1.46875 -1.09375 L 1.4375 -1.09375 C 1.394531 -1.070312 1.347656 -1.050781 1.296875 -1.03125 C 1.242188 -1.007812 1.164062 -0.992188 1.0625 -0.984375 C 0.9375 -0.960938 0.847656 -0.925781 0.796875 -0.875 C 0.742188 -0.820312 0.71875 -0.753906 0.71875 -0.671875 C 0.71875 -0.578125 0.742188 -0.503906 0.796875 -0.453125 C 0.859375 -0.398438 0.941406 -0.375 1.046875 -0.375 Z M 1.046875 -0.375 "/></g></g></g><g fill="#24315e" fill-opacity="1"><g transform="translate(70.438032, 25.536037)"><g><path d="M 0.3125 0 L 0.3125 -2.21875 L 0.859375 -2.21875 L 0.859375 -1.890625 L 0.90625 -1.890625 C 0.957031 -2.003906 1.023438 -2.085938 1.109375 -2.140625 C 1.203125 -2.203125 1.3125 -2.234375 1.4375 -2.234375 C 1.5625 -2.234375 1.65625 -2.210938 1.71875 -2.171875 L 1.625 -1.703125 L 1.578125 -1.6875 C 1.546875 -1.695312 1.515625 -1.707031 1.484375 -1.71875 C 1.453125 -1.726562 1.410156 -1.734375 1.359375 -1.734375 C 1.203125 -1.734375 1.082031 -1.675781 1 -1.5625 C 0.914062 -1.457031 0.875 -1.285156 0.875 -1.046875 L 0.875 0 Z M 0.3125 0 "/></g></g></g><g fill="#24315e" fill-opacity="1"><g transform="translate(73.639241, 25.536037)"><g><path d="M 1.53125 -0.53125 L 1.671875 -0.109375 C 1.617188 -0.0664062 1.546875 -0.03125 1.453125 0 C 1.359375 0.03125 1.253906 0.046875 1.140625 0.046875 C 0.898438 0.046875 0.71875 -0.015625 0.59375 -0.140625 C 0.46875 -0.273438 0.40625 -0.46875 0.40625 -0.71875 L 0.40625 -1.78125 L 0.0625 -1.78125 L 0.0625 -2.21875 L 0.40625 -2.21875 L 0.40625 -2.65625 L 0.96875 -2.75 L 0.96875 -2.21875 L 1.59375 -2.21875 L 1.59375 -1.78125 L 0.96875 -1.78125 L 0.96875 -0.765625 C 0.96875 -0.648438 0.988281 -0.566406 1.03125 -0.515625 C 1.070312 -0.472656 1.140625 -0.453125 1.234375 -0.453125 C 1.328125 -0.453125 1.410156 -0.476562 1.484375 -0.53125 Z M 1.53125 -0.53125 "/></g></g></g><g fill="#24315e" fill-opacity="1"><g transform="translate(76.824366, 25.536037)"><g><path d="M 1.015625 0.046875 C 0.765625 0.046875 0.578125 -0.0195312 0.453125 -0.15625 C 0.335938 -0.289062 0.28125 -0.488281 0.28125 -0.75 L 0.28125 -2.21875 L 0.84375 -2.21875 L 0.84375 -0.8125 C 0.84375 -0.675781 0.867188 -0.578125 0.921875 -0.515625 C 0.984375 -0.453125 1.078125 -0.421875 1.203125 -0.421875 C 1.359375 -0.421875 1.476562 -0.472656 1.5625 -0.578125 C 1.644531 -0.679688 1.6875 -0.84375 1.6875 -1.0625 L 1.6875 -2.21875 L 2.25 -2.21875 L 2.25 0 L 1.71875 0 L 1.71875 -0.328125 L 1.671875 -0.34375 C 1.597656 -0.207031 1.507812 -0.109375 1.40625 -0.046875 C 1.300781 0.015625 1.171875 0.046875 1.015625 0.046875 Z M 1.015625 0.046875 "/></g></g></g><g fill="#24315e" fill-opacity="1"><g transform="translate(80.851893, 25.536037)"><g><path d="M 0.3125 0.90625 L 0.3125 -2.21875 L 0.875 -2.21875 L 0.875 -1.9375 L 0.921875 -1.921875 C 0.984375 -2.035156 1.066406 -2.117188 1.171875 -2.171875 C 1.285156 -2.234375 1.421875 -2.265625 1.578125 -2.265625 C 1.753906 -2.265625 1.90625 -2.222656 2.03125 -2.140625 C 2.164062 -2.054688 2.269531 -1.925781 2.34375 -1.75 C 2.425781 -1.582031 2.46875 -1.367188 2.46875 -1.109375 C 2.46875 -0.859375 2.425781 -0.644531 2.34375 -0.46875 C 2.269531 -0.300781 2.160156 -0.171875 2.015625 -0.078125 C 1.878906 0.00390625 1.71875 0.046875 1.53125 0.046875 C 1.394531 0.046875 1.273438 0.0234375 1.171875 -0.015625 C 1.078125 -0.0664062 0.992188 -0.144531 0.921875 -0.25 L 0.875 -0.234375 L 0.875 0.90625 Z M 1.375 -0.4375 C 1.539062 -0.4375 1.664062 -0.488281 1.75 -0.59375 C 1.84375 -0.695312 1.890625 -0.867188 1.890625 -1.109375 C 1.890625 -1.347656 1.84375 -1.519531 1.75 -1.625 C 1.664062 -1.738281 1.539062 -1.796875 1.375 -1.796875 C 1.21875 -1.796875 1.09375 -1.738281 1 -1.625 C 0.914062 -1.507812 0.875 -1.335938 0.875 -1.109375 C 0.875 -0.878906 0.914062 -0.707031 1 -0.59375 C 1.09375 -0.488281 1.21875 -0.4375 1.375 -0.4375 Z M 1.375 -0.4375 "/></g></g></g><g fill="#24315e" fill-opacity="1"><g transform="translate(84.969895, 25.536037)"><g><path d="M 1.046875 0.046875 C 0.890625 0.046875 0.75 0.03125 0.625 0 C 0.5 -0.0390625 0.390625 -0.09375 0.296875 -0.15625 C 0.210938 -0.21875 0.144531 -0.289062 0.09375 -0.375 L 0.40625 -0.703125 L 0.453125 -0.703125 C 0.523438 -0.609375 0.609375 -0.535156 0.703125 -0.484375 C 0.804688 -0.429688 0.921875 -0.40625 1.046875 -0.40625 C 1.148438 -0.40625 1.226562 -0.425781 1.28125 -0.46875 C 1.34375 -0.507812 1.375 -0.566406 1.375 -0.640625 C 1.375 -0.691406 1.351562 -0.734375 1.3125 -0.765625 C 1.269531 -0.804688 1.207031 -0.835938 1.125 -0.859375 L 0.828125 -0.9375 C 0.609375 -0.988281 0.445312 -1.066406 0.34375 -1.171875 C 0.238281 -1.285156 0.1875 -1.425781 0.1875 -1.59375 C 0.1875 -1.726562 0.222656 -1.847656 0.296875 -1.953125 C 0.367188 -2.054688 0.46875 -2.132812 0.59375 -2.1875 C 0.71875 -2.238281 0.867188 -2.265625 1.046875 -2.265625 C 1.242188 -2.265625 1.40625 -2.234375 1.53125 -2.171875 C 1.664062 -2.117188 1.769531 -2.046875 1.84375 -1.953125 L 1.546875 -1.625 L 1.515625 -1.625 C 1.453125 -1.695312 1.378906 -1.75 1.296875 -1.78125 C 1.222656 -1.8125 1.140625 -1.828125 1.046875 -1.828125 C 0.828125 -1.828125 0.71875 -1.757812 0.71875 -1.625 C 0.71875 -1.5625 0.734375 -1.507812 0.765625 -1.46875 C 0.804688 -1.4375 0.878906 -1.410156 0.984375 -1.390625 L 1.265625 -1.328125 C 1.492188 -1.273438 1.660156 -1.195312 1.765625 -1.09375 C 1.867188 -0.988281 1.921875 -0.847656 1.921875 -0.671875 C 1.921875 -0.523438 1.882812 -0.398438 1.8125 -0.296875 C 1.738281 -0.191406 1.632812 -0.109375 1.5 -0.046875 C 1.375 0.015625 1.222656 0.046875 1.046875 0.046875 Z M 1.046875 0.046875 "/></g></g></g></svg>